<svg xmlns="http://www.w3.org/2000/svg" width="251" height="229" fill="none">
  <g fill="#5F0A61">
    <path d="M11.009 25.66c1.986.797 6.843.7 6.849.7.005 0-1.06-2.934-1.134-3.115-1.07-2.058-4.444-5.44-7.172-5.118-.455.066-.89.22-1.276.453a3.163 3.163 0 0 0-.965.895 2.89 2.89 0 0 0-.486 1.18 2.8 2.8 0 0 0 .079 1.26c.46 1.756 2.41 3.06 4.105 3.745ZM60.164 26.643c.042 0 .884-2.978.916-3.173.34-2.264-.44-6.815-2.934-7.925a3.515 3.515 0 0 0-2.669-.008c-.42.172-.798.423-1.106.738a2.982 2.982 0 0 0-.685 1.089c-.668 1.696.18 3.779 1.186 5.206 1.176 1.682 5.292 4.073 5.292 4.073Z"/>
    <path d="M74.672 10.388c-2.754-.274-6.023 3.212-7.03 5.294-.09.181-1.096 3.144-1.058 3.144h.058c-.53.543-1.06 1.134-1.663 1.794-1.06 1.217-2.283 2.606-3.48 4.2a52.538 52.538 0 0 0-3.613 5.309 37.484 37.484 0 0 0-3.083 6.409v.078c0-.748 0-2.84-.042-3.002-.318-2.263-2.373-6.463-5.096-6.927a3.546 3.546 0 0 0-1.368.066c-.445.11-.861.307-1.22.576-.357.269-.65.604-.857.985-.208.38-.326.797-.347 1.223-.16 1.8 1.255 3.598 2.648 4.732 1.552 1.281 5.864 2.523 6.208 2.616a50.351 50.351 0 0 0-1.822 6.947 87.112 87.112 0 0 0-.689 4.14c0-.65 0-1.227-.037-1.305-.317-2.263-2.373-6.468-5.095-6.932a3.544 3.544 0 0 0-1.362.07 3.386 3.386 0 0 0-1.213.576 3.083 3.083 0 0 0-.854.982 2.846 2.846 0 0 0-.348 1.217c-.159 1.8 1.25 3.598 2.649 4.733 1.398 1.134 5.016 2.268 5.97 2.561-.07.533-.15 1.066-.218 1.599-.334 2.566-.652 5.128-1.06 7.631-.137.88-.312 1.745-.481 2.61 0-.576 0-1.06-.032-1.134-.318-2.263-2.373-6.462-5.096-6.927a3.533 3.533 0 0 0-1.363.067c-.445.11-.859.307-1.215.576a3.074 3.074 0 0 0-.854.983c-.207.38-.324.795-.345 1.22-.164 1.793 1.25 3.597 2.649 4.732 1.398 1.134 4.698 2.165 5.827 2.508a53.11 53.11 0 0 1-.641 2.61c-.175.572-.308 1.14-.53 1.706-.223.567-.392 1.125-.588 1.677-.413 1.056-.837 2.146-1.271 3.168-.297.714-.593 1.383-.885 2.063.148-.875.403-2.596.408-2.742a11.055 11.055 0 0 0-1.71-5.715 3.159 3.159 0 0 0-.043-.67 2.876 2.876 0 0 0-.447-1.18 3.14 3.14 0 0 0-.925-.914 3.428 3.428 0 0 0-1.246-.49 3.547 3.547 0 0 0-1.355.017c-2.648.655-4.37 4.992-4.497 7.27 0 .137.09 1.603.164 2.527-.132-.538-.26-1.06-.402-1.613-.281-1.09-.599-2.175-.933-3.339l-.53-1.692c-.174-.567-.434-1.144-.645-1.725a61.553 61.553 0 0 0-1.78-3.994c1.033-.23 4.698-1.09 6.17-2.132 1.473-1.041 3.02-2.737 3.004-4.541a2.82 2.82 0 0 0-.248-1.239 3.027 3.027 0 0 0-.773-1.038 3.332 3.332 0 0 0-1.164-.657 3.528 3.528 0 0 0-1.353-.161c-2.755.274-5.144 4.322-5.642 6.56-.031.138-.195 1.78-.264 2.68-.392-.792-.779-1.59-1.208-2.381-1.229-2.288-2.553-4.566-3.861-6.844-.403-.7-.79-1.399-1.187-2.098.37-.078 4.767-1.016 6.399-2.185 1.467-1.036 3.019-2.733 3.008-4.537a2.827 2.827 0 0 0-.25-1.239 3.037 3.037 0 0 0-.774-1.039 3.342 3.342 0 0 0-1.165-.657 3.54 3.54 0 0 0-1.354-.164c-2.75.279-5.138 4.327-5.642 6.56-.037.167-.264 2.528-.29 3.134a61.802 61.802 0 0 1-2.496-4.63 50.977 50.977 0 0 1-2.701-6.443c.175-.034 4.767-.977 6.44-2.19 1.463-1.041 3.02-2.738 3.004-4.541a2.823 2.823 0 0 0-.25-1.244 3.032 3.032 0 0 0-.781-1.04 3.34 3.34 0 0 0-1.173-.656c-.436-.14-.9-.192-1.36-.155-2.755.274-5.144 4.322-5.642 6.556-.032.147-.212 1.955-.275 2.806h-.159a36.59 36.59 0 0 1-1.409-6.844 43.081 43.081 0 0 1-.265-3.681c.864-.06 4.868-.548 6.515-1.472 1.648-.924 3.353-2.415 3.528-4.21.06-.419.024-.845-.105-1.251a2.963 2.963 0 0 0-.647-1.105 3.26 3.26 0 0 0-1.078-.768 3.503 3.503 0 0 0-1.322-.297c-2.77 0-5.625 3.779-6.388 5.95-.037.117-.317 1.358-.53 2.268 0-.538-.031-1.09-.031-1.609 0-1.93.138-3.7.27-5.265.08-.89.175-1.696.27-2.444.805-.49 4.005-2.596 4.99-4.087.985-1.491 1.748-3.554 1.06-5.231a2.992 2.992 0 0 0-.715-1.075 3.296 3.296 0 0 0-1.128-.712 3.516 3.516 0 0 0-2.67.076c-2.459 1.173-3.11 5.74-2.702 7.993.037.196.964 3.178 1.006 3.153a.228.228 0 0 0 .048-.034 84.992 84.992 0 0 0-.313 2.347c-.17 1.564-.344 3.334-.391 5.274a49.855 49.855 0 0 0 .164 6.268 36.572 36.572 0 0 0 1.255 6.912.48.48 0 0 1 0 .084c-.408-.646-1.69-2.376-1.812-2.513-1.589-1.726-5.826-4.18-8.39-3.183a3.274 3.274 0 0 0-1.095.752 2.972 2.972 0 0 0-.668 1.098c-.137.405-.18.833-.126 1.254.054.422.203.828.438 1.193.943 1.58 3.178 2.362 5.021 2.606 2.066.279 6.399-.88 6.743-.978a51.79 51.79 0 0 0 2.649 6.722 98.39 98.39 0 0 0 1.901 3.804 23.266 23.266 0 0 0-.81-1.071c-1.616-1.73-5.827-4.185-8.39-3.187a3.272 3.272 0 0 0-1.095.752 2.972 2.972 0 0 0-.669 1.098c-.137.405-.18.832-.126 1.254.054.421.203.828.438 1.193.943 1.584 3.178 2.361 5.022 2.61 1.843.25 5.572-.674 6.557-.928.26.488.53.977.774 1.466 1.255 2.308 2.52 4.605 3.707 6.893.408.807.784 1.618 1.16 2.445-.355-.49-.656-.87-.704-.93-1.62-1.725-5.827-4.18-8.396-3.182a3.274 3.274 0 0 0-1.095.752 2.973 2.973 0 0 0-.668 1.098c-.137.406-.18.833-.126 1.254.054.422.203.828.438 1.193.943 1.58 3.178 2.362 5.027 2.606 1.848.244 5.207-.582 6.356-.88.355.836.715 1.677 1.022 2.503.196.567.424 1.1.588 1.682.164.581.345 1.139.53 1.701.286 1.095.583 2.22.832 3.29.18.743.333 1.467.492 2.17-.397-.806-1.218-2.37-1.303-2.493-1.313-1.93-5.085-4.952-7.77-4.321-.44.118-.849.321-1.199.595-.35.273-.634.611-.834.992a2.82 2.82 0 0 0-.086 2.456c.673 1.696 2.77 2.781 4.54 3.28 1.943.553 6.244.05 6.785 0 .26 1.183.498 2.342.704 3.422.715 3.76 1.16 6.918 1.44 9.147h1.876v-.152a148.35 148.35 0 0 0-1.684-9.288 121.91 121.91 0 0 0-.88-3.808 36.243 36.243 0 0 0 3.788-1.643c1.414 1.418 5.047 3.075 5.519 3.285-.498 1.125-.99 2.21-1.473 3.227-1.647 3.5-3.178 6.355-4.237 8.364h2.06c1.017-1.984 2.32-4.63 3.708-7.773.53-1.139 1.022-2.36 1.541-3.622.53.098 4.768.9 6.77.489 1.8-.377 3.983-1.315 4.767-2.963a2.81 2.81 0 0 0 .108-2.46 3.012 3.012 0 0 0-.759-1.046 3.319 3.319 0 0 0-1.155-.669c-2.649-.816-6.632 1.956-8.1 3.77-.09.112-.884 1.383-1.376 2.194.212-.518.418-1.016.625-1.554.423-1.051.805-2.117 1.223-3.256l.53-1.692c.196-.562.323-1.178.493-1.77.355-1.383.646-2.8.9-4.238 1.001.337 4.571 1.467 6.425 1.364 1.854-.103 4.153-.743 5.218-2.254.266-.348.45-.744.54-1.162a2.8 2.8 0 0 0-.024-1.265 2.928 2.928 0 0 0-.58-1.146 3.218 3.218 0 0 0-1.038-.826c-2.458-1.174-6.886.977-8.623 2.596-.112.102-1.23 1.388-1.828 2.102.148-.86.302-1.721.419-2.601.339-2.532.598-5.109.868-7.675.085-.788.18-1.57.265-2.352.355.122 4.571 1.57 6.642 1.437 1.844-.122 4.153-.743 5.223-2.258.267-.348.452-.745.541-1.163.09-.419.082-.85-.022-1.265a2.922 2.922 0 0 0-.581-1.146 3.216 3.216 0 0 0-1.04-.826c-2.463-1.173-6.886.978-8.623 2.596-.132.122-1.737 1.955-2.119 2.444.202-1.73.413-3.422.7-5.133.37-2.28.902-4.535 1.588-6.751.165.058 4.556 1.589 6.675 1.466 1.843-.117 4.152-.743 5.222-2.253a2.91 2.91 0 0 0 .54-1.163 2.8 2.8 0 0 0-.023-1.265 2.928 2.928 0 0 0-.58-1.146 3.218 3.218 0 0 0-1.038-.826c-2.464-1.173-6.886.977-8.624 2.596-.116.107-1.34 1.515-1.907 2.2l-.137-.069a37.11 37.11 0 0 1 2.85-6.37 45.057 45.057 0 0 1 1.98-3.202c.784.362 4.397 1.956 6.32 2.053 1.922.098 4.237-.322 5.46-1.716.304-.318.531-.693.668-1.098.136-.405.179-.832.125-1.253a2.872 2.872 0 0 0-.438-1.192 3.136 3.136 0 0 0-.927-.925c-2.309-1.413-6.949.284-8.882 1.706-.106.079-1.06.978-1.78 1.638.313-.455.625-.929.938-1.354 1.154-1.614 2.325-3.021 3.368-4.258a83.82 83.82 0 0 1 1.69-1.902c.97 0 4.889-.127 6.605-.865 1.716-.738 3.58-2.078 3.983-3.843.111-.41.127-.839.047-1.256a2.9 2.9 0 0 0-.51-1.165 3.177 3.177 0 0 0-.98-.873 3.455 3.455 0 0 0-1.28-.431ZM246.322 204.299c-2.018-.729-6.886-.455-6.886-.455s1.165 2.894 1.266 3.07c1.15 2.019 4.661 5.3 7.389 4.86a3.42 3.42 0 0 0 1.251-.504c.375-.247.689-.563.922-.929a2.88 2.88 0 0 0 .432-1.195 2.814 2.814 0 0 0-.131-1.254c-.535-1.736-2.532-2.967-4.243-3.593ZM197.151 205.042c-.047-.025-.762 3.006-.784 3.207-.249 2.268.721 6.79 3.258 7.822a3.523 3.523 0 0 0 2.662-.078 3.252 3.252 0 0 0 1.075-.77c.296-.324.516-.701.643-1.108.599-1.721-.333-3.769-1.398-5.162-1.245-1.663-5.456-3.911-5.456-3.911Z"/>
    <path d="M183.326 221.8c2.76.176 5.885-3.422 6.807-5.539.079-.181.964-3.177.911-3.177h-.058a73.646 73.646 0 0 0 1.589-1.853c1.022-1.257 2.171-2.684 3.305-4.322a52.656 52.656 0 0 0 3.39-5.431 37.904 37.904 0 0 0 2.813-6.512.384.384 0 0 0 0-.083c0 .753.143 2.84.169 3.002.413 2.248 2.649 6.355 5.382 6.741.456.05.919.011 1.358-.115a3.34 3.34 0 0 0 1.189-.617c.345-.28.622-.625.813-1.011.191-.386.291-.805.295-1.229.09-1.804-1.399-3.554-2.824-4.64-1.589-1.222-5.964-2.312-6.308-2.395a50.484 50.484 0 0 0 1.531-7.001c.206-1.378.37-2.767.529-4.165.037.645.08 1.222.09 1.305.413 2.249 2.649 6.356 5.382 6.742.456.05.919.011 1.358-.115a3.357 3.357 0 0 0 1.189-.617c.345-.281.622-.625.813-1.011.191-.386.291-.805.295-1.229.09-1.804-1.399-3.555-2.823-4.64-1.425-1.085-5.138-2.097-6.124-2.346.053-.538.106-1.076.154-1.609.228-2.576.44-5.148.731-7.66.106-.885.238-1.755.376-2.626.032.572.064 1.056.079 1.13.408 2.248 2.649 6.355 5.377 6.746.457.049.92.01 1.359-.117.44-.127.845-.337 1.19-.618a3.06 3.06 0 0 0 .814-1.012c.191-.386.293-.805.297-1.23.085-1.804-1.404-3.549-2.823-4.64-1.42-1.09-4.767-1.999-5.949-2.302.165-.885.329-1.775.53-2.63.154-.577.254-1.144.445-1.721.191-.577.344-1.139.53-1.697.37-1.07.746-2.175 1.138-3.211.265-.719.53-1.403.8-2.093-.111.88-.296 2.611-.291 2.757a11.14 11.14 0 0 0 1.939 5.647c.003.225.028.449.074.67.071.421.238.823.49 1.181.252.357.583.661.971.892.388.231.825.383 1.281.447.457.064.923.038 1.368-.076 2.649-.748 4.163-5.143 4.195-7.421 0-.137-.153-1.599-.27-2.523.159.533.302 1.051.472 1.599.328 1.08.688 2.151 1.059 3.305.206.552.413 1.105.62 1.667.206.562.482 1.134.72 1.706a55.523 55.523 0 0 0 1.944 3.911c-1.028.264-4.656 1.256-6.081 2.351-1.425 1.096-2.903 2.836-2.818 4.64.006.424.108.843.301 1.228.192.386.47.729.816 1.009.345.28.751.49 1.19.615.439.126.902.165 1.359.115 2.738-.371 4.958-4.497 5.365-6.751 0-.137.122-1.784.154-2.689.429.782.847 1.56 1.308 2.337 1.325 2.244 2.739 4.473 4.142 6.707.43.68.848 1.369 1.272 2.054-.366.088-4.709 1.183-6.304 2.405-1.424 1.09-2.908 2.84-2.817 4.644.004.425.106.844.298 1.229.192.386.47.73.816 1.01s.752.49 1.191.615c.44.126.903.164 1.36.114 2.738-.372 4.958-4.503 5.366-6.752.031-.171.164-2.537.164-3.143.932 1.51 1.843 3.021 2.675 4.546a50.403 50.403 0 0 1 2.966 6.356c-.169.044-4.704 1.163-6.356 2.415-1.42 1.09-2.903 2.84-2.813 4.644.005.424.107.842.299 1.228.191.385.469.729.814 1.009.345.28.751.49 1.189.616.439.125.902.164 1.358.114 2.744-.371 4.963-4.502 5.366-6.751.027-.147.132-1.955.159-2.811h.159a36.6 36.6 0 0 1 1.69 6.771 40.49 40.49 0 0 1 .413 3.666c-.864.128-4.826.758-6.431 1.736-1.605.978-3.226 2.527-3.353 4.326-.045.423.007.85.152 1.253.145.403.38.773.69 1.086.31.314.689.564 1.11.733.422.17.878.256 1.338.253 2.765-.093 5.466-3.97 6.139-6.17.032-.117.259-1.369.413-2.283.026.538.074 1.09.09 1.604.079 1.931 0 3.705-.048 5.275a77.74 77.74 0 0 1-.169 2.444c-.784.538-3.899 2.738-4.82 4.258-.922 1.52-1.589 3.618-.811 5.27.171.394.43.75.76 1.046.33.295.723.524 1.155.67a3.522 3.522 0 0 0 2.662-.166c2.41-1.261 2.865-5.867 2.367-8.086-.042-.191-1.096-3.144-1.133-3.114a.208.208 0 0 0-.048.034c.08-.724.154-1.501.217-2.351.101-1.575.202-3.349.17-5.29a49.087 49.087 0 0 0-.419-6.258 37.147 37.147 0 0 0-1.541-6.844l-.032-.078c.461.616 1.812 2.298 1.934 2.415 1.689 1.667 6.012 3.974 8.517 2.884.41-.191.772-.46 1.063-.789.29-.328.502-.71.622-1.12.12-.409.145-.837.074-1.256a2.901 2.901 0 0 0-.488-1.176c-1.006-1.55-3.289-2.249-5.127-2.444-2.071-.206-6.356 1.105-6.695 1.212a51.382 51.382 0 0 0-2.882-6.653 85.96 85.96 0 0 0-2.06-3.735c.418.518.794.977.858 1.041 1.689 1.667 6.012 3.974 8.517 2.884.41-.191.773-.46 1.063-.789.29-.328.502-.71.622-1.12.12-.409.145-.837.074-1.256a2.874 2.874 0 0 0-.488-1.176c-1.006-1.55-3.289-2.249-5.127-2.444-1.838-.196-5.541.865-6.51 1.153-.281-.488-.53-.943-.837-1.417-1.35-2.259-2.706-4.513-3.967-6.761-.445-.792-.848-1.584-1.255-2.376.37.459.688.845.741.899 1.69 1.667 6.012 3.975 8.517 2.89a3.233 3.233 0 0 0 1.063-.791c.291-.329.503-.711.623-1.121.12-.41.145-.838.073-1.258a2.895 2.895 0 0 0-.487-1.177c-1.007-1.549-3.29-2.248-5.128-2.444-1.838-.195-5.18.768-6.356 1.105-.392-.821-.789-1.648-1.128-2.444-.217-.563-.472-1.091-.657-1.663l-.583-1.681c-.328-1.081-.678-2.195-.969-3.256-.206-.738-.392-1.467-.577-2.156.429.792 1.308 2.327 1.398 2.444 1.398 1.882 5.297 4.767 7.945 4.043a3.348 3.348 0 0 0 1.18-.632c.341-.285.613-.633.799-1.021.186-.388.281-.808.28-1.232a2.843 2.843 0 0 0-.288-1.231c-.736-1.667-2.882-2.684-4.667-3.119-1.965-.489-6.245.176-6.78.259a131.44 131.44 0 0 1-.847-3.422 147.383 147.383 0 0 1-1.817-9.088l-1.875.068c0 .049 0 .093.026.147a147.21 147.21 0 0 0 2.066 9.205 85.294 85.294 0 0 0 1.06 3.774 38.012 38.012 0 0 0-3.708 1.775c-1.473-1.364-5.17-2.894-5.647-3.085.445-1.139.895-2.244 1.335-3.275a148.03 148.03 0 0 1 3.909-8.507l-2.055.074a153.255 153.255 0 0 0-3.39 7.895 128.805 128.805 0 0 0-1.393 3.676c-.53-.083-4.815-.733-6.785-.249-1.78.44-3.925 1.467-4.662 3.129a2.816 2.816 0 0 0-.004 2.464c.187.388.46.735.803 1.019a3.34 3.34 0 0 0 1.182.628c2.649.719 6.547-2.17 7.946-4.057.084-.108.826-1.408 1.282-2.235-.186.524-.377 1.027-.562 1.57-.376 1.065-.715 2.146-1.086 3.3-.159.562-.318 1.134-.476 1.711-.159.577-.276 1.188-.419 1.784a55.319 55.319 0 0 0-.726 4.263c-1.017-.298-4.634-1.32-6.478-1.134-1.843.186-4.121.89-5.122 2.444a2.89 2.89 0 0 0-.484 1.177c-.07.42-.043.848.077 1.257.121.41.334.791.625 1.12.291.328.654.597 1.064.787 2.506 1.086 6.828-1.232 8.512-2.899.106-.107 1.165-1.427 1.738-2.165-.112.865-.228 1.73-.313 2.615-.233 2.542-.387 5.123-.53 7.7-.047.787-.111 1.574-.169 2.361-.355-.112-4.63-1.413-6.695-1.203-1.833.181-4.116.89-5.122 2.445a2.89 2.89 0 0 0-.484 1.177 2.8 2.8 0 0 0 .077 1.257c.121.409.333.791.624 1.119a3.25 3.25 0 0 0 1.064.788c2.506 1.08 6.828-1.232 8.512-2.899.128-.127 1.653-2.034 2.019-2.537-.128 1.73-.271 3.456-.488 5.152a49.882 49.882 0 0 1-1.319 6.801c-.164-.054-4.613-1.428-6.732-1.213-1.833.181-4.121.89-5.122 2.445a2.888 2.888 0 0 0-.484 1.178c-.07.42-.044.848.077 1.258.121.41.333.791.624 1.12.291.329.654.598 1.065.79 2.505 1.08 6.827-1.232 8.512-2.904.111-.108 1.271-1.56 1.811-2.264l.143.064a37.085 37.085 0 0 1-2.648 6.507 44.651 44.651 0 0 1-1.843 3.27c-.8-.332-4.482-1.823-6.404-1.828-1.923-.005-4.201.489-5.382 1.907a2.93 2.93 0 0 0-.624 1.12 2.79 2.79 0 0 0-.075 1.258c.072.419.239.82.49 1.176.25.356.58.659.967.889 2.362 1.33 6.928-.528 8.803-2.019a46.496 46.496 0 0 0 1.711-1.696c-.297.464-.588.948-.885 1.388-1.059 1.648-2.198 3.095-3.178 4.371-.572.723-1.107 1.364-1.589 1.955-.969.049-4.884.299-6.563 1.1-1.679.802-3.496 2.2-3.824 3.975a2.787 2.787 0 0 0-.001 1.249c.094.412.28.802.546 1.143.266.342.607.629 1 .843.393.213.83.348 1.283.397Z"/>
  </g>
  <g stroke="#000" stroke-linecap="round" stroke-linejoin="round">
    <g opacity=".2">
      <path d="M190.138 7.435h-.789" opacity=".2"/>
      <path stroke-dasharray="3 3" d="M187.76 7.474c-5.79.298-20.796 2.361-29.89 15.336-10.197 14.549-3.872 39.784-4.545 56.103-.874 21.163-5.911 45.372-26.299 58.068-22.75 14.177-52.91 11.21-77.933 19.868-33.312 11.527-38.519 41.774-27.586 57.144 19.498 27.426 62.005 9.289 79.57-9.465 7.664-8.188 13.809-18.479 22.861-25.421 7.786-5.969 17.893-8.687 27.687-10.266 25.027-4.058 51.734-8.155 74.378-19.359 23.46-11.606 28.826-36.876 18.889-58.465-9.868-21.427-32.841-35.687-56.835-40.825-52.937-11.367-69.336 5.333-96.303-23.852" opacity=".2"/>
      <path d="m91.24 25.772-.53-.562" opacity=".2"/>
    </g>
    <path d="M60.248 204.763a2.967 2.967 0 0 0-.74-1.902c-.469-.54-1.12-.92-1.85-1.08a3.626 3.626 0 0 0-2.178.197 3.273 3.273 0 0 0-1.588 1.392 3.272 3.272 0 0 0-1.587-1.392 3.626 3.626 0 0 0-2.179-.197c-.73.16-1.38.54-1.85 1.08-.47.54-.73 1.21-.74 1.902 0 1.589 1.314 3.207 2.617 4.146a40.382 40.382 0 0 0 3.708 2.263 39.122 39.122 0 0 0 3.707-2.263c1.245-.89 2.68-2.631 2.68-4.146ZM45.804 213.753a3.889 3.889 0 0 0-.956-2.529 4.482 4.482 0 0 0-2.449-1.438 4.765 4.765 0 0 0-2.887.273 4.285 4.285 0 0 0-2.082 1.866 4.285 4.285 0 0 0-2.083-1.866 4.766 4.766 0 0 0-2.887-.273 4.482 4.482 0 0 0-2.449 1.438 3.89 3.89 0 0 0-.956 2.529c0 2.088 1.722 4.205 3.433 5.442.858.62 4.767 3.035 4.889 2.967.11.068 4.025-2.347 4.883-2.967 1.621-1.174 3.544-3.452 3.544-5.442ZM170.196 217.596a3.89 3.89 0 0 0-.963-2.527 4.478 4.478 0 0 0-2.454-1.43 4.76 4.76 0 0 0-2.885.283 4.276 4.276 0 0 0-2.073 1.875 4.273 4.273 0 0 0-2.078-1.877 4.747 4.747 0 0 0-2.893-.278 4.47 4.47 0 0 0-2.453 1.442 3.877 3.877 0 0 0-.95 2.536c0 2.088 1.727 4.205 3.438 5.441.858.621 4.767 3.036 4.883 2.968.117.068 4.026-2.347 4.884-2.968 1.626-1.197 3.544-3.475 3.544-5.465ZM228.387 14.51a2.619 2.619 0 0 0-.64-1.71 3.014 3.014 0 0 0-1.651-.971 3.206 3.206 0 0 0-1.949.186 2.877 2.877 0 0 0-1.401 1.262 2.882 2.882 0 0 0-1.402-1.255 3.204 3.204 0 0 0-1.943-.183 3.015 3.015 0 0 0-1.648.968 2.617 2.617 0 0 0-.643 1.702c0 1.403 1.16 2.83 2.315 3.662a36.983 36.983 0 0 0 3.284 2 36.299 36.299 0 0 0 3.289-2c1.091-.792 2.389-2.322 2.389-3.662ZM21.735 205.697a2.61 2.61 0 0 0-.635-1.712 3.008 3.008 0 0 0-1.652-.975 3.2 3.2 0 0 0-1.95.187 2.876 2.876 0 0 0-1.399 1.268c-.3-.555-.793-1-1.402-1.263a3.202 3.202 0 0 0-1.948-.185 3.012 3.012 0 0 0-1.651.971 2.618 2.618 0 0 0-.64 1.709c0 1.403 1.165 2.825 2.315 3.661a35.024 35.024 0 0 0 3.289 1.995 35.013 35.013 0 0 0 3.29-1.995c1.112-.792 2.383-2.327 2.383-3.661ZM150.888 211.295a2.615 2.615 0 0 0-.639-1.709 3.02 3.02 0 0 0-1.652-.972 3.21 3.21 0 0 0-1.948.186 2.884 2.884 0 0 0-1.402 1.263 2.884 2.884 0 0 0-1.402-1.256 3.207 3.207 0 0 0-1.943-.183 3.025 3.025 0 0 0-1.648.968 2.623 2.623 0 0 0-.643 1.703c0 1.403 1.16 2.83 2.315 3.661a37.277 37.277 0 0 0 3.284 2 36.251 36.251 0 0 0 3.29-2c1.096-.787 2.388-2.322 2.388-3.661ZM132.884 17.046a2.607 2.607 0 0 0-.634-1.712 3.011 3.011 0 0 0-1.652-.974 3.199 3.199 0 0 0-1.95.187 2.871 2.871 0 0 0-1.399 1.267 2.874 2.874 0 0 0-1.4-1.267 3.198 3.198 0 0 0-1.95-.187 3.011 3.011 0 0 0-1.652.974 2.607 2.607 0 0 0-.634 1.712c0 1.403 1.16 2.826 2.309 3.662a37.659 37.659 0 0 0 3.289 1.985 35.976 35.976 0 0 0 3.29-1.995c1.091-.782 2.383-2.317 2.383-3.652ZM95.663 15.467a2.611 2.611 0 0 0-.637-1.71 3.009 3.009 0 0 0-1.652-.972 3.199 3.199 0 0 0-1.948.188c-.608.265-1.101.711-1.398 1.267-.3-.554-.793-.999-1.4-1.262a3.205 3.205 0 0 0-1.948-.187 3.014 3.014 0 0 0-1.651.97 2.616 2.616 0 0 0-.643 1.706c0 1.403 1.166 2.83 2.315 3.662a35.146 35.146 0 0 0 3.29 2 35.134 35.134 0 0 0 3.289-2c1.09-.787 2.383-2.303 2.383-3.662ZM210.87 5.406a4.08 4.08 0 0 0-.999-2.666 4.701 4.701 0 0 0-2.577-1.516 5 5 0 0 0-3.04.29c-.949.41-1.72 1.105-2.187 1.97-.467-.865-1.238-1.56-2.187-1.97a5 5 0 0 0-3.04-.29 4.707 4.707 0 0 0-2.578 1.516 4.086 4.086 0 0 0-.999 2.666c0 2.19 1.812 4.4 3.613 5.72.9.65 5.011 3.187 5.133 3.119.121.068 4.237-2.444 5.137-3.119 1.706-1.232 3.724-3.627 3.724-5.72Z" opacity=".2"/>
  </g>
  <path fill="#263238" stroke="#263238" stroke-linecap="round" stroke-linejoin="round" d="m228.276 197.982-79.178 2.122c-2.038.054-4.016-.641-5.499-1.933-1.483-1.292-2.35-3.074-2.409-4.955l-4.916-156.111a6.62 6.62 0 0 1 .499-2.732 7.046 7.046 0 0 1 1.594-2.347 7.718 7.718 0 0 1 2.445-1.606 8.234 8.234 0 0 1 2.926-.62l79.177-2.12a8.26 8.26 0 0 1 2.96.458 7.8 7.8 0 0 1 2.544 1.471 7.142 7.142 0 0 1 1.74 2.258c.413.85.641 1.768.67 2.7l4.899 156.112c.059 1.88-.693 3.704-2.09 5.074-1.397 1.369-3.326 2.171-5.362 2.229Z"/>
  <path fill="#fff" stroke="#263238" stroke-miterlimit="10" d="m224.605 197.983-79.167 2.121a8.26 8.26 0 0 1-2.959-.46 7.813 7.813 0 0 1-2.544-1.471 7.147 7.147 0 0 1-1.739-2.257 6.653 6.653 0 0 1-.672-2.7l-4.915-156.111c-.058-1.883.695-3.71 2.096-5.08 1.4-1.369 3.333-2.169 5.373-2.224l79.177-2.122a8.267 8.267 0 0 1 2.959.46 7.808 7.808 0 0 1 2.542 1.472 7.136 7.136 0 0 1 1.738 2.257 6.63 6.63 0 0 1 .669 2.7l4.916 156.111a6.598 6.598 0 0 1-.499 2.734 7.034 7.034 0 0 1-1.596 2.349 7.7 7.7 0 0 1-2.45 1.605 8.238 8.238 0 0 1-2.929.616Z"/>
  <path stroke="#fff" stroke-linecap="round" stroke-linejoin="round" d="M187.723 193.426a2.82 2.82 0 0 0-.595-1.633 3.198 3.198 0 0 0-1.478-1.052 3.477 3.477 0 0 0-1.862-.118 3.294 3.294 0 0 0-1.619.857 2.883 2.883 0 0 0-.83 1.543 2.76 2.76 0 0 0 .237 1.708 3.06 3.06 0 0 0 1.226 1.299 3.417 3.417 0 0 0 1.801.451 3.424 3.424 0 0 0 1.223-.259 3.206 3.206 0 0 0 1.023-.672c.29-.283.516-.617.666-.981a2.76 2.76 0 0 0 .208-1.143v0Z"/>
  <path fill="#fff" stroke="#263238" stroke-linecap="round" stroke-linejoin="round" d="m223.095 39.166-86.144 2.304 4.667 148.633 86.144-2.304-4.667-148.633Z"/>
  <path stroke="#263238" stroke-linecap="round" stroke-linejoin="round" stroke-width=".821" d="m220.213 40.785-7.143.191.114 3.616 7.142-.191-.113-3.616Z"/>
  <path fill="#263238" stroke="#263238" stroke-linecap="round" stroke-linejoin="round" stroke-width=".725" d="m218.641 40.827-5.57.15.114 3.615 5.57-.15-.114-3.615ZM221.237 41.77l-1.006.027.05 1.593 1.006-.027-.05-1.593Z"/>
  <path fill="#263238" stroke="#263238" stroke-linecap="round" stroke-linejoin="round" stroke-width=".883" d="m140.284 44.041-1.307.035.065 2.072 1.307-.035-.065-2.072ZM142.324 43.244l-1.308.035.088 2.8 1.308-.035-.088-2.8ZM144.354 42.33l-1.307.035.115 3.659 1.308-.035-.116-3.66Z"/>
  <path fill="#263238" stroke="#263238" stroke-linecap="round" stroke-linejoin="round" d="m108.492 201.033-79.087-4.072a8.217 8.217 0 0 1-2.907-.691 7.667 7.667 0 0 1-2.399-1.665 7.004 7.004 0 0 1-1.526-2.386 6.595 6.595 0 0 1-.42-2.743l9.429-155.95c.117-1.876 1.037-3.633 2.556-4.885 1.52-1.252 3.515-1.897 5.548-1.793l79.093 4.073c2.036.106 3.944.953 5.304 2.357 1.36 1.403 2.06 3.247 1.947 5.127l-9.428 155.95c-.119 1.877-1.039 3.634-2.56 4.886-1.52 1.252-3.516 1.896-5.55 1.792Z"/>
  <path fill="#fff" stroke="#263238" stroke-miterlimit="10" d="m111.188 201.033-79.087-4.072a8.217 8.217 0 0 1-2.907-.691 7.666 7.666 0 0 1-2.399-1.665 7.004 7.004 0 0 1-1.525-2.386 6.596 6.596 0 0 1-.42-2.743l9.428-155.95c.119-1.878 1.04-3.636 2.561-4.888 1.522-1.252 3.519-1.895 5.554-1.79l79.082 4.072c2.038.105 3.947.952 5.307 2.356 1.361 1.403 2.062 3.248 1.95 5.129l-9.429 155.95c-.117 1.878-1.038 3.637-2.56 4.889-1.521 1.252-3.519 1.896-5.555 1.789Z"/>
  <path stroke="#fff" stroke-linecap="round" stroke-linejoin="round" d="M74.847 193.612a2.787 2.787 0 0 0-.441-1.674 3.132 3.132 0 0 0-1.375-1.166 3.452 3.452 0 0 0-1.844-.265 3.34 3.34 0 0 0-1.693.726 2.938 2.938 0 0 0-.97 1.471 2.753 2.753 0 0 0 .078 1.722c.21.554.593 1.038 1.102 1.391a3.383 3.383 0 0 0 1.753.591 3.385 3.385 0 0 0 2.322-.75 2.884 2.884 0 0 0 1.068-2.046v0Z"/>
  <path fill="#FAFAFA" stroke="#263238" stroke-linecap="round" stroke-linejoin="round" d="M124.258 42.647 38.212 38.22l-8.965 148.464 86.046 4.427 8.965-148.465Z"/>
  <path stroke="#263238" stroke-linecap="round" stroke-linejoin="round" stroke-width=".821" d="m121.241 44.033-7.134-.367-.218 3.611 7.134.367.218-3.611Z"/>
  <path fill="#263238" stroke="#263238" stroke-linecap="round" stroke-linejoin="round" stroke-width=".725" d="m119.668 43.957-5.564-.286-.218 3.611 5.564.286.218-3.61ZM122.167 45.099l-1.005-.052-.096 1.59 1.005.052.096-1.59Z"/>
  <path fill="#263238" stroke="#263238" stroke-linecap="round" stroke-linejoin="round" stroke-width=".883" d="m41.294 41.048-1.306-.067-.125 2.069 1.306.067.125-2.069ZM43.389 40.428l-1.306-.068-.17 2.797 1.307.067.169-2.796ZM45.492 39.678l-1.306-.068-.221 3.655 1.306.068.221-3.655Z"/>
  <path fill="#263238" stroke="#263238" stroke-linecap="round" stroke-linejoin="round" d="M197.294 77.563s4.577 5.26 5.43 10.15c.852 4.888-2.903 7.362-4.238 9.22a12.392 12.392 0 0 0-2.256 5.842c-.175 1.828 2.622 2.072 2.622 2.072s-1.923 1.658-6.537 2.533c-4.613.875-7.272-2.484-7.272-2.484s4.645-3.422 5.604-6.257c.958-2.836 1.292-10.638 1.001-12.452-.292-1.814-1.166-3.823-1.181-4.36-.016-.538 1.297-5.936 6.827-4.264ZM208.656 188.655c-.572-3.965-2.436-15.155-2.436-15.155s-13.942-5.246-28.175-4.4c-14.232.846-17.002 3.525-17.002 3.525l-2.501 17.218h5.297l44.817-1.188Z"/>
  <path fill="#5F0A61" stroke="#263238" stroke-linecap="round" stroke-linejoin="round" d="m198.465 146.04-.593-3.681 14.132.362s-11.404-15.366-12.506-19.922c-1.102-4.556-4.794-9.777-8.406-12.491-3.613-2.713-9.376-2.703-9.376-2.703l-3.035.23.832-4.165-9.852-7.568-.271 1.633s-1.133 4.761-1.689 7.435c-.556 2.674-1.648 3.594-1.648 3.594s-5.927-5.163-9.635-5.803c-3.707-.641-8.591 1.857-9.269 5.719-.678 3.863 2.648 36.627 3.019 38.983.371 2.356 5.154 12.105 6.049 15.038.895 2.933 4.826 10.662 4.826 10.662s7.712 5.71 20.705 6.394c12.993.685 25.293-5.705 25.293-5.705s-4.238-12.603-5.34-17.007c-1.101-4.405-3.236-11.005-3.236-11.005Zm-33.9 12.295s-2.193-8.663-2.606-11.464c-.413-2.801-1.139-10.755-1.139-10.755l6.303 11.953-2.558 10.266Z"/>
  <path stroke="#263238" stroke-linecap="round" stroke-linejoin="round" d="m157.181 127.306-.837-2.019M160.825 136.111l-2.378-5.754M195.424 145.238s-3.591 8.076-8.21 14.119M181.229 170.821c-.44.415-.879.806-1.303 1.158M193.491 155.045s-5.36 8.452-10.594 14.069"/>
  <path fill="#fff" stroke="#263238" stroke-linecap="round" stroke-linejoin="round" d="m181.7 107.605-3.035.23.832-4.165-9.852-7.568-.27 1.633s-1.134 4.761-1.69 7.435c-.556 2.675-1.648 3.594-1.648 3.594a43.985 43.985 0 0 0-6.027-4.332c.81 2.445 3.914 10.853 9.052 13.86 6.038 3.534 12.511.552 13.835-3.178a30.928 30.928 0 0 0 1.431-7.289c-.87-.13-1.747-.203-2.628-.22Z"/>
  <path fill="#263238" stroke="#263238" stroke-linecap="round" stroke-linejoin="round" d="m177.712 107.375-.265 3.719 3.152-3.269-2.887-.45Z"/>
  <path fill="#fff" stroke="#263238" stroke-linecap="round" stroke-linejoin="round" d="M190.843 122.735s.778-5.788.71-8.002c-.069-2.215-1.515-7.5-2.204-8.961-.689-1.462-4.285-3.877-4.566-2.538-.281 1.34.313 4.889.339 5.608.027.718-.36 3.857-.36 3.857s.069-2.811-1.25-3.96-2.267-.826-2.241-.088v.738s1.515 2.327 1.589 4.248c.075 1.922-.137 5.769-.1 6.952.037 1.183 2.537 4.219 3.04 4.943.503.723 5.154 5.925 5.154 5.925l4.38-3.369-4.491-5.353Z"/>
  <path fill="#fff" d="M190.996 112.234s-2.743-5.69-3.851-5.221c-1.107.469 1.59 5.28 1.59 5.28l.529 1.173s-2.119 3.911-2.405 5.089c-.286 1.179-.249 2.225.085 2.66"/>
  <path stroke="#263238" stroke-linecap="round" stroke-linejoin="round" d="M190.996 112.234s-2.743-5.69-3.851-5.221c-1.107.469 1.59 5.28 1.59 5.28l.529 1.173s-2.119 3.911-2.405 5.089c-.286 1.179-.249 2.225.085 2.66"/>
  <path fill="#5F0A61" stroke="#263238" stroke-linecap="round" stroke-linejoin="round" d="m193.311 124.74-8.168 10.266s5.901 4.277 9.349 6.991c3.448 2.713 10.695 8.882 13.115 9.406 2.421.523 6.256.278 6.441-4.014.186-4.292-1.451-5.431-4.269-8.311-2.818-2.879-16.468-14.338-16.468-14.338Z"/>
  <path fill="#fff" stroke="#263238" stroke-linecap="round" stroke-linejoin="round" d="M194.1 83.464c1.419 2.047 2.2 4.415 2.257 6.845-.027 2.302-2.675 6.355-3.274 8.384-.598 2.029-2.553 4.888-8.109 6.907-4.238 1.536-6.526 3.056-8.396 1.57-1.87-1.486-6.695-8.072-6.695-8.072s9.471-8.931 12.543-11.62c3.072-2.689 7.643-5.285 11.674-4.014Z"/>
  <path stroke="#263238" stroke-linecap="round" stroke-linejoin="round" d="M187.654 99.353c-.417.265-.895.44-1.396.509a3.591 3.591 0 0 1-1.496-.109M180.344 99.548s.408 1.813 3.337 2.698"/>
  <path fill="#263238" d="M182.611 91.755a.848.848 0 0 0 .153.469c.098.14.236.251.4.322a1.027 1.027 0 0 0 1.011-.116.887.887 0 0 0 .303-.401.816.816 0 0 0 .025-.489.876.876 0 0 0-.26-.426.988.988 0 0 0-.466-.234 1.143 1.143 0 0 0-.413.035 1.089 1.089 0 0 0-.367.18 1 1 0 0 0-.264.294.913.913 0 0 0-.122.366Z"/>
  <path stroke="#263238" stroke-linecap="round" stroke-linejoin="round" d="M186.377 91.902a1.186 1.186 0 0 0-.083-.58 1.28 1.28 0 0 0-.352-.484 1.426 1.426 0 0 0-.548-.292 1.506 1.506 0 0 0-.632-.037"/>
  <path fill="#263238" d="M190.705 94.278c.001.137.045.27.125.386.08.115.194.207.328.266a.85.85 0 0 0 .834-.094.733.733 0 0 0 .249-.33.675.675 0 0 0 .021-.403.712.712 0 0 0-.214-.351.811.811 0 0 0-.384-.192.936.936 0 0 0-.638.179.803.803 0 0 0-.321.539Z"/>
  <path stroke="#263238" stroke-linecap="round" stroke-linejoin="round" d="M193.528 94.6a1.191 1.191 0 0 0-.083-.58 1.287 1.287 0 0 0-.354-.486 1.42 1.42 0 0 0-.55-.291 1.509 1.509 0 0 0-.634-.036M188.984 89.668a5.542 5.542 0 0 0-2.718-1.212 4.916 4.916 0 0 0-2.828.625M192.506 91.907s1.329.108 1.928 1.818"/>
  <path fill="#263238" stroke="#263238" stroke-linecap="round" stroke-linejoin="round" d="M198.566 79.284s-6.012 5.31-9.402 7.769c-3.39 2.459-4.768 2.072-7.946 5.915s-6.107 7.123-10.429 8.629c-4.322 1.505-9.651 0-11.653-1.496-2.003-1.496-2.495-2.714-2.495-2.714s3.136-.097 2.924-2.864c-.917-11.763-.97-13.273.116-17.057 1.086-3.784 7.511-8.751 17.014-8.585 9.502.166 17.972 5.779 19.815 6.844 1.844 1.066 2.765 2.01 2.056 3.56Z"/>
  <path stroke="#696969" stroke-linecap="round" stroke-linejoin="round" d="M164.041 94.615a4.14 4.14 0 0 1-1.61-.838 3.737 3.737 0 0 1-1.039-1.41M190.212 80.022c-3.617 2.738-9.089 7.025-12.712 10.58-2.647 2.656-6.314 4.252-10.218 4.448M193.936 77.265s-.53.377-1.398 1.022M169.274 88.857c-.759.392-1.567.699-2.405.914-4.545 1.012-5.927-4.508-5.927-4.508M183.883 79.314a145.619 145.619 0 0 1-11.86 8.061M162.293 82.114s1.244 1.3 4.846.978c3.602-.323 7.596-3.539 7.596-3.539"/>
  <path stroke="#263238" stroke-linecap="round" stroke-linejoin="round" d="m164.57 158.335-3.416 13.547"/>
  <path fill="#263238" stroke="#263238" stroke-linecap="round" stroke-linejoin="round" d="m96.24 190.073 3.544-25.011s-2.198-3.422-11.07-3.911c-8.872-.489-30.039 7.333-30.039 7.333l-5.233 19.369 42.799 2.22Z"/>
  <path fill="#5F0A61" stroke="#263238" stroke-linecap="round" stroke-linejoin="round" d="m65.916 96.512-17.85-7.137 15.112-11.21-1.928-3.877s-17.406 5.324-21.373 7.333c-3.968 2.01-12.104 5.114-12.21 6.903-.106 1.79 20.076 18.127 25.425 20.846 5.35 2.718 12.31 7.298 12.31 7.298l-2.22 28.751c-.1 1.33-7.833 30.593-7.886 31.478-.053.885 3.453 2.039 9.238 1.897 5.784-.142 13.872-6.614 15.89-8.286 2.018-1.672 6.955-3.637 9.127-3.75 2.171-.112 10.207-1.696 10.207-1.696l11.971-34.906s4.82-19.955.911-22.605c-3.909-2.65-20.128-5.475-20.128-5.475l-17.692-1.8-8.904-3.764Z"/>
  <path fill="#5F0A61" d="M75.63 166.18c1.844-1.231 4.238-2.502 6.611-2.839a79.79 79.79 0 0 1 9.942-.689"/>
  <path stroke="#263238" stroke-linecap="round" stroke-linejoin="round" d="M75.63 166.18c1.844-1.231 4.238-2.502 6.611-2.839a79.79 79.79 0 0 1 9.942-.689"/>
  <path fill="#5F0A61" d="M72.246 168.865s.392-.376 1.06-.938l-1.06.938Z"/>
  <path stroke="#263238" stroke-linecap="round" stroke-linejoin="round" d="M72.246 168.865s.392-.376 1.06-.938"/>
  <path fill="#5F0A61" d="M79.121 161.757c-.798.205-1.573.48-2.314.821l2.314-.821Z"/>
  <path stroke="#263238" stroke-linecap="round" stroke-linejoin="round" d="M79.121 161.757c-.798.205-1.573.48-2.314.821"/>
  <path fill="#5F0A61" d="M89.678 161.317a33.518 33.518 0 0 0-8.088-.029l8.088.029Z"/>
  <path stroke="#263238" stroke-linecap="round" stroke-linejoin="round" d="M89.678 161.317a33.518 33.518 0 0 0-8.088-.029M61.986 105.258l-.572-1.897M65.418 116.669l-2.812-9.353M48.066 89.35a24.368 24.368 0 0 1-7.416-.381"/>
  <path fill="#5F0A61" d="m101.267 125.038 8.343 20.772s-10.292 15.013-12.093 16.915a47.299 47.299 0 0 1-4.804 4.185l-3.115-.162c-1.44-.073-4.995-.924-5.794.367-.8 1.291-.657 2.855-3.332 3.383s-.323 1.315 1.356 1.403c1.679.088 3.48-1.819 4.195-1.784l1.68.088 7.473 7.709 3.56-7.142s15.541-14.3 18.099-16.832 6.69-7.201 6.69-7.201-7.506-31.019-8.258-34.832c-.752-3.813-2.982-6.356-10.244-5.637"/>
  <path stroke="#263238" stroke-linecap="round" stroke-linejoin="round" d="m101.267 125.038 8.343 20.772s-10.292 15.013-12.093 16.915a47.299 47.299 0 0 1-4.804 4.185l-3.115-.162c-1.44-.073-4.995-.924-5.794.367-.8 1.291-.657 2.855-3.332 3.383s-.323 1.315 1.356 1.403c1.679.088 3.48-1.819 4.195-1.784l1.68.088 7.473 7.709 3.56-7.142s15.541-14.3 18.099-16.832 6.69-7.201 6.69-7.201-7.506-31.019-8.258-34.832c-.752-3.813-2.982-6.356-10.244-5.637"/>
  <path fill="#fff" stroke="#263238" stroke-linecap="round" stroke-linejoin="round" d="M94.625 165.379c-1.06.89-1.933 1.54-1.933 1.54l-3.115-.161c-1.44-.073-4.995-.924-5.794.367-.8 1.29-.657 2.855-3.332 3.383s-.323 1.315 1.356 1.403c1.679.088 3.48-1.819 4.195-1.785l1.679.088 7.474 7.71 3.56-7.143.958-.884-5.048-4.518ZM81.786 117.113l-4.037-3.886-5.498 3.788 6.621-10.569 3.772 1.247-.858 9.42Z"/>
  <path fill="#fff" stroke="#263238" stroke-linecap="round" stroke-linejoin="round" d="M77.426 106.779s2.543 5.123 3.263 7.264c.72 2.141 1.097 3.08 1.097 3.08l11.234-16.245s-3.05-6.067-3.363-7.925a7.588 7.588 0 0 0-.97-2.796s-.466 5.378-4.698 9.352a55.068 55.068 0 0 0-6.563 7.27Z"/>
  <path fill="#263238" stroke="#263238" stroke-linecap="round" stroke-linejoin="round" d="M77.426 106.778s.948 1.912 1.854 3.911l4.984-8.374-1.785-1.32a51.694 51.694 0 0 0-5.053 5.783Z"/>
  <path fill="#fff" stroke="#263238" stroke-linecap="round" stroke-linejoin="round" d="m83.067 112.445-1.281 4.668 4.772-3.568-3.49-1.1Z"/>
  <path fill="#fff" stroke="#263238" stroke-linecap="round" stroke-linejoin="round" d="m92.48 98.082-9.413 14.363 5.975 7.142 7.58-16.265-4.142-5.24ZM60.222 84.882s2.5 8.31 3.602 11.396c1.102 3.084 3.083 5.695 5.985 7.294 2.903 1.598 4.053 3.911 7.326 4.072 3.273.161 6.489-3.359 7.283-4.639.795-1.281 4.582-4.89 4.89-7.656.306-2.767.476-5.515.476-5.515a7.491 7.491 0 0 0 1.692-2.855 7.08 7.08 0 0 0 .252-3.246c-.641-3.593-2.866-4.63-2.866-4.63s-2.436-6.98-10.064-8.427c-7.627-1.448-17.48 5.294-17.898 7.777a46.44 46.44 0 0 0-.53 5.91l-.148.52Z"/>
  <path stroke="#263238" stroke-linecap="round" stroke-linejoin="round" d="M68.008 92.372s-.884 2.855-.238 3.94 2.574 0 3.459-.489M68.766 98.737s1.933 1.154 4.9-.67c1.776-1.096 3.124-2.69 3.845-4.546"/>
  <path fill="#263238" d="M77.315 88.123a.966.966 0 0 1-.193.533c-.117.157-.28.281-.47.357-.19.076-.4.101-.604.072a1.146 1.146 0 0 1-.553-.235 1.014 1.014 0 0 1-.334-.47.942.942 0 0 1-.011-.562c.053-.185.162-.352.313-.482.152-.13.34-.218.544-.254.321-.017.637.083.881.277s.397.468.427.764Z"/>
  <path stroke="#263238" stroke-linecap="round" stroke-linejoin="round" d="M72.998 88.2c-.019-.225.02-.451.112-.661.092-.21.235-.397.42-.547.183-.15.402-.26.638-.318.237-.06.486-.067.726-.022"/>
  <path fill="#263238" d="M67.971 90.783a.792.792 0 0 1-.155.442.895.895 0 0 1-.388.297.975.975 0 0 1-.956-.136.832.832 0 0 1-.274-.39.774.774 0 0 1-.004-.465.829.829 0 0 1 .265-.396.939.939 0 0 1 .453-.203c.261-.01.517.071.714.23.197.158.321.38.345.62Z"/>
  <path stroke="#263238" stroke-linecap="round" stroke-linejoin="round" d="M64.714 91.07c-.02-.226.02-.453.112-.663.092-.21.236-.398.42-.548.185-.15.404-.259.642-.318.237-.058.486-.065.727-.02M62.839 89.667s.122-.899 1.674-1.661c1.551-.763 2.007-.802 2.007-.802M70.085 85.556a6.546 6.546 0 0 1 2.86-.875 10.865 10.865 0 0 1 3.512.362"/>
  <path fill="#263238" stroke="#263238" stroke-linecap="round" stroke-linejoin="round" d="M68.278 63.425s-4.269-1.427-7.606-.928c-3.337.498-10.122 5.9-9.068 8.36 1.054 2.458 5.535.42 5.143 1.872-.392 1.452-5.922 3.573-6.748 7.274-.826 3.7 1.62 7.978 5.662 8.184 4.042.205 6.097-6.356 6.584-4.473.488 1.882 2.278 2.121 5.583-.382 3.306-2.503 6.441-7.162 7.416-5.905.975 1.256 1.06 5.27 2.076 5.455 1.017.186 2.76-.928 3.92-.2 1.16.728 1.902 3.31 2.834 2.82.932-.488.556-1.71 1.06-2.751.502-1.042.571-3.144 2.902-3.33.895-.068 1.356-.063 1.356-.063s1.758-6.732-.826-11.142c-2.585-4.41-11.654-5.954-13.772-5.529-1.25.246-2.476.586-3.666 1.017l-2.85-.279Z"/>
  <path stroke="#696969" stroke-linecap="round" stroke-linejoin="round" d="M86.59 74.674a5.963 5.963 0 0 1 1.742 1.056M76.95 76.468s4.02-2.59 7.86-2.219M69.068 72.685c-2.744 1.134-6.028 3.084-6.97 6.145-1.701 5.534 6.45.977 7.748-.49 1.298-1.466-2.791-1.7-3.835-.42M73.157 71.39c-.872.193-1.73.437-2.569.727M74.555 66.926a30.646 30.646 0 0 0-7.527 2.141c-5.206 2.405-12.553 8.257-13.544 12.657M79.47 66.374s-1.408.053-3.431.327"/>
  <path fill="#fff" stroke="#263238" stroke-linecap="round" stroke-linejoin="round" d="M148.791 47.958h22.247c.983 0 1.926.36 2.622 1.002.695.642 1.086 1.512 1.086 2.42v11.082c0 .908-.391 1.778-1.086 2.42a3.873 3.873 0 0 1-2.622 1.002h-15.891l.869 5.867-5.382-5.867h-1.859c-.983 0-1.926-.36-2.622-1.002-.695-.642-1.086-1.512-1.086-2.42V51.38c0-.451.097-.897.284-1.313.187-.416.462-.794.808-1.112a3.74 3.74 0 0 1 1.208-.741 3.981 3.981 0 0 1 1.424-.256Z"/>
  <path fill="#5F0A61" stroke="#263238" stroke-linecap="round" stroke-linejoin="round" d="M157.066 59.936c2.043-1.762 2.153-4.72.243-6.605-1.909-1.887-5.113-1.987-7.157-.225-2.043 1.762-2.153 4.72-.243 6.605 1.909 1.887 5.113 1.987 7.157.225Z"/>
  <path stroke="#263238" stroke-linecap="round" stroke-linejoin="round" d="M151.582 54.895a2.215 2.215 0 0 1 1.104-.428c.405-.041.815.026 1.179.193M156.397 54.895a1.146 1.146 0 0 1 .958-.146c.16.047.306.13.425.24.119.11.208.246.259.394M152.599 57.114c.252.273.563.494.913.65a3.01 3.01 0 0 0 2.255.072 2.83 2.83 0 0 0 .959-.59"/>
  <path fill="#000" d="M152.599 56.708c0-.243-.078-.48-.224-.682a1.31 1.31 0 0 0-.596-.451 1.435 1.435 0 0 0-.769-.07 1.368 1.368 0 0 0-.68.335c-.186.172-.313.39-.364.629-.051.238-.025.484.076.708.1.225.271.416.489.551.219.135.476.207.739.207.352 0 .691-.13.94-.36.249-.23.389-.542.389-.867ZM158.421 56.967a1.024 1.024 0 0 0-.2-.599 1.162 1.162 0 0 0-.527-.395 1.263 1.263 0 0 0-.676-.06 1.21 1.21 0 0 0-.598.297 1.052 1.052 0 0 0-.318.553 1 1 0 0 0 .067.623c.089.197.239.366.431.484a1.244 1.244 0 0 0 1.099.1 1.18 1.18 0 0 0 .381-.236c.108-.1.195-.22.253-.352.059-.132.088-.273.088-.415Z" opacity=".2"/>
  <path fill="#5F0A61" stroke="#263238" stroke-linecap="round" stroke-linejoin="round" d="M168.923 60.089c2.122-1.682 2.365-4.633.543-6.591-1.822-1.958-5.019-2.183-7.141-.501-2.122 1.681-2.365 4.632-.543 6.59 1.822 1.958 5.019 2.183 7.141.502Z"/>
  <path stroke="#263238" stroke-linecap="round" stroke-linejoin="round" d="M163.59 54.895a2.273 2.273 0 0 1 2.278-.235M168.4 54.895c.135-.094.293-.157.461-.183.167-.026.338-.015.5.033.161.048.308.131.427.242.12.111.208.247.259.396M164.602 57.114c.252.273.563.494.913.65a3.003 3.003 0 0 0 2.254.072c.361-.133.687-.334.959-.59"/>
  <path fill="#000" d="M164.602 56.708c0-.243-.078-.48-.224-.682a1.312 1.312 0 0 0-.597-.451 1.432 1.432 0 0 0-.768-.07 1.367 1.367 0 0 0-.681.335c-.186.172-.312.39-.363.629-.052.238-.025.484.075.708.101.225.271.416.49.551.219.135.476.207.739.207.352 0 .69-.13.94-.36.249-.23.389-.542.389-.867ZM170.429 56.967a1.031 1.031 0 0 0-.2-.599 1.162 1.162 0 0 0-.527-.395 1.263 1.263 0 0 0-.676-.06 1.21 1.21 0 0 0-.598.297 1.06 1.06 0 0 0-.319.553c-.044.21-.021.426.068.623.089.197.239.366.431.484a1.244 1.244 0 0 0 1.48-.136c.108-.1.194-.22.253-.352.058-.132.088-.273.088-.415Z" opacity=".2"/>
  <g stroke="#263238" stroke-linecap="round" stroke-linejoin="round">
    <path fill="#fff" d="M109.663 47.958H87.416a3.87 3.87 0 0 0-2.622 1.002c-.695.642-1.086 1.512-1.086 2.42v11.082c0 .908.391 1.778 1.086 2.42a3.87 3.87 0 0 0 2.622 1.002h15.891l-.869 5.867 5.382-5.867h1.843c.983 0 1.926-.36 2.622-1.002.695-.642 1.086-1.512 1.086-2.42V51.38c0-.908-.391-1.778-1.086-2.42a3.873 3.873 0 0 0-2.622-1.002Z"/>
    <path fill="#5F0A61" d="M106.766 54.758a3.896 3.896 0 0 0-.956-2.53 4.481 4.481 0 0 0-2.449-1.437 4.76 4.76 0 0 0-2.887.273 4.282 4.282 0 0 0-2.083 1.865 4.282 4.282 0 0 0-2.082-1.865 4.762 4.762 0 0 0-2.888-.273 4.48 4.48 0 0 0-2.448 1.438 3.889 3.889 0 0 0-.956 2.529c0 2.082 1.727 4.204 3.438 5.44.858.622 4.767 3.032 4.883 2.968.117.064 4.026-2.346 4.884-2.967 1.626-1.173 3.544-3.451 3.544-5.441Z"/>
  </g>
</svg>
