<svg width="40" height="41" viewBox="0 0 40 41" fill="none" xmlns="http://www.w3.org/2000/svg">
<g id="facebook" clip-path="url(#clip0_24_109)">
<path id="Vector" d="M22.7006 39.9926H16.2824C15.2104 39.9926 14.3383 39.1411 14.3383 38.0943V23.9588H10.5938C9.52177 23.9588 8.64971 23.107 8.64971 22.0605V16.0034C8.64971 14.9566 9.52177 14.1051 10.5938 14.1051H14.3383V11.0719C14.3383 8.06439 15.3055 5.50564 17.1349 3.67272C18.9726 1.83144 21.5408 0.858398 24.5618 0.858398L29.4566 0.866161C30.5268 0.867953 31.3974 1.71948 31.3974 2.76447V8.38834C31.3974 9.43513 30.5256 10.2866 29.4539 10.2866L26.1583 10.2878C25.1532 10.2878 24.8973 10.4846 24.8425 10.5449C24.7523 10.6449 24.645 10.9277 24.645 11.7084V14.1048H29.2062C29.5496 14.1048 29.8823 14.1875 30.1682 14.3433C30.7849 14.6798 31.1684 15.3161 31.1684 16.0037L31.1659 22.0608C31.1659 23.107 30.2938 23.9585 29.2218 23.9585H24.645V38.0943C24.645 39.1411 23.7726 39.9926 22.7006 39.9926ZM16.6879 37.6984H22.2951V22.9317C22.2951 22.2327 22.8776 21.6643 23.5931 21.6643H28.8164L28.8185 16.3993H23.5928C22.8773 16.3993 22.2951 15.8308 22.2951 15.1318V11.7084C22.2951 10.8121 22.3884 9.79282 23.0813 9.02668C23.9185 8.10052 25.2379 7.99363 26.1577 7.99363L29.0478 7.99244V3.15978L24.56 3.15261C19.7049 3.15261 16.6879 6.18728 16.6879 11.0719V15.1318C16.6879 15.8305 16.1057 16.3993 15.3902 16.3993H10.9993V21.6643H15.3902C16.1057 21.6643 16.6879 22.2327 16.6879 22.9317V37.6984ZM29.4521 3.16038H29.4524H29.4521Z" fill="white"/>
</g>
<defs>
<clipPath id="clip0_24_109">
<rect width="40" height="39.1342" fill="white" transform="translate(0 0.935059)"/>
</clipPath>
</defs>
</svg>
