<svg width="573" height="562" viewBox="0 0 573 562" fill="none" xmlns="http://www.w3.org/2000/svg">
<path d="M389.539 77.2386C440.503 78.0402 483.118 97.7103 516.644 137.051C517.72 138.241 518.548 139.641 519.078 141.165C519.607 142.689 519.828 144.307 519.726 145.92C519.624 147.533 519.201 149.109 518.484 150.552C517.767 151.995 516.769 153.275 515.552 154.316C514.37 155.339 512.998 156.112 511.517 156.587C510.036 157.063 508.477 157.232 506.931 157.085C505.384 156.938 503.883 156.477 502.515 155.73C501.147 154.984 499.94 153.966 498.965 152.737C486.999 138.37 472.45 126.45 456.095 117.615C430.955 104.04 402.381 98.4567 374.081 101.588C345.78 104.719 319.058 116.421 297.381 135.176C291.217 140.467 285.732 146.62 280.175 152.602C275.321 157.794 268.271 158.62 263.187 154.168C258.103 149.716 257.787 142.279 262.374 136.903C290.452 103.811 325.795 84.2639 368.402 78.2622C371.739 77.7935 375.1 77.4359 378.473 77.2756C382.15 77.1029 385.851 77.2386 389.539 77.2386Z" fill="#263238"/>
<path d="M393.75 125.31C425.99 126.161 456.313 140.109 480.157 168.177C484.865 173.702 484.319 180.83 479.089 185.443C474.126 189.784 466.955 189.204 462.332 183.802C449.882 169.152 434.8 158.41 416.404 153.366C378.922 143.081 346.512 152.454 319.331 180.658C318.324 181.706 317.39 182.828 316.431 183.926C314.385 186.327 311.483 187.803 308.366 188.029C305.248 188.256 302.17 187.215 299.808 185.134C297.446 183.054 295.993 180.106 295.77 176.937C295.547 173.769 296.572 170.64 298.619 168.239C309.105 155.592 322.047 145.281 336.635 137.951C353.368 129.478 371.047 125.396 393.75 125.31Z" fill="#263238"/>
<path d="M446.8 207.308C446.807 209.732 446.09 212.1 444.745 214.102C443.399 216.103 441.489 217.643 439.265 218.518C437.004 219.423 434.521 219.587 432.164 218.985C429.808 218.384 427.695 217.047 426.124 215.164C421.21 209.314 415.053 204.675 408.117 201.598C388.702 193.261 367.407 198.441 353.004 214.966C349.594 218.888 345.335 220.306 340.408 218.789C338.53 218.208 336.824 217.159 335.446 215.738C334.067 214.316 333.061 212.567 332.517 210.649C331.973 208.731 331.91 206.706 332.332 204.757C332.755 202.808 333.65 200.997 334.936 199.489C359.592 169.275 404.95 164.959 434.618 190.191C438.01 193.061 441.133 196.244 443.949 199.699C445.587 201.721 446.291 204.521 447.419 206.975L446.8 207.308Z" fill="#263238"/>
<path d="M389.491 270.252C384.799 270.267 380.209 268.864 376.303 266.222C372.396 263.58 369.351 259.818 367.553 255.413C365.754 251.009 365.285 246.161 366.203 241.484C367.121 236.808 369.385 232.514 372.709 229.148C376.033 225.782 380.266 223.496 384.87 222.58C389.475 221.664 394.243 222.159 398.571 224.002C402.898 225.846 406.588 228.954 409.174 232.934C411.759 236.913 413.123 241.584 413.092 246.352C413.079 252.702 410.586 258.786 406.16 263.268C401.734 267.75 395.739 270.262 389.491 270.252Z" fill="#263238"/>
<path d="M247.605 385.455C258.622 374.258 258.622 356.103 247.605 344.906C236.588 333.708 218.725 333.708 207.707 344.906C196.69 356.103 196.69 374.258 207.707 385.455C218.725 396.652 236.588 396.652 247.605 385.455Z" stroke="#263238" stroke-width="2" stroke-linecap="round" stroke-linejoin="round"/>
<path d="M227.658 393.859C235.365 393.859 241.612 381.022 241.612 365.187C241.612 349.351 235.365 336.514 227.658 336.514C219.952 336.514 213.704 349.351 213.704 365.187C213.704 381.022 219.952 393.859 227.658 393.859Z" stroke="#263238" stroke-width="2" stroke-linecap="round" stroke-linejoin="round"/>
<path d="M208.244 344.9C213.531 349.998 220.555 352.818 227.843 352.77C235.131 352.721 242.118 349.808 247.34 344.641" stroke="#263238" stroke-width="2" stroke-linecap="round" stroke-linejoin="round"/>
<path d="M247.146 385.547C241.849 380.397 234.788 377.545 227.458 377.596C220.129 377.647 213.106 380.596 207.88 385.819" stroke="#263238" stroke-width="2" stroke-linecap="round" stroke-linejoin="round"/>
<path d="M199.446 365.187H255.87" stroke="#263238" stroke-width="2" stroke-linecap="round" stroke-linejoin="round"/>
<path d="M227.658 336.514V393.859" stroke="#263238" stroke-width="2" stroke-linecap="round" stroke-linejoin="round"/>
<path d="M227.792 327.45V324.367" stroke="#263238" stroke-linecap="round" stroke-linejoin="round"/>
<path d="M227.792 318.102V8.34991" stroke="#263238" stroke-linecap="round" stroke-linejoin="round" stroke-dasharray="5.07 5.07"/>
<path d="M227.792 5.22994V2.14685" stroke="#263238" stroke-linecap="round" stroke-linejoin="round"/>
<path d="M182.277 160.309C177.631 160.316 173.177 162.196 169.894 165.537C166.611 168.879 164.767 173.408 164.767 178.13C164.767 187.995 182.301 208.085 182.301 208.085C182.301 208.085 199.823 187.971 199.823 178.13C199.824 175.788 199.371 173.469 198.49 171.305C197.609 169.142 196.316 167.176 194.686 165.521C193.057 163.865 191.122 162.553 188.992 161.659C186.863 160.765 184.581 160.306 182.277 160.309ZM182.277 186.207C180.699 186.21 179.156 185.736 177.843 184.847C176.53 183.958 175.506 182.692 174.902 181.211C174.297 179.73 174.138 178.1 174.445 176.527C174.752 174.954 175.512 173.51 176.627 172.376C177.743 171.242 179.165 170.47 180.712 170.158C182.26 169.845 183.864 170.007 185.321 170.622C186.778 171.236 188.023 172.277 188.898 173.611C189.773 174.945 190.239 176.514 190.237 178.117C190.237 180.264 189.398 182.323 187.906 183.842C186.414 185.361 184.389 186.216 182.277 186.22V186.207Z" fill="#263238" stroke="#263238" stroke-linecap="round" stroke-linejoin="round"/>
<path d="M182.277 160.309V157.226" stroke="#263238" stroke-linecap="round" stroke-linejoin="round"/>
<path d="M182.277 151.146V8.26367" stroke="#263238" stroke-linecap="round" stroke-linejoin="round" stroke-dasharray="4.93 4.93"/>
<path d="M182.277 5.22994V2.14685" stroke="#263238" stroke-linecap="round" stroke-linejoin="round"/>
<path d="M140.827 306.485H106.087C103.37 306.485 100.766 307.581 98.845 309.533C96.9244 311.485 95.8454 314.133 95.8454 316.893V332.925C95.8454 335.686 96.9244 338.333 98.845 340.285C100.766 342.237 103.37 343.334 106.087 343.334L106.439 359.489L117.359 343.334H140.851C143.567 343.334 146.172 342.237 148.092 340.285C150.013 338.333 151.092 335.686 151.092 332.925V316.893C151.092 315.524 150.826 314.169 150.31 312.904C149.794 311.64 149.037 310.491 148.084 309.525C147.13 308.558 145.998 307.792 144.753 307.27C143.508 306.748 142.174 306.482 140.827 306.485Z" fill="white" stroke="#263238" stroke-linecap="round" stroke-linejoin="round"/>
<path d="M127.722 315.154H156.273C158.503 315.171 160.637 316.077 162.215 317.678C163.792 319.28 164.687 321.447 164.706 323.713V336.933C164.687 339.199 163.792 341.367 162.215 342.968C160.637 344.569 158.503 345.476 156.273 345.492L155.994 358.762L147.039 345.492H127.722C125.488 345.492 123.346 344.59 121.767 342.985C120.188 341.38 119.301 339.203 119.301 336.933V323.713C119.301 321.443 120.188 319.266 121.767 317.661C123.346 316.056 125.488 315.154 127.722 315.154Z" fill="#263238" stroke="#263238" stroke-linecap="round" stroke-linejoin="round"/>
<path d="M136.252 330.311C136.252 329.679 136.067 329.061 135.722 328.535C135.376 328.01 134.884 327.6 134.309 327.359C133.734 327.118 133.102 327.055 132.492 327.179C131.882 327.303 131.322 327.609 130.883 328.057C130.444 328.505 130.145 329.075 130.025 329.695C129.906 330.316 129.97 330.958 130.209 331.542C130.449 332.125 130.854 332.623 131.372 332.973C131.891 333.322 132.499 333.508 133.121 333.505C133.953 333.502 134.749 333.164 135.336 332.565C135.923 331.967 136.252 331.156 136.252 330.311Z" fill="#5F0A61"/>
<path d="M142.841 333.505C144.577 333.505 145.984 332.075 145.984 330.311C145.984 328.547 144.577 327.117 142.841 327.117C141.105 327.117 139.698 328.547 139.698 330.311C139.698 332.075 141.105 333.505 142.841 333.505Z" fill="#5F0A61"/>
<path d="M152.56 333.505C154.296 333.505 155.703 332.075 155.703 330.311C155.703 328.547 154.296 327.117 152.56 327.117C150.825 327.117 149.418 328.547 149.418 330.311C149.418 332.075 150.825 333.505 152.56 333.505Z" fill="#5F0A61"/>
<path d="M133.837 295.201V292.118" stroke="#263238" stroke-linecap="round" stroke-linejoin="round"/>
<path d="M133.837 286.038V9.37372" stroke="#263238" stroke-linecap="round" stroke-linejoin="round" stroke-dasharray="4.93 4.93"/>
<path d="M133.837 6.3276V3.24451" stroke="#263238" stroke-linecap="round" stroke-linejoin="round"/>
<path d="M120.878 204.607H59.528V241.049H120.878V204.607Z" fill="white" stroke="#263238" stroke-linecap="round" stroke-linejoin="round"/>
<path d="M59.528 241.049L89.7298 212.71L120.89 241.049H59.528Z" fill="white" stroke="#263238" stroke-linecap="round" stroke-linejoin="round"/>
<path d="M59.528 204.607L90.2152 222.834L120.89 204.607H59.528Z" fill="white" stroke="#263238" stroke-linecap="round" stroke-linejoin="round"/>
<path d="M89.6691 202.942V199.859" stroke="#263238" stroke-linecap="round" stroke-linejoin="round"/>
<path d="M89.6691 194.075V150.653" stroke="#263238" stroke-linecap="round" stroke-linejoin="round" stroke-dasharray="4.69 4.69"/>
<path d="M89.6691 147.767V144.684" stroke="#263238" stroke-linecap="round" stroke-linejoin="round"/>
<path d="M106.074 92.0498C103.074 85.9309 98.3175 80.8815 92.4334 77.5687C86.5492 74.2558 79.8145 72.8357 73.1192 73.4958C66.424 74.156 60.0834 76.8654 54.9355 81.2659C49.7877 85.6665 46.0748 91.5511 44.2876 98.142C43.7537 98.142 43.2198 98.0556 42.6859 98.0556C37.5125 97.9464 32.4966 99.8672 28.6805 103.419C24.8644 106.971 22.5416 111.881 22.1948 117.128C21.848 122.375 23.5039 127.556 26.8183 131.595C30.1327 135.634 34.8508 138.219 39.9921 138.814V139.061H102.058C107.965 139.202 113.704 137.051 118.106 133.045C122.508 129.039 125.243 123.479 125.754 117.496C126.266 111.513 124.516 105.557 120.86 100.839C117.204 96.1211 111.917 92.9958 106.074 92.0991V92.0498Z" fill="white" stroke="#263238" stroke-linecap="round" stroke-linejoin="round"/>
<path d="M76.2852 73.3417V70.2586" stroke="#263238" stroke-linecap="round" stroke-linejoin="round"/>
<path d="M76.2852 64.2403V7.09216" stroke="#263238" stroke-linecap="round" stroke-linejoin="round" stroke-dasharray="4.88 4.88"/>
<path d="M76.2852 4.08309V1" stroke="#263238" stroke-linecap="round" stroke-linejoin="round"/>
<path d="M36.8494 293.338C35.4585 293.344 34.1076 293.812 33.0029 294.67L17.726 283.016C18.0101 282.282 18.1542 281.499 18.1507 280.71C18.1644 279.245 17.6895 277.818 16.8033 276.662C15.9171 275.506 14.6719 274.689 13.2704 274.344C11.869 273.999 10.3939 274.146 9.08555 274.762C7.77718 275.379 6.71262 276.427 6.06527 277.736C5.41792 279.046 5.22595 280.539 5.52062 281.974C5.81529 283.409 6.57924 284.699 7.68801 285.636C8.79679 286.573 10.185 287.101 11.6266 287.134C13.0682 287.166 14.4782 286.702 15.6268 285.816L30.9037 297.457C30.6265 298.198 30.4827 298.984 30.479 299.776C30.4817 300.564 30.6256 301.346 30.9037 302.082L15.6268 313.724C14.4821 312.843 13.0779 312.38 11.6421 312.412C10.2064 312.444 8.82327 312.967 7.7172 313.898C6.61113 314.829 5.84699 316.113 5.54877 317.54C5.25056 318.968 5.43575 320.456 6.0743 321.764C6.71286 323.071 7.76731 324.121 9.06659 324.743C10.3659 325.364 11.8337 325.522 13.232 325.189C14.6304 324.856 15.8771 324.053 16.7699 322.91C17.6627 321.767 18.1493 320.351 18.1507 318.891C18.1528 318.098 18.0088 317.312 17.726 316.573L33.0029 304.931C33.8089 305.549 34.748 305.964 35.7428 306.141C36.7376 306.318 37.7595 306.252 38.7243 305.949C39.6891 305.645 40.5691 305.113 41.2916 304.396C42.0142 303.679 42.5587 302.798 42.8802 301.825C43.2017 300.852 43.291 299.815 43.1407 298.8C42.9904 297.785 42.6048 296.821 42.0157 295.987C41.4266 295.153 40.651 294.474 39.7527 294.005C38.8544 293.536 37.8593 293.29 36.8494 293.289V293.338Z" fill="#263238"/>
<path d="M27.4576 80.8273V77.7442" stroke="#263238" stroke-linecap="round" stroke-linejoin="round"/>
<path d="M27.4576 71.1218V8.22675" stroke="#263238" stroke-linecap="round" stroke-linejoin="round" stroke-dasharray="5.37 5.37"/>
<path d="M27.4576 4.92171V1.83862" stroke="#263238" stroke-linecap="round" stroke-linejoin="round"/>
<path d="M27.4576 279.625V276.542" stroke="#263238" stroke-linecap="round" stroke-linejoin="round"/>
<path d="M27.4576 270.363V149.716" stroke="#263238" stroke-linecap="round" stroke-linejoin="round" stroke-dasharray="5.02 5.02"/>
<path d="M27.4576 146.62V143.537" stroke="#263238" stroke-linecap="round" stroke-linejoin="round"/>
<path d="M92.4357 471.035C100.933 471.035 107.822 452.671 107.822 430.018C107.822 407.365 100.933 389.001 92.4357 389.001C83.9382 389.001 77.0497 407.365 77.0497 430.018C77.0497 452.671 83.9382 471.035 92.4357 471.035Z" fill="#5F0A61" stroke="#263238" stroke-miterlimit="10"/>
<path d="M140.241 404.745C145.052 389.361 143.608 375.165 137.017 373.036C130.426 370.907 121.183 381.652 116.373 397.036C111.562 412.42 113.006 426.617 119.597 428.746C126.188 430.875 135.431 420.129 140.241 404.745Z" fill="#5F0A61" stroke="#263238" stroke-miterlimit="10"/>
<path d="M27.3484 497.501C11.6832 494.8 -0.0747275 486.993 1.07801 480.075C2.23075 473.157 15.8695 469.716 31.5225 472.404C47.1755 475.093 58.9456 482.911 57.7928 489.83C56.6401 496.748 43.0014 500.189 27.3484 497.501Z" fill="#5F0A61" stroke="#263238" stroke-miterlimit="10"/>
<path d="M154.732 459.579C141.652 472.762 126.193 478.484 120.211 472.343C114.229 466.201 119.98 450.551 133.061 437.368C146.141 424.185 161.6 418.463 167.582 424.604C173.564 430.746 167.813 446.395 154.732 459.579Z" fill="#5F0A61" stroke="#263238" stroke-miterlimit="10"/>
<path d="M64.588 423.408C77.2438 442.067 81.0418 461.724 73.009 467.323C64.9762 472.922 48.2797 462.353 35.6238 443.67C22.968 424.986 19.1578 405.44 27.2028 399.779C35.2477 394.119 51.9199 404.761 64.588 423.408Z" fill="#5F0A61" stroke="#263238" stroke-miterlimit="10"/>
<path d="M93.5157 468.988L94.7048 525.384" stroke="#263238" stroke-miterlimit="10" stroke-linecap="round"/>
<path d="M92.0838 414.763L93.5157 468.988" stroke="#263238" stroke-miterlimit="10" stroke-linecap="round"/>
<path d="M92.1809 405.921L92.0838 410.077" stroke="#263238" stroke-miterlimit="10" stroke-linecap="round"/>
<path d="M72.9484 464.635C81.7764 483.166 86.942 503.278 88.1524 523.83" stroke="#263238" stroke-miterlimit="10" stroke-linecap="round"/>
<path d="M46.5203 423.568C57.078 436.009 65.9649 449.818 72.9484 464.635" stroke="#263238" stroke-miterlimit="10" stroke-linecap="round"/>
<path d="M38.2084 414.627C38.2084 414.627 39.798 416.12 42.4189 418.944" stroke="#263238" stroke-miterlimit="10" stroke-linecap="round"/>
<path d="M121.169 470.456C110.377 485.832 101.964 502.796 96.2216 520.759" stroke="#263238" stroke-miterlimit="10" stroke-linecap="round"/>
<path d="M138.861 449.836C132.347 456.154 126.424 463.074 121.169 470.505" stroke="#263238" stroke-miterlimit="10" stroke-linecap="round"/>
<path d="M157.766 435.136C152.955 437.914 148.438 441.187 144.285 444.903" stroke="#263238" stroke-miterlimit="10" stroke-linecap="round"/>
<path d="M120.514 424.912C112.02 452.179 100.553 492.457 95.2144 527.431" stroke="#263238" stroke-miterlimit="10" stroke-linecap="round"/>
<path d="M125.707 408.745C124.191 413.345 122.431 418.796 120.514 424.912" stroke="#263238" stroke-miterlimit="10" stroke-linecap="round"/>
<path d="M131.034 393.107C131.034 393.107 129.542 397.288 127.139 404.441" stroke="#263238" stroke-miterlimit="10" stroke-linecap="round"/>
<path d="M57.0041 486.056C67.6579 490.163 78.0447 498.08 83.1046 513.076" stroke="#263238" stroke-miterlimit="10" stroke-linecap="round"/>
<path d="M37.359 481.987C44.0787 482.337 50.7088 483.709 57.0284 486.056" stroke="#263238" stroke-miterlimit="10" stroke-linecap="round"/>
<path d="M24.5818 482.308C24.5818 482.308 26.4747 482.036 29.6053 481.913" stroke="#263238" stroke-miterlimit="10" stroke-linecap="round"/>
<path d="M161.37 497.501C177.035 494.8 188.793 486.993 187.64 480.075C186.487 473.157 172.848 469.716 157.183 472.404C141.518 475.093 129.772 482.911 130.925 489.83C132.078 496.748 145.704 500.189 161.37 497.501Z" fill="#5F0A61" stroke="#263238" stroke-miterlimit="10"/>
<path d="M132.005 485.933C121.23 489.99 110.673 497.92 105.565 513.064" stroke="#263238" stroke-miterlimit="10" stroke-linecap="round"/>
<path d="M153.033 481.9C145.858 482.107 138.761 483.468 132.005 485.933" stroke="#263238" stroke-miterlimit="10" stroke-linecap="round"/>
<path d="M164.124 482.308C164.124 482.308 162.911 482.135 160.739 481.999" stroke="#263238" stroke-miterlimit="10" stroke-linecap="round"/>
<path d="M131.823 561C136.561 550.915 139.047 539.89 139.104 528.714C139.111 522.025 138.129 515.374 136.191 508.982H54.2375C52.2939 515.373 51.3121 522.025 51.3253 528.714C51.3872 539.889 53.8731 550.913 58.6058 561H131.823Z" fill="#263238"/>
<path d="M52.1262 518.207C51.8957 519.724 51.7137 521.253 51.5802 522.819H138.837C138.703 521.253 138.521 519.724 138.291 518.207H52.1262Z" fill="#7A7A7A"/>
<path d="M137.914 541.786C138.181 540.257 138.424 538.715 138.606 537.174H51.8229C52.0049 538.715 52.2354 540.257 52.5145 541.786H137.914Z" fill="#7A7A7A"/>
<path d="M61.9185 528.973C61.9185 529.683 61.7114 530.376 61.3234 530.967C60.9354 531.557 60.3839 532.017 59.7387 532.288C59.0935 532.56 58.3835 532.631 57.6986 532.493C57.0136 532.354 56.3844 532.012 55.8906 531.51C55.3968 531.009 55.0605 530.369 54.9242 529.673C54.788 528.977 54.8579 528.255 55.1252 527.6C55.3924 526.944 55.845 526.383 56.4257 525.989C57.0064 525.595 57.6891 525.384 58.3874 525.384C59.3229 525.387 60.2192 525.767 60.8807 526.439C61.5422 527.111 61.9153 528.022 61.9185 528.973Z" fill="#8C8C8C"/>
<path d="M79.5736 528.973C79.5736 529.683 79.3665 530.376 78.9785 530.967C78.5905 531.557 78.039 532.017 77.3938 532.288C76.7486 532.56 76.0386 532.631 75.3537 532.493C74.6687 532.354 74.0396 532.012 73.5457 531.51C73.0519 531.009 72.7156 530.369 72.5794 529.673C72.4431 528.977 72.5131 528.255 72.7803 527.6C73.0476 526.944 73.5002 526.383 74.0808 525.989C74.6615 525.595 75.3442 525.384 76.0426 525.384C76.979 525.384 77.8772 525.762 78.5394 526.435C79.2016 527.108 79.5736 528.021 79.5736 528.973Z" fill="#8C8C8C"/>
<path d="M97.2287 528.973C97.2287 529.683 97.0216 530.376 96.6336 530.967C96.2456 531.557 95.6941 532.017 95.0489 532.288C94.4037 532.56 93.6938 532.631 93.0088 532.493C92.3239 532.354 91.6947 532.012 91.2009 531.51C90.707 531.009 90.3707 530.369 90.2345 529.673C90.0982 528.977 90.1682 528.255 90.4354 527.6C90.7027 526.944 91.1553 526.383 91.7359 525.989C92.3166 525.595 92.9993 525.384 93.6977 525.384C94.6342 525.384 95.5323 525.762 96.1945 526.435C96.8567 527.108 97.2287 528.021 97.2287 528.973Z" fill="#8C8C8C"/>
<path d="M111.353 532.562C113.303 532.562 114.884 530.955 114.884 528.973C114.884 526.991 113.303 525.384 111.353 525.384C109.403 525.384 107.822 526.991 107.822 528.973C107.822 530.955 109.403 532.562 111.353 532.562Z" fill="#8C8C8C"/>
<path d="M132.539 528.973C132.539 529.683 132.332 530.376 131.944 530.967C131.556 531.557 131.004 532.017 130.359 532.288C129.714 532.56 129.004 532.631 128.319 532.493C127.634 532.354 127.005 532.012 126.511 531.51C126.017 531.009 125.681 530.369 125.545 529.673C125.409 528.977 125.478 528.255 125.746 527.6C126.013 526.944 126.466 526.383 127.046 525.989C127.627 525.595 128.31 525.384 129.008 525.384C129.944 525.384 130.843 525.762 131.505 526.435C132.167 527.108 132.539 528.021 132.539 528.973Z" fill="#8C8C8C"/>
<path d="M517.445 279.748C516.22 279.605 514.989 279.959 514.019 280.732C513.049 281.506 512.419 282.636 512.264 283.88L488.748 468.544L504.061 470.295L521.595 284.952C521.711 283.706 521.341 282.462 520.566 281.489C519.79 280.516 518.669 279.891 517.445 279.748Z" fill="#263238" stroke="#263238" stroke-linecap="round" stroke-linejoin="round"/>
<path d="M280.976 279.748C282.2 279.605 283.431 279.959 284.401 280.732C285.371 281.506 286.002 282.636 286.157 283.88L309.697 468.544L294.384 470.295L276.826 284.952C276.71 283.706 277.079 282.462 277.855 281.489C278.631 280.516 279.751 279.891 280.976 279.748Z" fill="#263238" stroke="#263238" stroke-linecap="round" stroke-linejoin="round"/>
<path d="M544.492 464.82H305.122C302.046 464.82 299.553 467.354 299.553 470.48V555.327C299.553 558.453 302.046 560.988 305.122 560.988H544.492C547.568 560.988 550.062 558.453 550.062 555.327V470.48C550.062 467.354 547.568 464.82 544.492 464.82Z" fill="white" stroke="#263238" stroke-linecap="round" stroke-linejoin="round"/>
<path d="M550.304 476.684H299.31C296.516 476.684 294.25 478.986 294.25 481.826V544.006C294.25 546.846 296.516 549.149 299.31 549.149H550.304C553.099 549.149 555.364 546.846 555.364 544.006V481.826C555.364 478.986 553.099 476.684 550.304 476.684Z" fill="white" stroke="#263238" stroke-linecap="round" stroke-linejoin="round"/>
<path d="M413.116 464.82H173.746C170.67 464.82 168.177 467.354 168.177 470.48V555.327C168.177 558.453 170.67 560.988 173.746 560.988H413.116C416.192 560.988 418.686 558.453 418.686 555.327V470.48C418.686 467.354 416.192 464.82 413.116 464.82Z" fill="white" stroke="#263238" stroke-linecap="round" stroke-linejoin="round"/>
<path d="M418.928 476.684H167.934C165.14 476.684 162.874 478.986 162.874 481.826V544.006C162.874 546.846 165.14 549.149 167.934 549.149H418.928C421.723 549.149 423.988 546.846 423.988 544.006V481.826C423.988 478.986 421.723 476.684 418.928 476.684Z" fill="white" stroke="#263238" stroke-linecap="round" stroke-linejoin="round"/>
<path d="M398.191 492.568H190.916C187.559 492.568 184.837 495.334 184.837 498.746V525.335C184.837 528.747 187.559 531.513 190.916 531.513H398.191C401.548 531.513 404.27 528.747 404.27 525.335V498.746C404.27 495.334 401.548 492.568 398.191 492.568Z" fill="#263238" stroke="#263238" stroke-linecap="round" stroke-linejoin="round"/>
<path d="M197.032 502.002C194.843 502.892 193.026 504.527 191.891 506.627C190.756 508.727 190.373 511.163 190.808 513.518C191.243 515.873 192.469 518.001 194.277 519.54C196.084 521.079 198.361 521.932 200.718 521.955C203.076 521.977 205.368 521.167 207.203 519.664C209.039 518.16 210.304 516.055 210.783 513.709C211.261 511.362 210.924 508.92 209.828 506.799C208.732 504.677 206.945 503.008 204.773 502.076" stroke="#5F0A61" stroke-width="3" stroke-miterlimit="10" stroke-linecap="round"/>
<path d="M200.915 497.994V505.652" stroke="#5F0A61" stroke-width="3" stroke-miterlimit="10" stroke-linecap="round"/>
<path d="M319.683 522.881C319.683 522.881 309.77 526.05 307.671 526.457C305.571 526.864 299.177 525.224 298.922 527.69C298.667 530.157 302.635 532.537 308.86 535.09C315.085 537.642 321.916 539.727 326.551 539.517C331.186 539.307 330.301 530.021 330.556 528.418C330.81 526.815 319.683 522.881 319.683 522.881Z" fill="white" stroke="#263238" stroke-linecap="round" stroke-linejoin="round"/>
<path d="M312.112 532.845C304.358 529.589 300.742 527.912 299.165 527.111C299.021 527.289 298.936 527.509 298.922 527.74C298.728 530.317 302.635 532.586 308.86 535.139C315.085 537.692 321.916 539.776 326.551 539.566C328.286 539.48 329.245 538.136 329.779 536.397C323.714 536.442 317.703 535.234 312.112 532.845Z" fill="white" stroke="#263238" stroke-linecap="round" stroke-linejoin="round"/>
<path d="M379.929 428.316L377.332 429.759V433.594C377.332 433.594 323.178 442.77 322.474 447.567C321.77 452.364 319.623 523.732 319.623 523.732C319.623 523.732 328.359 533.289 330.24 531.131C332.121 528.973 332.606 522.054 332.606 522.054L341.585 458.839C341.585 458.839 402.584 464.536 411.793 461.65C421.003 458.765 425.481 446.309 425.711 440.55C425.942 434.791 425.954 432.151 425.954 432.151L384.395 426.405L379.929 428.316Z" fill="#5F0A61" stroke="#263238" stroke-linecap="round" stroke-linejoin="round"/>
<path d="M361.522 525.458L361.133 526.112C359.175 529.291 356.937 532.283 354.448 535.053C350.431 539.369 343.83 542.97 344.061 544.401C344.291 545.831 348.781 546.805 364.118 542.008C371.023 539.85 376.156 539.85 376.859 537.445C377.563 535.04 371.909 524.743 371.909 524.743L361.522 525.458Z" fill="white" stroke="#263238" stroke-linecap="round" stroke-linejoin="round"/>
<path d="M376.859 537.396C376.948 536.235 376.739 535.071 376.253 534.017C371.067 536.523 365.664 538.538 360.114 540.035C355.097 541.447 349.982 542.474 344.813 543.106C344.303 543.611 344.012 544.043 344.061 544.339C344.291 545.782 348.781 546.744 364.118 541.946C371.047 539.862 376.155 539.862 376.859 537.396Z" fill="white" stroke="#263238" stroke-linecap="round" stroke-linejoin="round"/>
<path d="M394.806 438.626C394.806 438.626 389.139 433.594 388.666 436.468C388.193 439.341 387.246 440.069 387.246 440.069C387.246 440.069 347.604 444.903 343.139 447.74C338.673 450.576 337.241 454.461 339.838 460.22C342.435 465.979 359.896 529.059 359.896 529.059C361.714 529.894 363.614 530.535 365.562 530.971C368.159 531.452 373.583 528.812 373.583 528.812C373.583 528.812 372.928 517.06 371.278 513.224C369.627 509.389 362.869 465.128 362.869 465.128C362.869 465.128 391.517 465.239 401.2 465.239C410.883 465.239 421.489 457.087 423.612 450.366C425.735 443.645 424.825 442.215 424.825 442.215" fill="#5F0A61"/>
<path d="M394.806 438.626C394.806 438.626 389.139 433.594 388.666 436.468C388.193 439.341 387.246 440.069 387.246 440.069C387.246 440.069 347.604 444.903 343.139 447.74C338.673 450.576 337.241 454.461 339.838 460.22C342.435 465.979 359.896 529.059 359.896 529.059C361.714 529.894 363.614 530.535 365.562 530.971C368.159 531.452 373.583 528.812 373.583 528.812C373.583 528.812 372.928 517.06 371.278 513.224C369.627 509.389 362.869 465.128 362.869 465.128C362.869 465.128 391.517 465.239 401.2 465.239C410.883 465.239 421.489 457.087 423.612 450.366C425.735 443.645 424.825 442.215 424.825 442.215" stroke="#263238" stroke-linecap="round" stroke-linejoin="round"/>
<path d="M362.844 465.141L361.473 457.593" stroke="#263238" stroke-linecap="round" stroke-linejoin="round"/>
<path d="M407.898 449.232C408.658 450.308 409.274 451.481 409.731 452.722" stroke="#263238" stroke-linecap="round" stroke-linejoin="round"/>
<path d="M397.111 440.907C400.603 442.372 403.76 444.556 406.382 447.32" stroke="#263238" stroke-linecap="round" stroke-linejoin="round"/>
<path d="M406.078 442.264C409.728 443.963 412.753 446.796 414.718 450.354" stroke="#263238" stroke-linecap="round" stroke-linejoin="round"/>
<path d="M380.512 369.454C380.512 369.454 380.512 369.799 380.451 370.391C380.245 373.782 376.544 378.826 378.752 385.19C383.764 399.545 382.744 410.089 382.295 407.018C382.999 411.815 378.752 422.125 378.752 425.517C378.752 428.908 370.016 429.377 389.843 435.383C409.67 441.388 416.538 441.117 421.464 439.193C426.391 437.269 429.958 435.592 430.431 431.523C430.905 427.453 426.658 420.251 426.427 414.011C426.197 407.77 425.347 388.248 419.45 375.78C413.553 363.312 397.973 354.667 397.973 354.667L380.512 369.454Z" fill="white" stroke="#263238" stroke-linecap="round" stroke-linejoin="round"/>
<path d="M411.575 416.539C412.606 415.737 413.565 414.923 414.451 414.072" stroke="#263238" stroke-linecap="round" stroke-linejoin="round"/>
<path d="M386.7 430.647C394.01 427.382 401.064 423.556 407.801 419.203" stroke="#263238" stroke-linecap="round" stroke-linejoin="round"/>
<path d="M394.308 429.266C391.504 430.691 388.57 431.836 385.547 432.682" stroke="#263238" stroke-linecap="round" stroke-linejoin="round"/>
<path d="M398.142 427.157C398.142 427.157 397.475 427.576 396.359 428.193" stroke="#263238" stroke-linecap="round" stroke-linejoin="round"/>
<path d="M401.407 395.45L407.777 387.545" stroke="#263238" stroke-linecap="round" stroke-linejoin="round"/>
<path d="M378.328 316.264C376.73 317.959 375.307 319.814 374.081 321.802C373.049 323.873 372.867 325.378 371.108 326.735C369.348 328.091 365.708 327.215 365.805 329.349C365.902 331.482 368.086 333.517 368.086 333.517C368.086 333.517 366.315 346.54 366.982 348.612C367.65 350.684 376.823 351.079 376.823 351.079L381.495 366.543L397.985 355.185L398.422 350.684C398.834 348.859 401.795 343.211 404.246 338.968C406.697 334.726 405.605 323.553 399.684 318.743C393.762 313.934 385.923 314.427 383.509 314.254C381.094 314.082 378.328 316.264 378.328 316.264Z" fill="white" stroke="#263238" stroke-linecap="round" stroke-linejoin="round"/>
<path d="M369.154 336.033C369.933 336.824 370.915 337.375 371.988 337.624C373.062 337.873 374.182 337.809 375.221 337.439" stroke="#263238" stroke-linecap="round" stroke-linejoin="round"/>
<path d="M376.168 328.202C375.767 329.152 375.136 329.781 374.76 329.62C374.384 329.46 374.408 328.547 374.821 327.598C375.233 326.648 375.852 326.019 376.216 326.18C376.58 326.34 376.568 327.252 376.168 328.202Z" fill="#263238"/>
<path d="M375.525 323.491C375.525 323.491 379.08 322.776 379.614 326.352" stroke="#263238" stroke-linecap="round" stroke-linejoin="round"/>
<path d="M376.762 351.017L382.477 350.795L378.558 355.654L376.762 351.017Z" fill="#263238" stroke="#263238" stroke-linecap="round" stroke-linejoin="round"/>
<path d="M389.806 344.999L387.331 344.246L385.863 346.59" stroke="#263238" stroke-linecap="round" stroke-linejoin="round"/>
<path d="M388.423 310.542C388.423 310.542 391.99 306.374 387.707 304.376C383.424 302.378 368.851 305.991 370.416 312.491C371.981 318.99 385.584 319.816 386.882 319.89C388.18 319.964 384.285 321.395 385.353 323.368C386.421 325.341 388.993 326.327 389.127 328.461C389.26 330.594 386.7 333.456 387.913 334.701C389.127 335.947 391.068 334.085 392.306 333.604C393.544 333.123 396.929 336.588 394.26 341.003C391.59 345.418 389.794 344.962 389.794 344.962C389.48 345.774 389.429 346.668 389.647 347.512C389.865 348.357 390.341 349.109 391.008 349.66C393.434 351.744 398.288 351.128 399.501 349.105C400.715 347.083 402.814 345.258 407.182 340.892C411.551 336.526 413.626 325.501 410.604 317.892C407.583 310.283 393.883 307.188 388.423 310.542Z" fill="#263238" stroke="#263238" stroke-linecap="round" stroke-linejoin="round"/>
<path d="M397.924 351.042L375.44 367.875L376.726 375.139L402.038 356.184L397.924 351.042Z" fill="white" stroke="#263238" stroke-linecap="round" stroke-linejoin="round"/>
<path d="M341.792 449.195L381.397 440.377L372.139 434.791L334.56 443.312L341.792 449.195Z" fill="white" stroke="#263238" stroke-linecap="round" stroke-linejoin="round"/>
<path d="M324.161 411.001L341.792 449.195L334.56 443.312L316.638 407.474L324.161 411.001Z" fill="#263238" stroke="#263238" stroke-linecap="round" stroke-linejoin="round"/>
<path d="M356.013 432.953L346.888 435.346L341.233 443.67C341.46 443.893 341.731 444.066 342.028 444.177C342.325 444.287 342.641 444.333 342.957 444.311C343.903 444.151 346.415 441.906 346.415 441.906L353.028 440.143C353.028 440.143 349.57 442.227 349.57 442.708C349.57 443.189 350.201 443.349 351.766 443.189C353.331 443.029 357.117 439.489 357.117 439.489L359.641 436.283L356.013 432.953Z" fill="white" stroke="#263238" stroke-linecap="round" stroke-linejoin="round"/>
<path d="M380.669 391.307L375.998 412.962L356.013 432.953L360.733 437.43L377.332 429.759L378.485 426.713L382.489 408.572L380.669 391.307Z" fill="white" stroke="#263238" stroke-linecap="round" stroke-linejoin="round"/>
<path d="M350.48 428.587C350.48 428.587 344.109 429.549 341.755 429.549C339.401 429.549 333.735 430.03 332.788 430.511C331.842 430.992 327.352 433.866 327.595 436.024C327.837 438.182 331.842 436.27 331.842 436.27C332.674 438.211 333.703 440.059 334.912 441.783C336.792 444.422 337.739 443.46 341.513 442.03C345.286 440.599 350.953 436.27 350.953 436.27L354.266 433.15L350.48 428.587Z" fill="white" stroke="#263238" stroke-linecap="round" stroke-linejoin="round"/>
<path d="M405.896 361.154C405.896 361.154 396.189 359.711 392.682 364.508C388.654 370.295 385.989 376.944 384.892 383.944C384.176 390.172 379.699 402.652 379.699 402.652L349.691 428.045L354.884 435.95C354.884 435.95 391.287 418.685 392.209 417.525C393.131 416.366 405.18 384.66 405.18 384.66" fill="white"/>
<path d="M405.896 361.154C405.896 361.154 396.189 359.711 392.682 364.508C388.654 370.295 385.989 376.944 384.892 383.944C384.176 390.172 379.699 402.652 379.699 402.652L349.691 428.045L354.884 435.95C354.884 435.95 391.287 418.685 392.209 417.525C393.131 416.366 405.18 384.66 405.18 384.66" stroke="#263238" stroke-linecap="round" stroke-linejoin="round"/>
<path d="M13.6975 561H572" stroke="#263238" stroke-linecap="round" stroke-linejoin="round"/>
</svg>
