<svg width="73" height="70" viewBox="0 0 73 70" fill="none" xmlns="http://www.w3.org/2000/svg">
<g id="Frame">
<path id="Vector" d="M62.0539 59.7917C61.499 60.334 60.84 60.7643 60.1147 61.0579C59.3893 61.3514 58.6118 61.5025 57.8266 61.5025C57.0413 61.5025 56.2638 61.3514 55.5384 61.0579C54.8131 60.7643 54.1541 60.334 53.5992 59.7917L38.034 44.5958C33.9222 46.6381 29.2063 47.2059 24.7095 46.2C20.724 45.2935 17.1337 43.1809 14.4512 40.1639C11.7686 37.1469 10.1308 33.3797 9.77169 29.4C9.43749 25.9155 10.1102 22.4093 11.7136 19.2792L24.7095 32.0833L32.1784 30.625L33.6722 23.3333L20.5568 10.7333C23.7541 9.13788 27.346 8.4507 30.9236 8.75C35 9.10062 38.8588 10.6995 41.9491 13.3184C45.0395 15.9373 47.2034 19.4424 48.1319 23.3333C49.1334 27.6865 48.5525 32.2442 46.4888 36.225L62.0539 51.4208C62.6276 51.9646 63.0837 52.6152 63.3951 53.3341C63.7066 54.053 63.867 54.8257 63.867 55.6063C63.867 56.3868 63.7066 57.1595 63.3951 57.8784C63.0837 58.5973 62.6276 59.2479 62.0539 59.7917V59.7917Z" stroke="black" stroke-width="4" stroke-linecap="round" stroke-linejoin="round"/>
</g>
</svg>
