<svg width="546" height="526" viewBox="0 0 546 526" fill="none" xmlns="http://www.w3.org/2000/svg">
<path d="M1 471.42H527.598" stroke="#263238" stroke-linecap="round" stroke-linejoin="round"/>
<path d="M498.54 1H53.9925V255.59H498.54V1Z" fill="#5F0A61"/>
<path opacity="0.6" d="M498.54 1H53.9925V255.59H498.54V1Z" fill="white"/>
<path d="M498.54 1H53.9925V255.59H498.54V1Z" stroke="#263238" stroke-linecap="round" stroke-linejoin="round"/>
<path d="M498.54 1H53.9925V26.7793H498.54V1Z" fill="#263238" stroke="#263238" stroke-linecap="round" stroke-linejoin="round"/>
<path d="M290.739 7.81195H81.3661V19.9533H290.739V7.81195Z" fill="white" stroke="#263238" stroke-linecap="round" stroke-linejoin="round"/>
<path d="M120.026 7.81195H81.3661V19.9533H120.026V7.81195Z" fill="#5F0A61"/>
<path opacity="0.5" d="M120.026 7.81195H81.3661V19.9533H120.026V7.81195Z" fill="white" stroke="#263238" stroke-linecap="round" stroke-linejoin="round"/>
<path d="M120.026 7.81195H81.3661V19.9533H120.026V7.81195Z" stroke="#263238" stroke-linecap="round" stroke-linejoin="round"/>
<path d="M300.102 155.83H152.159V167.971H300.102V155.83Z" fill="white" stroke="#263238" stroke-linecap="round" stroke-linejoin="round"/>
<path d="M493.234 180.882H377.001V193.023H493.234V180.882Z" fill="white" stroke="#263238" stroke-linecap="round" stroke-linejoin="round"/>
<path d="M493.234 205.262H377.001V217.404H493.234V205.262Z" fill="white" stroke="#263238" stroke-linecap="round" stroke-linejoin="round"/>
<path d="M493.234 229.643H377.001V241.784H493.234V229.643Z" fill="white" stroke="#263238" stroke-linecap="round" stroke-linejoin="round"/>
<path d="M190.818 155.83H152.159V167.971H190.818V155.83Z" fill="#5F0A61" stroke="#263238" stroke-linecap="round" stroke-linejoin="round"/>
<path opacity="0.7" d="M361.532 180.882H152.159V241.784H361.532V180.882Z" fill="white"/>
<path d="M492.799 35.8853H152.159V55.6499H492.799V35.8853Z" fill="white" stroke="#263238" stroke-linecap="round" stroke-linejoin="round"/>
<path opacity="0.5" d="M492.799 64.7419H152.159V142.905H492.799V64.7419Z" fill="white"/>
<path d="M215.062 35.8853H152.159V55.6499H215.062V35.8853Z" fill="#5F0A61" stroke="#263238" stroke-linecap="round" stroke-linejoin="round"/>
<path d="M198.876 71.3301H156.721V84.5764H198.876V71.3301Z" fill="#5F0A61" stroke="#263238" stroke-linecap="round" stroke-linejoin="round"/>
<path d="M419.157 161.341H377.001V174.587H419.157V161.341Z" fill="#5F0A61" stroke="#263238" stroke-linecap="round" stroke-linejoin="round"/>
<path d="M107.827 126.484H65.672V139.73H107.827V126.484Z" fill="#5F0A61" stroke="#263238" stroke-linecap="round" stroke-linejoin="round"/>
<path d="M422.161 90.9128H156.721V97.529H422.161V90.9128Z" fill="white" stroke="#263238" stroke-linecap="round" stroke-linejoin="round"/>
<path d="M96.1199 145.87H66.1633V152.487H96.1199V145.87Z" fill="white" stroke="#263238" stroke-linecap="round" stroke-linejoin="round"/>
<path d="M107.827 164.698H65.672V177.944H107.827V164.698Z" fill="#5F0A61" stroke="#263238" stroke-linecap="round" stroke-linejoin="round"/>
<path d="M103.728 184.085H66.1633V190.701H103.728V184.085Z" fill="white" stroke="#263238" stroke-linecap="round" stroke-linejoin="round"/>
<path d="M99.1661 196.856H66.1633V203.472H99.1661V196.856Z" fill="white" stroke="#263238" stroke-linecap="round" stroke-linejoin="round"/>
<path d="M91.5436 209.626H66.1633V216.243H91.5436V209.626Z" fill="white" stroke="#263238" stroke-linecap="round" stroke-linejoin="round"/>
<path d="M103.728 222.397H66.1633V229.013H103.728V222.397Z" fill="white" stroke="#263238" stroke-linecap="round" stroke-linejoin="round"/>
<path d="M96.1199 235.154H66.1633V241.77H96.1199V235.154Z" fill="white" stroke="#263238" stroke-linecap="round" stroke-linejoin="round"/>
<path d="M443.484 103.865H156.721V110.482H443.484V103.865Z" fill="white" stroke="#263238" stroke-linecap="round" stroke-linejoin="round"/>
<path d="M411.001 116.832H156.721V123.448H411.001V116.832Z" fill="white" stroke="#263238" stroke-linecap="round" stroke-linejoin="round"/>
<path d="M436.381 129.785H156.721V136.401H436.381V129.785Z" fill="white" stroke="#263238" stroke-linecap="round" stroke-linejoin="round"/>
<path d="M492.799 7.81195H480.614V19.9533H492.799V7.81195Z" fill="#5F0A61" stroke="#263238" stroke-linecap="round" stroke-linejoin="round"/>
<path d="M462.744 7.81195H450.559V19.9533H462.744V7.81195Z" fill="#5F0A61"/>
<path opacity="0.6" d="M462.744 7.81195H450.559V19.9533H462.744V7.81195Z" fill="white"/>
<path d="M462.744 7.81195H450.559V19.9533H462.744V7.81195Z" stroke="#263238" stroke-linecap="round" stroke-linejoin="round"/>
<path d="M477.764 7.81195H465.579V19.9533H477.764V7.81195Z" fill="#5F0A61"/>
<path opacity="0.4" d="M477.764 7.81195H465.579V19.9533H477.764V7.81195Z" fill="white"/>
<path d="M477.764 7.81195H465.579V19.9533H477.764V7.81195Z" stroke="#263238" stroke-linecap="round" stroke-linejoin="round"/>
<path d="M144.452 35.8853H65.672V114.384H144.452V35.8853Z" fill="white"/>
<path d="M102.563 47.4111C102.563 47.4111 88.8764 46.9075 90.6592 50.978C92.442 55.0484 81.9698 55.9576 84.4966 60.4057C87.0234 64.8537 79.7378 70.8824 83.4157 73.2324C87.0936 75.5823 85.395 80.0164 83.6403 82.3523C81.8856 84.6883 86.4479 87.7236 90.0556 87.6817C93.6633 87.6397 88.6518 91.878 90.0556 92.8991C91.4593 93.9202 93.4948 90.3113 96.176 91.0667C98.8572 91.822 104.936 89.5001 106.592 90.1435C108.248 90.7869 129.993 92.0598 130.189 90.5911C130.386 89.1224 128.182 88.8706 128.645 87.4299C129.109 85.9891 132.674 87.4299 133.404 84.3386C134.134 81.2473 131.341 79.8066 131.762 76.7992C132.183 73.7919 134.443 75.1347 134.948 71.0223C135.454 66.9099 129.474 65.6371 129.333 63.5389C129.193 61.4407 135.047 62.1401 133.334 58.1956C131.621 54.2511 125.375 54.8945 123.999 52.6005C122.623 50.3065 127.747 50.5583 124.434 47.4391C121.121 44.3198 107.884 42.3475 102.563 47.4111Z" fill="#263238" stroke="#263238" stroke-linecap="round" stroke-linejoin="round"/>
<path d="M87.9359 80.1843C86.3496 83.5413 89.3396 84.1288 92.0349 85.038C94.7301 85.9472 93.1719 89.9057 93.1719 89.9057" stroke="#7F7F7F" stroke-width="0.75" stroke-linecap="round" stroke-linejoin="round"/>
<path d="M86.49 72.8967C87.8677 74.5269 88.5438 76.6333 88.371 78.7576" stroke="#7F7F7F" stroke-width="0.75" stroke-linecap="round" stroke-linejoin="round"/>
<path d="M87.2901 62.35C87.0515 65.5392 83.907 70.1411 85.3248 71.5679" stroke="#7F7F7F" stroke-width="0.75" stroke-linecap="round" stroke-linejoin="round"/>
<path d="M92.3578 54.8526C92.3578 54.8526 85.2687 57.6501 86.9532 60.4477" stroke="#7F7F7F" stroke-width="0.75" stroke-linecap="round" stroke-linejoin="round"/>
<path d="M92.5964 51.6074C92.9614 52.3068 94.0001 52.3628 94.0001 53.3559" stroke="#7F7F7F" stroke-width="0.75" stroke-linecap="round" stroke-linejoin="round"/>
<path d="M101.496 48.9638C101.496 48.9638 92.9052 48.8799 92.5262 50.6283" stroke="#7F7F7F" stroke-width="0.75" stroke-linecap="round" stroke-linejoin="round"/>
<path d="M131.706 70.0572C131.032 71.9595 127.157 75.6523 128.673 78.9534C130.189 82.2545 131.298 83.4994 128.519 84.2967" stroke="#7F7F7F" stroke-width="0.75" stroke-linecap="round" stroke-linejoin="round"/>
<path d="M129.151 59.0209C128.575 61.0771 125.164 60.7974 125.599 64.3083C125.894 66.7981 129.151 67.6793 130.807 68.6585" stroke="#7F7F7F" stroke-width="0.75" stroke-linecap="round" stroke-linejoin="round"/>
<path d="M121.402 51.6354C121.402 54.2511 118.903 54.6148 122.37 56.5731C123.893 57.426 125.607 57.883 127.354 57.9019" stroke="#7F7F7F" stroke-width="0.75" stroke-linecap="round" stroke-linejoin="round"/>
<path d="M104.135 49.2575C104.135 49.2575 119.184 45.0612 120.981 49.6072" stroke="#7F7F7F" stroke-width="0.75" stroke-linecap="round" stroke-linejoin="round"/>
<path d="M125.038 84.3806C124.364 86.2829 126.441 88.9266 126.441 88.9266" stroke="#7F7F7F" stroke-width="0.75" stroke-linecap="round" stroke-linejoin="round"/>
<path d="M123.016 60.7834C123.311 63.0494 121.079 63.9166 121.612 66.3785C122.146 68.8403 126.469 68.3088 126.68 70.1551C126.891 72.0015 123.241 74.0437 124.083 77.7225C124.518 79.5549 124.925 80.7578 125.15 81.7509" stroke="#7F7F7F" stroke-width="0.75" stroke-linecap="round" stroke-linejoin="round"/>
<path d="M117.429 56.7548C117.949 58.9369 119.886 59.1048 121.332 59.4684" stroke="#7F7F7F" stroke-width="0.75" stroke-linecap="round" stroke-linejoin="round"/>
<path d="M118.328 52.6705C118.173 53.4211 117.913 54.1463 117.555 54.8246" stroke="#7F7F7F" stroke-width="0.75" stroke-linecap="round" stroke-linejoin="round"/>
<path d="M102.128 51.0479C102.128 51.0479 116.868 47.2153 118.089 50.8381" stroke="#7F7F7F" stroke-width="0.75" stroke-linecap="round" stroke-linejoin="round"/>
<path d="M119.366 76.8692C119.689 78.268 121.177 79.3031 121.135 81.2194C121.065 83.7931 119.97 85.5276 121.135 87.8635" stroke="#7F7F7F" stroke-width="0.75" stroke-linecap="round" stroke-linejoin="round"/>
<path d="M113.653 57.3984C113.827 58.4309 114.213 59.4168 114.785 60.295C115.357 61.1732 116.104 61.925 116.98 62.5039C119.17 64.0285 118.482 67.0359 119.788 69.0501C121.093 71.0644 120.546 73.2464 119.507 75.4145" stroke="#7F7F7F" stroke-width="0.75" stroke-linecap="round" stroke-linejoin="round"/>
<path d="M99.4889 52.7545C99.4889 52.7545 112.712 51.7893 113.288 55.552" stroke="#7F7F7F" stroke-width="0.75" stroke-linecap="round" stroke-linejoin="round"/>
<path d="M95.797 51.9983C95.797 51.9983 96.4146 50.1113 99.6433 51.3833" stroke="#7F7F7F" stroke-width="0.75" stroke-linecap="round" stroke-linejoin="round"/>
<path d="M87.2761 96.8296C92.6104 95.319 100.373 92.7452 109.736 92.7452C115.759 92.7452 121.093 94.5217 125.796 95.6407C130.807 96.8436 137.517 97.1514 134.513 114.272H81.1697C81.1697 114.272 79.4009 99.0397 87.2761 96.8296Z" fill="#5F0A61" stroke="#263238" stroke-linecap="round" stroke-linejoin="round"/>
<path d="M114.734 89.0385L111.926 77.7225L104.206 80.0444L101.889 89.2204C101.669 90.1027 101.257 90.9259 100.682 91.6318C100.107 92.3377 99.3837 92.9088 98.5624 93.3048C97.4007 93.8365 96.2955 94.4832 95.2635 95.2351C95.2635 95.2351 104.43 107.698 122.019 95.2351C120.852 94.3911 119.59 93.6869 118.257 93.1369C117.392 92.7726 116.622 92.2127 116.011 91.5014C115.399 90.7902 114.962 89.947 114.734 89.0385Z" fill="white" stroke="#263238" stroke-linecap="round" stroke-linejoin="round"/>
<path d="M90.7153 60.9512L89.7046 67.6513C89.6049 68.3592 89.6624 69.0802 89.8731 69.7635L90.4626 71.6098L90.1117 75.974C90.0976 76.2022 90.0976 76.4311 90.1117 76.6594C90.2661 78.8974 91.347 90.787 97.8325 91.2905C103.588 91.7241 109.315 84.6324 111.351 81.8208C111.853 81.1209 112.22 80.3333 112.432 79.4989L113.302 76.0859C114.121 76.0811 114.917 75.8189 115.578 75.3366C116.238 74.8544 116.729 74.1767 116.98 73.4003C117.85 70.6027 119.296 68.8683 116.503 67.5114C113.709 66.1546 112.712 70.0013 112.712 70.0013C112.431 68.0133 111.932 66.062 111.224 64.1824C110.551 63.0494 108.08 61.6646 107.35 60.5596C106.943 59.6856 106.614 58.7775 106.367 57.8459C106.367 57.8459 97.9448 59.4685 91.4172 58.1677L90.7153 60.9512Z" fill="white" stroke="#263238" stroke-linecap="round" stroke-linejoin="round"/>
<path d="M94.6037 72.6729L92.3015 78.2679C92.2281 78.4497 92.1987 78.6461 92.2159 78.8413C92.233 79.0365 92.2961 79.2249 92.4001 79.3912C92.504 79.5574 92.6459 79.6969 92.8142 79.7983C92.9824 79.8996 93.1723 79.96 93.3684 79.9744L96.176 80.1563" stroke="#263238" stroke-linecap="round" stroke-linejoin="round"/>
<path d="M103.223 81.1354C101.384 84.2407 99.152 83.5833 97.7903 82.716" stroke="#263238" stroke-linecap="round" stroke-linejoin="round"/>
<path d="M98.0851 72.0014C98.0851 72.9526 98.4501 73.7219 98.8853 73.7219C99.3204 73.7219 99.6994 72.9526 99.6994 72.0014C99.6994 71.0503 99.3345 70.267 98.8853 70.267C98.4361 70.267 98.0851 71.0503 98.0851 72.0014Z" fill="#263238"/>
<path d="M91.347 72.0014C91.347 72.9526 91.712 73.7219 92.1471 73.7219C92.5823 73.7219 92.9613 72.9526 92.9613 72.0014C92.9613 71.0503 92.5963 70.267 92.1471 70.267C91.6979 70.267 91.347 71.0503 91.347 72.0014Z" fill="#263238"/>
<path d="M97.7903 68.1968C98.7365 67.8981 99.7582 67.9419 100.675 68.3207C101.592 68.6995 102.345 69.3888 102.802 70.267" stroke="#263238" stroke-linecap="round" stroke-linejoin="round"/>
<path d="M93.6211 67.945C93.6211 67.945 91.1224 66.5462 89.873 69.7494" stroke="#263238" stroke-linecap="round" stroke-linejoin="round"/>
<path d="M90.9259 56.5031C90.9259 56.5031 93.0175 64.2663 96.7656 65.1615C100.514 66.0567 103.195 66.6442 103.953 69.9313C104.711 73.2184 109.049 73.8059 110.845 76.1978C112.642 78.5897 109.442 88.3391 113.386 89.7379C112.855 87.5311 112.855 85.2305 113.386 83.0238C114.285 79.4849 116.601 76.0299 114.916 69.7774C113.232 63.5249 105.75 56.5031 105.75 56.5031L98.2115 55.6079L90.9259 56.5031Z" fill="#263238" stroke="#263238" stroke-linecap="round" stroke-linejoin="round"/>
<path d="M94.309 57.8459C95.1372 59.1071 96.2252 60.1784 97.5006 60.9887C98.7761 61.799 100.21 62.3298 101.707 62.5458C106.873 63.3431 106.873 69.106 109.273 70.7006C111.674 72.2952 114.495 72.6729 113.063 80.0864" stroke="#7F7F7F" stroke-width="0.75" stroke-linecap="round" stroke-linejoin="round"/>
<path d="M456.778 485.646C457.12 485.648 457.452 485.526 457.711 485.302C457.97 485.078 458.137 484.767 458.181 484.429C458.252 483.995 464.709 440.074 470.268 380.85C473.146 350.203 480.445 328.746 486.06 316.157C492.139 302.505 497.613 296.014 497.67 295.945C497.913 295.659 498.033 295.288 498.003 294.915C497.973 294.541 497.795 294.194 497.508 293.951C497.222 293.708 496.85 293.589 496.475 293.619C496.099 293.649 495.752 293.827 495.508 294.112C494.581 295.189 473.047 320.955 467.432 380.584C461.817 439.724 455.43 483.589 455.36 484.023C455.33 484.208 455.338 484.397 455.383 484.579C455.428 484.761 455.509 484.932 455.622 485.082C455.734 485.232 455.876 485.358 456.038 485.452C456.201 485.547 456.381 485.608 456.567 485.632L456.778 485.646Z" fill="#5F0A61" stroke="#263238" stroke-linecap="round" stroke-linejoin="round"/>
<path d="M473.974 452.355H473.721C473.491 452.322 473.269 452.245 473.068 452.126C472.868 452.008 472.693 451.852 472.553 451.666C472.414 451.48 472.312 451.268 472.255 451.043C472.198 450.818 472.185 450.584 472.219 450.355C472.219 450.033 476.88 418.672 480.852 376.402C484.867 333.501 500.505 314.856 501.095 314.114C501.411 313.796 501.836 313.609 502.285 313.589C502.734 313.57 503.174 313.72 503.516 314.01C503.859 314.3 504.079 314.709 504.132 315.153C504.185 315.598 504.068 316.046 503.804 316.408C503.65 316.59 488.292 335.068 484.376 376.723C480.403 419.106 475.785 450.55 475.729 450.858C475.665 451.276 475.452 451.657 475.13 451.931C474.808 452.206 474.398 452.356 473.974 452.355Z" fill="#5F0A61" stroke="#263238" stroke-linecap="round" stroke-linejoin="round"/>
<path d="M526.026 283.355C526.62 283.281 527.221 283.434 527.706 283.785C528.191 284.136 528.524 284.657 528.637 285.244C530.995 297.119 541.13 354.273 517.407 346.79C497.67 340.523 498.961 326.144 500.912 319.192C501.006 318.869 501.006 318.526 500.912 318.203C500.817 317.88 500.633 317.59 500.38 317.368C500.127 317.145 499.816 316.998 499.483 316.945C499.15 316.892 498.808 316.933 498.498 317.066C490.805 320.227 474.058 325.221 472.205 309.554C470.043 291.468 515.441 284.754 526.026 283.355Z" fill="#5F0A61"/>
<path opacity="0.2" d="M504.506 310.338C499.607 311.065 483.716 313.667 484.727 308.939C485.738 304.211 506.036 307.54 507.061 305.666C508.086 303.792 497.164 298.756 498.933 295.875C500.702 292.993 509.082 303.414 510.865 302.281C512.648 301.148 518.474 287.3 521.772 290.433C525.071 293.567 513.911 302.463 514.164 305.596C514.417 308.729 525.071 307.974 526.335 311.387C527.598 314.8 513.911 308.212 513.153 310.24C512.395 312.268 526.854 329.207 522.278 331.739C517.702 334.271 508.717 309.722 504.506 310.338Z" fill="black"/>
<path d="M535.838 212.83C536.67 212.722 537.512 212.933 538.192 213.422C538.873 213.91 539.341 214.639 539.502 215.459C542.773 232.063 556.951 311.974 523.724 301.428C496.14 292.685 497.95 272.571 500.688 262.864C500.813 262.412 500.808 261.934 500.674 261.484C500.54 261.035 500.282 260.632 499.93 260.322C499.577 260.011 499.144 259.806 498.68 259.728C498.216 259.651 497.739 259.705 497.305 259.884C486.538 264.318 463.137 271.284 460.554 249.393C457.578 224.174 521.043 214.69 535.838 212.83Z" fill="#5F0A61"/>
<path opacity="0.7" d="M496.884 255.94C490.174 256.583 469.341 254.471 472.205 245.113C475.069 235.755 498.442 248.652 502.232 246.12C506.022 243.589 496.35 229.909 502.443 227.279C508.535 224.649 509.826 239.868 512.1 239.742C514.375 239.616 525.296 220.159 529.872 222.607C534.449 225.055 518.642 240.567 517.688 245.113C516.733 249.659 535.698 245.617 536.975 249.925C538.253 254.233 516.929 250.61 515.919 253.674C514.908 256.737 535.459 273.942 530.139 281.271C524.819 288.601 512.76 254.429 496.884 255.94Z" fill="white"/>
<path d="M470.521 448.774C470.138 448.772 469.771 448.627 469.49 448.368C469.209 448.109 469.036 447.755 469.005 447.375C467.053 430.59 465.271 413.511 463.712 396.768C458.252 338.663 436.83 313.037 436.62 312.842C436.467 312.694 436.346 312.516 436.266 312.319C436.186 312.122 436.148 311.911 436.155 311.699C436.162 311.487 436.213 311.278 436.305 311.087C436.397 310.896 436.528 310.726 436.69 310.588C436.852 310.45 437.041 310.347 437.245 310.286C437.45 310.225 437.664 310.208 437.875 310.234C438.087 310.261 438.29 310.331 438.473 310.44C438.656 310.55 438.813 310.696 438.936 310.869C439.834 311.932 461.2 337.446 466.745 396.544C468.303 413.259 470.085 430.254 472.037 447.081C472.058 447.284 472.038 447.489 471.979 447.684C471.919 447.878 471.821 448.059 471.69 448.216C471.56 448.372 471.399 448.501 471.217 448.595C471.035 448.688 470.837 448.744 470.633 448.76L470.521 448.774Z" fill="#5F0A61" stroke="#263238" stroke-linecap="round" stroke-linejoin="round"/>
<path d="M396.149 293.147C395.497 293.382 394.955 293.85 394.629 294.459C394.302 295.069 394.214 295.777 394.38 296.448C398.016 310.072 416.742 374.989 437.728 355.001C455.149 338.411 446.418 324.032 440.817 317.765C440.556 317.475 440.382 317.118 440.315 316.735C440.247 316.351 440.289 315.957 440.435 315.595C440.581 315.234 440.826 314.921 441.141 314.692C441.457 314.462 441.831 314.325 442.221 314.296C451.893 313.695 471.952 310.38 465.846 293.063C458.855 273.173 407.898 289.202 396.149 293.147Z" fill="#5F0A61"/>
<path opacity="0.5" d="M433.194 321.122C433.643 327.473 435.468 346.776 430.653 344.761C425.838 342.747 428.618 322.255 425.572 319.472C422.526 316.688 416.195 334.145 413.654 329.333C411.113 324.521 419.746 316.898 419.493 313.513C419.241 310.128 404.052 301.777 405.273 298.742C406.494 295.707 420.504 306.072 422.02 303.554C423.536 301.036 425.319 289.384 429.137 290.657C432.956 291.93 429.137 302.533 430.653 304.057C432.169 305.582 447.906 289.384 450.447 297.483C452.903 305.302 431.608 298.868 433.194 321.122Z" fill="white"/>
<path d="M484.095 489.338H462.028C457.895 489.337 453.92 487.754 450.924 484.917C447.927 482.08 446.139 478.205 445.926 474.092L443.666 430.73H502.442L500.196 474.092C499.984 478.205 498.195 482.08 495.199 484.917C492.203 487.754 488.228 489.337 484.095 489.338Z" fill="#263238" stroke="#263238" stroke-linecap="round" stroke-linejoin="round"/>
<path d="M456.778 485.646C457.12 485.648 457.452 485.526 457.711 485.302C457.97 485.078 458.137 484.767 458.181 484.429C458.252 483.995 464.709 440.074 470.268 380.85C473.146 350.203 480.445 328.746 486.06 316.157C492.139 302.505 497.613 296.014 497.67 295.945C497.913 295.659 498.033 295.288 498.003 294.915C497.973 294.541 497.795 294.194 497.508 293.951C497.222 293.708 496.85 293.589 496.475 293.619C496.099 293.649 495.752 293.827 495.508 294.112C494.581 295.189 473.047 320.955 467.432 380.584C461.817 439.724 455.43 483.589 455.36 484.023C455.33 484.208 455.338 484.397 455.383 484.579C455.428 484.761 455.509 484.932 455.622 485.082C455.734 485.232 455.876 485.358 456.038 485.452C456.201 485.547 456.381 485.608 456.567 485.632L456.778 485.646Z" fill="#5F0A61" stroke="#263238" stroke-linecap="round" stroke-linejoin="round"/>
<path d="M473.974 452.355H473.721C473.491 452.322 473.269 452.245 473.068 452.126C472.868 452.008 472.693 451.852 472.553 451.666C472.414 451.48 472.312 451.268 472.255 451.043C472.198 450.818 472.185 450.584 472.219 450.355C472.219 450.033 476.88 418.672 480.852 376.402C484.867 333.501 500.505 314.856 501.095 314.114C501.411 313.796 501.836 313.609 502.285 313.589C502.734 313.57 503.174 313.72 503.516 314.01C503.859 314.3 504.079 314.709 504.132 315.153C504.185 315.598 504.068 316.046 503.804 316.408C503.65 316.59 488.292 335.068 484.376 376.723C480.403 419.106 475.785 450.55 475.729 450.858C475.665 451.276 475.452 451.657 475.13 451.931C474.808 452.206 474.398 452.356 473.974 452.355Z" fill="#5F0A61" stroke="#263238" stroke-linecap="round" stroke-linejoin="round"/>
<path d="M526.026 283.355C526.62 283.281 527.221 283.434 527.706 283.785C528.191 284.136 528.524 284.657 528.637 285.244C530.995 297.119 541.13 354.273 517.407 346.79C497.67 340.523 498.961 326.144 500.912 319.192C501.006 318.869 501.006 318.526 500.912 318.203C500.817 317.88 500.633 317.59 500.38 317.368C500.127 317.145 499.816 316.998 499.483 316.945C499.15 316.892 498.808 316.933 498.498 317.066C490.805 320.227 474.058 325.221 472.205 309.554C470.043 291.468 515.441 284.754 526.026 283.355Z" fill="#5F0A61"/>
<path opacity="0.2" d="M504.506 310.338C499.607 311.065 483.716 313.667 484.727 308.939C485.738 304.211 506.036 307.54 507.061 305.666C508.086 303.792 497.164 298.756 498.933 295.875C500.702 292.993 509.082 303.414 510.865 302.281C512.648 301.148 518.474 287.3 521.772 290.433C525.071 293.567 513.911 302.463 514.164 305.596C514.417 308.729 525.071 307.974 526.335 311.387C527.598 314.8 513.911 308.212 513.153 310.24C512.395 312.268 526.854 329.207 522.278 331.739C517.702 334.271 508.717 309.722 504.506 310.338Z" fill="black"/>
<path d="M535.838 212.83C536.67 212.722 537.512 212.933 538.192 213.422C538.873 213.91 539.341 214.639 539.502 215.459C542.773 232.063 556.951 311.974 523.724 301.428C496.14 292.685 497.95 272.571 500.688 262.864C500.813 262.412 500.808 261.934 500.674 261.484C500.54 261.035 500.282 260.632 499.93 260.322C499.577 260.011 499.144 259.806 498.68 259.728C498.216 259.651 497.739 259.705 497.305 259.884C486.538 264.318 463.137 271.284 460.554 249.393C457.578 224.174 521.043 214.69 535.838 212.83Z" fill="#5F0A61"/>
<path opacity="0.7" d="M496.884 255.94C490.174 256.583 469.341 254.471 472.205 245.113C475.069 235.755 498.442 248.652 502.232 246.12C506.022 243.589 496.35 229.909 502.443 227.279C508.535 224.649 509.826 239.868 512.1 239.742C514.375 239.616 525.296 220.159 529.872 222.607C534.449 225.055 518.642 240.567 517.688 245.113C516.733 249.659 535.698 245.617 536.975 249.925C538.253 254.233 516.929 250.61 515.919 253.674C514.908 256.737 535.459 273.942 530.139 281.271C524.819 288.601 512.76 254.429 496.884 255.94Z" fill="white"/>
<path d="M470.521 448.774C470.138 448.772 469.771 448.627 469.49 448.368C469.209 448.109 469.036 447.755 469.005 447.375C467.053 430.59 465.271 413.511 463.712 396.768C458.252 338.663 436.83 313.037 436.62 312.842C436.467 312.694 436.346 312.516 436.266 312.319C436.186 312.122 436.148 311.911 436.155 311.699C436.162 311.487 436.213 311.278 436.305 311.087C436.397 310.896 436.528 310.726 436.69 310.588C436.852 310.45 437.041 310.347 437.245 310.286C437.45 310.225 437.664 310.208 437.875 310.234C438.087 310.261 438.29 310.331 438.473 310.44C438.656 310.55 438.813 310.696 438.936 310.869C439.834 311.932 461.2 337.446 466.745 396.544C468.303 413.259 470.085 430.254 472.037 447.081C472.058 447.284 472.038 447.489 471.979 447.684C471.919 447.878 471.821 448.059 471.69 448.216C471.56 448.372 471.399 448.501 471.217 448.595C471.035 448.688 470.837 448.744 470.633 448.76L470.521 448.774Z" fill="#5F0A61" stroke="#263238" stroke-linecap="round" stroke-linejoin="round"/>
<path d="M396.149 293.147C395.497 293.382 394.955 293.85 394.629 294.459C394.302 295.069 394.214 295.777 394.38 296.448C398.016 310.072 416.742 374.989 437.728 355.001C455.149 338.411 446.418 324.032 440.817 317.765C440.556 317.475 440.382 317.118 440.315 316.735C440.247 316.351 440.289 315.957 440.435 315.595C440.581 315.234 440.826 314.921 441.141 314.692C441.457 314.462 441.831 314.325 442.221 314.296C451.893 313.695 471.952 310.38 465.846 293.063C458.855 273.173 407.898 289.202 396.149 293.147Z" fill="#5F0A61"/>
<path opacity="0.5" d="M433.194 321.122C433.643 327.473 435.468 346.776 430.653 344.761C425.838 342.747 428.618 322.255 425.572 319.472C422.526 316.688 416.195 334.145 413.654 329.333C411.113 324.521 419.746 316.898 419.493 313.513C419.241 310.128 404.052 301.777 405.273 298.742C406.494 295.707 420.504 306.072 422.02 303.554C423.536 301.036 425.319 289.384 429.137 290.657C432.956 291.93 429.137 302.533 430.653 304.057C432.169 305.582 447.906 289.384 450.447 297.483C452.903 305.302 431.608 298.868 433.194 321.122Z" fill="white"/>
<path d="M484.095 489.338H462.028C457.895 489.337 453.92 487.754 450.924 484.917C447.927 482.08 446.139 478.205 445.926 474.092L443.666 430.73H502.442L500.196 474.092C499.984 478.205 498.195 482.08 495.199 484.917C492.203 487.754 488.228 489.337 484.095 489.338Z" fill="#263238" stroke="#263238" stroke-linecap="round" stroke-linejoin="round"/>
<path d="M205.376 523.608H222.024L222.024 397.397H205.376V523.608Z" fill="white"/>
<path opacity="0.2" d="M198.806 514.572H211.931L211.931 396.236H198.806V514.572Z" fill="black"/>
<path d="M205.376 523.608H222.024L222.024 397.397H205.376V523.608Z" stroke="#263238" stroke-linecap="round" stroke-linejoin="round"/>
<path d="M167.165 508.851H260.249C263.499 508.851 266.616 510.138 268.915 512.428C271.213 514.718 272.504 517.824 272.504 521.062V523.608H154.966V521.062C154.966 517.833 156.249 514.736 158.536 512.447C160.822 510.159 163.924 508.866 167.165 508.851Z" fill="white"/>
<path opacity="0.2" d="M170.744 512.46H256.655C259.643 512.456 262.51 513.631 264.63 515.728C266.751 517.825 267.951 520.674 267.97 523.65V526H159.43V523.65C159.449 520.674 160.649 517.825 162.77 515.728C164.89 513.631 167.757 512.456 170.744 512.46Z" fill="black"/>
<path d="M167.165 508.851H260.249C263.499 508.851 266.616 510.138 268.915 512.428C271.213 514.718 272.504 517.824 272.504 521.062V523.608H154.966V521.062C154.966 517.833 156.249 514.736 158.536 512.447C160.822 510.159 163.924 508.866 167.165 508.851V508.851Z" stroke="#263238" stroke-linecap="round" stroke-linejoin="round"/>
<path d="M209.938 523.608H217.462V512.6C217.462 511.606 217.066 510.652 216.36 509.949C215.655 509.246 214.698 508.851 213.7 508.851C212.702 508.851 211.745 509.246 211.04 509.949C210.334 510.652 209.938 511.606 209.938 512.6V523.608Z" fill="white" stroke="#263238" stroke-linecap="round" stroke-linejoin="round"/>
<path d="M203.775 398.81H213.7H223.625V379.031H203.775V398.81Z" fill="white" stroke="#263238" stroke-linecap="round" stroke-linejoin="round"/>
<path d="M155.584 378.71H172.232V334.299H155.584V378.71Z" fill="white"/>
<path opacity="0.2" d="M148.438 383.326H161.564V337.935H148.438V383.326Z" fill="black"/>
<path d="M155.584 378.71H172.232V334.299H155.584V378.71Z" stroke="#263238" stroke-linecap="round" stroke-linejoin="round"/>
<path d="M148.775 386.375C191.885 391.76 235.501 391.76 278.611 386.375C279.461 386.266 280.281 385.991 281.024 385.566C281.767 385.14 282.418 384.572 282.94 383.895C283.461 383.218 283.844 382.444 284.064 381.619C284.285 380.794 284.34 379.934 284.226 379.087L283.173 372.401C282.893 370.728 281.966 369.231 280.59 368.232C279.215 367.233 277.501 366.811 275.817 367.058C234.535 372.149 192.781 372.149 151.499 367.058C149.815 366.811 148.101 367.233 146.725 368.232C145.35 369.231 144.423 370.728 144.143 372.401L143.09 379.087C142.976 379.939 143.034 380.804 143.259 381.634C143.484 382.463 143.872 383.239 144.401 383.917C144.93 384.596 145.59 385.162 146.34 385.584C147.091 386.006 147.919 386.275 148.775 386.375Z" fill="#263238"/>
<path opacity="0.2" d="M151.541 367.058C192.823 372.149 234.577 372.149 275.859 367.058C277.543 366.811 279.257 367.233 280.633 368.232C282.008 369.231 282.935 370.728 283.215 372.401C283.552 374.527 283.748 375.814 284.029 377.591C241.144 379.951 198.132 378.467 155.513 373.157C153.899 372.944 152.372 372.305 151.088 371.307C149.805 370.308 148.813 368.986 148.214 367.478C149.266 367.048 150.414 366.903 151.541 367.058Z" fill="black"/>
<path d="M148.775 386.375C191.885 391.76 235.501 391.76 278.611 386.375C279.461 386.266 280.281 385.991 281.024 385.566C281.767 385.14 282.418 384.572 282.94 383.895C283.461 383.218 283.844 382.444 284.064 381.619C284.285 380.794 284.34 379.934 284.226 379.087L283.173 372.401C282.893 370.728 281.966 369.231 280.59 368.232C279.215 367.233 277.501 366.811 275.817 367.058C234.535 372.149 192.781 372.149 151.499 367.058C149.815 366.811 148.101 367.233 146.725 368.232C145.35 369.231 144.423 370.728 144.143 372.401L143.09 379.087C142.976 379.939 143.034 380.804 143.259 381.634C143.484 382.463 143.872 383.239 144.401 383.917C144.93 384.596 145.59 385.162 146.34 385.584C147.091 386.006 147.919 386.275 148.775 386.375V386.375Z" stroke="#263238" stroke-linecap="round" stroke-linejoin="round"/>
<path d="M149.168 346.202L187.477 340.705C197.206 339.306 203.635 330.746 202.119 321.836C198.298 299.431 197.111 276.66 198.581 253.981C198.779 249.75 197.364 245.601 194.619 242.366C191.875 239.131 188.005 237.049 183.785 236.539L151.934 231.993C142.781 230.692 133.839 237.588 132.281 247.645C128.062 274.568 127.068 301.896 129.319 329.053C130.203 339.768 139.524 347.573 149.168 346.202Z" fill="#263238"/>
<path opacity="0.2" d="M148.93 256.359C150.488 246.274 159.416 239.392 168.583 240.707L196.321 244.666C198.011 247.443 198.804 250.67 198.595 253.912C197.118 276.622 198.305 299.427 202.133 321.864C203.649 330.774 197.22 339.334 187.491 340.733L149.182 346.202H148.705C147.16 343.627 146.233 340.731 145.996 337.74C143.73 310.593 144.714 283.274 148.93 256.359Z" fill="black"/>
<path d="M149.168 346.202L187.477 340.705C197.206 339.306 203.635 330.746 202.119 321.836C198.298 299.431 197.111 276.66 198.581 253.981C198.779 249.75 197.364 245.601 194.619 242.366C191.875 239.131 188.005 237.049 183.785 236.539L151.934 231.993C142.781 230.692 133.839 237.588 132.281 247.645C128.062 274.568 127.068 301.896 129.319 329.053C130.203 339.768 139.524 347.573 149.168 346.202Z" stroke="#263238" stroke-linecap="round" stroke-linejoin="round"/>
<path d="M322.128 452.341V471.504L346.666 496.164C346.666 496.164 358.64 501.983 359.65 507.215C360.661 512.446 354.962 516.404 340.756 512.446C326.549 508.487 324.598 503.704 319.25 501.382C313.901 499.06 299.134 497.409 299.779 490.513C300.425 483.617 307.248 473.182 307.248 473.182L306.391 457.964L322.128 452.341Z" fill="white" stroke="#263238" stroke-linecap="round" stroke-linejoin="round"/>
<path d="M305.774 475.532C308.188 477.616 309.157 481.897 309.157 481.897C309.157 481.897 321.594 488.331 321.791 483.016C321.945 479.421 325.511 477.896 327.785 477.281L346.581 496.164C346.581 496.164 358.556 501.983 359.566 507.214C360.577 512.446 354.878 516.404 340.671 512.446C326.465 508.487 324.514 503.703 319.166 501.381C313.817 499.059 299.05 497.409 299.695 490.513C300.201 485.631 303.766 479.001 305.774 475.532Z" fill="#5F0A61"/>
<path opacity="0.3" d="M305.774 475.532C308.188 477.616 309.157 481.897 309.157 481.897C309.157 481.897 321.594 488.331 321.791 483.016C321.945 479.421 325.511 477.896 327.785 477.281L346.581 496.164C346.581 496.164 358.556 501.983 359.566 507.214C360.577 512.446 354.878 516.404 340.671 512.446C326.465 508.487 324.514 503.703 319.166 501.381C313.817 499.059 299.05 497.409 299.695 490.513C300.201 485.631 303.766 479.001 305.774 475.532Z" fill="black"/>
<path d="M305.774 475.532C308.188 477.616 309.157 481.897 309.157 481.897C309.157 481.897 321.594 488.331 321.791 483.016C321.945 479.421 325.511 477.896 327.785 477.281L346.581 496.164C346.581 496.164 358.556 501.983 359.566 507.214C360.577 512.446 354.878 516.404 340.671 512.446C326.465 508.487 324.514 503.703 319.166 501.381C313.817 499.059 299.05 497.409 299.695 490.513C300.201 485.631 303.766 479.001 305.774 475.532Z" stroke="#263238" stroke-linecap="round" stroke-linejoin="round"/>
<path d="M299.737 490.513C299.737 490.108 299.836 489.688 299.92 489.254C301.202 490.591 302.613 491.8 304.131 492.863C310.827 497.633 321.103 496.682 324.963 500.249C327.801 502.668 331.028 504.593 334.509 505.942C338.074 503.144 343.83 506.921 350.765 507.732C353.68 508.14 356.644 507.463 359.089 505.83C359.33 506.268 359.505 506.739 359.608 507.229C360.619 512.46 354.92 516.418 340.714 512.46C326.507 508.501 324.556 503.718 319.208 501.396C313.859 499.074 299.092 497.367 299.737 490.513Z" fill="white" stroke="#263238" stroke-linecap="round" stroke-linejoin="round"/>
<path d="M359.721 509.551C359.721 509.551 356.492 514.083 338.566 507.732" stroke="#263238" stroke-linecap="round" stroke-linejoin="round"/>
<path d="M207.355 332.816C207.355 332.816 312.638 325.822 317.383 340.593C322.128 355.364 324.402 402.81 324.682 421.624C324.963 440.437 323.419 464.272 323.419 464.272C317.097 466.171 310.354 466.171 304.033 464.272C304.033 464.272 299.414 436.926 296.059 423.624C292.704 410.322 289.181 392.613 291.202 364.596C291.202 364.596 190.369 379.731 189.794 362.162C189.218 344.594 207.355 332.816 207.355 332.816Z" fill="white"/>
<path opacity="0.5" d="M207.355 332.816C207.355 332.816 312.638 325.822 317.383 340.593C322.128 355.364 324.402 402.81 324.682 421.624C324.963 440.437 323.419 464.272 323.419 464.272C317.097 466.171 310.354 466.171 304.033 464.272C304.033 464.272 299.414 436.926 296.059 423.624C292.704 410.322 289.181 392.613 291.202 364.596C291.202 364.596 190.369 379.731 189.794 362.162C189.218 344.594 207.355 332.816 207.355 332.816Z" fill="black"/>
<path opacity="0.3" d="M313.087 463.321C306.742 461.922 301.534 434.353 298.558 405.51C295.582 376.667 306.489 361.924 301.001 358.204C295.512 354.483 248.64 362.302 221.491 363.673C206.232 364.442 196.069 360.875 190.074 357.574C189.845 359.092 189.751 360.628 189.794 362.162C190.369 379.731 291.202 364.596 291.202 364.596C289.181 392.571 292.704 410.336 296.059 423.624C299.414 436.912 304.033 464.272 304.033 464.272C305.646 464.801 307.305 465.18 308.988 465.405C312.764 464.44 314.688 463.671 313.087 463.321Z" fill="black"/>
<path d="M207.355 332.816C207.355 332.816 312.638 325.822 317.383 340.593C322.128 355.364 324.402 402.81 324.682 421.624C324.963 440.437 323.419 464.272 323.419 464.272C317.097 466.171 310.354 466.171 304.033 464.272C304.033 464.272 299.414 436.926 296.059 423.624C292.704 410.322 289.181 392.613 291.202 364.596C291.202 364.596 190.369 379.731 189.794 362.162C189.218 344.594 207.355 332.816 207.355 332.816Z" stroke="#263238" stroke-linecap="round" stroke-linejoin="round"/>
<path d="M302.503 355.014C302.503 355.014 301.422 359.882 294.614 364.596" stroke="#263238" stroke-linecap="round" stroke-linejoin="round"/>
<path d="M325.862 458.272L325.146 465.363C325.146 465.363 313.101 471.798 302.517 465.839L300.299 458.845C300.299 458.845 307.472 463.797 325.862 458.272Z" fill="white"/>
<path opacity="0.3" d="M325.862 458.272L325.146 465.363C325.146 465.363 313.101 471.798 302.517 465.839L300.299 458.845C300.299 458.845 307.472 463.797 325.862 458.272Z" fill="black"/>
<path d="M325.862 458.272L325.146 465.363C325.146 465.363 313.101 471.798 302.517 465.839L300.299 458.845C300.299 458.845 307.472 463.797 325.862 458.272Z" stroke="#263238" stroke-linecap="round" stroke-linejoin="round"/>
<path d="M235.416 446.536L228.622 457.978L225.492 494.793C225.492 494.793 230.98 510.683 227.19 514.46C223.4 518.237 208.141 513.061 203.48 499.074C198.82 485.086 201.684 480.89 200.673 475.113C199.662 469.336 193.486 457.488 199.592 454.131C205.698 450.774 215.328 449.04 215.328 449.04L220.719 437.472L235.416 446.536Z" fill="white" stroke="#263238" stroke-linecap="round" stroke-linejoin="round"/>
<path d="M200.617 475.127C199.536 469.42 193.429 457.502 199.536 454.145C203.553 452.167 207.795 450.678 212.17 449.711C211.826 451.305 211.162 452.813 210.219 454.145C210.219 454.145 209.98 458.44 211.622 460.342C213.265 462.244 217.602 457.964 223.821 460.342C226.699 461.447 227.78 462.846 228.117 464.035L227.962 466.594L225.562 494.849C225.562 494.849 231.051 510.739 227.26 514.516C223.47 518.293 208.211 513.117 203.551 499.13C198.89 485.142 201.684 480.848 200.617 475.127Z" fill="#5F0A61"/>
<path opacity="0.3" d="M200.617 475.127C199.536 469.42 193.429 457.502 199.536 454.145C203.553 452.167 207.795 450.678 212.17 449.711C211.826 451.305 211.162 452.813 210.219 454.145C210.219 454.145 209.98 458.44 211.622 460.342C213.265 462.244 217.602 457.964 223.821 460.342C226.699 461.447 227.78 462.846 228.117 464.035L227.962 466.594L225.562 494.849C225.562 494.849 231.051 510.739 227.26 514.516C223.47 518.293 208.211 513.117 203.551 499.13C198.89 485.142 201.684 480.848 200.617 475.127Z" fill="black"/>
<path d="M200.617 475.127C199.536 469.42 193.429 457.502 199.536 454.145C203.553 452.167 207.795 450.678 212.17 449.711C211.826 451.305 211.162 452.813 210.219 454.145C210.219 454.145 209.98 458.44 211.622 460.342C213.265 462.244 217.602 457.964 223.821 460.342C226.699 461.447 227.78 462.846 228.117 464.035L227.962 466.594L225.562 494.849C225.562 494.849 231.051 510.739 227.26 514.516C223.47 518.293 208.211 513.117 203.551 499.13C198.89 485.142 201.684 480.848 200.617 475.127Z" stroke="#263238" stroke-linecap="round" stroke-linejoin="round"/>
<path d="M203.48 499.088C198.82 485.1 201.684 480.904 200.673 475.127C199.662 469.35 193.486 457.502 199.592 454.145C199.887 453.977 200.21 453.837 200.518 453.684C200.21 456.05 200.182 458.444 200.434 460.817C201.262 467.489 204.968 469.21 205.446 483.701C205.923 498.192 209.994 499.423 209.994 499.423C209.994 499.423 219.568 503.48 224.341 508.487C226.236 510.474 227.597 510.642 228.552 510.152C228.649 511.695 228.18 513.221 227.232 514.446C223.414 518.223 208.141 513.033 203.48 499.088Z" fill="white" stroke="#263238" stroke-linecap="round" stroke-linejoin="round"/>
<path d="M225 512.67C225 512.67 218.543 512.851 208.857 502.123" stroke="#263238" stroke-linecap="round" stroke-linejoin="round"/>
<path d="M171.109 336.76C171.109 336.76 156.187 366.498 175.251 369.128C194.314 371.758 252.683 368.373 252.683 368.373C245.374 380.052 238.896 392.228 233.297 404.811C225.744 422.631 218.136 440.941 218.136 440.941C218.136 440.941 221.421 449.725 234.757 451.474C234.757 451.474 245.58 434.688 269.247 408.322C292.915 381.955 299.471 355.644 294.431 346.608C289.391 337.572 263.211 332.62 220.915 330.746L171.109 336.76Z" fill="white"/>
<path opacity="0.5" d="M171.11 336.761C171.11 336.761 156.188 366.498 175.251 369.128C194.314 371.758 252.683 368.373 252.683 368.373C245.374 380.052 238.897 392.228 233.297 404.811C225.745 422.631 218.136 440.941 218.136 440.941C218.136 440.941 221.421 449.725 234.757 451.474C234.757 451.474 245.58 434.688 269.248 408.322C292.915 381.955 299.471 355.644 294.431 346.608C289.392 337.572 263.211 332.62 220.916 330.746L171.11 336.761Z" fill="black"/>
<path opacity="0.3" d="M263.267 360.162C257.357 352.846 203.214 364.96 183.252 363.673C172.724 363.002 168.302 356.05 166.477 349.685C164.54 358.078 164.736 367.715 175.222 369.17C194.3 371.8 252.655 368.415 252.655 368.415C245.346 380.094 238.868 392.27 233.269 404.853C225.744 422.631 218.136 440.941 218.136 440.941C219.248 443.329 220.954 445.394 223.091 446.942C217.785 430.996 269.009 367.282 263.267 360.162Z" fill="black"/>
<path d="M171.109 336.76C171.109 336.76 156.187 366.498 175.251 369.128C194.314 371.758 252.683 368.373 252.683 368.373C245.374 380.052 238.896 392.228 233.297 404.811C225.744 422.631 218.136 440.941 218.136 440.941C218.136 440.941 221.421 449.725 234.757 451.474C234.757 451.474 245.58 434.688 269.247 408.322C292.915 381.955 299.471 355.644 294.431 346.608C289.391 337.572 263.211 332.62 220.915 330.746L171.109 336.76Z" stroke="#263238" stroke-linecap="round" stroke-linejoin="round"/>
<path d="M257.245 363.673C258.649 362.484 261.597 360.148 269.289 356.679" stroke="#263238" stroke-linecap="round" stroke-linejoin="round"/>
<path d="M264.46 352.637C264.46 352.637 252.177 362.666 254.634 364.176" stroke="#263238" stroke-linecap="round" stroke-linejoin="round"/>
<path d="M239.333 448.97L234.799 454.481C234.799 454.481 221.21 453.236 215.665 442.451L217.687 435.458C217.687 435.458 220.943 443.444 239.333 448.97Z" fill="white"/>
<path opacity="0.3" d="M239.333 448.97L234.799 454.481C234.799 454.481 221.21 453.236 215.665 442.451L217.687 435.458C217.687 435.458 220.943 443.444 239.333 448.97Z" fill="black"/>
<path d="M239.333 448.97L234.799 454.481C234.799 454.481 221.21 453.236 215.665 442.451L217.687 435.458C217.687 435.458 220.943 443.444 239.333 448.97Z" stroke="#263238" stroke-linecap="round" stroke-linejoin="round"/>
<path d="M256.389 306.701L258.452 318.549L248.865 321.584L241.495 307.484C241.495 307.484 250.044 300.141 256.389 306.701Z" fill="white" stroke="#263238" stroke-linecap="round" stroke-linejoin="round"/>
<path d="M273.122 326.326C274.525 327.725 277.909 327.836 275.634 324.801C273.763 322.365 271.237 320.507 268.349 319.444C263.281 317.192 261.33 317.653 256.726 316.646C252.121 315.639 251.293 317.499 249.707 318.367C245.931 320.437 245.018 320.787 244.092 322.857C243.165 324.927 242.084 327.641 245.032 327.641C247.727 327.641 247.84 323.206 250.507 323.444C253.174 323.682 254.395 327.641 256.22 327.641H256.922C258.48 327.641 258.565 326.34 257.61 324.312C256.655 322.283 255.617 320.451 255.617 320.451C257.157 321.257 258.39 322.545 259.126 324.116C260.375 326.759 260.6 327.878 262.902 327.878C265.204 327.878 265.036 326.172 262.748 322.423C264.075 323.211 265.173 324.329 265.934 325.668C267.057 327.78 267.647 327.641 269.121 327.641C271.044 327.641 270.918 324.465 267.493 322.381C267.479 322.381 268.237 321.458 273.122 326.326Z" fill="white" stroke="#263238" stroke-linecap="round" stroke-linejoin="round"/>
<path d="M259.744 318.744C259.744 318.744 261.148 318.675 261.934 320.941" stroke="#263238" stroke-linecap="round" stroke-linejoin="round"/>
<path d="M223.33 214.984C223.328 214.608 223.415 214.236 223.585 213.9C223.754 213.564 224 213.272 224.304 213.049C224.608 212.825 224.96 212.676 225.332 212.614C225.704 212.552 226.086 212.578 226.446 212.69C231.303 214.2 240.063 218.285 239.67 227.391C239.136 239.98 239.67 265.619 239.67 265.619C239.67 265.619 244.513 263.563 250.198 283.132C255.883 302.701 256.655 308.17 256.655 308.17C256.655 308.17 249.861 303.288 243.081 310.548C243.081 310.548 227.639 281.537 225.337 269.032C223.372 258.499 223.302 225.279 223.33 214.984Z" fill="#5F0A61" stroke="#263238" stroke-linecap="round" stroke-linejoin="round"/>
<path d="M258.452 310.548C258.452 310.548 250.549 305.442 243.081 313.625L238.42 308.17C238.42 308.17 244.035 303.218 250.198 303.05C256.361 302.882 258.452 305.092 258.452 305.092V310.548Z" fill="#5F0A61"/>
<path opacity="0.6" d="M258.452 310.548C258.452 310.548 250.549 305.442 243.081 313.625L238.42 308.17C238.42 308.17 244.035 303.218 250.198 303.05C256.361 302.882 258.452 305.092 258.452 305.092V310.548Z" fill="white"/>
<path d="M258.452 310.548C258.452 310.548 250.549 305.442 243.081 313.625L238.42 308.17C238.42 308.17 244.035 303.218 250.198 303.05C256.361 302.882 258.452 305.092 258.452 305.092V310.548Z" stroke="#263238" stroke-linecap="round" stroke-linejoin="round"/>
<path d="M241.158 282.908C240.807 266.528 245.271 246.386 236.357 235.462C236.357 235.462 236.708 218.397 223.344 211.906C209.98 205.416 176.753 202.353 168.19 209.179C160.988 214.928 170.913 272.123 172.401 314.716C172.668 322.759 169.958 330.284 169.593 336.831C169.593 336.831 172.331 341.95 186.032 336.831C199.732 331.711 239.122 330.186 239.122 330.186C239.122 330.186 241.495 299.288 241.158 282.908Z" fill="#5F0A61"/>
<path opacity="0.3" d="M240.807 301.54C237.845 305.876 232.047 312.408 223.962 312.73C211.721 313.205 222.221 289.035 219.273 286.447C216.325 283.859 205.726 312.24 185.681 308.296C165.635 304.351 182.073 299.539 182.536 284.754C182.999 269.969 187.098 244.945 178.198 245.169C174.591 245.267 171.067 251.897 168.147 259.758C169.818 277.509 171.825 297.301 172.359 314.674C172.625 322.717 169.916 330.242 169.551 336.789C169.551 336.789 172.289 341.908 185.989 336.789C199.69 331.669 239.08 330.144 239.08 330.144C239.08 330.144 240.203 315.891 240.807 301.54Z" fill="black"/>
<path d="M241.158 282.908C240.807 266.528 245.271 246.386 236.357 235.462C236.357 235.462 236.708 218.397 223.344 211.906C209.98 205.416 176.753 202.353 168.19 209.179C160.988 214.928 170.913 272.124 172.401 314.716C172.668 322.759 169.958 330.284 169.593 336.831C169.593 336.831 172.331 341.95 186.032 336.831C199.732 331.711 239.122 330.186 239.122 330.186C239.122 330.186 241.495 299.288 241.158 282.908Z" stroke="#263238" stroke-linecap="round" stroke-linejoin="round"/>
<path d="M220.943 210.857C223.105 215.054 226.334 222.299 225.155 225.111C223.33 229.209 218.754 220.103 216.241 220.551C213.728 220.998 211.678 226.775 206.878 226.146C202.456 225.586 195.886 212.354 185.737 205.318C197.528 205.122 212.072 207.374 220.943 210.857Z" fill="#5F0A61"/>
<path opacity="0.7" d="M220.943 210.857C223.105 215.054 226.334 222.299 225.155 225.111C223.33 229.209 218.754 220.103 216.241 220.551C213.728 220.998 211.678 226.775 206.878 226.146C202.456 225.586 195.886 212.354 185.737 205.318C197.528 205.122 212.072 207.374 220.943 210.857Z" fill="white"/>
<path d="M220.943 210.857C223.105 215.054 226.334 222.299 225.155 225.111C223.33 229.209 218.754 220.103 216.241 220.551C213.728 220.998 211.678 226.775 206.878 226.146C202.456 225.586 195.886 212.354 185.737 205.318C197.528 205.122 212.072 207.374 220.943 210.857Z" stroke="#263238" stroke-linecap="round" stroke-linejoin="round"/>
<path d="M189.653 328.298C170.464 330.284 185.638 320.829 185.638 320.829" stroke="#263238" stroke-linecap="round" stroke-linejoin="round"/>
<path d="M220.326 283.425C215.244 297.973 205.235 322.129 193.205 327.347" stroke="#263238" stroke-linecap="round" stroke-linejoin="round"/>
<path d="M223.919 272.165C223.919 272.165 223.274 274.431 222.109 278.068" stroke="#263238" stroke-linecap="round" stroke-linejoin="round"/>
<path d="M225.913 321.584C225.913 321.584 232.454 324.605 234.588 325.682C235.276 326.032 238.42 327.221 236.132 328.298C234.167 329.221 227.962 326.088 227.962 326.088L221.968 324.885L225.913 321.584Z" fill="white"/>
<path opacity="0.2" d="M225.913 321.584C225.913 321.584 232.454 324.605 234.588 325.682C235.276 326.032 238.42 327.221 236.132 328.298C234.167 329.221 227.962 326.088 227.962 326.088L221.968 324.885L225.913 321.584Z" fill="black"/>
<path d="M225.913 321.584C225.913 321.584 232.454 324.605 234.588 325.682C235.276 326.032 238.42 327.221 236.132 328.298C234.167 329.221 227.962 326.088 227.962 326.088L221.968 324.885L225.913 321.584Z" stroke="#263238" stroke-linecap="round" stroke-linejoin="round"/>
<path d="M188.123 314.128L206.105 324.2C209.339 327.008 213.468 328.579 217.757 328.634C219.735 328.678 221.693 328.233 223.456 327.34C225.22 326.446 226.734 325.132 227.864 323.514L231.626 324.018C231.626 324.018 236.245 328.284 237.62 326.41V325.319L234.588 322.423L233.002 321.304L235.627 321.794C236.761 322.932 238.174 323.757 239.726 324.186C239.726 324.186 247.264 328.382 248.064 325.766C248.064 325.766 250.353 326.228 250.872 325.095C251.391 323.962 249.959 322.423 249.959 322.423C250.423 322.487 250.896 322.416 251.32 322.217C251.743 322.018 252.1 321.701 252.346 321.304C253.034 319.975 249.538 318.716 248.584 318.031C247.629 317.346 242.646 313.709 239.908 313.485C237.171 313.261 218.445 317.36 215.693 315.989C212.942 314.618 195.367 300.854 195.367 300.854L185.891 312.352L188.123 314.128Z" fill="white" stroke="#263238" stroke-linecap="round" stroke-linejoin="round"/>
<path d="M247.04 324.074C247.04 324.074 237.676 318.395 236.301 317.821C234.925 317.248 229.801 317.821 229.801 317.821" stroke="#263238" stroke-linecap="round" stroke-linejoin="round"/>
<path d="M247.503 320.829C245.067 319.246 242.551 317.789 239.965 316.464C239.45 316.103 238.853 315.875 238.228 315.802C237.603 315.728 236.969 315.812 236.385 316.045" stroke="#263238" stroke-linecap="round" stroke-linejoin="round"/>
<path d="M171.236 210.396C170.239 209.151 169.214 208.647 168.19 209.179C168.19 209.179 162.027 211.235 158.139 228.762C154.25 246.288 152.201 288.839 155.626 293.846C159.051 298.854 188.292 315.234 188.292 315.234C188.292 315.234 189.695 309.778 199.522 303.862C199.522 303.862 181.483 286.335 178.746 287.076C178.746 287.076 180.866 284.726 176.233 283.887C176.233 283.887 177.637 269.102 177.637 261.353C177.637 261.353 181.287 254.527 180.15 242.931" fill="#5F0A61"/>
<path d="M171.236 210.396C170.239 209.151 169.214 208.647 168.19 209.179C168.19 209.179 162.027 211.235 158.139 228.762C154.25 246.288 152.201 288.839 155.626 293.846C159.051 298.854 188.292 315.234 188.292 315.234C188.292 315.234 189.695 309.778 199.522 303.862C199.522 303.862 181.483 286.335 178.746 287.076C178.746 287.076 180.866 284.726 176.233 283.887C176.233 283.887 177.637 269.102 177.637 261.353C177.637 261.353 181.287 254.527 180.15 242.931" stroke="#263238" stroke-linecap="round" stroke-linejoin="round"/>
<path d="M174.198 243.561C175.601 248.372 177.384 255.338 176.416 257.814C174.872 261.745 172.766 250.149 169.046 247.407" stroke="#263238" stroke-linecap="round" stroke-linejoin="round"/>
<path d="M172.64 238.707C172.64 238.707 172.948 239.588 173.398 240.987" stroke="#263238" stroke-linecap="round" stroke-linejoin="round"/>
<path d="M171.236 288.405C169.832 289.007 167.684 289.454 166.828 292.979" stroke="#263238" stroke-linecap="round" stroke-linejoin="round"/>
<path opacity="0.3" d="M163.908 285.468C163.908 285.468 171.615 283.425 172.331 286.489L163.908 285.468Z" fill="black"/>
<path d="M203.747 305.736C203.747 305.736 196.897 307.96 192.615 318.199L186.284 316.311C186.284 316.311 187.477 307.107 199.634 300.449L203.747 305.736Z" fill="#5F0A61"/>
<path opacity="0.6" d="M203.747 305.736C203.747 305.736 196.897 307.96 192.615 318.199L186.284 316.311C186.284 316.311 187.477 307.107 199.634 300.449L203.747 305.736Z" fill="white"/>
<path d="M203.747 305.736C203.747 305.736 196.897 307.96 192.615 318.199L186.284 316.311C186.284 316.311 187.477 307.107 199.634 300.449L203.747 305.736Z" stroke="#263238" stroke-linecap="round" stroke-linejoin="round"/>
<path d="M226.418 139.548C226.418 139.548 247.475 141.143 244.007 147.06C240.54 152.976 256.347 156.165 251.77 162.53C247.194 168.894 257.217 179.315 251.181 182.322C245.144 185.33 246.969 192.338 249.258 196.212C251.546 200.087 244.007 203.947 238.533 203.206C233.058 202.465 239.936 209.808 237.62 211.179C235.304 212.55 232.819 206.619 228.594 207.305C224.369 207.99 215.469 203.402 212.844 204.101C210.219 204.801 176.753 202.982 176.696 200.702C176.64 198.422 180.065 198.436 179.616 196.156C179.167 193.876 173.44 195.527 172.878 190.561C172.317 185.596 176.809 183.987 176.696 179.371C176.584 174.755 172.878 176.35 172.822 169.985C172.766 163.621 182.129 162.698 182.803 159.523C183.477 156.347 174.31 156.389 177.623 150.668C180.936 144.947 190.341 147.004 192.854 143.814C195.367 140.625 187.477 140.038 193.078 135.855C198.68 131.673 219.175 130.89 226.418 139.548Z" fill="#263238" stroke="#263238" stroke-linecap="round" stroke-linejoin="round"/>
<path d="M216.816 210.815C218.417 212.76 222.768 218.97 212.956 218.732C203.144 218.495 188.292 205.332 188.292 205.332C188.292 205.332 194.23 203.038 198.118 193.932C199.817 189.96 203.607 177.553 203.607 177.553L218.627 193.708L213.925 206.675C213.925 206.675 216.171 210.032 216.816 210.815Z" fill="white"/>
<path d="M217.027 205.332C217.027 205.332 203.621 198.45 202.105 187.022C200.589 175.594 203.354 176.07 203.354 176.07L208.646 188.015L215.665 195.513L219.329 201.528L217.027 205.332Z" fill="#263238"/>
<path d="M216.816 210.815C218.417 212.76 222.768 218.97 212.956 218.732C203.144 218.495 188.292 205.332 188.292 205.332C188.292 205.332 194.23 203.038 198.118 193.932C199.817 189.96 203.607 177.553 203.607 177.553L218.627 193.708L213.925 206.675C213.925 206.675 216.171 210.032 216.816 210.815Z" stroke="#263238" stroke-linecap="round" stroke-linejoin="round"/>
<path d="M239.193 155.704C239.193 155.704 242.154 169.58 239.754 174.14C237.354 178.7 239.529 184.602 234.729 190.072C229.928 195.541 226.432 205.318 220.578 203.947C212.914 202.143 204.281 191.89 203.733 187.792C203.444 185.179 203.444 182.543 203.733 179.931C203.088 179.977 202.442 179.875 201.843 179.633C201.244 179.39 200.709 179.013 200.28 178.532C198.455 176.825 196.069 169.901 200.28 167.607C203.986 165.607 205.488 169.887 205.488 169.887L216.143 154.641L239.193 155.704Z" fill="white" stroke="#263238" stroke-linecap="round" stroke-linejoin="round"/>
<path d="M231.219 180.854C230.531 183.008 233.732 186.533 232.707 188.127C231.682 189.722 229.057 188.925 229.057 190.519" stroke="#263238" stroke-linecap="round" stroke-linejoin="round"/>
<path d="M227.794 193.485C227.794 193.485 222.656 194.156 219.638 190.519" stroke="#263238" stroke-linecap="round" stroke-linejoin="round"/>
<path d="M234.321 179.189C233.97 180.378 234.125 181.483 234.686 181.651C235.248 181.819 235.978 180.98 236.329 179.777C236.68 178.574 236.525 177.483 235.964 177.329C235.402 177.175 234.686 178 234.321 179.189Z" fill="#263238"/>
<path d="M223.147 177.049C222.782 178.238 222.951 179.343 223.498 179.511C224.046 179.679 224.79 178.839 225.141 177.637C225.492 176.434 225.337 175.343 224.79 175.175C224.242 175.007 223.498 175.804 223.147 177.049Z" fill="#263238"/>
<path d="M238.533 175.273C238.533 175.273 237.045 171.972 233.395 176.07" stroke="#263238" stroke-linecap="round" stroke-linejoin="round"/>
<path d="M228.594 174.014C228.594 174.014 224.706 168.796 220.607 173.119" stroke="#263238" stroke-linecap="round" stroke-linejoin="round"/>
<path d="M231.668 151.158C231.668 151.158 231.767 160.949 235.964 161.047C240.161 161.145 236.104 168.279 241.972 169.076C247.84 169.873 241.972 157.298 241.972 157.298L238.126 152.697L231.668 151.158Z" fill="#263238" stroke="#263238" stroke-linecap="round" stroke-linejoin="round"/>
<path d="M232.932 151.158C232.932 151.158 230.531 160.026 226.25 161.047C221.968 162.068 218.894 162.754 218.038 166.516C217.181 170.279 212.212 170.95 210.148 173.678C208.085 176.406 211.693 187.568 207.243 189.162C207.849 186.638 207.849 184.007 207.243 181.483C206.218 177.441 203.565 173.51 205.488 166.349C207.411 159.187 215.974 151.158 215.974 151.158L224.593 150.137L232.932 151.158Z" fill="#263238" stroke="#263238" stroke-linecap="round" stroke-linejoin="round"/>
<path d="M201.95 180.448C201.95 180.448 203.663 189.666 201.95 193.163C200.238 196.66 205.025 198.115 202.722 200.842C200.42 203.57 191.001 205.458 188.937 200.842C186.874 196.226 199.48 179.511 201.95 180.448Z" fill="#263238" stroke="#263238" stroke-linecap="round" stroke-linejoin="round"/>
<path d="M243.081 192.17C244.92 197.569 240.189 197.933 235.964 198.87C231.738 199.807 233.395 206.102 233.395 206.102" stroke="#7F7F7F" stroke-width="0.75" stroke-linecap="round" stroke-linejoin="round"/>
<path d="M246.562 181.245C244.485 183.428 242.505 186.491 242.66 189.862" stroke="#7F7F7F" stroke-width="0.75" stroke-linecap="round" stroke-linejoin="round"/>
<path d="M247.166 165.006C246.983 169.915 250.984 177.483 248.57 179.427" stroke="#7F7F7F" stroke-width="0.75" stroke-linecap="round" stroke-linejoin="round"/>
<path d="M240.723 152.696C240.723 152.696 251.082 158.152 248.008 162.25" stroke="#7F7F7F" stroke-width="0.75" stroke-linecap="round" stroke-linejoin="round"/>
<path d="M240.933 147.675C240.245 148.682 238.617 148.584 238.533 150.123" stroke="#7F7F7F" stroke-width="0.75" stroke-linecap="round" stroke-linejoin="round"/>
<path d="M227.794 142.08C227.794 142.08 240.919 143.479 241.214 146.178" stroke="#7F7F7F" stroke-width="0.75" stroke-linecap="round" stroke-linejoin="round"/>
<path d="M177.96 169.104C178.634 172.153 183.94 178.448 181.034 183.232C178.128 188.015 176.247 189.722 180.346 191.428" stroke="#7F7F7F" stroke-width="0.75" stroke-linecap="round" stroke-linejoin="round"/>
<path d="M183.771 152.696C184.291 155.928 189.555 156.109 188.292 161.397C187.407 165.132 182.255 165.929 179.56 167.146" stroke="#7F7F7F" stroke-width="0.75" stroke-linecap="round" stroke-linejoin="round"/>
<path d="M196.911 142.765C196.448 146.738 200.196 147.745 194.567 150.137C192.083 151.167 189.382 151.566 186.705 151.298" stroke="#7F7F7F" stroke-width="0.75" stroke-linecap="round" stroke-linejoin="round"/>
<path d="M223.751 142.08C223.751 142.08 201.501 133.03 197.964 139.688" stroke="#7F7F7F" stroke-width="0.75" stroke-linecap="round" stroke-linejoin="round"/>
<path d="M185.638 192.17C186.34 195.191 182.747 198.87 182.747 198.87" stroke="#7F7F7F" stroke-width="0.75" stroke-linecap="round" stroke-linejoin="round"/>
<path d="M192.868 156.445C192.012 159.858 195.268 161.565 194.075 165.146C192.882 168.726 186.312 167.244 185.652 170.041C184.993 172.839 190.243 176.588 188.306 182.043C187.337 184.84 186.495 186.547 185.989 188.015" stroke="#7F7F7F" stroke-width="0.75" stroke-linecap="round" stroke-linejoin="round"/>
<path d="M202.105 151.158C200.912 154.389 197.893 154.319 195.661 154.641" stroke="#7F7F7F" stroke-width="0.75" stroke-linecap="round" stroke-linejoin="round"/>
<path d="M201.431 144.877C201.538 146.055 201.808 147.213 202.231 148.318" stroke="#7F7F7F" stroke-width="0.75" stroke-linecap="round" stroke-linejoin="round"/>
<path d="M226.46 145.185C226.46 145.185 204.604 136.793 202.105 142.108" stroke="#7F7F7F" stroke-width="0.75" stroke-linecap="round" stroke-linejoin="round"/>
<path d="M195.675 181.665C194.96 183.665 192.489 185.078 192.222 188.015C191.885 191.946 193.261 194.799 191.029 198.142" stroke="#7F7F7F" stroke-width="0.75" stroke-linecap="round" stroke-linejoin="round"/>
<path d="M207.748 152.892C207.297 154.441 206.534 155.883 205.506 157.128C204.478 158.374 203.206 159.398 201.768 160.138C198.16 162.082 198.68 166.796 196.279 169.65C193.879 172.503 194.398 175.902 195.591 179.441" stroke="#7F7F7F" stroke-width="0.75" stroke-linecap="round" stroke-linejoin="round"/>
<path d="M230.194 148.248C230.194 148.248 210.148 144.5 208.618 150.137" stroke="#7F7F7F" stroke-width="0.75" stroke-linecap="round" stroke-linejoin="round"/>
<path d="M235.964 147.745C235.964 147.745 235.36 144.738 230.194 146.122" stroke="#7F7F7F" stroke-width="0.75" stroke-linecap="round" stroke-linejoin="round"/>
<path d="M229.057 152.696C228.114 154.134 226.875 155.356 225.424 156.282C223.972 157.207 222.34 157.816 220.635 158.068C214.711 158.977 214.711 165.579 211.973 167.398C209.236 169.216 205.993 169.65 207.636 178.126" stroke="#7F7F7F" stroke-width="0.75" stroke-linecap="round" stroke-linejoin="round"/>
<path d="M213.925 206.675C213.925 206.675 212.296 209.626 215.721 212.592L213.925 206.675Z" fill="white"/>
<path d="M213.925 206.675C213.925 206.675 212.296 209.626 215.721 212.592" stroke="#263238" stroke-linecap="round" stroke-linejoin="round"/>
<path d="M248.682 328.116L274.764 281.201C275.283 280.271 276.042 279.495 276.963 278.954C277.883 278.413 278.932 278.127 280 278.124H282.148V332.061H251.012C250.549 332.06 250.093 331.939 249.69 331.709C249.288 331.48 248.952 331.149 248.717 330.751C248.482 330.353 248.355 329.9 248.349 329.438C248.343 328.976 248.457 328.52 248.682 328.116Z" fill="#263238" stroke="#263238" stroke-linecap="round" stroke-linejoin="round"/>
<path d="M252.865 332.061H305.282C306.196 332.059 307.093 331.814 307.88 331.352C308.667 330.889 309.316 330.226 309.76 329.431L336.643 281.061C336.808 280.76 336.892 280.42 336.886 280.076C336.88 279.733 336.785 279.396 336.609 279.1C336.434 278.804 336.184 278.559 335.885 278.388C335.586 278.216 335.247 278.126 334.902 278.124H281.853C280.783 278.129 279.734 278.416 278.811 278.956C277.889 279.497 277.127 280.272 276.603 281.201L250.535 328.116C250.31 328.52 250.196 328.976 250.202 329.438C250.208 329.9 250.335 330.353 250.57 330.751C250.805 331.149 251.141 331.48 251.543 331.709C251.946 331.939 252.402 332.06 252.865 332.061Z" fill="white"/>
<path opacity="0.2" d="M252.865 332.061H305.282C306.196 332.059 307.093 331.814 307.88 331.352C308.667 330.889 309.316 330.226 309.76 329.431L336.643 281.061C336.808 280.76 336.892 280.42 336.886 280.076C336.88 279.733 336.785 279.396 336.609 279.1C336.434 278.804 336.184 278.559 335.885 278.388C335.586 278.216 335.247 278.126 334.902 278.124H281.853C280.783 278.129 279.734 278.416 278.811 278.956C277.889 279.497 277.127 280.272 276.603 281.201L250.535 328.116C250.31 328.52 250.196 328.976 250.202 329.438C250.208 329.9 250.335 330.353 250.57 330.751C250.805 331.149 251.141 331.48 251.543 331.709C251.946 331.939 252.402 332.06 252.865 332.061Z" fill="black"/>
<path d="M252.865 332.061H305.282C306.196 332.059 307.093 331.814 307.88 331.352C308.667 330.889 309.316 330.226 309.76 329.431L336.643 281.061C336.808 280.76 336.892 280.42 336.886 280.076C336.88 279.733 336.785 279.396 336.609 279.1C336.434 278.804 336.184 278.559 335.885 278.388C335.586 278.216 335.247 278.126 334.902 278.124H281.853C280.783 278.129 279.734 278.416 278.811 278.956C277.889 279.497 277.127 280.272 276.603 281.201L250.535 328.116C250.31 328.52 250.196 328.976 250.202 329.438C250.208 329.9 250.335 330.353 250.57 330.751C250.805 331.149 251.141 331.48 251.543 331.709C251.946 331.939 252.402 332.06 252.865 332.061V332.061Z" stroke="#263238" stroke-linecap="round" stroke-linejoin="round"/>
<path d="M207.243 332.061H246.717C247.149 332.061 247.563 331.89 247.868 331.585C248.174 331.281 248.345 330.868 248.345 330.438V328.298H203.424C203.422 328.796 203.52 329.29 203.712 329.75C203.904 330.21 204.186 330.627 204.541 330.978C204.897 331.328 205.319 331.604 205.782 331.79C206.246 331.976 206.743 332.068 207.243 332.061Z" fill="white"/>
<path opacity="0.4" d="M207.243 332.061H246.717C247.149 332.061 247.563 331.89 247.868 331.585C248.174 331.281 248.345 330.868 248.345 330.438V328.298H203.424C203.422 328.796 203.52 329.29 203.712 329.75C203.904 330.21 204.186 330.627 204.541 330.978C204.897 331.328 205.319 331.604 205.782 331.79C206.246 331.976 206.743 332.068 207.243 332.061Z" fill="black"/>
<path d="M207.243 332.061H246.717C247.149 332.061 247.563 331.89 247.868 331.585C248.174 331.281 248.345 330.868 248.345 330.438V328.298H203.424C203.422 328.796 203.52 329.29 203.712 329.75C203.904 330.21 204.186 330.627 204.541 330.978C204.897 331.328 205.319 331.604 205.782 331.79C206.246 331.976 206.743 332.068 207.243 332.061Z" stroke="#263238" stroke-linecap="round" stroke-linejoin="round"/>
</svg>
