<svg aria-hidden="true" style="position: absolute; width: 0; height: 0; overflow: hidden;" version="1.1" xmlns="http://www.w3.org/2000/svg" xmlns:xlink="http://www.w3.org/1999/xlink">
<defs>
<symbol id="icon-clock" viewBox="0 0 33 32">
<path stroke-linejoin="round" stroke-linecap="round" stroke-miterlimit="4" stroke-width="1.8286" d="M16.798 28c6.788 0 12.292-5.373 12.292-12s-5.503-12-12.292-12c-6.789 0-12.292 5.373-12.292 12s5.503 12 12.292 12z"></path>
<path stroke-linejoin="round" stroke-linecap="round" stroke-miterlimit="4" stroke-width="1.8286" d="M16.798 9.333v6.667l2.731 4"></path>
</symbol>
<symbol id="icon-installation" viewBox="0 0 33 32">
<path stroke-linejoin="round" stroke-linecap="round" stroke-miterlimit="4" stroke-width="1.8286" d="M28.367 27.333c-0.254 0.248-0.555 0.445-0.887 0.579s-0.687 0.203-1.046 0.203c-0.359 0-0.714-0.069-1.046-0.203s-0.633-0.331-0.887-0.579l-7.116-6.947c-1.88 0.934-4.036 1.193-6.091 0.733-1.822-0.414-3.463-1.38-4.689-2.759s-1.975-3.101-2.139-4.921c-0.153-1.593 0.155-3.196 0.888-4.627l5.941 5.853 3.414-0.667 0.683-3.333-5.996-5.76c1.462-0.729 3.104-1.043 4.739-0.907 1.864 0.16 3.628 0.891 5.040 2.088s2.402 2.8 2.826 4.578c0.458 1.99 0.192 4.074-0.751 5.893l7.115 6.947c0.262 0.249 0.471 0.546 0.613 0.875s0.216 0.682 0.216 1.039c0 0.357-0.073 0.71-0.216 1.039s-0.351 0.626-0.613 0.875v0z"></path>
</symbol>
<symbol id="icon-speed" viewBox="0 0 33 32">
<path stroke-linejoin="round" stroke-linecap="round" stroke-miterlimit="4" stroke-width="1.8286" d="M28.865 17.333c-0.003 1.791-0.416 3.56-1.21 5.175s-1.948 3.036-3.378 4.159h-15.406c-1.62-1.272-2.883-2.923-3.671-4.801s-1.076-3.92-0.836-5.935c0.24-2.016 0.999-3.939 2.207-5.59s2.825-2.976 4.7-3.852c1.875-0.875 3.947-1.272 6.022-1.153s4.085 0.749 5.842 1.832c1.757 1.083 3.205 2.584 4.207 4.362s1.526 3.774 1.523 5.804v0z"></path>
<path stroke-linejoin="round" stroke-linecap="round" stroke-miterlimit="4" stroke-width="1.8286" d="M22.036 12l-5.463 8M17.939 20c0 0.264-0.080 0.521-0.23 0.741s-0.363 0.39-0.613 0.491c-0.25 0.101-0.524 0.127-0.789 0.076s-0.508-0.178-0.699-0.365c-0.191-0.186-0.321-0.424-0.374-0.683s-0.026-0.527 0.078-0.77c0.103-0.244 0.278-0.452 0.503-0.598s0.489-0.225 0.759-0.225c0.362 0 0.71 0.14 0.966 0.391s0.4 0.589 0.4 0.943z"></path>
</symbol>
</defs>
</svg>
