<svg width="375" height="340" viewBox="0 0 375 340" fill="none" xmlns="http://www.w3.org/2000/svg">
<path d="M186.857 340C248.487 340 298.449 337.025 298.449 333.356C298.449 329.686 248.487 326.712 186.857 326.712C125.226 326.712 75.2646 329.686 75.2646 333.356C75.2646 337.025 125.226 340 186.857 340Z" fill="#263238"/>
<path d="M76.076 287.208C77.6342 287.821 81.4405 287.747 81.4405 287.747C81.4405 287.747 80.629 285.481 80.5559 285.34C79.7443 283.753 77.0824 281.132 74.9317 281.398C74.5725 281.45 74.2295 281.571 73.9256 281.752C73.6216 281.934 73.3636 282.172 73.1687 282.452C72.9737 282.731 72.8463 283.045 72.7948 283.372C72.7434 283.7 72.7691 284.033 72.8703 284.351C73.2193 285.673 74.745 286.677 76.076 287.208Z" fill="#263238"/>
<path d="M77.3826 297.226C79.0058 297.44 82.39 296.547 82.666 296.488C83.2233 298.25 83.9093 299.977 84.7193 301.656C85.19 302.638 85.6932 303.62 86.2126 304.609C85.9042 304.203 85.6201 303.871 85.5714 303.782C84.3054 302.453 81.0022 300.556 79.0058 301.331C78.6784 301.467 78.3862 301.665 78.1482 301.911C77.9103 302.156 77.7319 302.445 77.6248 302.758C77.5176 303.071 77.484 303.4 77.5262 303.726C77.5683 304.051 77.6853 304.364 77.8696 304.646C78.6081 305.864 80.3692 306.469 81.8057 306.654C83.2422 306.838 86.1639 306.137 86.9349 305.916C87.1378 306.292 87.3326 306.654 87.5355 307.03C88.5256 308.817 89.5076 310.589 90.4247 312.353C90.7412 312.973 91.0334 313.601 91.3336 314.221C91.0577 313.852 90.8223 313.549 90.7818 313.483C89.5157 312.154 86.2045 310.256 84.208 311.024C83.8815 311.161 83.5902 311.359 83.353 311.605C83.1158 311.851 82.9379 312.14 82.8308 312.452C82.7237 312.764 82.6899 313.094 82.7314 313.419C82.7729 313.744 82.8888 314.057 83.0718 314.339C83.8103 315.564 85.5796 316.162 87.0079 316.354C88.4363 316.546 91.0658 315.904 91.9991 315.675C92.2751 316.317 92.5591 316.967 92.8107 317.602C92.9568 318.045 93.1435 318.451 93.2652 318.901C93.3869 319.352 93.533 319.78 93.671 320.215C93.8901 321.057 94.1255 321.928 94.3203 322.748C94.4582 323.323 94.58 323.877 94.7098 324.431C94.3933 323.803 93.7521 322.6 93.6872 322.504C92.6565 321.027 89.7024 318.68 87.6085 319.167C87.2621 319.257 86.9403 319.412 86.664 319.623C86.3878 319.833 86.1632 320.094 86.0048 320.389C85.8464 320.683 85.7578 321.004 85.7447 321.332C85.7315 321.659 85.7942 321.986 85.9285 322.29C86.4561 323.597 88.0955 324.438 89.4832 324.822C91.0009 325.243 94.3527 324.822 94.791 324.822C94.9939 325.737 95.1805 326.631 95.3429 327.472C95.7081 329.333 95.9759 331.009 96.1544 332.419H97.5747C97.3231 330.942 96.9985 329.215 96.5764 327.251C96.3735 326.321 96.1382 325.331 95.8866 324.298C96.9012 323.929 97.8904 323.505 98.8489 323.028C99.9607 324.121 102.801 325.405 103.166 325.568C102.777 326.431 102.395 327.266 102.014 328.056C101.202 329.702 100.488 331.156 99.8228 332.396H101.365C101.925 331.252 102.55 329.953 103.199 328.506C103.597 327.635 104.011 326.69 104.408 325.715C104.814 325.789 108.15 326.409 109.708 326.092C111.112 325.797 112.824 325.073 113.449 323.803C113.609 323.51 113.699 323.19 113.714 322.863C113.729 322.536 113.667 322.211 113.534 321.907C113.401 321.603 113.199 321.328 112.941 321.1C112.683 320.873 112.375 320.697 112.037 320.585C109.984 319.957 106.851 322.061 105.699 323.493C105.634 323.574 105.009 324.556 104.627 325.184C104.79 324.785 104.952 324.401 105.114 323.988C105.439 323.176 105.739 322.356 106.072 321.47C106.21 321.042 106.356 320.607 106.502 320.171C106.648 319.736 106.754 319.263 106.884 318.805C107.168 317.735 107.387 316.642 107.59 315.535C108.401 315.793 111.169 316.679 112.621 316.591C114.074 316.502 115.868 316.015 116.679 314.848C116.886 314.58 117.028 314.276 117.097 313.954C117.165 313.633 117.159 313.302 117.078 312.983C116.997 312.664 116.843 312.365 116.626 312.103C116.409 311.842 116.134 311.625 115.819 311.467C113.887 310.559 110.438 312.205 109.067 313.468C108.977 313.549 108.109 314.538 107.638 315.092C107.752 314.428 107.874 313.763 107.963 313.084C108.231 311.128 108.434 309.142 108.645 307.178C108.71 306.573 108.783 305.967 108.856 305.362C109.132 305.458 112.427 306.573 114.05 306.469C115.494 306.381 117.296 305.901 118.108 304.734C118.314 304.466 118.456 304.161 118.524 303.839C118.592 303.518 118.585 303.186 118.503 302.868C118.421 302.549 118.266 302.249 118.048 301.988C117.831 301.727 117.555 301.511 117.239 301.353C115.316 300.445 111.867 302.091 110.495 303.354C110.39 303.45 109.132 304.875 108.872 305.251C109.026 303.922 109.196 302.593 109.424 301.294C109.715 299.548 110.132 297.822 110.674 296.126C110.795 296.171 114.236 297.352 115.9 297.249C117.337 297.153 119.146 296.673 119.958 295.506C120.165 295.238 120.307 294.934 120.375 294.612C120.444 294.291 120.438 293.96 120.357 293.641C120.275 293.322 120.121 293.023 119.905 292.761C119.688 292.5 119.413 292.283 119.098 292.125C117.166 291.217 113.717 292.863 112.345 294.126C112.24 294.222 110.885 295.765 110.665 296.06C110.665 295.957 110.722 295.853 110.755 295.75C111.347 294.05 112.105 292.403 113.019 290.826C113.514 289.947 114.034 289.135 114.569 288.353C115.186 288.633 118.01 289.881 119.52 289.94C121.029 289.999 122.815 289.696 123.789 288.618C124.027 288.373 124.205 288.084 124.312 287.771C124.419 287.459 124.453 287.129 124.411 286.804C124.369 286.479 124.252 286.165 124.068 285.884C123.884 285.603 123.636 285.36 123.342 285.171C121.533 284.078 117.897 285.392 116.387 286.485C116.306 286.544 115.576 287.223 114.991 287.747C115.243 287.4 115.486 287.009 115.73 286.706C116.639 285.466 117.548 284.374 118.367 283.421C118.838 282.882 119.276 282.402 119.69 281.945C120.445 281.945 123.513 281.849 124.852 281.28C126.191 280.712 127.66 279.678 127.976 278.327C128.062 278.01 128.073 277.679 128.009 277.357C127.945 277.036 127.808 276.729 127.606 276.459C127.404 276.188 127.142 275.959 126.837 275.786C126.531 275.614 126.19 275.501 125.834 275.455C123.675 275.249 121.119 277.936 120.331 279.538C120.258 279.678 119.471 281.967 119.52 281.967H119.568C119.155 282.388 118.757 282.838 118.27 283.347C117.458 284.292 116.476 285.363 115.543 286.588C114.514 287.902 113.571 289.27 112.719 290.686C111.744 292.261 110.93 293.914 110.284 295.624C110.284 295.624 110.284 295.669 110.284 295.691C110.284 295.115 110.284 293.476 110.243 293.373C110 291.623 108.393 288.39 106.259 288.028C105.901 287.976 105.536 287.995 105.187 288.081C104.838 288.168 104.513 288.321 104.233 288.53C103.954 288.74 103.727 289 103.567 289.296C103.407 289.591 103.317 289.914 103.304 290.243C103.175 291.63 104.278 293.018 105.358 293.934C106.575 294.923 109.951 295.875 110.227 295.949C109.624 297.706 109.147 299.496 108.799 301.309C108.596 302.365 108.426 303.428 108.263 304.506C108.263 304.003 108.263 303.553 108.263 303.494C108.012 301.744 106.405 298.511 104.27 298.149C103.913 298.098 103.547 298.116 103.198 298.203C102.849 298.289 102.524 298.442 102.245 298.652C101.966 298.861 101.739 299.122 101.578 299.417C101.418 299.712 101.329 300.035 101.316 300.364C101.186 301.752 102.298 303.14 103.369 304.018C104.441 304.897 107.322 305.775 108.085 305.997L107.914 307.23C107.654 309.208 107.403 311.179 107.103 313.136C106.997 313.815 106.859 314.479 106.729 315.151C106.729 314.708 106.729 314.332 106.729 314.272C106.486 312.53 104.879 309.289 102.744 308.928C102.387 308.879 102.023 308.899 101.675 308.986C101.327 309.074 101.003 309.227 100.724 309.436C100.446 309.645 100.219 309.905 100.058 310.199C99.8967 310.493 99.8056 310.814 99.7903 311.142C99.6604 312.523 100.764 313.918 101.844 314.789C102.923 315.66 105.52 316.465 106.421 316.731C106.267 317.41 106.104 318.089 105.918 318.739C105.78 319.182 105.682 319.617 105.512 320.053C105.342 320.489 105.204 320.924 105.057 321.352C104.733 322.164 104.4 323.006 104.059 323.796C103.832 324.342 103.597 324.859 103.361 325.383C103.483 324.711 103.678 323.382 103.686 323.264C103.664 321.708 103.202 320.183 102.347 318.835C102.363 318.663 102.363 318.49 102.347 318.318C102.302 317.993 102.182 317.68 101.995 317.399C101.808 317.119 101.559 316.877 101.262 316.691C100.966 316.504 100.63 316.376 100.275 316.316C99.9209 316.255 99.5566 316.263 99.206 316.34C97.1121 316.842 95.7892 320.186 95.6918 321.943C95.6918 322.046 95.7568 323.183 95.8136 323.892C95.7081 323.478 95.6107 323.08 95.497 322.652C95.2779 321.81 95.0344 320.976 94.7747 320.075L94.3365 318.768C94.2066 318.333 94.0037 317.883 93.8333 317.44C93.4194 316.406 92.9406 315.38 92.4374 314.361C93.249 314.184 96.122 313.519 97.3069 312.715C98.4918 311.91 99.6118 310.471 99.6118 309.097C99.622 308.77 99.5563 308.444 99.419 308.141C99.2817 307.839 99.0758 307.565 98.8147 307.34C98.5536 307.114 98.2432 306.941 97.9037 306.832C97.5642 306.722 97.2033 306.679 96.8443 306.705C94.6936 306.92 92.7864 310.042 92.4293 311.762C92.4293 311.873 92.2751 313.136 92.2264 313.837C91.918 313.224 91.6096 312.611 91.2768 311.999C90.3111 310.234 89.2803 308.477 88.2578 306.72C87.9412 306.181 87.6328 305.635 87.3244 305.096C87.6166 305.037 91.0415 304.314 92.3319 303.413C93.4843 302.616 94.7017 301.309 94.6855 299.914C94.6946 299.587 94.628 299.262 94.4902 298.96C94.3524 298.658 94.1463 298.386 93.8853 298.161C93.6244 297.936 93.3144 297.764 92.9755 297.655C92.6366 297.546 92.2763 297.503 91.918 297.529C89.7673 297.736 87.8601 300.859 87.503 302.586C87.503 302.712 87.292 304.535 87.2676 305C86.594 303.812 85.9285 302.623 85.328 301.427C84.5062 299.814 83.7987 298.154 83.2097 296.459C83.3477 296.459 86.9268 295.72 88.2496 294.768C89.394 293.963 90.6113 292.657 90.6032 291.269C90.6123 290.941 90.5456 290.615 90.4073 290.312C90.2691 290.009 90.0624 289.736 89.8007 289.511C89.539 289.285 89.2281 289.112 88.8882 289.003C88.5483 288.894 88.187 288.851 87.8276 288.877C85.6769 289.091 83.7697 292.214 83.4208 293.934C83.4208 294.074 83.1935 296.03 83.1854 296.385C83.1854 296.289 83.1042 296.193 83.0718 296.089C82.536 294.375 82.1693 292.621 81.9761 290.848C81.8544 289.866 81.7976 288.928 81.7732 288.006C82.455 287.932 85.5714 287.555 86.8618 286.847C88.1523 286.138 89.4589 284.986 89.6212 283.598C89.6702 283.276 89.6445 282.948 89.5459 282.636C89.4473 282.323 89.278 282.033 89.0487 281.783C88.8194 281.533 88.5353 281.33 88.2146 281.186C87.8939 281.043 87.5437 280.961 87.1865 280.948C85.0196 280.948 82.7877 283.864 82.1872 285.533C82.1872 285.629 81.9356 286.588 81.7895 287.29C81.7895 286.869 81.7895 286.448 81.7895 286.049C81.7895 284.573 81.895 283.192 81.9924 281.982C82.0573 281.295 82.1303 280.675 82.2115 280.099C82.8364 279.708 85.3442 278.098 86.1152 276.947C86.8862 275.795 87.4786 274.208 86.9268 272.909C86.8055 272.6 86.6143 272.319 86.3657 272.083C86.117 271.846 85.8165 271.66 85.4835 271.536C85.1506 271.412 84.7927 271.353 84.4331 271.363C84.0735 271.373 83.7203 271.452 83.3964 271.594C81.473 272.495 80.9617 276.024 81.2863 277.759C81.2863 277.906 82.0411 280.21 82.0979 280.188C82.0167 280.741 81.9356 281.339 81.8544 281.996C81.7246 283.2 81.5866 284.565 81.546 286.064C81.4866 287.677 81.5299 289.291 81.6759 290.9C81.8302 292.699 82.1588 294.483 82.6579 296.23V296.296C82.317 295.809 81.3106 294.473 81.2214 294.377C79.9553 293.048 76.6522 291.151 74.6557 291.926C74.3283 292.062 74.0361 292.26 73.7982 292.505C73.5602 292.751 73.3819 293.04 73.2747 293.353C73.1675 293.665 73.1339 293.995 73.1761 294.32C73.2183 294.646 73.3353 294.959 73.5195 295.24C74.1931 296.444 75.9542 297.034 77.3826 297.226Z" fill="#263238"/>
<path d="M114.545 287.969C114.545 287.969 115.234 285.665 115.259 285.518C115.527 283.775 114.918 280.261 112.962 279.405C112.634 279.271 112.278 279.201 111.918 279.2C111.559 279.199 111.203 279.266 110.873 279.399C110.544 279.531 110.249 279.725 110.008 279.968C109.767 280.21 109.584 280.497 109.472 280.808C108.953 282.114 109.61 283.724 110.397 284.824C111.323 286.108 114.545 287.961 114.545 287.969Z" fill="#263238"/>
<path d="M264.938 293.218C266.294 293.757 269.589 293.683 269.589 293.683C269.589 293.683 268.883 291.719 268.818 291.601C268.096 290.228 265.807 287.954 263.948 288.183C263.64 288.228 263.345 288.331 263.084 288.486C262.823 288.642 262.601 288.846 262.432 289.085C262.263 289.324 262.152 289.593 262.106 289.874C262.059 290.155 262.079 290.441 262.163 290.715C262.471 291.889 263.794 292.753 264.938 293.218Z" fill="#263238"/>
<path d="M266.083 301.907C267.479 302.091 270.425 301.316 270.652 301.25C271.14 302.782 271.736 304.284 272.437 305.745C272.843 306.602 273.249 307.443 273.736 308.292C273.46 307.931 273.225 307.613 273.184 307.554C272.08 306.395 269.215 304.756 267.503 305.421C267.22 305.539 266.967 305.711 266.761 305.924C266.556 306.137 266.401 306.387 266.309 306.658C266.216 306.928 266.187 307.214 266.224 307.496C266.26 307.777 266.362 308.049 266.521 308.292C267.154 309.356 268.688 309.88 269.93 310.042C271.171 310.205 273.712 309.592 274.377 309.422L274.905 310.389C275.716 311.932 276.609 313.468 277.404 315.003C277.68 315.542 277.932 316.081 278.216 316.62L277.737 316C276.633 314.848 273.768 313.202 272.056 313.866C271.772 313.985 271.518 314.156 271.311 314.37C271.105 314.584 270.95 314.834 270.858 315.106C270.765 315.378 270.736 315.664 270.774 315.947C270.811 316.229 270.913 316.501 271.074 316.745C271.707 317.801 273.241 318.325 274.483 318.488C275.724 318.65 278.013 318.096 278.808 317.897C279.052 318.458 279.295 319.019 279.498 319.573C279.636 319.949 279.79 320.311 279.904 320.695C280.018 321.079 280.131 321.433 280.253 321.832C280.44 322.57 280.642 323.308 280.813 324.047C280.935 324.549 281.04 325.021 281.146 325.523C280.878 324.984 280.334 323.936 280.269 323.855C279.376 322.563 276.812 320.547 274.994 320.968C274.693 321.045 274.414 321.179 274.174 321.36C273.934 321.542 273.739 321.768 273.602 322.023C273.465 322.278 273.389 322.557 273.378 322.841C273.368 323.125 273.423 323.407 273.541 323.67C273.996 324.807 275.416 325.531 276.617 325.885C277.94 326.254 280.862 325.922 281.227 325.885C281.397 326.675 281.56 327.45 281.698 328.181C282.014 329.798 282.249 331.245 282.428 332.47H283.662C283.442 331.208 283.166 329.694 282.793 327.996C282.623 327.192 282.42 326.328 282.201 325.449C283.078 325.127 283.934 324.76 284.765 324.349C285.898 325.24 287.159 325.985 288.515 326.564C288.174 327.302 287.841 328.041 287.517 328.72C286.835 330.145 286.186 331.414 285.617 332.485H286.948C287.435 331.496 287.979 330.366 288.572 329.111C288.921 328.373 289.27 327.531 289.619 326.69C289.976 326.756 292.865 327.295 294.212 327.014C295.438 326.763 296.915 326.136 297.458 325.036C297.596 324.781 297.673 324.502 297.684 324.218C297.696 323.934 297.642 323.651 297.525 323.387C297.409 323.124 297.233 322.885 297.009 322.687C296.785 322.489 296.518 322.336 296.225 322.238C294.447 321.699 291.729 323.537 290.73 324.763C290.674 324.837 290.13 325.686 289.797 326.239C289.943 325.892 290.081 325.56 290.227 325.198C290.511 324.497 290.771 323.788 291.039 323.02C291.161 322.644 291.282 322.282 291.412 321.891C291.542 321.5 291.631 321.101 291.745 320.702C291.988 319.78 292.183 318.835 292.354 317.875C293.035 318.096 295.462 318.864 296.712 318.783C297.962 318.702 299.536 318.288 300.258 317.306C300.441 317.073 300.568 316.808 300.63 316.527C300.691 316.246 300.687 315.956 300.616 315.677C300.546 315.398 300.411 315.135 300.22 314.907C300.03 314.679 299.788 314.49 299.512 314.353C297.84 313.571 294.845 315.01 293.66 316.088C293.579 316.155 292.849 317.019 292.418 317.498C292.516 316.915 292.621 316.339 292.703 315.756C292.93 314.058 293.108 312.338 293.295 310.588C293.352 310.064 293.409 309.54 293.474 309.016C293.717 309.097 296.574 310.072 297.978 309.976C299.228 309.902 300.794 309.481 301.524 308.499C301.707 308.266 301.833 307.999 301.894 307.718C301.956 307.437 301.95 307.147 301.879 306.868C301.807 306.589 301.672 306.326 301.48 306.099C301.289 305.871 301.047 305.682 300.77 305.546C299.146 304.764 296.111 306.203 294.918 307.281C294.829 307.362 293.741 308.603 293.482 308.927C293.62 307.776 293.766 306.624 293.96 305.502C294.21 303.976 294.571 302.467 295.04 300.984C295.153 301.021 298.132 302.047 299.569 301.951C300.818 301.877 302.393 301.456 303.115 300.474C303.298 300.241 303.425 299.976 303.486 299.695C303.548 299.414 303.544 299.124 303.473 298.845C303.402 298.566 303.267 298.303 303.077 298.075C302.887 297.847 302.645 297.658 302.368 297.521C300.697 296.739 297.702 298.178 296.517 299.256C296.42 299.345 295.251 300.674 295.056 300.932C295.056 300.844 295.105 300.755 295.129 300.666C295.647 299.194 296.307 297.766 297.101 296.399C297.523 295.661 297.978 294.923 298.44 294.251C298.976 294.495 301.427 295.58 302.734 295.624C304.04 295.668 305.59 295.417 306.434 294.48C306.639 294.266 306.793 294.016 306.885 293.745C306.977 293.474 307.006 293.188 306.969 292.906C306.932 292.625 306.831 292.353 306.672 292.109C306.513 291.865 306.299 291.654 306.045 291.49C304.479 290.545 301.33 291.682 300.015 292.634C299.95 292.686 299.284 293.284 298.814 293.727C299.025 293.424 299.236 293.107 299.447 292.826C300.258 291.748 301.07 290.803 301.735 289.977C302.141 289.504 302.547 289.091 302.88 288.707C303.537 288.707 306.199 288.618 307.36 288.124C308.52 287.629 309.794 286.736 310.07 285.554C310.144 285.279 310.152 284.992 310.096 284.713C310.04 284.433 309.92 284.168 309.744 283.934C309.568 283.699 309.34 283.501 309.075 283.351C308.81 283.202 308.513 283.105 308.204 283.067C306.337 282.882 304.146 285.207 303.44 286.603C303.375 286.728 302.693 288.707 302.726 288.707H302.766C302.417 289.068 302.036 289.445 301.638 289.903C300.908 290.722 300.096 291.652 299.276 292.715C298.389 293.855 297.576 295.04 296.842 296.266C296.007 297.638 295.306 299.073 294.748 300.556C294.75 300.573 294.75 300.59 294.748 300.607C294.748 300.105 294.748 298.703 294.748 298.599C294.529 297.123 293.125 294.273 291.282 293.963C290.974 293.92 290.66 293.937 290.359 294.012C290.059 294.087 289.779 294.218 289.538 294.398C289.297 294.577 289.1 294.801 288.96 295.054C288.82 295.308 288.74 295.585 288.726 295.868C288.612 297.071 289.537 298.274 290.503 299.035C291.558 299.891 294.488 300.718 294.723 300.784C294.195 302.305 293.781 303.857 293.482 305.428C293.303 306.343 293.157 307.266 293.019 308.196C293.019 307.761 293.019 307.377 293.019 307.325C292.8 305.812 291.396 302.999 289.562 302.689C289.253 302.645 288.938 302.661 288.636 302.735C288.335 302.81 288.054 302.941 287.812 303.121C287.57 303.301 287.373 303.525 287.232 303.778C287.092 304.032 287.012 304.31 286.997 304.594C286.884 305.797 287.849 307.001 288.783 307.754C289.716 308.507 292.207 309.282 292.841 309.474L292.694 310.544C292.467 312.257 292.248 313.97 291.98 315.645C291.891 316.236 291.769 316.812 291.656 317.388C291.656 317.004 291.656 316.649 291.656 316.649C291.445 315.173 290.032 312.323 288.198 312.013C287.89 311.969 287.574 311.985 287.273 312.06C286.971 312.134 286.691 312.265 286.449 312.445C286.207 312.625 286.009 312.849 285.869 313.102C285.728 313.356 285.648 313.634 285.634 313.918C285.528 315.121 286.486 316.325 287.419 317.078C288.638 317.823 289.977 318.39 291.388 318.761C291.25 319.351 291.112 319.942 290.95 320.503C290.836 320.887 290.747 321.241 290.601 321.647C290.454 322.053 290.333 322.386 290.203 322.769C289.919 323.471 289.635 324.202 289.343 324.888C289.14 325.361 288.937 325.811 288.734 326.269C288.839 325.678 289.01 324.526 289.018 324.431C288.996 323.089 288.597 321.775 287.857 320.614C287.87 320.464 287.87 320.313 287.857 320.163C287.818 319.882 287.714 319.611 287.552 319.369C287.39 319.126 287.174 318.918 286.918 318.756C286.661 318.595 286.37 318.484 286.064 318.431C285.757 318.379 285.442 318.385 285.139 318.451C283.321 318.886 282.168 321.788 282.087 323.308C282.087 323.397 282.144 324.379 282.201 324.999C282.103 324.637 282.022 324.261 281.925 323.921C281.73 323.183 281.519 322.445 281.292 321.706C281.17 321.337 281.04 320.968 280.918 320.577C280.797 320.186 280.626 319.839 280.48 319.425C280.115 318.532 279.709 317.639 279.271 316.753C279.977 316.605 282.46 316.014 283.459 315.328C284.457 314.641 285.504 313.497 285.496 312.294C285.505 312.007 285.447 311.721 285.326 311.456C285.205 311.191 285.023 310.953 284.793 310.757C284.563 310.56 284.289 310.411 283.991 310.318C283.692 310.226 283.375 310.192 283.061 310.219C281.194 310.404 279.571 313.113 279.238 314.604C279.238 314.7 279.1 315.8 279.06 316.398C278.792 315.874 278.524 315.335 278.248 314.811C277.437 313.283 276.512 311.755 275.627 310.234C275.351 309.762 275.091 309.296 274.815 308.831C275.059 308.772 278.062 308.152 279.157 307.355C280.147 306.661 281.202 305.524 281.194 304.321C281.204 304.034 281.146 303.748 281.025 303.483C280.904 303.218 280.722 302.98 280.492 302.783C280.262 302.587 279.988 302.438 279.689 302.345C279.391 302.253 279.074 302.219 278.76 302.246C276.893 302.431 275.27 305.14 274.929 306.631C274.929 306.742 274.75 308.322 274.734 308.728C274.142 307.694 273.566 306.668 273.046 305.627C272.333 304.23 271.72 302.793 271.212 301.323C271.326 301.323 274.458 300.652 275.578 299.847C276.576 299.153 277.623 298.016 277.615 296.813C277.625 296.526 277.567 296.24 277.446 295.975C277.325 295.71 277.143 295.472 276.913 295.275C276.682 295.079 276.409 294.93 276.11 294.837C275.812 294.745 275.495 294.711 275.181 294.738C273.314 294.923 271.691 297.632 271.358 299.123C271.358 299.242 271.163 300.947 271.155 301.25C271.155 301.168 271.082 301.08 271.058 300.999C270.594 299.511 270.276 297.989 270.108 296.451C270.003 295.602 269.954 294.783 269.93 293.985C270.522 293.919 273.225 293.594 274.337 292.981C275.448 292.368 276.601 291.364 276.731 290.161C276.774 289.88 276.752 289.594 276.665 289.321C276.579 289.048 276.43 288.795 276.229 288.578C276.027 288.362 275.777 288.186 275.496 288.063C275.215 287.94 274.908 287.873 274.596 287.865C272.713 287.865 270.782 290.39 270.262 291.844C270.262 291.926 270.043 292.752 269.922 293.358C269.922 293.003 269.922 292.619 269.922 292.287C269.922 290.995 270.019 289.814 270.108 288.766C270.157 288.168 270.222 287.629 270.287 287.127C270.83 286.787 273.006 285.392 273.671 284.395C274.337 283.399 274.864 282.018 274.377 280.896C274.272 280.628 274.105 280.384 273.889 280.178C273.673 279.973 273.412 279.811 273.123 279.703C272.834 279.595 272.523 279.544 272.211 279.552C271.898 279.561 271.591 279.629 271.309 279.752C269.646 280.534 269.207 283.591 269.483 285.097C269.483 285.23 270.133 287.223 270.165 287.208C270.092 287.688 270.019 288.205 269.954 288.773C269.84 289.822 269.719 290.988 269.686 292.302C269.63 293.7 269.666 295.101 269.792 296.495C269.924 298.059 270.212 299.608 270.652 301.124C270.649 301.141 270.649 301.159 270.652 301.176C270.352 300.755 269.483 299.596 269.41 299.515C268.306 298.363 265.442 296.717 263.729 297.381C263.446 297.5 263.193 297.673 262.987 297.886C262.781 298.1 262.627 298.351 262.535 298.622C262.442 298.894 262.413 299.18 262.45 299.462C262.486 299.744 262.588 300.016 262.747 300.26C263.307 301.22 264.841 301.744 266.083 301.907Z" fill="#263238"/>
<path d="M298.302 293.874C298.302 293.874 298.895 291.881 298.919 291.756C299.146 290.279 298.619 287.193 296.931 286.455C296.646 286.338 296.338 286.278 296.025 286.277C295.713 286.276 295.404 286.335 295.118 286.45C294.833 286.565 294.577 286.733 294.368 286.944C294.159 287.155 294 287.403 293.904 287.673C293.449 288.803 294.025 290.198 294.715 291.15C295.502 292.28 298.294 293.874 298.302 293.874Z" fill="#263238"/>
<path d="M227.995 300.733C229.104 300.998 230.25 301.112 231.396 301.072C231.396 301.072 230.877 299.633 230.836 299.552C230.308 298.54 228.628 296.879 227.265 297.042C227.039 297.074 226.822 297.15 226.631 297.265C226.439 297.379 226.276 297.529 226.152 297.705C226.029 297.881 225.948 298.078 225.914 298.285C225.881 298.491 225.896 298.701 225.958 298.902C226.133 299.322 226.406 299.703 226.758 300.019C227.109 300.335 227.531 300.579 227.995 300.733Z" fill="#263238"/>
<path d="M228.831 307.089C229.966 307.081 231.093 306.92 232.175 306.61C232.53 307.732 232.966 308.832 233.482 309.902C233.785 310.522 234.101 311.142 234.431 311.763C234.236 311.497 234.058 311.268 234.025 311.238C233.214 310.389 231.128 309.186 229.862 309.681C229.655 309.767 229.47 309.891 229.319 310.047C229.168 310.202 229.055 310.385 228.987 310.582C228.919 310.78 228.897 310.989 228.923 311.195C228.95 311.401 229.023 311.599 229.14 311.777C229.427 312.143 229.799 312.447 230.229 312.668C230.66 312.888 231.138 313.02 231.631 313.054C232.732 313.058 233.827 312.906 234.877 312.604L235.267 313.342C235.892 314.472 236.517 315.557 237.093 316.716C237.296 317.107 237.483 317.506 237.669 317.905C237.499 317.668 237.345 317.477 237.32 317.447C236.509 316.605 234.415 315.402 233.157 315.889C232.948 315.975 232.762 316.1 232.611 316.256C232.459 316.412 232.346 316.595 232.277 316.794C232.209 316.993 232.188 317.202 232.215 317.409C232.242 317.616 232.317 317.815 232.435 317.993C232.723 318.358 233.095 318.661 233.526 318.882C233.956 319.102 234.434 319.235 234.926 319.27C236 319.277 237.068 319.13 238.091 318.835C238.27 319.248 238.448 319.654 238.603 320.06C238.7 320.341 238.814 320.599 238.895 320.887C238.976 321.175 239.065 321.441 239.146 321.721C239.292 322.253 239.438 322.807 239.56 323.331C239.65 323.693 239.731 324.069 239.804 324.394C239.609 323.995 239.203 323.227 239.163 323.168C238.505 322.223 236.63 320.747 235.299 321.057C235.079 321.113 234.875 321.211 234.7 321.345C234.524 321.478 234.381 321.643 234.281 321.83C234.181 322.017 234.125 322.221 234.117 322.428C234.109 322.636 234.15 322.843 234.236 323.036C234.462 323.435 234.781 323.786 235.171 324.062C235.56 324.339 236.011 324.535 236.492 324.638C237.609 324.793 238.744 324.793 239.861 324.638C239.99 325.221 240.112 325.789 240.209 326.321C240.437 327.502 240.615 328.535 240.745 329.466H241.638C241.484 328.535 241.273 327.428 241.005 326.188C240.875 325.597 240.729 324.97 240.567 324.32C241.211 324.086 241.84 323.817 242.449 323.515C243.276 324.163 244.196 324.705 245.184 325.125C244.941 325.671 244.698 326.21 244.462 326.705C243.959 327.746 243.488 328.676 243.066 329.466H244.073C244.438 328.727 244.827 327.908 245.241 326.993C245.493 326.439 245.753 325.841 246.004 325.221C247.107 325.457 248.243 325.536 249.372 325.457C249.863 325.383 250.33 325.213 250.74 324.958C251.151 324.703 251.496 324.369 251.75 323.98C251.852 323.794 251.909 323.59 251.918 323.383C251.927 323.175 251.888 322.968 251.803 322.775C251.718 322.581 251.589 322.407 251.425 322.262C251.26 322.118 251.064 322.006 250.849 321.936C249.543 321.537 247.554 322.881 246.791 323.781C246.751 323.833 246.353 324.453 246.11 324.852C246.215 324.601 246.321 324.357 246.426 324.113C246.629 323.604 246.824 323.08 247.027 322.519C247.116 322.246 247.213 321.972 247.303 321.692C247.392 321.411 247.465 321.116 247.546 320.828C247.725 320.149 247.871 319.455 247.993 318.754C249.013 319.121 250.088 319.345 251.182 319.418C251.677 319.418 252.166 319.32 252.614 319.13C253.063 318.94 253.461 318.663 253.779 318.318C253.911 318.148 254.002 317.954 254.046 317.749C254.09 317.545 254.085 317.334 254.033 317.131C253.981 316.928 253.882 316.738 253.743 316.572C253.604 316.406 253.429 316.269 253.227 316.17C252.01 315.601 249.819 316.657 248.95 317.44C248.893 317.491 248.342 318.119 248.041 318.473C248.114 318.052 248.187 317.632 248.244 317.196C248.415 315.956 248.544 314.701 248.682 313.446C248.723 313.054 248.764 312.671 248.812 312.294C249.866 312.676 250.977 312.913 252.107 312.995C252.602 312.992 253.091 312.891 253.539 312.7C253.987 312.509 254.385 312.232 254.704 311.888C254.835 311.718 254.925 311.525 254.968 311.321C255.011 311.117 255.006 310.907 254.954 310.705C254.902 310.503 254.804 310.314 254.665 310.149C254.527 309.983 254.353 309.847 254.152 309.747C252.935 309.171 250.744 310.227 249.875 311.017C249.802 311.076 249.007 311.984 248.82 312.22C248.918 311.379 249.023 310.537 249.169 309.71C249.361 308.593 249.632 307.488 249.981 306.403C251.04 306.799 252.159 307.048 253.3 307.141C253.794 307.139 254.282 307.038 254.729 306.847C255.176 306.656 255.572 306.378 255.889 306.034C256.022 305.864 256.113 305.67 256.157 305.466C256.202 305.262 256.198 305.052 256.147 304.849C256.095 304.646 255.997 304.455 255.859 304.289C255.721 304.123 255.546 303.986 255.345 303.885C254.12 303.317 251.929 304.373 251.06 305.163C250.995 305.222 250.135 306.196 249.997 306.381C249.997 306.322 249.997 306.255 250.054 306.189C250.427 305.11 250.908 304.065 251.49 303.066C251.799 302.512 252.132 301.996 252.472 301.501C253.457 301.979 254.516 302.317 255.613 302.505C256.105 302.55 256.602 302.499 257.07 302.354C257.538 302.208 257.965 301.973 258.324 301.663C258.481 301.507 258.599 301.322 258.67 301.121C258.741 300.92 258.764 300.707 258.737 300.497C258.71 300.287 258.634 300.085 258.514 299.904C258.393 299.723 258.232 299.568 258.04 299.449C256.887 298.755 254.583 299.589 253.625 300.283C253.576 300.32 253.089 300.755 252.74 301.08C252.894 300.859 253.057 300.63 253.211 300.423C253.787 299.633 254.363 298.947 254.883 298.334L255.694 297.404C256.794 297.413 257.888 297.271 258.941 296.983C259.402 296.82 259.819 296.567 260.161 296.242C260.503 295.917 260.763 295.527 260.921 295.1C260.977 294.899 260.985 294.689 260.946 294.484C260.906 294.28 260.82 294.085 260.692 293.913C260.564 293.741 260.397 293.595 260.203 293.486C260.009 293.376 259.792 293.305 259.566 293.277C258.194 293.144 256.571 294.849 256.068 295.868C256.068 295.957 255.524 297.411 255.556 297.411C255.297 297.684 255.021 297.972 254.745 298.29C254.217 298.887 253.617 299.567 253.016 300.349C252.367 301.185 251.768 302.053 251.223 302.948C250.637 303.939 250.145 304.974 249.754 306.041V306.078C249.754 305.716 249.754 304.69 249.754 304.602C249.591 303.494 248.569 301.442 247.222 301.213C246.996 301.179 246.765 301.19 246.543 301.243C246.322 301.297 246.116 301.392 245.938 301.523C245.76 301.654 245.615 301.818 245.512 302.004C245.408 302.189 245.349 302.393 245.339 302.601C245.359 303.05 245.487 303.49 245.712 303.89C245.938 304.291 246.256 304.642 246.645 304.919C247.598 305.484 248.637 305.917 249.729 306.204C249.345 307.316 249.044 308.45 248.828 309.599C248.699 310.271 248.585 310.943 248.488 311.63C248.488 311.312 248.488 311.024 248.488 310.987C248.325 309.88 247.303 307.82 245.955 307.599C245.729 307.565 245.497 307.576 245.275 307.63C245.054 307.683 244.847 307.779 244.669 307.911C244.491 308.043 244.346 308.208 244.243 308.395C244.14 308.581 244.082 308.786 244.073 308.994C244.09 309.444 244.217 309.885 244.442 310.285C244.668 310.686 244.988 311.037 245.379 311.312C246.299 311.866 247.306 312.289 248.366 312.567C248.366 312.826 248.293 313.091 248.26 313.35C248.09 314.605 247.936 315.86 247.733 317.085C247.668 317.513 247.579 317.942 247.497 318.362C247.497 318.082 247.497 317.846 247.497 317.809C247.343 316.701 246.321 314.642 244.965 314.413C244.739 314.38 244.509 314.392 244.288 314.446C244.067 314.501 243.861 314.597 243.684 314.729C243.507 314.86 243.363 315.025 243.261 315.211C243.158 315.397 243.1 315.6 243.091 315.808C243.111 316.258 243.238 316.698 243.463 317.098C243.689 317.498 244.008 317.849 244.397 318.126C245.29 318.669 246.27 319.082 247.303 319.352C247.197 319.787 247.1 320.215 246.978 320.629C246.897 320.909 246.832 321.19 246.726 321.463L246.434 322.29C246.223 322.807 246.02 323.338 245.801 323.84C245.655 324.187 245.509 324.512 245.363 324.844C245.436 324.416 245.558 323.574 245.566 323.501C245.559 322.523 245.28 321.563 244.754 320.71C244.77 320.6 244.77 320.488 244.754 320.378C244.726 320.172 244.651 319.973 244.533 319.795C244.414 319.617 244.256 319.464 244.069 319.346C243.881 319.227 243.668 319.146 243.444 319.108C243.219 319.069 242.988 319.075 242.766 319.123C241.443 319.448 240.599 321.566 240.534 322.681C240.534 322.748 240.575 323.464 240.615 323.921C240.55 323.656 240.485 323.397 240.412 323.132C240.274 322.6 240.12 322.068 239.95 321.493C239.861 321.227 239.771 320.946 239.674 320.666C239.576 320.385 239.463 320.105 239.357 319.824C239.098 319.167 238.789 318.517 238.473 317.868C239.548 317.666 240.583 317.315 241.54 316.827C241.949 316.576 242.294 316.249 242.552 315.867C242.809 315.485 242.974 315.057 243.034 314.612C243.04 314.404 242.998 314.197 242.911 314.005C242.823 313.813 242.692 313.639 242.526 313.497C242.36 313.354 242.162 313.244 241.946 313.176C241.73 313.107 241.501 313.081 241.273 313.099C239.909 313.232 238.716 315.21 238.473 316.303C238.473 316.377 238.375 317.174 238.343 317.617C238.148 317.233 237.953 316.842 237.742 316.45C237.134 315.336 236.476 314.236 235.827 313.106L235.235 312.08C236.344 311.867 237.414 311.506 238.408 311.01C238.818 310.761 239.165 310.434 239.422 310.052C239.68 309.669 239.844 309.24 239.901 308.795C239.908 308.587 239.866 308.381 239.779 308.189C239.692 307.998 239.561 307.825 239.396 307.682C239.231 307.539 239.034 307.43 238.819 307.361C238.604 307.292 238.375 307.265 238.148 307.281C236.777 307.414 235.592 309.393 235.348 310.485C235.348 310.574 235.21 311.726 235.202 312.021C234.772 311.283 234.35 310.544 233.968 309.754C233.442 308.732 232.992 307.679 232.621 306.602C233.74 306.39 234.818 306.027 235.819 305.524C236.231 305.277 236.578 304.95 236.836 304.568C237.094 304.185 237.256 303.756 237.312 303.31C237.32 303.101 237.279 302.893 237.192 302.7C237.105 302.507 236.974 302.333 236.807 302.189C236.641 302.045 236.443 301.935 236.226 301.866C236.01 301.797 235.78 301.771 235.551 301.789C234.188 301.929 233.003 303.908 232.751 305C232.751 305.089 232.613 306.329 232.605 306.558C232.584 306.493 232.56 306.429 232.532 306.366C232.194 305.277 231.963 304.163 231.842 303.036C231.761 302.416 231.729 301.818 231.704 301.242C232.821 301.147 233.916 300.899 234.95 300.504C235.39 300.298 235.774 300.006 236.077 299.65C236.38 299.295 236.594 298.883 236.703 298.445C236.736 298.238 236.719 298.028 236.656 297.828C236.592 297.628 236.483 297.442 236.335 297.283C236.187 297.124 236.004 296.996 235.798 296.906C235.591 296.816 235.366 296.767 235.137 296.761C233.766 296.761 232.345 298.607 231.972 299.67C231.972 299.729 231.81 300.334 231.72 300.785C231.72 300.519 231.72 300.246 231.72 299.995C231.72 299.05 231.785 298.186 231.85 297.418C231.891 296.983 231.939 296.584 231.988 296.222C232.874 295.667 233.665 294.995 234.334 294.229C234.618 293.862 234.812 293.442 234.9 293C234.988 292.557 234.97 292.103 234.845 291.667C234.769 291.471 234.649 291.291 234.492 291.14C234.335 290.989 234.144 290.869 233.932 290.79C233.721 290.71 233.493 290.673 233.264 290.679C233.036 290.685 232.811 290.735 232.605 290.826C231.388 291.402 231.063 293.639 231.266 294.739C231.266 294.835 231.745 296.296 231.769 296.281C231.72 296.636 231.664 297.02 231.615 297.433C231.534 298.171 231.444 299.065 231.42 300.017C231.384 301.039 231.411 302.062 231.501 303.081C231.601 304.225 231.81 305.358 232.126 306.469C232.126 306.469 232.126 306.469 232.126 306.506C231.907 306.196 231.274 305.347 231.217 305.288C230.406 304.446 228.312 303.243 227.046 303.73C226.837 303.816 226.651 303.941 226.5 304.097C226.348 304.253 226.234 304.436 226.166 304.635C226.098 304.834 226.077 305.043 226.104 305.25C226.131 305.457 226.206 305.656 226.323 305.834C226.616 306.197 226.992 306.497 227.425 306.714C227.858 306.93 228.338 307.059 228.831 307.089Z" fill="#263238"/>
<path d="M252.408 301.213C252.408 301.213 252.846 299.736 252.862 299.655C253.032 298.555 252.643 296.326 251.401 295.779C251.193 295.695 250.968 295.651 250.74 295.65C250.512 295.65 250.287 295.694 250.078 295.778C249.87 295.862 249.684 295.985 249.531 296.14C249.379 296.294 249.264 296.475 249.194 296.673C249.082 297.11 249.077 297.565 249.178 298.004C249.279 298.444 249.484 298.859 249.778 299.219C250.543 299.997 251.429 300.669 252.408 301.213Z" fill="#263238"/>
<path d="M297.158 43.0329C296.483 45.462 296.655 48.0223 297.651 50.3584C298.647 52.6946 300.418 54.6908 302.718 56.0703C305.017 57.4497 307.732 58.1439 310.485 58.0566C313.238 57.9693 315.892 57.1048 318.081 55.5831L323.218 60.0568C323.086 60.5442 323.096 61.0546 323.247 61.5375C323.398 62.0204 323.684 62.4592 324.078 62.8105L335.238 72.7547C335.537 73.0189 335.891 73.2268 336.279 73.3666C336.667 73.5064 337.081 73.5754 337.498 73.5696C337.915 73.5638 338.327 73.4832 338.71 73.3327C339.093 73.1821 339.439 72.9643 339.73 72.6919C340.02 72.4195 340.249 72.0977 340.403 71.7449C340.556 71.3921 340.632 71.0153 340.626 70.6358C340.619 70.2564 340.531 69.8818 340.365 69.5335C340.2 69.1852 339.96 68.8699 339.661 68.6057L328.477 58.6542C328.074 58.3015 327.576 58.0517 327.034 57.9299C326.491 57.8081 325.922 57.8185 325.385 57.9602L320.361 53.5603C321.574 52.2088 322.444 50.6309 322.91 48.9388C323.336 47.4008 323.425 45.8014 323.172 44.232C322.919 42.6626 322.328 41.1539 321.434 39.7921C320.54 38.4303 319.36 37.242 317.961 36.2952C316.562 35.3483 314.971 34.6614 313.28 34.2736C311.59 33.8858 309.831 33.8047 308.106 34.0351C306.381 34.2654 304.722 34.8026 303.225 35.6159C301.728 36.4293 300.422 37.503 299.381 38.7756C298.34 40.0482 297.585 41.4948 297.158 43.0329V43.0329ZM320.605 48.3925C320.079 50.2944 318.944 52.0115 317.345 53.3269C315.746 54.6422 313.754 55.4966 311.621 55.7819C309.488 56.0673 307.31 55.7709 305.362 54.9301C303.414 54.0893 301.785 52.742 300.679 51.0585C299.573 49.375 299.041 47.431 299.149 45.4724C299.258 43.5137 300.003 41.6285 301.29 40.055C302.577 38.4815 304.348 37.2905 306.379 36.6326C308.41 35.9748 310.61 35.8796 312.7 36.3591C315.501 37.0036 317.907 38.6327 319.389 40.8887C320.871 43.1447 321.308 45.8434 320.605 48.3925Z" stroke="#263238" stroke-miterlimit="10"/>
<path d="M51.7287 189.332C49.7157 189.769 47.9023 190.766 46.5397 192.183C45.1772 193.6 44.3331 195.368 44.1244 197.241C43.9157 199.114 44.3528 201 45.3751 202.637C46.3973 204.274 47.9541 205.581 49.8296 206.378L48.3363 211.051C47.9329 211.139 47.5618 211.322 47.2599 211.581C46.9581 211.84 46.736 212.166 46.6158 212.527L43.1666 222.767C42.9966 223.322 43.0711 223.915 43.3741 224.421C43.6772 224.927 44.1849 225.305 44.7897 225.476C45.3998 225.631 46.0521 225.563 46.6082 225.287C47.1642 225.012 47.5804 224.55 47.7682 224L51.1931 213.76C51.3149 213.393 51.3265 213.003 51.2266 212.63C51.1267 212.258 50.919 211.916 50.625 211.641L52.1021 207.049C53.5678 207.324 55.0826 207.295 56.5345 206.966C57.9864 206.636 59.3382 206.013 60.4899 205.144C61.6416 204.275 62.5638 203.181 63.1881 201.944C63.8124 200.707 64.123 199.358 64.0968 197.997C64.0706 196.636 63.7084 195.297 63.0368 194.081C62.3653 192.864 61.4017 191.801 60.2172 190.969C59.0328 190.137 57.6579 189.558 56.1942 189.274C54.7305 188.991 53.2155 189.01 51.7612 189.332H51.7287ZM55.9327 205.425C54.3554 205.767 52.7023 205.675 51.1824 205.161C49.6626 204.648 48.3443 203.736 47.3942 202.541C46.4441 201.346 45.905 199.921 45.845 198.447C45.785 196.973 46.2069 195.517 47.0571 194.261C47.9074 193.005 49.148 192.007 50.6219 191.393C52.0959 190.778 53.737 190.575 55.3377 190.81C56.9384 191.044 58.4269 191.704 59.6148 192.708C60.8027 193.712 61.6368 195.013 62.0114 196.448C62.5125 198.368 62.1577 200.39 61.0247 202.072C59.8917 203.754 58.0727 204.96 55.9652 205.425H55.9327Z" stroke="#263238" stroke-miterlimit="10"/>
<path d="M322.309 121.295H298.773C297.245 121.295 295.779 121.847 294.699 122.83C293.618 123.813 293.011 125.147 293.011 126.537V138.386C293.011 139.776 293.618 141.109 294.699 142.092C295.779 143.075 297.245 143.627 298.773 143.627H315.167L314.356 151.01L321.984 143.627H322.309C323.066 143.627 323.815 143.491 324.514 143.228C325.213 142.965 325.848 142.579 326.384 142.092C326.919 141.605 327.343 141.027 327.633 140.391C327.922 139.755 328.071 139.074 328.071 138.386V126.537C328.071 125.848 327.922 125.167 327.633 124.531C327.343 123.895 326.919 123.317 326.384 122.83C325.848 122.344 325.213 121.958 324.514 121.694C323.815 121.431 323.066 121.295 322.309 121.295V121.295Z" stroke="#263238" stroke-miterlimit="10"/>
<path d="M53.433 149.348H69.3805C69.8932 149.348 70.4008 149.44 70.8744 149.619C71.348 149.797 71.7784 150.059 72.1408 150.388C72.5033 150.718 72.7909 151.109 72.9871 151.54C73.1832 151.971 73.2842 152.433 73.2842 152.899V160.924C73.2842 161.39 73.1832 161.852 72.9871 162.283C72.7909 162.714 72.5033 163.105 72.1408 163.435C71.7784 163.765 71.348 164.026 70.8744 164.205C70.4008 164.383 69.8932 164.475 69.3805 164.475H58.2781L58.8543 169.465L53.6521 164.475H53.433C52.3977 164.475 51.4047 164.101 50.6727 163.435C49.9406 162.769 49.5293 161.866 49.5293 160.924V152.899C49.5293 151.957 49.9406 151.054 50.6727 150.388C51.4047 149.722 52.3977 149.348 53.433 149.348Z" stroke="#263238" stroke-miterlimit="10"/>
<path d="M171.315 14.0717H187.262C188.298 14.0717 189.291 14.4458 190.023 15.1118C190.755 15.7777 191.166 16.6809 191.166 17.6227V25.6474C191.166 26.5892 190.755 27.4924 190.023 28.1583C189.291 28.8243 188.298 29.1984 187.262 29.1984H176.16L176.736 34.1889L171.534 29.1984H171.315C170.28 29.1984 169.287 28.8243 168.555 28.1583C167.822 27.4924 167.411 26.5892 167.411 25.6474V17.6227C167.411 16.6809 167.822 15.7777 168.555 15.1118C169.287 14.4458 170.28 14.0717 171.315 14.0717V14.0717Z" stroke="#263238" stroke-miterlimit="10"/>
<path d="M149.646 30.3721L188.666 129.563L272.462 31.9372" stroke="#263238" stroke-miterlimit="10"/>
<path d="M305.745 95.1086L188.666 129.563L267.292 209.958" stroke="#263238" stroke-miterlimit="10"/>
<path d="M98.5648 206.828L188.666 129.563L65.8501 110.767" stroke="#263238" stroke-miterlimit="10"/>
<path d="M315.764 100.425C318.803 95.1438 316.56 88.6216 310.754 85.8572C304.949 83.0928 297.779 85.1329 294.74 90.4141C291.701 95.6952 293.943 102.217 299.749 104.982C305.555 107.746 312.725 105.706 315.764 100.425Z" fill="#263238" stroke="#263238" stroke-width="0.5" stroke-miterlimit="10"/>
<path d="M309.178 94.6735H301.443C300.718 94.6735 300.022 94.9356 299.509 95.4021C298.996 95.8687 298.708 96.5015 298.708 97.1613V103.067C300.598 104.409 302.932 105.13 305.329 105.112C307.726 105.095 310.046 104.34 311.913 102.971V97.1613C311.913 96.5015 311.624 95.8687 311.112 95.4021C310.599 94.9356 309.903 94.6735 309.178 94.6735Z" fill="#5F0A61" stroke="#263238" stroke-miterlimit="10"/>
<path d="M305.177 93.5879C305.955 93.5879 306.716 93.3779 307.363 92.9845C308.011 92.591 308.515 92.0318 308.813 91.3776C309.111 90.7233 309.189 90.0034 309.037 89.3089C308.885 88.6143 308.51 87.9763 307.96 87.4756C307.409 86.9748 306.708 86.6338 305.944 86.4957C305.181 86.3575 304.389 86.4284 303.67 86.6994C302.951 86.9704 302.336 87.4294 301.904 88.0182C301.471 88.607 301.24 89.2992 301.24 90.0074C301.24 90.957 301.655 91.8677 302.393 92.5392C303.131 93.2106 304.133 93.5879 305.177 93.5879Z" fill="#5F0A61" stroke="#263238" stroke-miterlimit="10"/>
<path d="M279.442 210.291C281.972 204.792 279.123 198.469 273.078 196.167C267.033 193.866 260.081 196.458 257.551 201.957C255.022 207.456 257.871 213.779 263.916 216.08C269.961 218.381 276.912 215.789 279.442 210.291Z" fill="#263238" stroke="#263238" stroke-width="0.5" stroke-miterlimit="10"/>
<path d="M272.478 205.411H264.744C264.385 205.41 264.029 205.473 263.698 205.597C263.366 205.722 263.064 205.904 262.81 206.135C262.556 206.365 262.355 206.639 262.217 206.94C262.079 207.242 262.009 207.565 262.009 207.891V213.797C263.899 215.139 266.232 215.859 268.629 215.842C271.027 215.825 273.347 215.07 275.213 213.701V207.891C275.213 207.565 275.142 207.242 275.005 206.94C274.867 206.639 274.666 206.365 274.411 206.135C274.157 205.904 273.856 205.722 273.524 205.597C273.192 205.473 272.837 205.41 272.478 205.411Z" fill="#5F0A61" stroke="#263238" stroke-miterlimit="10"/>
<path d="M268.42 204.318C269.199 204.318 269.96 204.108 270.607 203.715C271.254 203.321 271.759 202.762 272.057 202.108C272.355 201.454 272.433 200.734 272.281 200.039C272.129 199.345 271.754 198.707 271.203 198.206C270.653 197.705 269.952 197.364 269.188 197.226C268.425 197.088 267.633 197.159 266.914 197.43C266.195 197.701 265.58 198.16 265.147 198.749C264.715 199.337 264.484 200.03 264.484 200.738C264.484 201.208 264.586 201.674 264.784 202.108C264.981 202.542 265.271 202.937 265.637 203.27C266.002 203.602 266.436 203.866 266.914 204.046C267.391 204.226 267.903 204.318 268.42 204.318Z" fill="#5F0A61" stroke="#263238" stroke-miterlimit="10"/>
<path d="M149.134 37.3412C153.787 37.3412 157.558 33.9104 157.558 29.6782C157.558 25.446 153.787 22.0152 149.134 22.0152C144.482 22.0152 140.71 25.446 140.71 29.6782C140.71 33.9104 144.482 37.3412 149.134 37.3412Z" fill="#263238" stroke="#263238" stroke-width="0.5" stroke-miterlimit="10"/>
<path d="M151.926 29.1984H146.44C145.925 29.1984 145.432 29.3843 145.068 29.7151C144.704 30.046 144.5 30.4948 144.5 30.9628V35.1043C145.842 36.053 147.496 36.5624 149.196 36.5503C150.895 36.5383 152.54 36.0054 153.866 35.0379V30.9259C153.855 30.4643 153.646 30.025 153.283 29.702C152.921 29.3791 152.434 29.1983 151.926 29.1984Z" fill="#5F0A61" stroke="#263238" stroke-miterlimit="10"/>
<path d="M149.118 28.386C149.67 28.386 150.21 28.2371 150.669 27.958C151.128 27.679 151.486 27.2824 151.697 26.8183C151.909 26.3543 151.964 25.8436 151.856 25.351C151.749 24.8584 151.483 24.4059 151.092 24.0507C150.702 23.6955 150.204 23.4537 149.663 23.3557C149.121 23.2577 148.56 23.308 148.05 23.5002C147.54 23.6924 147.104 24.0179 146.797 24.4355C146.49 24.8532 146.326 25.3442 146.326 25.8465C146.326 26.52 146.62 27.1659 147.144 27.6422C147.668 28.1185 148.378 28.386 149.118 28.386Z" fill="#5F0A61" stroke="#263238" stroke-miterlimit="10"/>
<path d="M105.047 208.526C106.839 204.62 104.811 200.133 100.517 198.503C96.2231 196.873 91.2899 198.718 89.4982 202.624C87.7065 206.53 89.7348 211.017 94.0285 212.647C98.3222 214.277 103.255 212.432 105.047 208.526Z" fill="#263238" stroke="#263238" stroke-width="0.5" stroke-miterlimit="10"/>
<path d="M100.066 205.057H94.58C94.3239 205.056 94.0702 205.101 93.8334 205.19C93.5966 205.278 93.3814 205.409 93.2003 205.573C93.0192 205.738 92.8758 205.934 92.7783 206.149C92.6808 206.365 92.6311 206.596 92.6322 206.828V211.014C93.973 211.969 95.6295 212.481 97.3318 212.469C99.0341 212.457 100.682 211.921 102.006 210.948V206.828C102.007 206.596 101.958 206.366 101.861 206.151C101.764 205.936 101.621 205.741 101.441 205.576C101.26 205.411 101.046 205.281 100.81 205.192C100.575 205.103 100.322 205.057 100.066 205.057Z" fill="#5F0A61" stroke="#263238" stroke-miterlimit="10"/>
<path d="M97.2257 204.281C97.7778 204.281 98.3176 204.132 98.7767 203.853C99.2358 203.574 99.5937 203.177 99.805 202.713C100.016 202.249 100.072 201.739 99.9639 201.246C99.8561 200.753 99.5902 200.301 99.1998 199.946C98.8094 199.591 98.3119 199.349 97.7703 199.251C97.2288 199.153 96.6674 199.203 96.1573 199.395C95.6472 199.588 95.2111 199.913 94.9043 200.331C94.5976 200.748 94.4338 201.239 94.4338 201.742C94.4338 202.415 94.728 203.061 95.2515 203.537C95.7751 204.014 96.4852 204.281 97.2257 204.281Z" fill="#5F0A61" stroke="#263238" stroke-miterlimit="10"/>
<path d="M280.148 31.9068C281.843 27.9654 279.704 23.5206 275.371 21.9791C271.038 20.4377 266.152 22.3832 264.457 26.3247C262.763 30.2661 264.902 34.7109 269.235 36.2524C273.568 37.7938 278.454 35.8483 280.148 31.9068Z" fill="#263238" stroke="#263238" stroke-width="0.5" stroke-miterlimit="10"/>
<path d="M275.116 28.6004H269.621C269.366 28.6004 269.114 28.646 268.879 28.7347C268.644 28.8234 268.43 28.9533 268.25 29.1172C268.07 29.281 267.927 29.4755 267.829 29.6896C267.732 29.9037 267.682 30.1331 267.682 30.3648V34.5581C269.025 35.5073 270.68 36.017 272.381 36.0049C274.082 35.9929 275.729 35.4597 277.055 34.4916V30.3648C277.055 30.1331 277.005 29.9037 276.908 29.6896C276.81 29.4755 276.667 29.281 276.487 29.1172C276.307 28.9533 276.093 28.8234 275.858 28.7347C275.623 28.646 275.37 28.6004 275.116 28.6004Z" fill="#5F0A61" stroke="#263238" stroke-miterlimit="10"/>
<path d="M272.275 27.8252C272.828 27.8252 273.367 27.6763 273.826 27.3972C274.286 27.1182 274.643 26.7216 274.855 26.2575C275.066 25.7935 275.121 25.2828 275.014 24.7902C274.906 24.2976 274.64 23.8451 274.249 23.4899C273.859 23.1348 273.362 22.8929 272.82 22.7949C272.278 22.6969 271.717 22.7472 271.207 22.9394C270.697 23.1316 270.261 23.4571 269.954 23.8748C269.647 24.2924 269.484 24.7834 269.484 25.2857C269.484 25.9592 269.778 26.6051 270.301 27.0814C270.825 27.5577 271.535 27.8252 272.275 27.8252Z" fill="#5F0A61" stroke="#263238" stroke-miterlimit="10"/>
<path d="M78.9827 114.375C82.2852 107.256 78.6185 99.0505 70.7929 96.0465C62.9674 93.0425 53.9464 96.3779 50.644 103.496C47.3416 110.615 51.0083 118.821 58.8338 121.825C66.6593 124.829 75.6803 121.493 78.9827 114.375Z" fill="#263238" stroke="#263238" stroke-width="0.5" stroke-miterlimit="10"/>
<path d="M69.916 107.991H59.893C58.9538 107.991 58.053 108.33 57.3881 108.934C56.7232 109.537 56.3486 110.356 56.3464 111.21V118.858C58.7968 120.592 61.8185 121.524 64.923 121.503C68.0275 121.481 71.0334 120.508 73.4545 118.74V111.21C73.4545 110.356 73.0817 109.538 72.4181 108.934C71.7545 108.33 70.8545 107.991 69.916 107.991Z" fill="#5F0A61" stroke="#263238" stroke-miterlimit="10"/>
<path d="M64.7139 106.574C65.7219 106.574 66.7073 106.302 67.5455 105.793C68.3836 105.283 69.0369 104.559 69.4227 103.712C69.8084 102.865 69.9093 101.933 69.7127 101.033C69.516 100.134 69.0306 99.3079 68.3178 98.6595C67.605 98.0112 66.6969 97.5696 65.7082 97.3907C64.7196 97.2118 63.6948 97.3036 62.7635 97.6546C61.8322 98.0055 61.0362 98.5997 60.4761 99.3621C59.9161 100.125 59.6172 101.021 59.6172 101.938C59.6172 103.167 60.1542 104.347 61.11 105.216C62.0658 106.086 63.3622 106.574 64.7139 106.574Z" fill="#5F0A61" stroke="#263238" stroke-miterlimit="10"/>
<path d="M114.845 53.2946C114.845 53.2503 114.845 53.206 114.845 53.1618C114.615 51.2459 113.785 49.4304 112.455 47.9308C111.124 46.4311 109.348 45.3103 107.338 44.7014C105.298 44.0716 103.095 44.0227 101.024 44.5612C101.483 43.1444 101.64 41.6611 101.487 40.1908C101.185 37.2505 99.666 34.5245 97.237 32.5654C94.808 30.6063 91.6508 29.5606 88.4057 29.6404C85.1605 29.7202 82.0702 30.9195 79.761 32.9952C77.4519 35.0708 76.0969 37.8675 75.9706 40.8183C75.7839 40.8183 75.5972 40.8183 75.4106 40.8183C72.0162 40.8183 68.7608 42.0449 66.3606 44.2282C63.9604 46.4115 62.612 49.3727 62.612 52.4604C62.6088 53.503 62.7617 54.5412 63.0665 55.5463C63.496 56.8962 64.3982 58.0816 65.636 58.9224C66.8738 59.7632 68.3795 60.2134 69.9243 60.2046H107.728C108.705 60.2088 109.672 60.0296 110.57 59.678C111.467 59.3265 112.275 58.8103 112.943 58.1617C113.611 57.5131 114.125 56.7461 114.452 55.9086C114.78 55.0712 114.913 54.1813 114.845 53.2946V53.2946Z" stroke="#263238" stroke-miterlimit="10"/>
<path d="M308.999 171.466C308.996 171.442 308.996 171.417 308.999 171.392C308.876 170.356 308.428 169.374 307.709 168.562C306.989 167.751 306.029 167.144 304.941 166.815C303.84 166.474 302.65 166.448 301.533 166.741C301.784 165.976 301.872 165.174 301.792 164.379C301.672 162.76 300.869 161.246 299.549 160.155C298.23 159.063 296.498 158.477 294.715 158.521C292.932 158.565 291.237 159.235 289.984 160.39C288.732 161.545 288.019 163.096 287.996 164.719H287.695C285.863 164.721 284.106 165.384 282.811 166.563C281.516 167.743 280.789 169.342 280.789 171.008C280.791 171.569 280.872 172.128 281.032 172.67C281.262 173.4 281.748 174.042 282.416 174.497C283.084 174.953 283.898 175.198 284.733 175.194H305.136C305.665 175.2 306.19 175.105 306.677 174.917C307.164 174.728 307.603 174.45 307.965 174.1C308.328 173.75 308.608 173.335 308.786 172.882C308.963 172.428 309.036 171.946 308.999 171.466V171.466Z" stroke="#263238" stroke-miterlimit="10"/>
<path d="M129.559 228.355C129.559 228.355 129.559 228.311 129.559 228.289C129.437 227.252 128.989 226.269 128.27 225.458C127.55 224.646 126.589 224.04 125.501 223.711C124.4 223.37 123.21 223.344 122.093 223.638C122.341 222.872 122.427 222.07 122.344 221.275C122.17 219.749 121.395 218.331 120.161 217.285C118.927 216.239 117.318 215.634 115.632 215.583C113.82 215.543 112.064 216.154 110.743 217.282C109.421 218.411 108.641 219.967 108.572 221.615H108.271C107.363 221.614 106.463 221.776 105.624 222.092C104.785 222.407 104.022 222.871 103.38 223.455C102.737 224.039 102.228 224.733 101.881 225.496C101.534 226.26 101.356 227.078 101.357 227.905C101.357 228.466 101.442 229.025 101.608 229.566C101.836 230.297 102.321 230.941 102.99 231.397C103.659 231.853 104.473 232.097 105.309 232.091H125.704C126.233 232.095 126.758 231.999 127.244 231.81C127.731 231.621 128.169 231.342 128.531 230.991C128.893 230.64 129.172 230.225 129.349 229.771C129.526 229.317 129.597 228.835 129.559 228.355V228.355Z" stroke="#263238" stroke-miterlimit="10"/>
<path d="M245.696 36.0566C245.7 36.0346 245.7 36.0122 245.696 35.9902C245.576 34.9529 245.129 33.9693 244.409 33.1574C243.689 32.3455 242.727 31.7398 241.638 31.4131C240.538 31.0692 239.348 31.0408 238.229 31.3319C238.482 30.5694 238.568 29.7693 238.481 28.9769C238.361 27.3581 237.557 25.8443 236.238 24.7524C234.919 23.6605 233.186 23.0752 231.403 23.1191C229.62 23.163 227.925 23.8326 226.673 24.9878C225.42 26.143 224.708 27.6941 224.684 29.3165H224.384C223.321 29.3188 222.273 29.5437 221.321 29.9737C220.37 30.4036 219.539 31.0272 218.895 31.796C218.251 32.5648 217.81 33.4583 217.606 34.4071C217.402 35.3559 217.442 36.3346 217.721 37.2674C217.951 37.9976 218.437 38.6395 219.105 39.0953C219.773 39.5511 220.586 39.7958 221.422 39.7922H241.825C242.356 39.7997 242.882 39.7065 243.371 39.5185C243.861 39.3306 244.301 39.052 244.665 38.7006C245.03 38.3492 245.309 37.9325 245.487 37.4773C245.664 37.0221 245.735 36.5383 245.696 36.0566V36.0566Z" stroke="#263238" stroke-miterlimit="10"/>
<path d="M250.479 184.273C284.921 152.944 284.921 102.148 250.479 70.8178C216.037 39.4879 160.196 39.4879 125.754 70.8178C91.3116 102.148 91.3116 152.944 125.754 184.273C160.196 215.603 216.037 215.603 250.479 184.273Z" fill="white" stroke="#263238" stroke-miterlimit="10"/>
<path d="M184.941 90.4065L193.317 93.832L195.614 97.2574L199.387 98.5937L199.801 102.211L198.34 104.3L195.411 104.876L189.129 102.588V101.849L192.684 100.513L191.434 96.5192L185.753 94.6145L183.245 91.5655L184.941 90.4065ZM237.694 178.369L230.998 175.895L222.834 173.23H216.341L210.271 172.086L203.567 173.415L199.801 173.607H197.505L193.106 175.895L188.886 177.416L183.205 174.183L184.665 168.845L181.111 167.516H176.923L176.298 165.804L176.712 162.371L175.251 160.473L172.321 160.85L171.51 162.755L167.955 162.947L164.814 159.521L163.556 154.951L166.697 149.614L172.768 149.998L174.448 151.334H176.955L180.096 149.614L182.815 150.352L186.581 156.258L188.05 156.066L187.628 151.688L186.451 149.429L186.865 145.812L194.607 142.763L195.654 135.72L199.006 133.24L201.725 128.862L203.819 128.485L208.631 125.628L208.842 124.107L205.499 124.292L204.866 122.771H202.569L199.006 123.509L200.678 121.036L207.982 119.132L209.654 117.419L212.584 121.605L214.475 123.318L217.404 122.579L216.147 120.106L211.748 117.249L206.724 112.081L201.498 108.841L196.474 108.102L193.958 105.821L190.606 105.083L190.192 105.821L189.77 111.343L190.582 113.24L188.699 119.338L184.527 116.312L185.152 113.646L180.77 111.727L178.871 109.667L179.918 104.913L185.988 100.912L186.41 96.342L184.105 96.534L182.636 94.8212L182.012 91.9642L180.543 91.7722L179.731 94.8212L177.434 95.1977L176.387 88.5535L174.683 87.52L171.753 86.3757L168.409 87.8965L172.589 91.5139L173.401 94.7548L165.861 89.587L160.626 84.4193L160.213 79.2516L154.799 77.8342L150.612 80.3147C149.602 80.8704 148.562 81.378 147.495 81.8355C145.843 82.1937 144.164 82.4405 142.471 82.5737L141.66 85.8146L136.847 85.9992L137.269 88.0958L145.012 89.2401L148.988 93.234V99.8782L146.684 105.784L147.106 112.067L141.246 121.391L139.988 135.292L141.814 143.331L144.533 149.429L147.674 149.806L146.627 146.764L144.955 144.476L143.908 140.29L145.791 139.906L148.721 146.764L150.814 152.855V157.801L154.791 162.186L161.909 166.941L172.792 169.613L176.144 172.463L178.652 175.512L182.425 177.608L187.027 178.745L191.629 178.561C191.629 178.561 191.426 180.465 191.426 181.418C191.426 182.37 188.496 185.603 188.496 185.603L186.199 189.398L187.871 193.584L192.481 195.297L198.974 201.394L201.903 202.531V205.388L202.269 206.717C218.548 204.324 233.759 197.811 246.159 187.921L246.272 186.541L251.953 177.21L249.235 175.497L237.694 178.369ZM259.493 103.163L257.188 99.5386L254.258 95.3528L253.447 89.6387L257.212 90.2145L257.423 88.3099L254.697 88.1179L257.001 87.1656L259.517 85.8368V83.9321L257.001 80.8831L256.466 76.7858C244.302 63.2449 227.609 53.6887 208.926 49.5709C190.243 45.4532 170.593 46.9993 152.965 53.974L157.786 57.082L154.799 60.5075L150.823 61.2458L150.409 66.4135L148.729 66.9819L146.635 69.0638L146.846 72.4893L150.409 72.8731L148.94 76.1067H152.503L158.565 69.0638L159.198 66.0148L165.058 65.6383L166.518 63.3498L172.589 62.7813L173.222 59.5404L177.613 59.3558C177.613 59.3558 180.754 57.8277 181.387 57.8277C182.595 58.0665 183.783 58.3848 184.941 58.78L188.082 61.0686H192.481L196.247 58.972L201.059 59.3558C201.752 59.7654 202.542 60.0185 203.364 60.0941C204.411 60.0941 207.552 58.7579 207.552 58.7579L213.614 62.1833L216.13 63.9034V66.7531L219.271 67.137L220.318 65.4242L223.037 66.5685L222.826 68.0893L216.552 69.6101L220.107 73.8033L227.638 77.6127L230.779 81.4147L235.389 81.7985L236.436 79.8939L238.108 79.51L232.662 75.708L229.318 75.3241L232.037 74.5859L229.529 71.345L233.084 71.1604L237.686 73.4416L238.733 78.0113L241.038 80.4845L242.921 86.0065L247.53 89.0555V95.338L252.343 98.195L252.132 100.292L251.507 102.765L252.757 106.19L253.179 107.903L256.734 108.479L258.414 105.238L259.493 103.163ZM262.212 83.969V85.0616L261.116 88.1179L261.741 90.783L264.046 91.5212V95.1387L261.538 94.1863L260.921 104.5L258.414 108.685L260.085 114.023L262.804 116.304V126.588L265.531 134.583L268.461 140.674L273.274 141.818L274.945 138.009L275.627 137.521C276.081 134.213 276.308 130.882 276.309 127.548C276.335 112.086 271.426 96.9499 262.179 83.9764L262.212 83.969ZM213.858 82.7804L200.061 77.2583L193.99 77.4503L192.53 81.0677L190.014 78.5872L185.412 79.5395L184.99 85.8294L188.756 88.3025L191.483 84.6851L194.567 87.52L201.059 92.6877L202.317 98.2098L207.755 104.492L216.552 103.163L216.341 100.306L214.458 97.0655L214.045 89.4542L216.138 86.2133L213.858 82.7804ZM225.163 86.9663L222.022 86.228L219.304 88.3246L220.764 93.8467H223.491L225.163 86.9663ZM244.641 90.5837L237.524 87.1582L236.055 84.877L234.383 85.4455L235.844 89.2548L237.102 94.2011L240.242 95.3454L240.867 94.6071L238.984 91.7501L244.43 93.6548L244.641 90.5837ZM183.521 159.322L182.709 160.06L188.991 161.773L191.507 164.438L195.484 164.822L196.945 162.725L192.132 161.987L183.521 159.322ZM202.187 162.939L197.789 164.084L198.422 165.604H203.859L204.906 164.084L203.023 164.268L202.187 162.939Z" fill="#5F0A61" stroke="#263238" stroke-miterlimit="10"/>
<path d="M250.566 227.049C250.492 229.124 250.765 231.198 251.377 233.199C252.343 236.004 253.301 238.639 254.266 239.695C255.232 240.751 256.782 238.994 255.427 236.882C254.072 234.771 254.851 232.497 255.622 232.497C256.393 232.497 262.569 236.004 263.535 237.237C264.5 238.47 267.398 241.629 267.398 239.518C267.398 237.407 262.958 233.021 262.187 231.789C261.416 230.556 257.164 225.292 257.164 225.292L250.566 227.049Z" fill="white" stroke="#263238" stroke-linejoin="round"/>
<path d="M253.301 220.545L257.164 225.292L249.827 228.975L246.353 225.114L253.301 220.545Z" fill="#5F0A61" stroke="#263238" stroke-linejoin="round"/>
<path d="M212.373 318.894C212.373 318.894 209.475 324.689 208.315 326.276C207.154 327.864 206.188 328.558 204.257 328.912C202.325 329.266 199.047 329.613 199.047 331.016C199.069 331.887 199.349 332.736 199.858 333.474C199.858 333.474 208.932 335.231 212.032 334.53C215.132 333.829 218.208 329.96 218.208 329.96L220.139 331.016L225.739 326.099C225.387 324.372 224.726 322.708 223.783 321.175C222.047 318.015 221.081 315.734 221.081 315.734C221.081 315.734 216.812 318.894 212.373 318.894Z" fill="#616161" stroke="#263238" stroke-linejoin="round"/>
<path d="M224.506 322.63C222.477 324.365 217.786 328.536 216.504 329.562C214.88 330.868 211.553 333.482 209.005 333.482C207.17 333.482 202.049 332.81 199.266 332.426C199.39 332.792 199.565 333.141 199.785 333.467C199.785 333.467 208.858 335.224 211.959 334.523C215.059 333.821 218.135 329.953 218.135 329.953L220.066 331.009L225.666 326.092C225.453 324.895 225.063 323.731 224.506 322.63Z" stroke="#263238" stroke-linejoin="round"/>
<path d="M197.318 295.536C197.318 295.536 200.986 302.556 204.622 306.772C208.258 310.987 212.34 320.474 212.34 320.474C212.34 320.474 215.627 321.529 217.94 319.942C219.41 318.852 220.487 317.387 221.032 315.734C221.032 315.734 216.398 302.734 214.661 297.116C212.925 291.498 208.672 279.198 206.74 276.216C205.277 274.019 203.678 271.899 201.952 269.867C201.952 269.867 199.826 281.457 198.86 285.843C197.894 290.228 197.318 295.536 197.318 295.536Z" fill="#263238" stroke="#263238" stroke-linejoin="round"/>
<path d="M180.129 214.75L180.323 225.986C180.323 225.986 177.077 246.716 179.747 257.25C182.417 267.785 186.694 279.398 186.694 279.398C186.694 279.398 184.576 298.718 183.797 303.457C183.018 308.197 179.739 317.159 179.739 317.159C179.739 317.159 185.339 319.795 186.305 319.795H188.236C188.236 319.795 194.023 305.569 195.183 303.457C196.344 301.346 200.394 297.315 201.749 288.53C203.104 279.745 203.494 270.605 203.494 270.605C203.494 270.605 213.144 259.362 215.465 255.84C217.786 252.319 221.446 245.121 221.446 245.121C221.446 245.121 225.699 235.11 225.114 225.454C224.53 215.798 221.259 210.881 221.259 210.881C221.259 210.881 202.333 214.919 193.455 214.919C184.576 214.919 180.129 214.75 180.129 214.75Z" fill="#263238" stroke="#263238" stroke-linejoin="round"/>
<path d="M185.055 151.673C185.055 151.673 188.804 155.084 188.236 156.273C187.668 157.461 177.946 157.978 175.884 160.193C173.823 162.408 165.025 190.505 165.025 190.505C165.025 190.505 154.54 187.774 153.606 187.095C152.673 186.415 151.545 186.925 150.985 188.97C150.425 191.015 144.809 195.614 145.555 196.802C146.302 197.991 156.601 202.59 161.657 203.786C164.736 204.507 167.869 205.018 171.031 205.314L170.284 214.004C170.284 214.004 179.828 218.942 198.365 216.728C216.901 214.513 224.595 210.94 224.595 210.94L222.355 193.399C222.355 193.399 234.529 214.173 236.582 217.761C238.635 221.349 241.257 226.62 243.505 227.299C245.753 227.979 253.804 223.21 253.99 221.172C254.177 219.134 247.254 209.249 241.817 200.737C236.379 192.225 228.896 168.21 227.776 163.087C226.656 157.963 223.654 153.718 220.472 153.039C217.291 152.36 208.68 152.353 204.931 151.673C201.181 150.994 195.946 145.376 193.512 138.223L185.055 151.673Z" fill="#5F0A61" stroke="#263238" stroke-miterlimit="10"/>
<path d="M178.335 167.524C179.284 165.693 180.015 164.445 180.015 164.445" stroke="#263238" stroke-miterlimit="10"/>
<path d="M171.031 205.315C171.031 205.315 173.279 183.352 174.212 178.074C174.803 175.463 175.704 172.918 176.898 170.484" stroke="#263238" stroke-miterlimit="10"/>
<path d="M216.13 173.267C215.854 172.056 215.595 170.868 215.384 169.724" stroke="#263238" stroke-miterlimit="10"/>
<path d="M222.315 193.399C222.315 193.399 219.206 185.02 216.958 176.56" stroke="#263238" stroke-miterlimit="10"/>
<path d="M183.204 157.735C184.105 159.492 186.995 163.043 195.751 162.902C206.083 162.747 210.628 156.258 212.3 152.309C209.829 152.217 207.366 152 204.922 151.659C201.181 150.98 195.938 145.362 193.503 138.208L185.055 151.674C185.055 151.674 188.804 155.084 188.236 156.273C187.977 156.827 185.72 157.24 183.204 157.735Z" fill="white" stroke="#263238" stroke-miterlimit="10"/>
<path d="M192.059 143.073L189.51 144.549L185.055 151.651C186.116 152.621 187.057 153.693 187.863 154.848C192.059 150.308 192.059 143.073 192.059 143.073Z" fill="#263238" stroke="#263238" stroke-linejoin="round"/>
<path d="M163.345 135.506C163.345 135.506 166.9 141.124 167.833 143.679C169.201 146.809 171.806 149.36 175.137 150.832C178.505 152.191 180.193 153.386 183.188 153.556C187.481 153.8 190.671 148.278 192.359 144.018C194.047 139.758 194.047 139.079 194.047 139.079C194.047 139.079 196.66 135.506 196.66 131.756C196.66 128.006 191.986 123.753 186.743 121.539C181.5 119.324 177.945 116.09 172.516 120.52C167.086 124.949 163.345 135.506 163.345 135.506Z" fill="white" stroke="#263238" stroke-miterlimit="10"/>
<path d="M172.703 140.947C173.1 141.933 173.351 142.963 173.449 144.01C173.449 145.206 175.137 145.716 176.631 143.161" stroke="#263238" stroke-miterlimit="10"/>
<path d="M177.004 146.58C177.004 146.58 181.687 147.259 182.62 142.15" stroke="#263238" stroke-miterlimit="10"/>
<path d="M177.962 135.041C178.4 135.72 178.416 136.451 177.962 136.68C177.507 136.909 176.842 136.532 176.403 135.853C175.965 135.174 175.957 134.436 176.403 134.214C176.85 133.993 177.523 134.362 177.962 135.041Z" fill="#263238"/>
<path d="M170.406 138.459C170.844 139.138 170.86 139.876 170.406 140.098C169.951 140.319 169.286 139.95 168.856 139.271C168.426 138.592 168.401 137.853 168.856 137.632C169.31 137.411 169.976 137.765 170.406 138.459Z" fill="#263238"/>
<path d="M172.597 132.768C172.597 132.768 173.409 130.095 178.676 130.449" stroke="#263238" stroke-miterlimit="10"/>
<path d="M168.669 135.447C168.669 135.447 165.731 135.447 165.926 137.588" stroke="#263238" stroke-miterlimit="10"/>
<path d="M176.817 123.236C176.817 123.236 174.383 125.791 171.574 128.345C168.766 130.899 164.092 134.65 164.092 139.241C164.092 143.833 164.278 144.35 164.278 144.35C164.278 144.35 156.228 140.607 153.979 135.491C151.731 130.375 156.787 118.63 162.964 113.344C169.14 108.058 176.444 107.047 184.495 107.556C192.546 108.065 200.597 115.389 202.658 122.712C204.719 130.036 200.597 138.038 199.282 139.396C197.967 140.755 193.852 140.932 193.852 140.932C194.731 138.342 194.925 135.601 194.42 132.929C193.479 129.009 190.858 129.866 190.484 131.564C190.111 133.262 189.924 133.948 189.924 133.948C189.924 133.948 186.183 131.564 182.247 129.009C179.931 127.532 178.064 125.546 176.817 123.236Z" fill="#263238" stroke="#263238" stroke-linejoin="round"/>
<path d="M141.254 192.041L146.302 185.227L148.737 187.442L141.254 192.041Z" fill="#5F0A61" stroke="#263238" stroke-linejoin="round"/>
<path d="M159.101 181.994L147.341 182.038L136.133 162.4L147.893 162.356L159.101 181.994Z" fill="#263238" stroke="#263238" stroke-linejoin="round"/>
<path d="M138.073 171.939C138.073 171.939 141.067 174.493 141.254 175.689C141.441 176.885 142.934 181.477 143.689 183.692C144.443 185.906 147.243 188.291 147.243 188.291L149.678 186.076L148.737 182.326C149.635 181.602 150.572 180.92 151.545 180.281C152.673 179.602 153.979 177.727 153.233 177.727C152.666 177.742 152.101 177.802 151.545 177.904C151.545 177.904 153.233 175.519 152.113 175.35C151.369 175.239 150.618 175.18 149.865 175.172C149.865 175.172 151.731 173.135 150.238 172.958C148.745 172.78 143.494 175.342 143.494 175.342L141.254 172.271C140.776 172.022 140.248 171.864 139.701 171.807C139.154 171.75 138.6 171.795 138.073 171.939Z" fill="white" stroke="#263238" stroke-linejoin="round"/>
<path d="M138.689 170.816C138.529 170.943 138.411 171.107 138.348 171.291C138.284 171.475 138.279 171.671 138.332 171.858C138.386 172.045 138.495 172.214 138.649 172.347C138.802 172.48 138.993 172.571 139.201 172.61C139.545 172.721 139.916 172.748 140.275 172.69C140.635 172.632 140.972 172.49 141.254 172.278C142.187 171.259 145.929 168.535 145.929 167.17C145.929 165.804 144.249 167.339 143.494 167.686C141.806 168.615 140.2 169.662 138.689 170.816Z" fill="white" stroke="#263238" stroke-linejoin="round"/>
<path d="M149.865 175.172C149.865 175.172 144.249 177.727 143.307 178.753" stroke="#263238" stroke-linejoin="round"/>
<path d="M151.553 177.903C151.553 177.903 147.065 179.771 145.563 181.307" stroke="#263238" stroke-linejoin="round"/>
<path d="M151.918 186.925L149.305 184.88L141.254 192.034L146.683 195.784C146.683 195.784 151.731 191.355 151.918 186.925Z" fill="#5F0A61" stroke="#263238" stroke-linejoin="round"/>
<path d="M203.689 226.517C203.689 226.517 194.997 245.129 193.065 252.888C191.134 260.647 187.465 275.367 187.465 276.246" stroke="#757575" stroke-linejoin="round"/>
<path d="M191.134 231.788L196.157 237.052" stroke="#757575" stroke-linejoin="round"/>
<path d="M179.747 316.613C179.747 316.613 178.587 318.894 172.987 319.942C167.387 320.991 162.176 319.071 161.211 319.241C160.245 319.411 159.279 320.998 159.279 322.408C159.279 323.818 166.039 327.672 168.742 328.905C170.895 329.738 173.174 330.271 175.503 330.485H176.46L176.274 332.242C177.843 332.81 179.454 333.279 181.094 333.644C182.569 333.842 184.067 333.842 185.542 333.644C186.128 331.398 186.452 329.102 186.508 326.793C186.639 324.38 187.226 322.005 188.244 319.773L179.747 316.613Z" fill="#616161" stroke="#263238" stroke-linejoin="round"/>
<path d="M186.126 330.898C182.32 330.447 175.3 329.421 171.039 327.945C166.526 326.395 161.47 323.235 159.328 321.832C159.295 322.015 159.279 322.2 159.279 322.386C159.279 323.789 166.039 327.65 168.742 328.882C170.895 329.716 173.174 330.248 175.503 330.462H176.46L176.274 332.219C177.843 332.788 179.454 333.257 181.094 333.622C182.569 333.82 184.067 333.82 185.542 333.622C185.542 333.622 185.85 332.5 186.126 330.898Z" stroke="#263238" stroke-linejoin="round"/>
</svg>
