<svg width="252" height="229" viewBox="0 0 252 229" fill="none" xmlns="http://www.w3.org/2000/svg">
<g id="Group 57">
<g id="online-learning/bro">
<g id="Window">
<path id="Vector" d="M17.7915 129.406V28.2678H26.393" stroke="#263238" stroke-linecap="round" stroke-linejoin="round"/>
<path id="Vector_2" d="M17.7973 145.94V142.254" stroke="#263238" stroke-linecap="round" stroke-linejoin="round"/>
<path id="Vector_3" d="M48.5054 28.2678H137.222V158.887H17.7915" stroke="#263238" stroke-linecap="round" stroke-linejoin="round"/>
<path id="Vector_4" d="M37.626 28.2676H45.4218" stroke="#263238" stroke-linecap="round" stroke-linejoin="round"/>
<path id="Vector_5" d="M132.73 32.7546H22.2835V154.405H132.73V32.7546Z" stroke="#263238" stroke-linecap="round" stroke-linejoin="round"/>
<path id="Vector_6" d="M127.594 41.2891V88.603H27.4189V84.2897" stroke="#263238" stroke-linecap="round" stroke-linejoin="round"/>
<path id="Vector_7" d="M27.4189 74.1669V37.4509H127.594" stroke="#263238" stroke-linecap="round" stroke-linejoin="round"/>
<path id="Vector_8" d="M27.4247 80.9675V76.77" stroke="#263238" stroke-linecap="round" stroke-linejoin="round"/>
<path id="Vector_9" d="M110.681 93.5771H132.73" stroke="#263238" stroke-linecap="round" stroke-linejoin="round"/>
<path id="Vector_10" d="M102.839 93.5771H105.957" stroke="#263238" stroke-linecap="round" stroke-linejoin="round"/>
<path id="Vector_11" d="M22.2835 93.5771H99.1118" stroke="#263238" stroke-linecap="round" stroke-linejoin="round"/>
<path id="Vector_12" d="M71.9567 88.6022V86.3301H81.19V87.6226H77.5094V88.6022" stroke="#263238" stroke-linecap="round" stroke-linejoin="round"/>
<path id="Vector_13" d="M22.4748 134.351C22.4748 134.351 24.005 135.511 25.0831 142.526C25.0831 142.526 26.9379 131.319 29.1868 131.145C31.4357 130.971 30.9604 138.439 30.9604 138.439C30.9604 138.439 31.3313 134.757 33.0934 134.925C34.8554 135.093 33.0934 142.526 33.0934 142.526C33.0934 142.526 35.209 136.728 37.2087 136.833C39.2083 136.937 35.8813 147.332 35.8813 147.332C35.8813 147.332 41.0167 143.61 43.0976 145.431C45.1784 147.251 41.9383 151.843 41.9383 151.843C41.9383 151.843 49.3053 150.243 50.4471 154.562" stroke="#263238" stroke-linecap="round" stroke-linejoin="round"/>
<path id="Vector_14" d="M50.4645 150.376C50.4645 150.376 53.6756 148.271 56.1969 149.251C56.1969 149.251 54.5914 146.804 56.1969 145.309C57.8024 143.813 59.8659 149.251 59.8659 149.251C59.8659 149.251 60.0977 140.143 63.3088 140.601C66.5199 141.059 63.3088 149.251 63.3088 149.251C63.3088 149.251 69.0412 144.172 70.4149 145.941C71.7886 147.709 69.4991 150.376 69.4991 150.376C69.4991 150.376 72.9362 149.274 75.4576 151.843C75.4576 151.843 79.3004 147.918 83.5722 147.355C83.5722 147.355 80.7321 139.111 82.1116 137.447C83.4911 135.783 85.9834 144.642 85.9834 144.642C85.9834 144.642 87.0789 138.879 90.6667 138.439C90.6667 138.439 87.6759 136.809 88.5627 134.351C89.4495 131.893 93.5764 134.931 93.5764 134.931C93.5764 134.931 91.8781 130.6 94.5617 129.412C97.2454 128.223 98.364 133.035 98.364 133.035C98.364 133.035 99.1117 127.991 102.265 128.27C105.418 128.548 104.398 134.357 104.398 134.357C104.398 134.357 107.371 129.719 108.965 130.212C112.147 131.151 111.179 138.444 111.179 138.444C111.179 138.444 115.625 135.354 116.767 136.775C118.001 138.311 112.13 142.259 112.13 142.259C112.13 142.259 116.541 142.746 119.282 145.315" stroke="#263238" stroke-linecap="round" stroke-linejoin="round"/>
<path id="Vector_15" d="M132.73 136.015C132.73 136.015 132.225 131.377 127.594 131.145C122.963 130.914 128.869 141.291 128.869 141.291C128.869 141.291 125.05 138.131 123.682 139.105C122.314 140.079 127.594 145.431 127.594 145.431C127.594 145.431 125.061 143.112 122.378 143.813C119.694 144.515 123.902 151.988 123.902 151.988C119.935 151.187 115.817 151.668 112.142 153.362" stroke="#263238" stroke-linecap="round" stroke-linejoin="round"/>
</g>
<g id="book shelf">
<path id="Vector_16" d="M178.798 198.224V140.433H243.854" stroke="#263238" stroke-linecap="round" stroke-linejoin="round"/>
<path id="Vector_17" d="M241.489 146.411H184.031V200.241" stroke="#263238" stroke-linecap="round" stroke-linejoin="round"/>
<path id="Vector_18" d="M195.531 175.769V151.843H199.293V156.777H204.312V154.562H208.798V157.246H214.855V151.843H221.052V155.472H224.39V153.362H230.372V167.456" stroke="#263238" stroke-linecap="round" stroke-linejoin="round"/>
<path id="Vector_19" d="M224.39 155.472V175.769" stroke="#263238" stroke-linecap="round" stroke-linejoin="round"/>
<path id="Vector_20" d="M221.533 158.51V162.133" stroke="#263238" stroke-linecap="round" stroke-linejoin="round"/>
<path id="Vector_21" d="M221.533 164.731V179.613" stroke="#263238" stroke-linecap="round" stroke-linejoin="round"/>
<path id="Vector_22" d="M214.855 157.252V170.621" stroke="#263238" stroke-linecap="round" stroke-linejoin="round"/>
<path id="Vector_23" d="M215.087 175.027V179.19" stroke="#263238" stroke-linecap="round" stroke-linejoin="round"/>
<path id="Vector_24" d="M208.798 157.252V164.731" stroke="#263238" stroke-linecap="round" stroke-linejoin="round"/>
<path id="Vector_25" d="M208.798 169.329V185.086" stroke="#263238" stroke-linecap="round" stroke-linejoin="round"/>
<path id="Vector_26" d="M204.312 156.777V175.352" stroke="#263238" stroke-linecap="round" stroke-linejoin="round"/>
<path id="Vector_27" d="M199.293 156.777V163.803" stroke="#263238" stroke-linecap="round" stroke-linejoin="round"/>
<path id="Vector_28" d="M199.293 167.456V184.159" stroke="#263238" stroke-linecap="round" stroke-linejoin="round"/>
<path id="Vector_29" d="M195.531 179.19V186.732" stroke="#263238" stroke-linecap="round" stroke-linejoin="round"/>
<path id="Vector_30" d="M187.77 186.733H233.432" stroke="#263238" stroke-linecap="round" stroke-linejoin="round"/>
<path id="Vector_31" d="M224.39 186.732V181.903" stroke="#263238" stroke-linecap="round" stroke-linejoin="round"/>
<path id="Vector_32" d="M215.087 183.179V186.506" stroke="#263238" stroke-linecap="round" stroke-linejoin="round"/>
<path id="Vector_33" d="M230.882 159.56H235.31" stroke="#263238" stroke-linecap="round" stroke-linejoin="round"/>
<path id="Vector_34" d="M187.944 190.942H230.372" stroke="#263238" stroke-linecap="round" stroke-linejoin="round"/>
<path id="Vector_35" d="M197.05 203.215V197.592H204.909V201.215H211.233V208.282H214.855V197.806H222.883V200.241H227.816" stroke="#263238" stroke-linecap="round" stroke-linejoin="round"/>
<path id="Vector_36" d="M222.883 200.241V206.27" stroke="#263238" stroke-linecap="round" stroke-linejoin="round"/>
<path id="Vector_37" d="M215.087 210.833V214.891" stroke="#263238" stroke-linecap="round" stroke-linejoin="round"/>
<path id="Vector_38" d="M211.233 208.282V213.628" stroke="#263238" stroke-linecap="round" stroke-linejoin="round"/>
<path id="Vector_39" d="M204.909 201.215V204.281" stroke="#263238" stroke-linecap="round" stroke-linejoin="round"/>
</g>
<g id="Screen">
<path id="Vector_40" d="M241.686 17.0786H102.787V113.069H241.686V17.0786Z" fill="#5F0A61" stroke="#263238" stroke-linecap="round" stroke-linejoin="round"/>
<path id="Vector_41" d="M241.686 17.0786H102.787V26.5692H241.686V17.0786Z" fill="#263238"/>
<path id="Vector_42" d="M159.056 82.893L155.798 78.3593C155.798 77.4124 155.749 76.4662 155.653 75.5243C155.532 75.101 153.555 71.9877 153.509 71.2515C153.501 70.8999 153.457 70.55 153.376 70.2079C153.376 70.2079 152.361 70.463 152.373 71.0833C152.384 71.7037 152.494 73.7966 152.494 73.7966C152.494 73.7966 149.851 72.2544 149.556 71.8486C149.26 71.4428 146.038 69.0774 145.736 68.7237C145.435 68.3701 144.206 68.3469 144.061 68.7237L144.235 69.1585L143.221 69.6397L143.899 71.6515C143.705 72.1044 143.587 72.5863 143.551 73.0777C143.661 73.327 144.02 74.817 144.02 74.817C144.02 74.817 143.8 75.0431 143.829 75.8315C143.858 76.62 148.188 80.6493 149.046 81.0841C150.07 81.5147 151.119 81.8845 152.187 82.1915L154.906 85.7106L159.056 82.893Z" fill="white" stroke="#263238" stroke-linecap="round" stroke-linejoin="round"/>
<path id="Vector_43" d="M152.489 73.7964C151.983 74.9481 151.853 76.2299 152.118 77.4596" stroke="#263238" stroke-linecap="round" stroke-linejoin="round"/>
<path id="Vector_44" d="M144.229 69.1582C145.104 69.4944 146.2 71.1289 146.704 71.6332C147.16 72.0445 147.649 72.4186 148.165 72.7518" stroke="#263238" stroke-linecap="round" stroke-linejoin="round"/>
<path id="Vector_45" d="M143.893 71.634C144.612 71.4833 145.099 71.7615 145.081 72.4628C145.064 73.1642 146.617 74.2307 146.617 74.2307" stroke="#263238" stroke-linecap="round" stroke-linejoin="round"/>
<path id="Vector_46" d="M144.015 74.7991C144.015 74.7991 144.519 73.9007 144.919 74.3122C145.319 74.7238 145.446 75.7787 146.182 75.9989" stroke="#263238" stroke-linecap="round" stroke-linejoin="round"/>
<path id="Vector_47" d="M201.414 77.965C201.414 77.965 189.978 78.6723 187.457 79.7043C185.388 80.5565 170.834 90.1399 170.834 90.1399C170.834 90.1399 162.273 83.6814 159.786 81.4435C159.306 81.2116 158.791 81.0626 158.262 81.0029L156.958 80.1739L153.752 84.6902L154.651 85.9366C154.651 85.9366 154.796 87.9484 155.195 88.4528C160.516 95.1374 170.706 104.495 172.236 105.416C173.766 106.338 187.341 98.3029 187.341 98.3029L189.862 113.087H230.349C230.349 113.087 230.244 87.1425 228.54 85.154C226.836 83.1654 207.303 75.3677 207.303 75.3677L201.414 77.965Z" fill="#757575" stroke="#263238" stroke-linecap="round" stroke-linejoin="round"/>
<g id="Vector_48">
<path d="M215.087 68.5786C215.087 68.5786 211.459 71.0136 213.383 78.7939C213.383 78.7939 207.917 82.7015 202.51 78.7591C202.51 78.7591 203.756 72.5558 202.51 71.3093" fill="white"/>
<path d="M215.087 68.5786C215.087 68.5786 211.459 71.0136 213.383 78.7939C213.383 78.7939 207.917 82.7015 202.51 78.7591C202.51 78.7591 203.756 72.5558 202.51 71.3093" stroke="#263238" stroke-linecap="round" stroke-linejoin="round"/>
</g>
<path id="Vector_49" d="M227.816 86.3599C227.816 86.3599 222.883 92.0357 222.309 101.752" stroke="#263238" stroke-linecap="round" stroke-linejoin="round"/>
<path id="Vector_50" d="M206.109 52.9891C206.109 52.9891 202.875 52.5022 201.745 56.4677C201.086 58.8963 201.353 61.4829 202.492 63.7263L208.439 58.1432L206.109 52.9891Z" fill="#263238"/>
<g id="Vector_51">
<path d="M213.98 70.944C218.148 65.9696 221.092 57.6791 214.832 54.3687C202.753 47.9798 198.759 60.462 200.788 72.0571C201.414 75.6342 206.271 74.0399 209.824 72.747" fill="white"/>
<path d="M213.98 70.944C218.148 65.9696 221.092 57.6791 214.832 54.3687C202.753 47.9798 198.759 60.462 200.788 72.0571C201.414 75.6342 206.271 74.0399 209.824 72.747" stroke="#263238" stroke-linecap="round" stroke-linejoin="round"/>
</g>
<path id="Vector_52" d="M205.541 60.1316C205.541 60.1316 207.535 60.6706 208.039 61.7371" stroke="#263238" stroke-linecap="round" stroke-linejoin="round"/>
<path id="Vector_53" d="M202.655 59.6042C202.419 59.4884 202.158 59.4351 201.896 59.4493C201.634 59.4635 201.381 59.5448 201.159 59.6853" stroke="#263238" stroke-linecap="round" stroke-linejoin="round"/>
<path id="Vector_54" d="M205.506 62.8794C205.471 63.2329 205.628 63.5402 205.854 63.5633C206.08 63.5865 206.295 63.3141 206.329 62.9837C206.364 62.6533 206.208 62.3172 205.982 62.294C205.755 62.2708 205.541 62.52 205.506 62.8794Z" fill="#263238"/>
<path id="Vector_55" d="M201.182 61.807C201.153 62.1664 201.31 62.4736 201.536 62.4968C201.762 62.52 201.976 62.2475 202.011 61.9172C202.046 61.5868 201.889 61.2564 201.658 61.2332C201.426 61.21 201.217 61.4535 201.182 61.807Z" fill="#263238"/>
<path id="Vector_56" d="M212.12 65.2044C212.12 65.2044 210.248 67.9176 208.99 68.7873C208.177 69.3078 207.198 69.5024 206.248 69.3323C206.248 69.3323 204.643 67.3495 202.301 67.3205C201.695 66.9345 201.005 66.698 200.29 66.6306L200.423 63.6042C200.423 63.6042 198.644 70.0917 198.812 72.4166C198.98 74.7414 204.695 76.3531 207.552 75.7038C210.41 75.0544 211.865 70.6077 212.734 66.4277C212.798 66.0798 212.12 65.2044 212.12 65.2044Z" fill="#263238"/>
<path id="Vector_57" d="M200.637 68.8162C200.637 68.8162 202.898 69.9 204.909 69.645" stroke="white" stroke-linecap="round" stroke-linejoin="round"/>
<path id="Vector_58" d="M213.992 56.937C214.734 56.3572 212.833 53.8643 211.766 53.9165C210.7 53.9686 205.466 54.1658 205.466 54.1658C205.466 54.1658 204.364 48.403 213.175 51.5163C214.618 52.0265 215.082 53.3773 216.374 54.0672C217.667 54.7571 219.417 58.3864 218.919 61.4823C218.42 64.5782 216.768 70.0105 213.772 71.6396C213.772 71.6396 212.74 71.5353 213.366 70.8222C216.316 67.5002 213.227 61.2504 212.734 66.416L211.697 65.7957C211.688 65.2285 211.747 64.6622 211.87 64.1086C212.091 62.6882 210.52 59.7836 213.992 56.937Z" fill="#263238"/>
<g id="Vector_59">
<path d="M213.54 64.8278C213.54 64.8278 215.435 62.5783 216.583 63.3436C217.73 64.1089 216.959 66.8221 216.345 67.5005C215.731 68.1788 215.232 68.3295 214.38 69.4137C213.528 70.4978 212.456 70.1326 212.641 69.2629" fill="white"/>
<path d="M213.54 64.8278C213.54 64.8278 215.435 62.5783 216.583 63.3436C217.73 64.1089 216.959 66.8221 216.345 67.5005C215.731 68.1788 215.232 68.3295 214.38 69.4137C213.528 70.4978 212.456 70.1326 212.641 69.2629" stroke="#263238" stroke-linecap="round" stroke-linejoin="round"/>
</g>
<path id="Vector_60" d="M207.744 63.1694C207.807 64.4275 207.042 65.4885 206.005 65.5406C204.967 65.5928 204.121 64.6188 204.057 63.3608C203.993 62.1027 204.759 61.0417 205.796 60.9896C206.834 60.9374 207.668 61.9114 207.744 63.1694Z" stroke="#263238" stroke-width="0.5" stroke-miterlimit="10"/>
<path id="Vector_61" d="M202.399 62.0271C202.469 63.2852 201.698 64.3461 200.69 64.4041C199.681 64.4621 198.806 63.4765 198.736 62.2184C198.667 60.9603 199.443 59.8994 200.475 59.8472C201.507 59.795 202.336 60.769 202.399 62.0271Z" stroke="#263238" stroke-width="0.5" stroke-miterlimit="10"/>
<g id="Vector_62">
<path d="M202.95 60.949C202.95 61.5287 199.948 64.9551 199.913 65.7088C199.878 66.4625 202.707 66.5088 202.707 66.5088" fill="white"/>
<path d="M202.95 60.949C202.95 61.5287 199.948 64.9551 199.913 65.7088C199.878 66.4625 202.707 66.5088 202.707 66.5088" stroke="#263238" stroke-linecap="round" stroke-linejoin="round"/>
</g>
<path id="Vector_63" d="M202.399 62.0272C202.399 62.0272 203.298 61.8011 204.051 63.0125" stroke="#263238" stroke-width="0.5" stroke-miterlimit="10"/>
<path id="Vector_64" d="M207.755 63.6101L208.729 63.755L214.195 64.1376" stroke="#263238" stroke-width="0.5" stroke-miterlimit="10"/>
<path id="Vector_65" d="M224.39 89.4495L223.3 88.0986C223.3 88.0986 214.119 89.148 210.062 94.6209C210.062 94.6209 202.527 91.0612 195.745 92.7947L195.548 95.2239L210.381 104.1L216.177 101.688L224.39 89.4495Z" fill="white" stroke="#263238" stroke-linecap="round" stroke-linejoin="round"/>
<path id="Vector_66" d="M225.88 88.6321L224.315 99.0677C224.315 99.0677 215.679 102.859 213.882 105.909L213.453 105.967L211.424 106.251L210.329 105.926C207.648 105.146 204.918 104.549 202.156 104.141C201.197 103.993 200.225 103.956 199.258 104.03L193.415 94.9224C193.415 94.9224 202.452 93.6702 208.7 95.8095L211.691 95.6008L211.801 95.508C212.699 94.7717 218.994 89.7684 225.88 88.6321Z" fill="#5F0A61"/>
<g id="Group">
<path id="Vector_67" opacity="0.3" d="M213.337 103.532L211.801 95.5024C212.693 94.772 218.988 89.7686 225.874 88.6323L224.309 99.068C224.309 99.068 215.673 102.86 213.876 105.909L213.447 105.967L213.337 103.532Z" fill="black" fill-opacity="0.7"/>
<path id="Vector_68" opacity="0.3" d="M210.363 104.1L210.323 105.921C207.642 105.14 204.912 104.544 202.15 104.135C202.273 102.294 202.993 100.542 204.201 99.1476C205.409 97.7527 207.04 96.7905 208.845 96.407L210.363 104.1Z" fill="black" fill-opacity="0.7"/>
</g>
<path id="Vector_69" d="M225.88 88.6321L224.315 99.0677C224.315 99.0677 215.679 102.859 213.882 105.909L213.453 105.967L211.424 106.251L210.329 105.926C207.648 105.146 204.918 104.549 202.156 104.141C201.197 103.993 200.225 103.956 199.258 104.03L193.415 94.9224C193.415 94.9224 202.452 93.6702 208.7 95.8095L211.691 95.6008L211.801 95.508C212.699 94.7717 218.994 89.7684 225.88 88.6321Z" stroke="#263238" stroke-linecap="round" stroke-linejoin="round"/>
<path id="Vector_70" d="M213.302 108.454C210.207 108.257 204.318 103.515 204.318 103.515C203.964 102.63 203.466 101.809 202.846 101.086C202.005 100.245 203.124 99.5434 203.124 99.5434C203.124 99.5434 202.144 98.9114 201.588 98.5636C201.032 98.2157 202.005 97.2997 202.005 97.2997C202.005 97.2997 206.208 97.8795 206.642 97.7229C207.077 97.5664 211.111 100.175 211.737 100.245C212.587 100.26 213.426 100.042 214.16 99.6129C214.577 99.2651 215.87 97.091 216.71 96.6678C217.551 96.2445 219.029 96.2503 218.322 97.1606C217.614 98.0708 217.742 100.1 217.394 100.384C217.046 100.668 216.473 103.718 216.473 104.767L221.052 108.953L218.443 112.507L213.302 108.454Z" fill="white" stroke="#263238" stroke-linecap="round" stroke-linejoin="round"/>
<path id="Vector_71" d="M203.107 99.5435C203.93 99.6355 204.732 99.8606 205.483 100.21" stroke="#263238" stroke-linecap="round" stroke-linejoin="round"/>
<path id="Vector_72" d="M206.225 101.201C206.225 101.201 205.964 102.262 205.895 102.425C205.825 102.587 206.758 103.625 206.625 104.1C206.492 104.576 207.57 105.839 207.57 105.839" stroke="#263238" stroke-linecap="round" stroke-linejoin="round"/>
<path id="Vector_73" d="M205.17 102.424C204.365 102.037 203.59 101.589 202.852 101.085" stroke="#263238" stroke-linecap="round" stroke-linejoin="round"/>
<path id="Vector_74" d="M202.927 76.0227L204.932 80.0636L213.175 75.4951L214.989 79.5418L206.579 84.8814L204.961 80.7013L201.692 83.8494L200.585 78.7592L202.927 76.0227Z" fill="#757575" stroke="#263238" stroke-linecap="round" stroke-linejoin="round"/>
<g id="Vector_75">
<path d="M228.563 85.1362C230.563 87.2755 237.675 102.964 238.359 113.069H216.693V112.165L214.328 110.779C214.328 110.779 215.794 105.619 219.973 106.425L221.191 108.164L223.886 110.193C223.886 110.193 228.616 110.315 229.989 111.678" fill="#757575"/>
<path d="M228.563 85.1362C230.563 87.2755 237.675 102.964 238.359 113.069H216.693V112.165L214.328 110.779C214.328 110.779 215.794 105.619 219.973 106.425L221.191 108.164L223.886 110.193C223.886 110.193 228.616 110.315 229.989 111.678" stroke="#263238" stroke-linecap="round" stroke-linejoin="round"/>
</g>
<path id="Vector_76" d="M223.886 110.216C223.886 110.216 226.512 106.431 230.372 108.031" stroke="#263238" stroke-linecap="round" stroke-linejoin="round"/>
<path id="Vector_77" d="M222.883 104.1C223.726 105.665 224.477 107.277 225.132 108.929" stroke="#263238" stroke-linecap="round" stroke-linejoin="round"/>
<g id="Vector_78">
<path d="M187.341 98.2854C187.341 98.2854 185.735 88.9282 186.182 85.6931L187.341 98.2854Z" fill="#757575"/>
<path d="M187.341 98.2854C187.341 98.2854 185.735 88.9282 186.182 85.6931" stroke="#263238" stroke-linecap="round" stroke-linejoin="round"/>
</g>
<g id="Vector_79">
<path d="M184.13 89.3398C184.13 89.3398 185.023 93.9373 187.028 96.4013L184.13 89.3398Z" fill="#757575"/>
<path d="M184.13 89.3398C184.13 89.3398 185.023 93.9373 187.028 96.4013" stroke="#263238" stroke-linecap="round" stroke-linejoin="round"/>
</g>
<g id="Vector_80">
<path d="M170.834 90.1455C170.834 90.1455 173.355 92.2326 171.749 97.4389L170.834 90.1455Z" fill="#757575"/>
<path d="M170.834 90.1455C170.834 90.1455 173.355 92.2326 171.749 97.4389" stroke="#263238" stroke-linecap="round" stroke-linejoin="round"/>
</g>
<path id="Vector_81" d="M204.55 84.0117C204.55 84.1197 204.518 84.2252 204.458 84.315C204.398 84.4047 204.312 84.4745 204.212 84.5156C204.112 84.5566 204.002 84.5671 203.897 84.5456C203.791 84.5241 203.694 84.4716 203.618 84.3948C203.542 84.3181 203.49 84.2204 203.47 84.1144C203.45 84.0083 203.461 83.8986 203.503 83.7991C203.545 83.6997 203.616 83.615 203.707 83.5558C203.797 83.4967 203.903 83.4657 204.011 83.4668C204.082 83.4668 204.153 83.481 204.218 83.5084C204.284 83.5359 204.344 83.5761 204.394 83.6268C204.444 83.6774 204.484 83.7375 204.511 83.8036C204.537 83.8697 204.551 83.9404 204.55 84.0117Z" fill="#263238"/>
<path id="Vector_82" d="M203.124 91.9889C203.425 91.9889 203.669 91.7449 203.669 91.444C203.669 91.1431 203.425 90.8992 203.124 90.8992C202.823 90.8992 202.579 91.1431 202.579 91.444C202.579 91.7449 202.823 91.9889 203.124 91.9889Z" fill="#263238"/>
<path id="Vector_83" d="M202.301 108.726C202.602 108.726 202.846 108.482 202.846 108.182C202.846 107.881 202.602 107.637 202.301 107.637C202 107.637 201.756 107.881 201.756 108.182C201.756 108.482 202 108.726 202.301 108.726Z" fill="#263238"/>
<path id="Vector_84" d="M131.779 59.0008H138.607L142.027 53.0815L138.607 47.168H131.779L128.365 53.0815L131.779 59.0008Z" stroke="#263238" stroke-linecap="round" stroke-linejoin="round"/>
<path id="Vector_85" d="M130.788 71.9758L127.374 66.0623H120.546" stroke="#263238" stroke-linecap="round" stroke-linejoin="round"/>
<path id="Vector_86" d="M121.462 53.0816H128.29L131.704 47.1681L128.29 41.2488H121.462L118.048 47.1681L121.462 53.0816Z" stroke="#263238" stroke-linecap="round" stroke-linejoin="round"/>
<path id="Vector_87" d="M131.779 47.168H138.607L142.027 41.2487L138.607 35.3352H131.779L128.365 41.2487L131.779 47.168Z" stroke="#263238" stroke-linecap="round" stroke-linejoin="round"/>
<path id="Vector_88" d="M130.788 47.1678C130.787 46.9851 130.84 46.8061 130.941 46.6537C131.042 46.5012 131.185 46.3822 131.354 46.3117C131.523 46.2413 131.708 46.2225 131.888 46.2579C132.067 46.2933 132.232 46.3812 132.361 46.5104C132.49 46.6396 132.578 46.8044 132.614 46.9837C132.649 47.163 132.63 47.3488 132.56 47.5174C132.489 47.686 132.37 47.8299 132.218 47.9307C132.065 48.0316 131.886 48.0848 131.704 48.0836C131.461 48.0836 131.228 47.9872 131.056 47.8154C130.884 47.6437 130.788 47.4107 130.788 47.1678Z" fill="#263238"/>
<path id="Vector_89" d="M117.445 35.6651C117.951 35.6651 118.361 35.2551 118.361 34.7493C118.361 34.2435 117.951 33.8335 117.445 33.8335C116.939 33.8335 116.529 34.2435 116.529 34.7493C116.529 35.2551 116.939 35.6651 117.445 35.6651Z" fill="#263238"/>
<path id="Vector_90" d="M129.872 71.9756C129.872 71.7945 129.926 71.6174 130.026 71.4668C130.127 71.3162 130.27 71.1988 130.437 71.1295C130.605 71.0602 130.789 71.0421 130.966 71.0774C131.144 71.1127 131.307 71.2 131.435 71.328C131.563 71.4561 131.651 71.6193 131.686 71.7969C131.721 71.9746 131.703 72.1587 131.634 72.3261C131.565 72.4934 131.447 72.6364 131.297 72.7371C131.146 72.8377 130.969 72.8914 130.788 72.8914C130.545 72.8914 130.312 72.7949 130.14 72.6232C129.968 72.4514 129.872 72.2185 129.872 71.9756Z" fill="#263238"/>
<path id="Vector_91" d="M120.546 66.9781C121.052 66.9781 121.462 66.5681 121.462 66.0623C121.462 65.5565 121.052 65.1465 120.546 65.1465C120.04 65.1465 119.63 65.5565 119.63 66.0623C119.63 66.5681 120.04 66.9781 120.546 66.9781Z" fill="#263238"/>
<path id="Vector_92" d="M148.623 41.4052C148.623 41.2227 148.677 41.0443 148.778 40.8926C148.88 40.7409 149.024 40.6228 149.193 40.5532C149.362 40.4837 149.547 40.4657 149.726 40.5018C149.905 40.5378 150.069 40.6262 150.198 40.7556C150.327 40.8851 150.414 41.0499 150.449 41.229C150.484 41.4082 150.465 41.5936 150.394 41.7619C150.323 41.9302 150.204 42.0738 150.052 42.1743C149.9 42.2749 149.721 42.328 149.538 42.3268C149.418 42.3268 149.298 42.3029 149.187 42.2565C149.075 42.2102 148.974 42.1422 148.889 42.0565C148.804 41.9709 148.736 41.8692 148.691 41.7575C148.645 41.6457 148.622 41.526 148.623 41.4052Z" fill="#263238"/>
<path id="Vector_93" d="M127.304 66.9781C127.81 66.9781 128.22 66.5681 128.22 66.0623C128.22 65.5565 127.81 65.1465 127.304 65.1465C126.799 65.1465 126.389 65.5565 126.389 66.0623C126.389 66.5681 126.799 66.9781 127.304 66.9781Z" fill="#263238"/>
<path id="Vector_94" d="M141.088 41.4052C141.088 41.223 141.142 41.0448 141.243 40.8932C141.344 40.7417 141.488 40.6235 141.657 40.5538C141.825 40.484 142.01 40.4658 142.189 40.5014C142.368 40.5369 142.532 40.6247 142.661 40.7536C142.79 40.8825 142.878 41.0467 142.913 41.2254C142.949 41.4042 142.93 41.5895 142.861 41.7579C142.791 41.9263 142.673 42.0702 142.521 42.1715C142.37 42.2728 142.192 42.3268 142.009 42.3268C141.765 42.3268 141.53 42.2297 141.358 42.0569C141.185 41.8841 141.088 41.6497 141.088 41.4052Z" fill="#263238"/>
<path id="Vector_95" d="M130.788 59.0006C130.787 58.8178 130.84 58.6389 130.941 58.4864C131.042 58.334 131.185 58.215 131.354 58.1445C131.523 58.074 131.708 58.0553 131.888 58.0907C132.067 58.126 132.232 58.2139 132.361 58.3432C132.49 58.4724 132.578 58.6371 132.614 58.8165C132.649 58.9958 132.63 59.1815 132.56 59.3502C132.489 59.5188 132.37 59.6627 132.218 59.7635C132.065 59.8643 131.886 59.9176 131.704 59.9164C131.461 59.9149 131.229 59.8179 131.058 59.6465C130.886 59.4751 130.789 59.243 130.788 59.0006Z" fill="#263238"/>
<path id="Vector_96" d="M142.027 41.4055H149.544" stroke="#263238" stroke-linecap="round" stroke-linejoin="round"/>
<path id="Vector_97" d="M131.704 59.0007L127.304 66.0622" stroke="#263238" stroke-linecap="round" stroke-linejoin="round"/>
<path id="Vector_98" d="M121.462 41.2486L117.445 34.7495" stroke="#263238" stroke-linecap="round" stroke-linejoin="round"/>
<path id="Vector_99" d="M113.591 87.5885C114.206 87.0342 114.897 86.5698 115.642 86.209C115.673 86.3951 115.773 86.5625 115.923 86.6768C116.073 86.7912 116.261 86.8436 116.448 86.8234C116.86 86.7596 117.323 86.3539 117.607 86.6495C117.723 86.7654 117.746 86.9509 117.868 87.061C118.239 87.403 118.871 86.6669 119.288 86.9451C119.398 87.0204 119.456 87.148 119.572 87.2233C119.664 87.2629 119.762 87.2833 119.862 87.2833C119.962 87.2833 120.06 87.2629 120.152 87.2233C121.187 86.9874 122.25 86.8957 123.311 86.9509L128.174 86.9857L127.803 86.7944" stroke="#263238" stroke-linecap="round" stroke-linejoin="round"/>
<path id="Vector_100" d="M113.33 91.6467C113.37 91.4562 113.476 91.2859 113.629 91.1653C113.782 91.0446 113.972 90.9812 114.167 90.9861C114.361 90.9909 114.548 91.0636 114.695 91.1917C114.842 91.3197 114.939 91.495 114.97 91.6873C115.091 91.6311 115.198 91.5506 115.286 91.4509C115.374 91.3511 115.44 91.2342 115.48 91.1076C115.793 91.809 116.761 91.8669 117.532 91.8148L120.969 91.5713C122.001 91.496 123.206 91.3105 123.67 90.4121C124.18 91.3419 124.383 92.4089 124.25 93.4609C124.568 92.7037 124.983 91.9907 125.484 91.3395C125.589 91.7104 125.693 92.0814 125.792 92.4524C128.185 90.7773 131.46 91.8727 134.358 91.5076" stroke="#263238" stroke-linecap="round" stroke-linejoin="round"/>
<path id="Vector_101" d="M113.637 97.0212C113.626 96.9146 113.655 96.8077 113.718 96.721C113.781 96.6343 113.874 96.5741 113.979 96.5517C114.011 96.6569 114.065 96.7542 114.137 96.8378C114.208 96.9214 114.296 96.9895 114.395 97.0378C114.494 97.0862 114.601 97.1137 114.711 97.1189C114.821 97.124 114.931 97.1065 115.034 97.0676C115.447 96.8939 115.802 96.604 116.054 96.233C116.14 96.3031 116.241 96.354 116.348 96.3822C116.456 96.4105 116.568 96.4154 116.678 96.3968C116.788 96.3781 116.892 96.3363 116.985 96.2741C117.077 96.2118 117.155 96.1306 117.213 96.0359C117.472 96.4546 117.686 96.8996 117.851 97.3632C118.164 96.5633 119.224 96.4358 120.088 96.4416H127.043" stroke="#263238" stroke-linecap="round" stroke-linejoin="round"/>
<path id="Vector_102" d="M167.402 33.9207C165.742 33.8804 164.114 34.3832 162.765 35.3527C161.096 36.4195 159.508 38.2167 159.925 40.1531C160.342 42.0895 162.626 43.1157 164.637 43.5041C166.367 43.841 168.127 43.9965 169.889 43.9679C170.567 43.9781 171.245 43.9061 171.906 43.7534C172.574 43.564 173.223 43.3096 173.842 42.9939L178.328 40.8836C178.942 40.5937 179.632 40.2227 179.8 39.5617C180.009 38.7443 179.308 37.9848 178.641 37.492C176.123 35.6907 173.017 34.9079 169.947 35.3005" stroke="#263238" stroke-linecap="round" stroke-linejoin="round"/>
<path id="Vector_103" d="M162.076 38.2571C162.339 37.9609 162.681 37.7441 163.061 37.6311C162.985 37.8528 162.985 38.0933 163.061 38.3151C163.165 38.5237 163.484 38.628 163.641 38.4542C163.797 38.2803 163.832 38.0021 164.006 38.089L164.214 38.5527C164.498 38.4542 164.719 38.2223 164.997 38.1006C165.314 37.9943 165.651 37.9626 165.982 38.0079C168.471 38.1356 170.966 38.06 173.442 37.7818" stroke="#263238" stroke-linecap="round" stroke-linejoin="round"/>
<path id="Vector_104" d="M166.133 40.7501C166.169 40.6317 166.232 40.5234 166.318 40.4338C166.404 40.3442 166.509 40.2759 166.626 40.2343C166.492 40.3792 166.655 40.6284 166.852 40.6632C167.051 40.6668 167.25 40.6252 167.431 40.5415C167.651 40.4847 167.877 40.4536 168.104 40.4487L172.329 40.1589" stroke="#263238" stroke-linecap="round" stroke-linejoin="round"/>
<path id="Vector_105" d="M167.936 46.6404C166.713 50.9982 164.178 54.8737 160.676 57.7398C157.174 60.6059 152.874 62.3235 148.362 62.6591" stroke="#263238" stroke-linecap="round" stroke-linejoin="round"/>
<path id="Vector_106" d="M148.431 61.4011C147.612 61.9076 146.881 62.546 146.269 63.2907C146.631 63.2149 147.007 63.2409 147.355 63.3657C147.703 63.4905 148.009 63.7093 148.24 63.9978" stroke="#263238" stroke-linecap="round" stroke-linejoin="round"/>
<path id="Vector_107" d="M166.544 62.781L167.072 63.9402L167.825 63.0476C167.966 63.1528 168.065 63.3049 168.104 63.4765C168.162 63.6388 168.248 63.8185 168.411 63.8649C168.573 63.9113 168.776 63.691 168.654 63.5693C168.761 63.6415 168.882 63.6897 169.009 63.7107C169.136 63.7318 169.266 63.725 169.39 63.691C169.5 63.691 169.599 63.6099 169.709 63.5809C169.84 63.5521 169.975 63.5404 170.109 63.5461H177.94" stroke="#263238" stroke-linecap="round" stroke-linejoin="round"/>
<path id="Vector_108" d="M166.91 69.1582C166.946 69.0653 167.007 68.9836 167.084 68.9209C167.162 68.8582 167.255 68.8167 167.353 68.8003C167.452 68.784 167.553 68.7934 167.647 68.8277C167.741 68.862 167.824 68.9199 167.889 68.9959C167.915 69.0701 167.954 69.1389 168.005 69.1988C168.075 69.248 168.16 69.2694 168.245 69.2587C168.33 69.2479 168.408 69.2059 168.463 69.1408C168.59 69.0249 168.672 68.8684 168.805 68.764C169.17 68.48 169.692 68.7003 170.138 68.822C170.71 68.9416 171.296 68.9728 171.877 68.9147L176.323 68.6829" stroke="#263238" stroke-linecap="round" stroke-linejoin="round"/>
<path id="Vector_109" d="M167.049 74.086C167.197 74.0899 167.342 74.044 167.46 73.9557C167.579 73.8675 167.665 73.7419 167.704 73.5991C167.777 73.6115 167.845 73.6458 167.899 73.6975C167.953 73.7492 167.99 73.8159 168.005 73.8889C168.218 73.7573 168.4 73.5814 168.538 73.373C171.402 73.4078 174.269 73.4078 177.14 73.373" stroke="#263238" stroke-linecap="round" stroke-linejoin="round"/>
<path id="Vector_110" d="M167.043 77.7677C167.22 77.841 167.419 77.846 167.599 77.7818C167.78 77.7176 167.931 77.5887 168.022 77.4199C168.204 77.5671 168.331 77.7714 168.382 77.9995C168.496 77.9222 168.625 77.8693 168.761 77.8444C168.896 77.8194 169.036 77.8229 169.17 77.8546C169.28 77.8546 169.39 77.93 169.5 77.959C169.778 78.0302 170.066 78.0556 170.352 78.0343L180.345 77.8894" stroke="#263238" stroke-linecap="round" stroke-linejoin="round"/>
<path id="Vector_111" d="M140.212 101.207L144.751 100.766C144.795 100.772 144.84 100.767 144.882 100.751C144.923 100.735 144.96 100.708 144.989 100.674C145.018 100.64 145.038 100.6 145.047 100.556C145.056 100.512 145.054 100.467 145.041 100.424V97.5256C145.052 97.4293 145.027 97.3323 144.971 97.2531C144.934 97.2191 144.89 97.1929 144.842 97.1759C144.794 97.159 144.743 97.1518 144.693 97.1546C143.707 97.0676 141.488 96.5748 140.636 97.2415C139.783 97.9083 140.218 100.216 140.212 101.207Z" stroke="#263238" stroke-linecap="round" stroke-linejoin="round"/>
<path id="Vector_112" d="M141.511 98.6216C141.569 98.894 141.621 99.1664 141.679 99.4446C142.367 99.301 143.072 99.2639 143.771 99.3345" stroke="#263238" stroke-linecap="round" stroke-linejoin="round"/>
<path id="Vector_113" d="M143.823 102.459C143.781 102.525 143.758 102.601 143.756 102.679C143.755 102.756 143.775 102.833 143.815 102.9C143.854 102.967 143.912 103.021 143.981 103.057C144.05 103.093 144.128 103.109 144.206 103.103C144.513 103.045 144.757 102.633 145.041 102.761" stroke="#263238" stroke-linecap="round" stroke-linejoin="round"/>
<path id="Vector_114" d="M140.699 95.7751C140.757 95.6888 140.838 95.6211 140.933 95.5802C141.028 95.5393 141.133 95.527 141.235 95.5448C141.337 95.5627 141.432 95.6098 141.508 95.6806C141.583 95.7513 141.637 95.8426 141.661 95.9432L142.751 95.8157" stroke="#263238" stroke-linecap="round" stroke-linejoin="round"/>
<path id="Vector_115" d="M149.741 105.388C151.287 105.388 152.833 105.388 154.378 105.388C155.58 105.403 156.781 105.332 157.972 105.173C158.105 105.166 158.232 105.113 158.331 105.022C158.413 104.904 158.449 104.759 158.43 104.617V97.5667C158.43 97.4855 151.329 97.2594 150.501 97.8334C148.831 99.0045 149.741 103.585 149.741 105.388Z" stroke="#263238" stroke-linecap="round" stroke-linejoin="round"/>
<path id="Vector_116" d="M152.257 99.6536L153.364 99.6825C153.165 100.436 152.85 101.153 152.431 101.81C152.28 102.013 152.1 102.268 152.21 102.494C152.79 102.586 153.468 102.639 153.833 102.192C154.309 101.613 153.891 100.703 154.251 100.053L154.39 101.427L154.871 101.885C154.996 102.025 155.153 102.132 155.329 102.198C155.417 102.229 155.513 102.228 155.6 102.197C155.688 102.165 155.762 102.104 155.81 102.024" stroke="#263238" stroke-linecap="round" stroke-linejoin="round"/>
<path id="Vector_117" d="M155.48 106.57C155.845 106.437 155.995 107.12 156.372 107.219C156.749 107.318 156.952 106.819 157.271 106.599C157.422 106.499 157.604 106.456 157.784 106.48C157.964 106.503 158.13 106.591 158.25 106.726" stroke="#263238" stroke-linecap="round" stroke-linejoin="round"/>
<path id="Vector_118" d="M152.489 95.4153C152.836 95.5022 152.697 96.0818 152.958 96.3311C153.219 96.5803 153.654 96.3311 153.949 96.0934C154.245 95.8558 154.784 95.7515 154.894 96.0934" stroke="#263238" stroke-linecap="round" stroke-linejoin="round"/>
<path id="Vector_119" d="M241.686 112.936H102.787V122.745H241.686V112.936Z" fill="#BFBFBF" stroke="#263238" stroke-linecap="round" stroke-linejoin="round"/>
<path id="Vector_120" d="M215.986 116.797H125.229V118.883H215.986V116.797Z" fill="#263238"/>
<path id="Vector_121" d="M176.699 117.857C176.699 118.159 176.61 118.454 176.442 118.704C176.275 118.955 176.037 119.15 175.758 119.266C175.48 119.381 175.173 119.411 174.877 119.353C174.582 119.294 174.31 119.149 174.097 118.935C173.884 118.722 173.739 118.451 173.68 118.155C173.621 117.859 173.651 117.553 173.767 117.274C173.882 116.995 174.077 116.757 174.328 116.59C174.579 116.422 174.873 116.333 175.175 116.333C175.579 116.333 175.967 116.494 176.253 116.779C176.539 117.065 176.699 117.453 176.699 117.857Z" fill="#5F0A61" stroke="#263238" stroke-linecap="round" stroke-linejoin="round"/>
<path id="Vector_122" d="M237.188 115.962H233.432V119.718H237.188V115.962Z" stroke="#263238" stroke-linecap="round" stroke-linejoin="round"/>
<path id="Vector_123" d="M230.888 115.962H227.132V119.718H230.888V115.962Z" stroke="#263238" stroke-linecap="round" stroke-linejoin="round"/>
<path id="Vector_124" d="M113.631 115.921H107.087V119.758H113.631V115.921Z" stroke="#263238" stroke-linecap="round" stroke-linejoin="round"/>
<path id="Vector_125" d="M107.012 21.8213H131.704" stroke="white" stroke-linecap="round" stroke-linejoin="round"/>
<path id="Vector_126" d="M238.168 21.734C238.169 22.0222 238.084 22.3043 237.925 22.5444C237.766 22.7845 237.538 22.9719 237.272 23.0827C237.006 23.1936 236.713 23.2229 236.43 23.1669C236.148 23.111 235.888 22.9723 235.684 22.7685C235.48 22.5647 235.342 22.3049 235.286 22.0222C235.23 21.7394 235.259 21.4464 235.37 21.1803C235.481 20.9143 235.668 20.6871 235.908 20.5277C236.148 20.3683 236.43 20.2838 236.719 20.2849C237.103 20.2849 237.472 20.4376 237.743 20.7093C238.015 20.9811 238.168 21.3497 238.168 21.734V21.734Z" stroke="white" stroke-linecap="round" stroke-linejoin="round"/>
<path id="Vector_127" d="M232.435 21.8209C232.435 22.1075 232.35 22.3876 232.191 22.6259C232.032 22.8642 231.805 23.0499 231.541 23.1596C231.276 23.2693 230.985 23.298 230.703 23.2421C230.422 23.1862 230.164 23.0481 229.962 22.8455C229.759 22.6428 229.621 22.3846 229.565 22.1036C229.509 21.8225 229.538 21.5311 229.647 21.2663C229.757 21.0016 229.943 20.7753 230.181 20.616C230.419 20.4568 230.7 20.3718 230.986 20.3718C231.37 20.3718 231.739 20.5245 232.011 20.7962C232.283 21.068 232.435 21.4366 232.435 21.8209V21.8209Z" stroke="white" stroke-linecap="round" stroke-linejoin="round"/>
<path id="Vector_128" d="M226.703 21.9136C226.702 22.1999 226.616 22.4795 226.456 22.717C226.296 22.9546 226.069 23.1394 225.804 23.2482C225.539 23.357 225.248 23.3848 224.968 23.3283C224.687 23.2717 224.429 23.1332 224.227 22.9304C224.025 22.7275 223.888 22.4693 223.832 22.1884C223.777 21.9074 223.806 21.6164 223.916 21.3519C224.025 21.0875 224.211 20.8615 224.449 20.7025C224.688 20.5436 224.967 20.4587 225.254 20.4587C225.445 20.4587 225.634 20.4964 225.81 20.5696C225.986 20.6428 226.146 20.75 226.281 20.8852C226.415 21.0204 226.522 21.1808 226.594 21.3573C226.667 21.5337 226.704 21.7228 226.703 21.9136V21.9136Z" stroke="white" stroke-linecap="round" stroke-linejoin="round"/>
</g>
<g id="Character">
<path id="Vector_129" d="M116.61 213.634H102.885L95.4544 211.28L93.1359 210.544L92.4578 217.541L11.1839 217.692C11.1839 217.692 12.4243 214.561 14.4471 209.97C18.8116 200.062 26.8103 183.33 33.8063 176.495C39.4866 170.946 53.6756 170.79 53.6756 170.79C55.1241 169.829 56.8237 169.317 58.5618 169.317C61.17 169.445 80.8886 171.584 82.1116 172.216C82.963 172.71 83.6937 173.387 84.2504 174.199C84.2504 174.199 91.1594 171.143 97.9467 173.897C104.734 176.651 116.61 213.634 116.61 213.634Z" fill="#F2F6FA"/>
<g id="Group_2">
<path id="Vector_130" opacity="0.2" d="M95.4544 211.28L93.1359 210.544L92.4578 217.541L11.1839 217.692C11.1839 217.692 12.4243 214.561 14.4471 209.97C17.5828 209.894 21.1185 209.732 21.1185 209.732L22.9385 203.778C22.9385 203.778 25.796 200.757 29.3665 202.537C29.2474 202.087 29.2722 201.61 29.4375 201.175C29.6027 200.739 29.9002 200.366 30.288 200.108C31.6675 199.192 37.3246 202.131 37.3246 202.131C37.3246 202.131 40.0488 196.913 40.9762 193.499C41.9036 190.084 42.518 198.328 42.518 198.328C42.518 198.328 44.8364 194.536 44.8364 193.499C44.8364 192.461 49.114 203.778 49.114 203.778C49.114 203.778 54.7711 204.456 56.3013 205.036C57.8314 205.616 73.0638 206.195 77.9673 205.036C82.8709 203.876 74.4896 210.833 74.4896 210.833C74.4896 210.833 83.1027 213.732 87.9715 211.831C92.8403 209.929 95.0197 207.894 95.0197 207.894C95.0197 207.894 95.1994 209.303 95.4544 211.28Z" fill="black" fill-opacity="0.7"/>
</g>
<path id="Vector_131" d="M116.61 213.634H102.885L95.4544 211.28L93.1359 210.544L92.4578 217.541L11.1839 217.692C11.1839 217.692 12.4243 214.561 14.4471 209.97C18.8116 200.062 26.8103 183.33 33.8063 176.495C39.4866 170.946 53.6756 170.79 53.6756 170.79C55.1241 169.829 56.8237 169.317 58.5618 169.317C61.17 169.445 80.8886 171.584 82.1116 172.216C82.963 172.71 83.6937 173.387 84.2504 174.199C84.2504 174.199 91.1594 171.143 97.9467 173.897C104.734 176.651 116.61 213.634 116.61 213.634Z" stroke="#263238" stroke-linecap="round" stroke-linejoin="round"/>
<path id="Vector_132" d="M90.9797 195.754C89.7727 197.456 88.3958 199.032 86.8703 200.456" stroke="#263238" stroke-linecap="round" stroke-linejoin="round"/>
<path id="Vector_133" d="M82.8535 203.836C76.9485 208.199 70.0083 210.946 62.7176 211.807" stroke="#263238" stroke-linecap="round" stroke-linejoin="round"/>
<path id="Vector_134" d="M108.235 201.859C108.235 201.859 110.345 200.549 112.194 200.978C114.043 201.407 115.573 203.233 115.573 203.233C115.573 203.233 130.921 201.963 134.405 202.073C137.888 202.184 145.684 204.468 145.684 204.468C145.684 204.468 149.463 203.703 149.869 203.859C150.275 204.016 149.052 216.88 149.052 216.88H99.2045C96.7585 216.88 94.9443 213.338 93.107 210.555C96.2724 199.482 97.8913 188.023 97.9178 176.506" fill="#F2F6FA"/>
<g id="Group_3">
<path id="Vector_135" opacity="0.2" d="M121.914 216.869H99.2161C96.7701 216.869 94.9559 213.327 93.1185 210.544C94.9358 204.297 96.229 197.909 96.9846 191.447C96.9846 191.447 99.3958 195.024 97.9293 199.169L99.3958 195.024C99.3958 195.024 100.804 199.465 99.3958 203.227C97.9873 206.99 96.9846 208.068 96.9846 208.068C96.9846 208.068 98.7234 210.341 100.567 209.732C102.41 209.123 104.415 212.811 104.415 212.811C104.415 212.811 108.844 212.979 109.765 212.811C110.188 212.735 115.921 214.712 121.914 216.869Z" fill="black" fill-opacity="0.7"/>
</g>
<path id="Vector_136" d="M108.235 201.859C108.235 201.859 110.345 200.549 112.194 200.978C114.043 201.407 115.573 203.233 115.573 203.233C115.573 203.233 130.921 201.963 134.405 202.073C137.888 202.184 145.684 204.468 145.684 204.468C145.684 204.468 149.463 203.703 149.869 203.859C150.275 204.016 149.052 216.88 149.052 216.88H99.2045C96.7585 216.88 94.9443 213.338 93.107 210.555C96.2724 199.482 97.8913 188.023 97.9178 176.506" stroke="#263238" stroke-linecap="round" stroke-linejoin="round"/>
<path id="Vector_137" d="M79.741 161.798V174.181C78.1715 175.25 76.5462 176.236 74.8722 177.132C71.493 178.924 67.1575 180.698 64.5782 179.689C59.9007 177.851 56.8693 170.79 56.8693 170.79C61.9178 166.94 62.5264 161.798 63.2914 159.351L79.741 161.798Z" fill="#F2F6FA" stroke="#263238" stroke-linecap="round" stroke-linejoin="round"/>
<path id="Vector_138" d="M54.4233 171.735C54.4233 171.735 58.7066 181.063 63.9058 182.75C69.105 184.437 77.9094 177.851 77.9094 177.851" stroke="#263238" stroke-linecap="round" stroke-linejoin="round"/>
<path id="Vector_139" d="M31.0358 183.022C31.0358 183.022 39.1504 189.342 40.5125 191.47C41.8746 193.597 40.5125 213.634 40.5125 213.634" stroke="#263238" stroke-linecap="round" stroke-linejoin="round"/>
<g id="Vector_140">
<path d="M19.9883 203.412C24.7701 200.328 28.1319 203.702 31.0358 204.311C33.9396 204.92 40.3618 201.638 45.1784 204.311C49.995 206.984 49.995 206.05 49.995 206.05C49.995 206.05 55.0377 209.9 52.4352 217.605L11.1665 217.68C11.1665 217.68 8.41331 211.796 17.4611 203.401" fill="#F2F6FA"/>
<path d="M19.9883 203.412C24.7701 200.328 28.1319 203.702 31.0358 204.311C33.9396 204.92 40.3618 201.638 45.1784 204.311C49.995 206.984 49.995 206.05 49.995 206.05C49.995 206.05 55.0377 209.9 52.4352 217.605L11.1665 217.68C11.1665 217.68 8.41331 211.796 17.4611 203.401" stroke="#263238" stroke-linecap="round" stroke-linejoin="round"/>
</g>
<path id="Vector_141" d="M60.4281 191.487L71.3191 211.413L71.6611 213.651L69.9222 212.103L58.6893 192.322C58.8545 192.017 59.1115 191.773 59.4236 191.623C59.7358 191.473 60.0873 191.425 60.4281 191.487Z" fill="#5F0A61" stroke="#263238" stroke-linecap="round" stroke-linejoin="round"/>
<path id="Vector_142" d="M50.0878 207.094C50.9103 206.855 51.7552 206.702 52.6091 206.636C53.5307 206.636 59.1994 202.444 61.1237 202.131C63.048 201.818 66.5083 204.688 68.2704 205.146C70.0324 205.604 69.9223 207.9 70.954 208.816C71.9857 209.732 70.4961 210.764 69.2151 209.732C69.3066 210.09 69.3123 210.464 69.2317 210.825C69.1511 211.186 68.9866 211.522 68.7514 211.807C68.7514 211.807 69.0992 213.06 68.7514 213.634H48.3489C48.3489 213.634 48.0417 209.732 50.0878 207.094Z" fill="#F2F6FA" stroke="#263238" stroke-linecap="round" stroke-linejoin="round"/>
<path id="Vector_143" d="M69.2557 209.731L67.4183 207.917L62.7176 206.41" stroke="#263238" stroke-linecap="round" stroke-linejoin="round"/>
<path id="Vector_144" d="M68.7978 211.807L65.9866 210.543L62.1438 209.819" stroke="#263238" stroke-linecap="round" stroke-linejoin="round"/>
<path id="Vector_145" d="M62.1438 212.811L65.9866 212.984L68.7978 213.634" stroke="#263238" stroke-linecap="round" stroke-linejoin="round"/>
<path id="Vector_146" d="M61.141 202.131C59.4022 203.656 61.141 205.262 60.3122 206.41C59.4833 207.558 58.5733 207.9 59.2805 209.732" stroke="#263238" stroke-linecap="round" stroke-linejoin="round"/>
<path id="Vector_147" d="M85.9545 214.602H178.797C178.797 215.421 178.472 216.207 177.893 216.786C177.313 217.365 176.527 217.691 175.708 217.691H93.4025C93.0798 217.69 92.7591 217.64 92.452 217.54L85.8385 215.407C85.7441 215.379 85.663 215.318 85.61 215.235C85.5569 215.151 85.5355 215.052 85.5495 214.954C85.5636 214.857 85.6122 214.768 85.6865 214.703C85.7608 214.638 85.8559 214.602 85.9545 214.602Z" fill="#5F0A61"/>
<g id="Group_4">
<path id="Vector_148" opacity="0.2" d="M178.797 214.602C178.797 215.421 178.472 216.207 177.893 216.787L177.801 216.868C177.232 217.397 176.485 217.691 175.708 217.691H93.4025C93.0798 217.691 92.7591 217.64 92.452 217.541L85.8385 215.408C85.7431 215.379 85.6612 215.317 85.6082 215.232C85.5551 215.148 85.5345 215.047 85.5501 214.949C85.5656 214.851 85.6164 214.761 85.6929 214.697C85.7694 214.634 85.8664 214.6 85.966 214.602H178.797Z" fill="black" fill-opacity="0.7"/>
<path id="Vector_149" opacity="0.2" d="M178.797 214.602C178.797 215.421 178.471 216.206 177.893 216.787L177.801 216.868H124.679C124.077 216.868 123.5 216.629 123.074 216.204C122.648 215.78 122.408 215.203 122.407 214.602H178.797Z" fill="black" fill-opacity="0.7"/>
</g>
<path id="Vector_150" d="M85.9545 214.602H178.797C178.797 215.421 178.472 216.207 177.893 216.786C177.313 217.365 176.527 217.691 175.708 217.691H93.4025C93.0798 217.69 92.7591 217.64 92.452 217.54L85.8385 215.407C85.7441 215.379 85.663 215.318 85.61 215.235C85.5569 215.151 85.5355 215.052 85.5495 214.954C85.5636 214.857 85.6122 214.768 85.6865 214.703C85.7608 214.638 85.8559 214.602 85.9545 214.602V214.602Z" stroke="#263238" stroke-linecap="round" stroke-linejoin="round"/>
<path id="Vector_151" d="M122.407 214.602C122.408 215.203 122.648 215.78 123.074 216.204C123.5 216.629 124.077 216.868 124.679 216.868H133.495" stroke="#263238" stroke-linecap="round" stroke-linejoin="round"/>
<path id="Vector_152" d="M195.415 176.483V176.558L184.611 214.156C184.45 214.638 184.146 215.061 183.739 215.366C183.332 215.672 182.842 215.846 182.333 215.866H126.052C125.839 215.883 125.625 215.846 125.43 215.758C125.235 215.671 125.065 215.536 124.936 215.366C124.806 215.195 124.722 214.995 124.69 214.784C124.659 214.572 124.68 214.356 124.754 214.156L135.546 176.558C135.707 176.075 136.011 175.652 136.418 175.347C136.825 175.041 137.316 174.867 137.824 174.848H194.105C194.312 174.83 194.52 174.863 194.71 174.944C194.901 175.025 195.068 175.153 195.198 175.314C195.328 175.476 195.415 175.668 195.453 175.871C195.491 176.075 195.478 176.285 195.415 176.483Z" fill="#5F0A61"/>
<g id="Group_5">
<path id="Vector_153" opacity="0.4" d="M195.415 176.483V176.558L184.611 214.156C184.45 214.638 184.146 215.061 183.739 215.366C183.332 215.672 182.842 215.846 182.333 215.866H126.423V215.79L137.21 178.193C137.371 177.71 137.675 177.288 138.082 176.983C138.489 176.677 138.979 176.503 139.488 176.483H195.415Z" fill="#F2F6FA"/>
</g>
<path id="Vector_154" d="M195.415 176.483V176.558L184.611 214.156C184.45 214.638 184.146 215.061 183.739 215.366C183.332 215.672 182.842 215.846 182.333 215.866H126.052C125.839 215.883 125.625 215.846 125.43 215.758C125.235 215.671 125.065 215.536 124.936 215.366C124.806 215.195 124.722 214.995 124.69 214.784C124.659 214.572 124.68 214.356 124.754 214.156L135.546 176.558C135.707 176.075 136.011 175.652 136.418 175.347C136.825 175.041 137.316 174.867 137.824 174.848H194.105C194.312 174.83 194.519 174.863 194.71 174.944C194.901 175.025 195.068 175.153 195.198 175.314C195.328 175.476 195.415 175.668 195.453 175.871C195.491 176.075 195.478 176.285 195.415 176.483Z" stroke="#263238" stroke-linecap="round" stroke-linejoin="round"/>
<path id="Vector_155" d="M164.133 196.05C163.654 197.036 162.915 197.875 161.996 198.474C161.077 199.073 160.013 199.412 158.917 199.453C156.552 199.453 155.155 197.621 155.804 195.36C156.192 194.203 156.923 193.191 157.899 192.459C158.875 191.727 160.051 191.309 161.27 191.261H161.374C161.265 191.484 161.176 191.717 161.108 191.956C160.441 194.2 161.803 196.015 164.133 196.05Z" fill="#F2F6FA" stroke="#263238" stroke-linecap="round" stroke-linejoin="round"/>
<path id="Vector_156" d="M126.713 214.022L137.245 177.324C137.339 177.042 137.516 176.796 137.753 176.618C137.99 176.44 138.276 176.338 138.572 176.326H193.126" stroke="#263238" stroke-linecap="round" stroke-linejoin="round"/>
<path id="Vector_157" d="M100.567 217.692H22.8979L23.8369 215.732C23.8369 215.732 31.1749 216.416 36.9884 214.602C39.5561 213.802 43.5091 213.442 47.4737 213.489C49.9718 213.523 56.052 213.547 59.8253 213.529C61.17 213.529 62.2249 213.529 62.7234 213.494C62.9147 213.494 63.106 213.494 63.303 213.494C64.3791 213.481 65.4535 213.582 66.5083 213.796C67.5261 213.681 68.5503 213.63 69.5745 213.645C71.3655 213.645 79.0686 213.616 81.1668 213.645C83.9316 213.68 87.1253 214.225 90.1567 214.642L90.2378 214.613V214.654C93.901 215.164 97.3323 215.512 99.5117 214.613L100.567 217.692Z" fill="#F2F6FA"/>
<g id="Group_6">
<path id="Vector_158" opacity="0.4" d="M100.567 217.692H40.3618L41.5848 215.587C41.5848 215.587 44.8712 217.506 48.0823 216.167C51.2934 214.828 54.5277 214.097 59.8254 213.517C60.9806 213.394 62.1449 213.378 63.3031 213.471C65.6091 213.648 67.8766 214.164 70.0324 215.001C70.0324 215.001 73.1913 213.622 81.1668 213.622C83.9316 213.656 87.1253 214.201 90.1567 214.619L90.2379 214.59V214.63C93.901 215.141 97.3324 215.488 99.5117 214.59L100.567 217.692Z" fill="#5F0A61"/>
<path id="Vector_159" d="M41.5848 215.587L23.8601 215.732L22.9211 217.691H40.3618L41.5848 215.587Z" fill="#5F0A61"/>
<path id="Vector_160" d="M40.8603 216.827L41.5848 215.586C43.1519 216.268 44.843 216.62 46.5521 216.618C49.1488 216.543 53.2525 213.326 61.1411 213.482" stroke="#263238" stroke-linecap="round" stroke-linejoin="round"/>
<path id="Vector_161" d="M66.491 213.784C67.9458 214.317 70.015 215.013 70.015 215.013C70.015 215.013 72.6928 213.471 78.576 213.633" stroke="#263238" stroke-linecap="round" stroke-linejoin="round"/>
<path id="Vector_162" d="M41.5848 215.587C41.5848 215.587 32.4153 215.749 28.7463 215.831" stroke="#263238" stroke-linecap="round" stroke-linejoin="round"/>
<path id="Vector_163" d="M68.792 217.691C68.842 217.314 69.0093 216.961 69.2703 216.683C69.5313 216.406 69.8729 216.217 70.2469 216.144C71.5452 215.929 72.3857 217.535 72.3857 217.535" stroke="#263238" stroke-linecap="round" stroke-linejoin="round"/>
<path id="Vector_164" d="M70.015 215.013L70.2469 216.143" stroke="#263238" stroke-linecap="round" stroke-linejoin="round"/>
<path id="Vector_165" d="M71.3192 216.143C71.3192 216.143 75.446 214.259 79.4338 214.601" stroke="#263238" stroke-linecap="round" stroke-linejoin="round"/>
<path id="Vector_166" d="M69.6209 216.369C69.2557 216.085 63.0596 214.173 56.7186 215.587" stroke="#263238" stroke-linecap="round" stroke-linejoin="round"/>
<path id="Vector_167" d="M68.792 217.152C68.792 217.152 63.5755 216.161 59.0371 216.851" stroke="#263238" stroke-linecap="round" stroke-linejoin="round"/>
<path id="Vector_168" d="M71.8988 216.862C75.3614 215.897 78.9854 215.652 82.5463 216.143C86.0532 216.665 89.5966 216.901 93.1417 216.851" stroke="#263238" stroke-linecap="round" stroke-linejoin="round"/>
</g>
<path id="Vector_169" d="M100.567 217.692H22.8979L23.8369 215.732C23.8369 215.732 31.1749 216.416 36.9884 214.602C39.5561 213.802 43.5091 213.442 47.4737 213.489C49.9718 213.523 56.052 213.547 59.8253 213.529C61.17 213.529 62.2249 213.529 62.7234 213.494C62.9147 213.494 63.106 213.494 63.303 213.494C64.3791 213.481 65.4535 213.582 66.5083 213.796C67.5261 213.681 68.5503 213.63 69.5745 213.645C71.3655 213.645 79.0686 213.616 81.1668 213.645C83.9316 213.68 87.1253 214.225 90.1567 214.642L90.2378 214.613V214.654C93.901 215.164 97.3323 215.512 99.5117 214.613L100.567 217.692Z" stroke="#263238" stroke-linecap="round" stroke-linejoin="round"/>
<path id="Vector_170" d="M79.741 172.123V174.181C78.1714 175.25 76.5462 176.236 74.8722 177.132C71.1568 173.717 70.6294 167.23 70.6294 167.23L79.741 172.123Z" fill="#263238"/>
<g id="Vector_171">
<path d="M63.9058 160.267C59.5355 153.803 60.4281 141.715 66.0446 135.117C74.2984 125.482 95.8369 132.52 95.8195 146.133C95.8026 148.025 95.6399 149.913 95.3327 151.78C95.0486 153.577 93.4895 155.391 93.0142 157.183C92.5389 158.974 92.7302 161.821 92.5389 163.56C92.11 167.52 86.6326 175.376 85.1488 176.228C83.0738 177.387 71.8582 174.239 69.4122 167.045" fill="#F2F6FA"/>
<path d="M63.9058 160.267C59.5355 153.803 60.4281 141.715 66.0446 135.117C74.2984 125.482 95.8369 132.52 95.8195 146.133C95.8026 148.025 95.6399 149.913 95.3327 151.78C95.0486 153.577 93.4895 155.391 93.0142 157.183C92.5389 158.974 92.7302 161.821 92.5389 163.56C92.11 167.52 86.6326 175.376 85.1488 176.228C83.0738 177.387 71.8582 174.239 69.4122 167.045" stroke="#263238" stroke-linecap="round" stroke-linejoin="round"/>
</g>
<path id="Vector_172" d="M79.1903 152.278C79.1903 152.278 82.2449 151.165 84.9865 152.278" stroke="#263238" stroke-linecap="round" stroke-linejoin="round"/>
<path id="Vector_173" d="M91.2406 152.278C91.2406 152.278 93.4663 151.165 94.9559 152.278" stroke="#263238" stroke-linecap="round" stroke-linejoin="round"/>
<path id="Vector_174" d="M82.0478 157.472C81.8855 158.255 81.3523 158.811 80.8886 158.713C80.4249 158.614 80.1177 157.89 80.28 157.101C80.4423 156.313 80.9755 155.762 81.4682 155.867C81.9609 155.971 82.2101 156.701 82.0478 157.472Z" fill="#263238"/>
<path id="Vector_175" d="M91.8782 157.472C91.7159 158.255 91.1826 158.811 90.7189 158.713C90.2552 158.614 89.948 157.89 90.1103 157.101C90.2726 156.313 90.8001 155.762 91.2985 155.867C91.797 155.971 92.0405 156.701 91.8782 157.472Z" fill="#263238"/>
<g id="Vector_176">
<path d="M90.2726 153.467C90.2726 153.467 88.8178 155.988 88.6671 158.105C88.5164 160.221 90.9855 164.604 90.2726 165.978C89.5597 167.352 86.5283 167.282 85.5313 166.442" fill="#F2F6FA"/>
<path d="M90.2726 153.467C90.2726 153.467 88.8178 155.988 88.6671 158.105C88.5164 160.221 90.9855 164.604 90.2726 165.978C89.5597 167.352 86.5283 167.282 85.5313 166.442" stroke="#263238" stroke-linecap="round" stroke-linejoin="round"/>
</g>
<path id="Vector_177" d="M86.0704 169.213C84.0674 169.496 82.0252 169.204 80.1815 168.372" stroke="#263238" stroke-linecap="round" stroke-linejoin="round"/>
<path id="Vector_178" d="M68.2878 154.307C68.2878 154.307 69.7136 152.927 71.3945 153.466C73.0754 154.005 73.3826 158.586 73.3826 158.586L74.6056 157.281C74.6056 157.281 74.1477 154.69 75.9793 151.055C77.8109 147.419 76.8951 143.141 76.8951 143.141C76.8951 143.141 80.054 144.208 81.1495 146.654C81.1495 146.654 82.3435 144.057 81.1495 142.068C81.1495 142.068 86.0704 143.292 87.2934 146.961C87.2934 146.961 88.2614 144.208 87.931 142.834C87.931 142.834 91.2638 143.9 92.4868 147.112C92.4868 147.112 93.5996 144.666 93.1185 142.677C93.1185 142.677 94.4633 143.837 94.9791 147.269C95.9832 145.176 96.2782 142.813 95.8196 140.538C95.8196 140.538 97.5584 142.526 97.8366 144.208C97.8366 144.208 99.2509 139.314 90.9798 132.74C82.7086 126.166 68.5486 127.656 66.346 132.74C66.346 132.74 67.0764 128.995 68.5486 127.656C68.5486 127.656 64.4913 129.464 64.5782 133.198C64.5782 133.198 60.9962 132.74 59.1646 135.036C60.2872 134.951 61.4159 135.002 62.5264 135.187C62.5264 135.187 57.6344 138.085 57.9416 144.973C58.2488 151.86 62.5264 161.786 62.5264 161.786L65.8766 160.806C65.8766 160.806 66.4098 156.122 68.2878 154.307Z" fill="#263238"/>
<g id="Vector_179">
<path d="M72.0031 155.989C72.0031 155.989 69.4064 151.403 68.0327 151.095C66.659 150.788 64.0565 152.626 64.6651 155.073C65.2737 157.519 65.7374 161.647 66.5025 162.105C67.2676 162.563 68.4906 165.317 69.7136 164.552C69.8745 164.469 70.0137 164.349 70.1202 164.203C70.2266 164.056 70.2973 163.887 70.3266 163.708C70.3559 163.53 70.343 163.347 70.2889 163.174C70.2347 163.001 70.141 162.844 70.015 162.714" fill="#F2F6FA"/>
<path d="M72.0031 155.989C72.0031 155.989 69.4064 151.403 68.0327 151.095C66.659 150.788 64.0565 152.626 64.6651 155.073C65.2737 157.519 65.7374 161.647 66.5025 162.105C67.2676 162.563 68.4906 165.317 69.7136 164.552C69.8745 164.469 70.0137 164.349 70.1202 164.203C70.2266 164.056 70.2973 163.887 70.3266 163.708C70.3559 163.53 70.343 163.347 70.2889 163.174C70.2347 163.001 70.141 162.844 70.015 162.714" stroke="#263238" stroke-linecap="round" stroke-linejoin="round"/>
</g>
<path id="Vector_180" d="M101.048 191.447C100.785 192.576 100.448 193.688 100.039 194.774" stroke="#263238" stroke-linecap="round" stroke-linejoin="round"/>
<path id="Vector_181" d="M99.106 196.989C98.1822 199.095 96.8277 200.985 95.1298 202.537" stroke="#263238" stroke-linecap="round" stroke-linejoin="round"/>
<path id="Vector_182" d="M115.584 203.233C114.79 203.128 113.173 204.131 111.689 205.424" stroke="#263238" stroke-linecap="round" stroke-linejoin="round"/>
<path id="Vector_183" d="M110.6 206.45C109.441 207.65 108.542 208.92 108.542 209.731" stroke="#263238" stroke-linecap="round" stroke-linejoin="round"/>
<path id="Vector_184" d="M26.3235 200.108C26.3235 200.108 29.6215 201.023 29.6505 203.852" stroke="#263238" stroke-linecap="round" stroke-linejoin="round"/>
<path id="Vector_185" d="M38.6809 184.663C39.2284 185.276 39.7265 185.931 40.1705 186.622" stroke="#263238" stroke-linecap="round" stroke-linejoin="round"/>
<path id="Vector_186" d="M41.4746 189.011C42.1233 190.42 42.4727 191.948 42.5005 193.499C42.5005 198.27 41.1269 201.035 41.1269 201.035" stroke="#263238" stroke-linecap="round" stroke-linejoin="round"/>
<path id="Vector_187" d="M58.7067 179.985C59.5811 180.798 60.5171 181.542 61.5062 182.21" stroke="#263238" stroke-linecap="round" stroke-linejoin="round"/>
<path id="Vector_188" d="M64.4159 183.95C67.3777 185.446 71.209 186.57 75.1852 185.579" stroke="#263238" stroke-linecap="round" stroke-linejoin="round"/>
<g id="Group_7" opacity="0.2">
<path id="Vector_189" opacity="0.2" d="M70.6294 132.983C71.6648 132.825 72.7121 132.757 73.7593 132.78" stroke="#F2F6FA" stroke-linecap="round" stroke-linejoin="round"/>
<path id="Vector_190" opacity="0.2" d="M75.2837 132.862C78.118 133.129 81.6073 134.12 83.7751 137.111" stroke="#F2F6FA" stroke-linecap="round" stroke-linejoin="round"/>
<path id="Vector_191" opacity="0.2" d="M77.5095 130.659C77.5095 130.659 82.8245 130.717 86.6326 133.377" stroke="#F2F6FA" stroke-linecap="round" stroke-linejoin="round"/>
<path id="Vector_192" opacity="0.2" d="M88.1281 134.671C88.8097 135.383 89.3557 136.214 89.7394 137.123" stroke="#F2F6FA" stroke-linecap="round" stroke-linejoin="round"/>
<path id="Vector_193" opacity="0.2" d="M69.2557 135.25C69.2557 135.25 74.4723 137.088 76.2865 140.376" stroke="#F2F6FA" stroke-linecap="round" stroke-linejoin="round"/>
<path id="Vector_194" opacity="0.2" d="M66.7286 137.112C67.859 138.678 68.6721 140.451 69.1224 142.329" stroke="#F2F6FA" stroke-linecap="round" stroke-linejoin="round"/>
<path id="Vector_195" opacity="0.2" d="M69.447 144.909C69.4539 145.602 69.3898 146.293 69.2557 146.973" stroke="#F2F6FA" stroke-linecap="round" stroke-linejoin="round"/>
<path id="Vector_196" opacity="0.2" d="M63.2161 139.251C62.9476 139.933 62.7249 140.632 62.5495 141.343" stroke="#F2F6FA" stroke-linecap="round" stroke-linejoin="round"/>
<path id="Vector_197" opacity="0.2" d="M62.138 143.367C61.8336 145.175 61.8102 147.019 62.0684 148.834" stroke="#F2F6FA" stroke-linecap="round" stroke-linejoin="round"/>
</g>
<g id="Vector_198">
<path d="M131.622 228H204.77V217.692H1V228H42.1992" fill="#F2F6FA"/>
<path d="M131.622 228H204.77V217.692H1V228H42.1992" stroke="#263238" stroke-linecap="round" stroke-linejoin="round"/>
</g>
<path id="Vector_199" d="M126.371 228H115.984" stroke="#263238" stroke-linecap="round" stroke-linejoin="round"/>
</g>
</g>
</g>
</svg>
