<svg width="375" height="341" viewBox="0 0 375 341" fill="none" xmlns="http://www.w3.org/2000/svg">
<path d="M16.4475 38.2651C19.4151 39.4534 26.6719 39.3076 26.6798 39.3076C26.6877 39.3076 25.0971 34.9335 24.9863 34.6638C23.3878 31.5946 18.3468 26.5498 14.2712 27.0309C13.591 27.1303 12.9411 27.3608 12.3641 27.7072C11.7871 28.0536 11.2958 28.5083 10.9225 29.0414C10.5491 29.5746 10.3019 30.1743 10.1971 30.8014C10.0924 31.4285 10.1323 32.0689 10.3144 32.6808C11.0029 35.298 13.9151 37.2445 16.4475 38.2651Z" fill="#5F0A61"/>
<path d="M89.8861 39.7304C89.9494 39.7304 91.2077 35.2906 91.2551 34.999C91.7616 31.6237 90.5983 24.8365 86.871 23.1817C86.2444 22.9222 85.5655 22.7872 84.8786 22.7851C84.1916 22.7831 83.5118 22.9143 82.8835 23.17C82.2551 23.4258 81.6921 23.8004 81.2311 24.2696C80.7701 24.7389 80.4215 25.2922 80.2077 25.8936C79.2106 28.4233 80.4768 31.5289 81.9803 33.6576C83.7372 36.1655 89.8861 39.7304 89.8861 39.7304Z" fill="#5F0A61"/>
<path d="M111.562 15.4907C107.447 15.0825 102.564 20.2804 101.06 23.386C100.926 23.6557 99.4221 28.0736 99.4775 28.0736H99.5645C98.7732 28.8828 97.9818 29.7649 97.0796 30.7491C95.4969 32.5643 93.6689 34.6348 91.8804 37.0114C89.9132 39.5499 88.111 42.1936 86.4833 44.9285C84.639 47.9801 83.0975 51.1789 81.8775 54.4859C81.8775 54.5224 81.8775 54.5661 81.8775 54.6026C81.8775 53.4872 81.8775 50.367 81.8142 50.1264C81.3394 46.751 78.2689 40.4888 74.2013 39.7962C73.5201 39.696 72.8237 39.7294 72.1575 39.8943C71.4913 40.0592 70.8705 40.3518 70.3356 40.753C69.8007 41.1542 69.3638 41.655 69.0535 42.2226C68.7433 42.7901 68.5666 43.4116 68.5351 44.0464C68.2977 46.7292 70.4107 49.412 72.4919 51.1033C74.8106 53.0133 81.2523 54.865 81.7667 55.0035C80.6109 58.3972 79.7015 61.858 79.0444 65.3629C78.6488 67.3969 78.3164 69.46 78.0157 71.5377C78.0157 70.5681 78.0157 69.7078 77.9603 69.5912C77.4855 66.2158 74.415 59.9463 70.3474 59.2537C69.6686 59.1569 68.9753 59.1927 68.3126 59.3587C67.6498 59.5247 67.0323 59.8172 66.5002 60.2174C65.9681 60.6175 65.5333 61.1162 65.2241 61.6811C64.9148 62.2461 64.7379 62.8646 64.7049 63.4966C64.4675 66.1794 66.5725 68.8622 68.6617 70.5535C70.7509 72.2448 76.156 73.9362 77.5804 74.3736C77.4775 75.1682 77.3588 75.9628 77.256 76.7575C76.7574 80.5848 76.2826 84.4049 75.6732 88.1374C75.4675 89.4497 75.2063 90.74 74.9531 92.0304C74.9531 91.1702 74.9531 90.4484 74.9056 90.3391C74.4308 86.9637 71.3603 80.7015 67.2927 80.0089C66.6136 79.9097 65.9194 79.9438 65.2556 80.1089C64.5917 80.274 63.9732 80.5663 63.4406 80.9669C62.9079 81.3674 62.4731 81.8671 62.1646 82.4332C61.856 82.9993 61.6808 83.619 61.6503 84.2518C61.4049 86.9273 63.5179 89.6174 65.6071 91.3087C67.6963 93 72.6265 94.5382 74.3121 95.0485C74.0114 96.3681 73.7107 97.6803 73.3545 98.9415C73.0934 99.7945 72.8955 100.64 72.5632 101.486C72.2308 102.331 71.9776 103.163 71.6848 103.986C71.0675 105.561 70.4344 107.187 69.7855 108.71C69.3423 109.775 68.8992 110.773 68.4639 111.787C68.6855 110.482 69.0653 107.916 69.0733 107.697C69.0273 104.702 68.1471 101.767 66.5171 99.1748C66.5316 98.8408 66.5104 98.5062 66.4538 98.176C66.367 97.5529 66.1398 96.9533 65.7868 96.4157C65.4339 95.8782 64.963 95.4144 64.4043 95.0541C63.8456 94.6938 63.2114 94.445 62.5423 94.3235C61.8732 94.202 61.1839 94.2106 60.5186 94.3487C56.5618 95.3256 53.9898 101.792 53.7999 105.189C53.7999 105.393 53.9345 107.58 54.0452 108.958C53.8474 108.156 53.6575 107.376 53.4438 106.552C53.0244 104.927 52.5496 103.308 52.051 101.573L51.2596 99.0508C50.9985 98.2052 50.6107 97.3449 50.2942 96.4774C49.5028 94.4872 48.5927 92.5043 47.6352 90.5213C49.1784 90.1787 54.6546 88.8956 56.8546 87.3428C59.0546 85.79 61.3654 83.2603 61.3416 80.5702C61.3606 79.9375 61.2346 79.3082 60.9719 78.7233C60.7091 78.1384 60.3156 77.6111 59.8168 77.1757C59.318 76.7403 58.7253 76.4066 58.0772 76.1964C57.4291 75.9862 56.7402 75.9041 56.0553 75.9555C51.9402 76.3638 48.3712 82.4001 47.6273 85.739C47.5798 85.9431 47.3345 88.3926 47.2316 89.734C46.646 88.553 46.0683 87.3647 45.4273 86.1837C43.5913 82.7719 41.6129 79.3746 39.6582 75.9774C39.0568 74.9349 38.4791 73.8924 37.8856 72.8499C38.4395 72.7333 45.0079 71.3336 47.4453 69.5912C49.6373 68.0457 51.956 65.516 51.9402 62.8259C51.9579 62.1925 51.8309 61.5628 51.5673 60.9776C51.3038 60.3923 50.9096 59.8647 50.4104 59.4289C49.9111 58.993 49.318 58.6588 48.6695 58.4477C48.021 58.2367 47.3316 58.1536 46.646 58.2039C42.5388 58.6195 38.9698 64.6557 38.218 67.9874C38.1626 68.2352 37.8223 71.7564 37.7827 72.6604C36.4295 70.3713 35.187 68.104 34.0554 65.7566C32.4864 62.6373 31.1383 59.4278 30.0194 56.1481C30.2806 56.0971 37.1417 54.6901 39.6424 52.8821C41.8266 51.3293 44.1532 48.7996 44.1295 46.1095C44.1477 45.4737 44.0199 44.8416 43.7544 44.2545C43.4889 43.6675 43.0916 43.1387 42.5888 42.703C42.0859 42.2673 41.4887 41.9344 40.8364 41.7262C40.184 41.518 39.4913 41.4391 38.8036 41.4948C34.6885 41.9031 31.1194 47.9394 30.3755 51.271C30.3281 51.4897 30.059 54.187 29.964 55.4555H29.7266C28.6981 52.1176 27.9937 48.7021 27.6216 45.2493C27.3921 43.3538 27.2892 41.5386 27.2259 39.7598C28.5158 39.6723 34.4985 38.9433 36.9597 37.5654C39.4208 36.1876 41.969 33.9641 42.2302 31.2886C42.3201 30.6628 42.2666 30.0267 42.0731 29.4212C41.8795 28.8157 41.5502 28.2543 41.1064 27.7734C40.6627 27.2925 40.1143 26.9026 39.4968 26.6291C38.8793 26.3556 38.2064 26.2044 37.5216 26.1854C33.3827 26.1854 29.1173 31.8207 27.9777 35.0576C27.9223 35.2325 27.5029 37.0843 27.1863 38.4402C27.1863 37.6383 27.1389 36.8145 27.1389 36.0418C27.1389 33.1621 27.3446 30.5231 27.5425 28.1902C27.6612 26.8634 27.8036 25.6605 27.946 24.5451C29.1489 23.8161 33.9288 20.674 35.4007 18.4505C36.8726 16.227 38.0122 13.1506 36.9834 10.65C36.7539 10.0526 36.3902 9.50652 35.9159 9.04743C35.4417 8.58833 34.8677 8.22657 34.2314 7.98576C33.5951 7.74495 32.9107 7.63052 32.2231 7.64994C31.5355 7.66936 30.8601 7.8222 30.241 8.09846C26.5691 9.84811 25.5957 16.6571 26.205 20.0179C26.2604 20.3095 27.6453 24.7565 27.7086 24.7201C27.7347 24.706 27.7586 24.6888 27.7799 24.6691C27.6216 25.748 27.4633 26.8999 27.313 28.1684C27.0597 30.5012 26.7986 33.1403 26.7273 36.0345C26.6126 39.1516 26.6945 42.2722 26.9727 45.3805C27.2636 48.8612 27.8913 52.311 28.8482 55.6888C28.8517 55.7301 28.8517 55.7715 28.8482 55.8127C28.2389 54.8504 26.3238 52.2697 26.1417 52.0656C23.7676 49.4922 17.4367 45.8325 13.6065 47.3197C12.9819 47.5836 12.4246 47.9656 11.9707 48.4409C11.5168 48.9162 11.1766 49.4742 10.9721 50.0785C10.7676 50.6829 10.7034 51.3201 10.7837 51.9488C10.864 52.5775 11.087 53.1836 11.4382 53.7278C12.8468 56.0825 16.1864 57.2489 18.9403 57.6134C22.0266 58.029 28.5 56.3012 29.0144 56.1554C30.0934 59.573 31.4152 62.9216 32.9712 66.1794C33.8655 68.0748 34.823 69.9703 35.8122 71.8512C35.2266 71.0492 34.6885 70.3421 34.6014 70.2546C32.1878 67.6739 25.8964 64.0142 22.0662 65.5014C21.4416 65.7653 20.8842 66.1473 20.4304 66.6226C19.9765 67.0979 19.6362 67.6559 19.4317 68.2603C19.2272 68.8646 19.1631 69.5019 19.2434 70.1306C19.3237 70.7593 19.5467 71.3654 19.8979 71.9095C21.3065 74.2715 24.6461 75.4306 27.4 75.8024C30.154 76.1742 35.7252 74.7964 37.1971 74.4173C37.5849 75.1463 37.9885 75.8754 38.3525 76.6044C40.228 80.0453 42.1194 83.4717 43.892 86.8835C44.5014 88.0864 45.0633 89.2966 45.6251 90.5286C45.0949 89.7996 44.6438 89.231 44.5726 89.1435C42.151 86.5701 35.8676 82.9104 32.0295 84.3976C31.4049 84.6615 30.8475 85.0435 30.3936 85.5188C29.9398 85.9941 29.5995 86.5521 29.395 87.1564C29.1905 87.7608 29.1263 88.398 29.2066 89.0267C29.287 89.6554 29.51 90.2615 29.8612 90.8056C31.2698 93.1604 34.6093 94.3268 37.3712 94.6913C40.1331 95.0558 45.1503 93.8238 46.8676 93.3791C47.3978 94.6257 47.9359 95.8796 48.3949 97.1117C48.6877 97.9573 49.028 98.752 49.2733 99.6195C49.5186 100.487 49.7877 101.318 50.0647 102.156C50.492 103.789 50.9352 105.466 51.3071 107.063C51.5762 108.171 51.8057 109.25 52.0431 110.3C51.4496 109.097 50.223 106.764 50.0963 106.582C48.1338 103.702 42.4992 99.1967 38.487 100.137C37.8294 100.314 37.2193 100.616 36.6963 101.024C36.1733 101.431 35.7489 101.936 35.4506 102.504C35.1523 103.072 34.9866 103.692 34.9644 104.322C34.9422 104.953 35.0639 105.581 35.3216 106.166C36.3266 108.696 39.4604 110.314 42.1036 111.058C45.0079 111.882 51.4337 111.131 52.2409 111.058C52.6287 112.822 52.9848 114.55 53.2934 116.161C54.3618 121.767 55.0265 126.477 55.446 129.801H58.2474C58.2474 129.721 58.2474 129.655 58.2474 129.575C57.7488 126.221 56.9575 121.439 55.7309 115.724C55.351 113.923 54.8999 112.013 54.4172 110.044C56.3548 109.333 58.2443 108.515 60.0754 107.595C62.1884 109.709 67.6171 112.18 68.3215 112.494C67.5776 114.171 66.8416 115.789 66.1215 117.305C63.6603 122.525 61.3733 126.783 59.7905 129.779H62.869C64.3884 126.819 66.3351 122.875 68.4085 118.188C69.1999 116.489 69.9358 114.666 70.7114 112.786C71.5027 112.931 77.8337 114.127 80.825 113.515C83.5156 112.953 86.7761 111.554 87.9473 109.097C88.2527 108.53 88.425 107.91 88.4528 107.278C88.4806 106.646 88.3634 106.016 88.1087 105.428C87.854 104.841 87.4677 104.309 86.9749 103.868C86.482 103.428 85.8939 103.088 85.2487 102.871C81.2919 101.653 75.3409 105.787 73.1488 108.492C73.0142 108.659 71.8272 110.555 71.0912 111.765C71.4078 110.992 71.7164 110.249 72.025 109.447C72.6581 107.879 73.2279 106.29 73.8531 104.591L74.6445 102.069C74.9373 101.231 75.1272 100.312 75.3804 99.4299C75.9106 97.3668 76.3459 95.2527 76.7257 93.1094C78.2214 93.6124 83.5552 95.2964 86.325 95.1433C89.0948 94.9902 92.5293 94.0352 94.1199 91.7825C94.5182 91.2633 94.7929 90.6723 94.9259 90.0485C95.059 89.4246 95.0474 88.7818 94.892 88.1623C94.7366 87.5429 94.4408 86.9606 94.0241 86.4538C93.6074 85.947 93.0791 85.527 92.4739 85.2214C88.802 83.4717 82.1862 86.6794 79.5905 89.0925C79.4243 89.2455 77.7545 91.1629 76.8603 92.2272C77.0819 90.9442 77.3114 89.6611 77.4855 88.3489C77.9919 84.5725 78.3797 80.7306 78.7833 76.9033C78.9099 75.7295 79.0524 74.5631 79.179 73.3967C79.7092 73.5789 86.0084 75.7368 89.1027 75.54C91.8566 75.3577 95.307 74.4319 96.9055 72.1719C97.3051 71.653 97.5808 71.0621 97.7145 70.438C97.8483 69.8139 97.837 69.1707 97.6815 68.5509C97.526 67.9311 97.2298 67.3486 96.8123 66.8419C96.3949 66.3351 95.8657 65.9155 95.2595 65.6108C91.5797 63.8611 84.9718 67.0688 82.3761 69.4818C82.1782 69.6641 79.7804 72.3979 79.2106 73.1269C79.5113 70.5462 79.8279 68.0238 80.2552 65.4722C80.81 62.0727 81.6031 58.7097 82.6293 55.4045C82.8746 55.492 89.4351 57.7738 92.6005 57.5916C95.3545 57.4166 98.8048 56.4834 100.403 54.2308C100.802 53.7115 101.076 53.1206 101.209 52.4967C101.342 51.8728 101.331 51.2301 101.175 50.6106C101.02 49.9911 100.724 49.4089 100.308 48.902C99.8908 48.3952 99.3625 47.9752 98.7573 47.6696C95.0775 45.92 88.4696 49.1276 85.8739 51.5407C85.6998 51.7011 83.8718 53.8007 83.025 54.8213L82.8193 54.7192C83.9291 51.4425 85.3539 48.2636 87.0768 45.2201C88.0185 43.5288 89.0235 41.9541 90.0365 40.445C91.2077 40.9845 96.6048 43.3611 99.4775 43.5069C102.35 43.6527 105.808 43.0258 107.636 40.9481C108.09 40.4726 108.429 39.9147 108.633 39.3105C108.837 38.7063 108.901 38.0694 108.82 37.4411C108.74 36.8127 108.516 36.207 108.165 35.6633C107.814 35.1195 107.343 34.6499 106.782 34.2848C103.331 32.178 96.3991 34.7077 93.5106 36.8291C93.3523 36.9457 91.9278 38.2871 90.8516 39.2713C91.3185 38.5933 91.7854 37.8862 92.2523 37.2519C93.9775 34.8462 95.7264 32.7466 97.2854 30.9022C98.1875 29.8597 99.0185 28.9265 99.8098 28.0663C101.258 28.0663 107.114 27.8767 109.678 26.7759C112.242 25.6751 115.028 23.6776 115.629 21.0458C115.794 20.4328 115.818 19.7947 115.699 19.1728C115.579 18.5508 115.319 17.9589 114.936 17.4353C114.553 16.9117 114.054 16.468 113.473 16.133C112.892 15.7981 112.24 15.5793 111.562 15.4907Z" fill="#5F0A61"/>
<path d="M368.011 304.656C364.996 303.57 357.723 303.978 357.723 303.978C357.723 303.978 359.464 308.294 359.615 308.556C361.332 311.567 366.579 316.459 370.654 315.803C371.328 315.676 371.964 315.42 372.524 315.052C373.083 314.684 373.552 314.212 373.9 313.666C374.249 313.12 374.469 312.513 374.546 311.884C374.624 311.255 374.557 310.618 374.35 310.014C373.551 307.426 370.567 305.589 368.011 304.656Z" fill="#5F0A61"/>
<path d="M294.549 305.764C294.478 305.727 293.409 310.247 293.378 310.546C293.006 313.929 294.454 320.672 298.244 322.211C298.879 322.449 299.561 322.562 300.246 322.542C300.931 322.522 301.604 322.37 302.221 322.095C302.839 321.82 303.386 321.429 303.828 320.946C304.271 320.464 304.598 319.901 304.789 319.294C305.683 316.728 304.29 313.674 302.7 311.596C300.84 309.117 294.549 305.764 294.549 305.764Z" fill="#5F0A61"/>
<path d="M273.894 330.755C278.017 331.017 282.686 325.652 284.063 322.495C284.182 322.225 285.503 317.756 285.424 317.756H285.337C286.081 316.918 286.872 316.007 287.711 314.993C289.239 313.12 290.956 310.991 292.649 308.549C294.508 305.942 296.199 303.238 297.714 300.449C299.424 297.333 300.83 294.084 301.916 290.739C301.921 290.698 301.921 290.656 301.916 290.615C301.916 291.738 302.13 294.85 302.169 295.091C302.787 298.445 306.126 304.568 310.21 305.144C310.892 305.219 311.583 305.161 312.239 304.972C312.895 304.784 313.5 304.471 314.016 304.053C314.531 303.634 314.945 303.12 315.23 302.545C315.515 301.969 315.665 301.345 315.67 300.712C315.805 298.022 313.581 295.412 311.452 293.793C309.078 291.971 302.541 290.345 302.027 290.221C303.038 286.792 303.802 283.304 304.314 279.782C304.623 277.726 304.868 275.655 305.105 273.57C305.161 274.533 305.224 275.393 305.24 275.517C305.857 278.87 309.197 284.994 313.28 285.57C313.962 285.645 314.654 285.586 315.31 285.398C315.965 285.21 316.571 284.897 317.086 284.478C317.601 284.06 318.015 283.546 318.3 282.971C318.585 282.395 318.735 281.77 318.741 281.138C318.875 278.448 316.651 275.838 314.523 274.219C312.394 272.601 306.846 271.092 305.375 270.72C305.454 269.918 305.533 269.116 305.604 268.321C305.944 264.48 306.261 260.645 306.696 256.898C306.854 255.578 307.052 254.281 307.258 252.983C307.305 253.836 307.353 254.558 307.377 254.667C307.986 258.02 311.333 264.144 315.409 264.727C316.092 264.801 316.784 264.742 317.44 264.553C318.096 264.364 318.702 264.05 319.218 263.631C319.734 263.212 320.148 262.698 320.434 262.122C320.72 261.546 320.871 260.921 320.877 260.288C321.004 257.598 318.78 254.995 316.659 253.369C314.538 251.744 309.537 250.388 307.772 249.936C308.018 248.616 308.263 247.289 308.564 246.013C308.793 245.153 308.944 244.308 309.228 243.447C309.513 242.587 309.743 241.749 310.02 240.918C310.574 239.321 311.136 237.674 311.721 236.128C312.117 235.056 312.513 234.036 312.916 233.008C312.75 234.32 312.473 236.901 312.481 237.119C312.651 240.108 313.648 243.006 315.377 245.54C315.382 245.875 315.42 246.209 315.488 246.538C315.595 247.166 315.844 247.766 316.221 248.299C316.597 248.832 317.091 249.285 317.671 249.63C318.251 249.974 318.904 250.201 319.586 250.297C320.268 250.392 320.964 250.354 321.629 250.183C325.586 249.068 327.849 242.514 327.897 239.117C327.897 238.913 327.667 236.733 327.493 235.355C327.731 236.15 327.944 236.923 328.197 237.739C328.688 239.35 329.226 240.947 329.78 242.667C330.089 243.491 330.397 244.315 330.706 245.153C331.015 245.992 331.426 246.845 331.782 247.698C332.653 249.659 333.642 251.605 334.687 253.53C333.151 253.923 327.731 255.403 325.602 257.036C323.473 258.669 321.265 261.265 321.392 263.955C321.4 264.587 321.553 265.211 321.84 265.786C322.128 266.361 322.543 266.874 323.06 267.291C323.576 267.708 324.182 268.021 324.838 268.209C325.494 268.396 326.186 268.454 326.868 268.38C330.959 267.826 334.275 261.673 334.884 258.312C334.884 258.108 335.066 255.651 335.114 254.302C335.755 255.469 336.38 256.628 337.069 257.787C339.047 261.133 341.16 264.458 343.257 267.789C343.898 268.803 344.523 269.831 345.156 270.851C344.61 270.982 338.121 272.615 335.739 274.438C333.61 276.064 331.395 278.674 331.529 281.364C331.536 281.997 331.688 282.621 331.975 283.197C332.262 283.772 332.678 284.285 333.194 284.703C333.711 285.12 334.318 285.433 334.974 285.62C335.631 285.807 336.323 285.865 337.005 285.789C341.097 285.235 344.413 279.074 345.022 275.721C345.069 275.466 345.267 271.937 345.267 271.033C346.66 273.286 348.021 275.539 349.264 277.813C350.966 280.879 352.446 284.045 353.695 287.291C353.442 287.356 346.668 289.026 344.199 290.892C342.078 292.518 339.862 295.127 339.997 297.818C340.004 298.45 340.156 299.074 340.442 299.649C340.729 300.224 341.144 300.736 341.659 301.154C342.175 301.571 342.781 301.884 343.436 302.072C344.092 302.259 344.783 302.317 345.465 302.243C349.564 301.689 352.88 295.528 353.482 292.175C353.521 291.956 353.679 289.259 353.719 287.983H353.956C355.122 291.273 355.967 294.652 356.481 298.08C356.789 299.961 356.971 301.776 357.098 303.548C355.808 303.737 349.889 304.678 347.491 306.136C345.093 307.594 342.671 309.905 342.482 312.587C342.414 313.218 342.491 313.854 342.707 314.455C342.924 315.056 343.276 315.608 343.739 316.075C344.203 316.543 344.768 316.915 345.398 317.169C346.028 317.422 346.709 317.55 347.396 317.545C351.527 317.406 355.563 311.625 356.568 308.345C356.615 308.17 356.956 306.303 357.185 304.94C357.225 305.742 357.296 306.566 357.32 307.331C357.438 310.211 357.32 312.857 357.248 315.197C357.177 316.524 357.09 317.727 356.995 318.842C355.824 319.644 351.171 322.925 349.794 325.192C348.417 327.459 347.42 330.587 348.583 333.051C348.838 333.638 349.225 334.17 349.718 334.61C350.21 335.051 350.798 335.391 351.443 335.609C352.088 335.827 352.775 335.918 353.46 335.875C354.145 335.833 354.813 335.658 355.42 335.362C359.021 333.481 359.702 326.614 358.958 323.304C358.894 323.02 357.32 318.616 357.264 318.66C357.238 318.674 357.214 318.691 357.193 318.711C357.312 317.632 357.423 316.473 357.517 315.205C357.668 312.857 357.818 310.211 357.771 307.317C357.762 304.198 357.553 301.082 357.146 297.985C356.704 294.528 355.934 291.112 354.843 287.779L354.795 287.662C355.484 288.581 357.502 291.089 357.684 291.264C360.208 293.75 366.666 297.191 370.409 295.565C371.022 295.28 371.563 294.879 371.997 294.389C372.43 293.898 372.747 293.329 372.926 292.718C373.105 292.108 373.143 291.469 373.036 290.844C372.93 290.219 372.682 289.622 372.308 289.091C370.804 286.78 367.394 285.738 364.648 285.446C361.553 285.14 355.151 287.094 354.645 287.254C353.451 283.862 352.013 280.547 350.34 277.332C349.374 275.459 348.33 273.607 347.261 271.762C347.887 272.535 348.448 273.22 348.543 273.315C351.068 275.801 357.525 279.242 361.269 277.616C361.882 277.331 362.423 276.931 362.856 276.44C363.29 275.95 363.607 275.381 363.786 274.77C363.965 274.159 364.003 273.521 363.896 272.896C363.79 272.271 363.542 271.673 363.168 271.143C361.664 268.832 358.253 267.789 355.507 267.498C352.761 267.206 347.23 268.788 345.782 269.218C345.362 268.489 344.99 267.811 344.531 267.104C342.513 263.736 340.487 260.375 338.604 257.022C337.939 255.841 337.338 254.66 336.728 253.479C337.282 254.164 337.757 254.74 337.836 254.82C340.361 257.306 346.818 260.747 350.561 259.129C351.175 258.843 351.716 258.441 352.15 257.95C352.583 257.459 352.9 256.889 353.079 256.278C353.258 255.667 353.296 255.028 353.189 254.402C353.083 253.777 352.834 253.179 352.461 252.648C350.957 250.337 347.546 249.294 344.8 249.002C342.054 248.711 337.061 250.147 335.304 250.65C334.718 249.425 334.125 248.193 333.618 247.005C333.294 246.167 332.914 245.379 332.637 244.526L331.767 242.018C331.276 240.407 330.754 238.745 330.318 237.163C330.01 236.062 329.733 234.976 329.456 233.948C330.097 235.129 331.41 237.418 331.545 237.593C333.634 240.4 339.459 244.701 343.415 243.622C344.068 243.425 344.669 243.104 345.178 242.679C345.688 242.255 346.094 241.736 346.372 241.157C346.649 240.578 346.792 239.952 346.79 239.319C346.788 238.687 346.641 238.061 346.359 237.484C345.259 234.998 342.054 233.482 339.387 232.833C336.451 232.104 330.057 233.095 329.258 233.219C328.799 231.462 328.372 229.749 327.992 228.116C326.694 222.554 325.831 217.866 325.277 214.564L322.476 214.666C322.476 214.739 322.476 214.804 322.515 214.884C323.156 218.216 324.138 222.969 325.602 228.612C326.061 230.398 326.591 232.301 327.185 234.24C325.285 235.024 323.435 235.908 321.645 236.886C319.445 234.852 313.921 232.57 313.209 232.286C313.874 230.587 314.546 228.94 315.203 227.402C317.443 222.094 319.532 217.749 321.044 214.717L317.973 214.826C316.572 217.83 314.808 221.839 312.908 226.6C312.22 228.32 311.523 230.172 310.827 232.082C310.036 231.958 303.633 230.988 300.69 231.71C298.031 232.366 294.826 233.897 293.726 236.376C293.444 236.954 293.298 237.579 293.297 238.212C293.296 238.846 293.44 239.472 293.719 240.05C293.999 240.629 294.407 241.146 294.918 241.57C295.429 241.993 296.031 242.312 296.685 242.507C300.642 243.579 306.467 239.27 308.556 236.456C308.682 236.296 309.79 234.356 310.471 233.124C310.194 233.904 309.909 234.655 309.632 235.465C309.07 237.054 308.564 238.665 308.01 240.385C307.772 241.224 307.535 242.077 307.298 242.937C307.06 243.797 306.886 244.709 306.672 245.598C306.221 247.676 305.881 249.804 305.588 251.955C304.069 251.51 298.664 249.987 295.91 250.264C293.156 250.541 289.753 251.59 288.257 253.909C287.885 254.441 287.639 255.039 287.534 255.664C287.43 256.289 287.469 256.928 287.65 257.539C287.83 258.149 288.148 258.718 288.583 259.208C289.017 259.698 289.559 260.098 290.172 260.382C293.916 262.001 300.373 258.545 302.89 256.059C303.048 255.899 304.631 253.931 305.485 252.83C305.319 254.12 305.145 255.411 305.018 256.73C304.67 260.521 304.441 264.37 304.227 268.212C304.156 269.386 304.061 270.56 303.974 271.733C303.444 271.566 297.057 269.626 293.971 269.94C291.233 270.21 287.822 271.267 286.318 273.585C285.947 274.117 285.7 274.715 285.596 275.34C285.491 275.966 285.53 276.604 285.711 277.215C285.891 277.825 286.209 278.394 286.644 278.884C287.078 279.374 287.62 279.774 288.234 280.059C291.977 281.67 298.434 278.222 300.951 275.736C301.141 275.546 303.42 272.703 303.966 271.952C303.776 274.533 303.562 277.106 303.238 279.636C302.818 283.052 302.16 286.439 301.267 289.776C301.022 289.696 294.375 287.648 291.209 287.969C288.471 288.238 285.052 289.295 283.557 291.614C283.185 292.146 282.938 292.745 282.833 293.371C282.729 293.997 282.768 294.636 282.948 295.247C283.129 295.858 283.447 296.427 283.882 296.918C284.316 297.408 284.858 297.809 285.472 298.095C289.215 299.706 295.672 296.257 298.189 293.764C298.355 293.604 300.088 291.439 300.895 290.389L301.109 290.484C300.107 293.82 298.783 297.068 297.152 300.187C296.282 301.915 295.348 303.518 294.398 305.064C293.203 304.568 287.703 302.345 284.831 302.337C281.958 302.33 278.555 303.067 276.79 305.181C276.355 305.671 276.037 306.24 275.857 306.851C275.678 307.462 275.64 308.102 275.747 308.727C275.853 309.353 276.102 309.951 276.477 310.481C276.852 311.012 277.345 311.464 277.922 311.807C281.452 313.79 288.273 311.02 291.075 308.797C291.225 308.673 292.657 307.288 293.631 306.267C293.187 306.959 292.752 307.681 292.309 308.337C290.726 310.794 289.025 312.952 287.561 314.855C286.706 315.934 285.907 316.889 285.187 317.771C283.739 317.844 277.89 318.216 275.382 319.411C272.873 320.607 270.159 322.692 269.668 325.338C269.527 325.952 269.527 326.587 269.667 327.201C269.807 327.815 270.085 328.396 270.483 328.906C270.88 329.416 271.389 329.843 271.977 330.162C272.564 330.48 273.217 330.682 273.894 330.755Z" fill="#5F0A61"/>
<g opacity="0.2">
<path opacity="0.2" d="M284.071 11.0873C284.071 11.0873 283.652 11.0873 282.892 11.0873" stroke="black" stroke-linecap="round" stroke-linejoin="round"/>
<path opacity="0.2" d="M280.518 11.1458C271.868 11.5905 249.449 14.6669 235.861 34.0151C220.627 55.7107 230.076 93.3426 229.071 117.677C227.766 149.237 220.24 185.338 189.78 204.27C155.791 225.412 110.731 220.987 73.3466 233.897C23.5777 251.088 15.7986 296.192 32.1324 319.112C61.2625 360.01 124.769 332.964 151.011 304.999C162.462 292.788 171.642 277.442 185.166 267.09C196.799 258.188 211.899 254.135 226.531 251.78C263.923 245.729 303.824 239.62 337.654 222.911C372.704 205.604 380.72 167.921 365.874 135.728C351.131 103.775 316.81 82.5094 280.961 74.8474C201.872 57.8977 177.371 82.801 137.083 39.2786" stroke="black" stroke-linecap="round" stroke-linejoin="round" stroke-dasharray="3 3"/>
<path opacity="0.2" d="M136.315 38.4326L135.524 37.5942" stroke="black" stroke-linecap="round" stroke-linejoin="round"/>
</g>
<path opacity="0.2" d="M90.0129 305.348C89.9973 304.316 89.6083 303.318 88.9073 302.512C88.2064 301.707 87.2336 301.14 86.1433 300.901C85.053 300.663 83.9074 300.766 82.8881 301.196C81.8689 301.625 81.0342 302.355 80.5165 303.271C79.9988 302.355 79.1642 301.625 78.1449 301.196C77.1256 300.766 75.9801 300.663 74.8897 300.901C73.7994 301.14 72.8267 301.707 72.1257 302.512C71.4248 303.318 71.0357 304.316 71.0201 305.348C71.0201 307.718 72.9827 310.131 74.9295 311.53C76.7065 312.749 78.5559 313.876 80.469 314.906C82.3844 313.88 84.234 312.753 86.0086 311.53C87.8683 310.204 90.0129 307.608 90.0129 305.348Z" stroke="black" stroke-linecap="round" stroke-linejoin="round"/>
<path opacity="0.2" d="M68.4322 318.755C68.4303 317.386 67.9271 316.057 67.0041 314.983C66.0811 313.91 64.7921 313.155 63.3455 312.839C61.8989 312.524 60.3792 312.667 59.0319 313.246C57.6847 313.825 56.5886 314.805 55.9208 316.028C55.253 314.805 54.1569 313.825 52.8096 313.246C51.4623 312.667 49.9426 312.524 48.496 312.839C47.0494 313.155 45.7605 313.91 44.8374 314.983C43.9144 316.057 43.4113 317.386 43.4093 318.755C43.4093 321.868 45.9812 325.025 48.5373 326.869C49.8194 327.795 55.6596 331.396 55.8416 331.294C56.0078 331.396 61.856 327.795 63.138 326.869C65.5596 325.119 68.4322 321.722 68.4322 318.755Z" stroke="black" stroke-linecap="round" stroke-linejoin="round"/>
<path opacity="0.2" d="M254.276 324.485C254.271 323.116 253.764 321.788 252.838 320.717C251.912 319.646 250.62 318.895 249.173 318.584C247.725 318.274 246.206 318.423 244.861 319.007C243.517 319.591 242.426 320.576 241.765 321.802C241.102 320.573 240.008 319.586 238.659 319.003C237.311 318.419 235.788 318.273 234.338 318.589C232.888 318.904 231.596 319.661 230.673 320.739C229.75 321.816 229.25 323.149 229.253 324.522C229.253 327.635 231.833 330.791 234.389 332.636C235.671 333.561 241.512 337.163 241.686 337.061C241.86 337.163 247.7 333.561 248.982 332.636C251.412 330.849 254.276 327.452 254.276 324.485Z" stroke="black" stroke-linecap="round" stroke-linejoin="round"/>
<path opacity="0.2" d="M341.215 21.6363C341.218 20.712 340.881 19.8142 340.259 19.0886C339.638 18.363 338.768 17.8524 337.792 17.6395C336.816 17.4267 335.79 17.5243 334.881 17.9163C333.973 18.3084 333.235 18.9719 332.787 19.7991C332.338 18.9759 331.6 18.3165 330.693 17.9273C329.786 17.5381 328.763 17.4419 327.79 17.6543C326.816 17.8667 325.949 18.3753 325.328 19.0978C324.707 19.8203 324.368 20.7147 324.367 21.6363C324.367 23.7285 326.1 25.8573 327.826 27.0966C329.402 28.1708 331.04 29.1661 332.732 30.0783C334.428 29.1682 336.069 28.1728 337.646 27.0966C339.277 25.9156 341.215 23.6338 341.215 21.6363Z" stroke="black" stroke-linecap="round" stroke-linejoin="round"/>
<path opacity="0.2" d="M32.4727 306.741C32.4791 305.815 32.1448 304.915 31.5243 304.188C30.9038 303.46 30.0338 302.948 29.0564 302.735C28.079 302.521 27.052 302.62 26.1431 303.014C25.2343 303.408 24.4973 304.074 24.0526 304.903C23.6051 304.076 22.8671 303.413 21.9585 303.021C21.05 302.629 20.0242 302.531 19.0479 302.744C18.0716 302.957 17.202 303.467 16.5805 304.193C15.9591 304.919 15.6221 305.816 15.6245 306.741C15.6245 308.833 17.3655 310.954 19.0828 312.201C20.6581 313.278 22.2989 314.271 23.9972 315.175C25.6954 314.271 27.3362 313.278 28.9115 312.201C30.5734 311.02 32.4727 308.731 32.4727 306.741Z" stroke="black" stroke-linecap="round" stroke-linejoin="round"/>
<path opacity="0.2" d="M225.431 315.088C225.434 314.164 225.097 313.266 224.475 312.54C223.854 311.815 222.984 311.304 222.008 311.091C221.031 310.879 220.006 310.976 219.097 311.368C218.189 311.76 217.451 312.424 217.003 313.251C216.553 312.428 215.815 311.768 214.909 311.379C214.002 310.99 212.979 310.894 212.005 311.106C211.032 311.319 210.165 311.827 209.544 312.55C208.923 313.272 208.584 314.167 208.583 315.088C208.583 317.18 210.316 319.309 212.041 320.548C213.618 321.623 215.255 322.618 216.948 323.53C218.644 322.62 220.285 321.625 221.862 320.548C223.5 319.375 225.431 317.086 225.431 315.088Z" stroke="black" stroke-linecap="round" stroke-linejoin="round"/>
<path opacity="0.2" d="M198.533 25.4197C198.539 24.4944 198.205 23.5945 197.584 22.8669C196.964 22.1393 196.094 21.627 195.116 21.4137C194.139 21.2005 193.112 21.2989 192.203 21.6928C191.294 22.0867 190.557 22.7529 190.112 23.5826C189.668 22.7529 188.931 22.0867 188.022 21.6928C187.113 21.2989 186.086 21.2005 185.109 21.4137C184.131 21.627 183.261 22.1393 182.641 22.8669C182.02 23.5945 181.686 24.4944 181.692 25.4197C181.692 27.512 183.425 29.6335 185.143 30.8801C186.723 31.946 188.363 32.934 190.057 33.8399C191.754 32.9327 193.394 31.9397 194.971 30.8655C196.602 29.6991 198.533 27.4099 198.533 25.4197Z" stroke="black" stroke-linecap="round" stroke-linejoin="round"/>
<path opacity="0.2" d="M142.924 23.0649C142.928 22.1403 142.593 21.2415 141.971 20.5151C141.35 19.7888 140.48 19.2778 139.503 19.0655C138.526 18.8532 137.5 18.9521 136.592 19.3461C135.684 19.7401 134.948 20.406 134.503 21.2351C134.056 20.4084 133.319 19.7452 132.411 19.3531C131.503 18.9609 130.479 18.8628 129.503 19.0747C128.527 19.2865 127.657 19.796 127.035 20.5203C126.413 21.2446 126.075 22.1413 126.075 23.0649C126.075 25.1572 127.816 27.2859 129.534 28.5253C131.109 29.604 132.75 30.5995 134.448 31.507C136.146 30.5995 137.787 29.604 139.362 28.5253C140.993 27.3515 142.924 25.0916 142.924 23.0649Z" stroke="black" stroke-linecap="round" stroke-linejoin="round"/>
<path opacity="0.2" d="M315.045 8.06195C315.049 6.61964 314.523 5.2186 313.553 4.08644C312.583 2.95429 311.226 2.15754 309.702 1.82564C308.178 1.49374 306.578 1.64618 305.16 2.25821C303.742 2.87024 302.591 3.90589 301.893 5.19691C301.195 3.90589 300.043 2.87024 298.626 2.25821C297.208 1.64618 295.607 1.49374 294.083 1.82564C292.56 2.15754 291.203 2.95429 290.233 4.08644C289.263 5.2186 288.737 6.61964 288.74 8.06195C288.74 11.328 291.447 14.6231 294.137 16.5915C295.483 17.5611 301.624 21.3447 301.806 21.2426C301.988 21.3447 308.137 17.5975 309.482 16.5915C312.03 14.7543 315.045 11.1822 315.045 8.06195Z" stroke="black" stroke-linecap="round" stroke-linejoin="round"/>
<path d="M341.049 295.237L222.756 298.401C219.711 298.481 216.756 297.444 214.54 295.518C212.325 293.592 211.03 290.934 210.941 288.129L203.597 55.3314C203.553 53.9418 203.806 52.5577 204.343 51.2583C204.879 49.9588 205.688 48.7694 206.723 47.758C207.759 46.7466 209 45.933 210.377 45.3637C211.754 44.7944 213.239 44.4805 214.748 44.4399L333.041 41.276C334.549 41.2342 336.052 41.4668 337.463 41.9606C338.874 42.4544 340.166 43.1997 341.264 44.1537C342.362 45.1078 343.245 46.2519 343.863 47.5206C344.481 48.7894 344.821 50.1579 344.864 51.5478L352.184 284.345C352.271 287.149 351.148 289.87 349.061 291.912C346.973 293.953 344.092 295.149 341.049 295.237Z" fill="#263238" stroke="#263238" stroke-linecap="round" stroke-linejoin="round"/>
<path d="M335.565 295.237L217.288 298.401C215.779 298.442 214.277 298.208 212.866 297.714C211.456 297.22 210.165 296.475 209.067 295.521C207.969 294.567 207.086 293.423 206.468 292.155C205.85 290.887 205.509 289.519 205.465 288.129L198.121 55.3315C198.034 52.5243 199.16 49.8001 201.252 47.7577C203.345 45.7153 206.232 44.5219 209.279 44.44L327.572 41.276C329.08 41.2352 330.583 41.4686 331.993 41.9629C333.403 42.4571 334.693 43.2025 335.791 44.1564C336.888 45.1104 337.77 46.2542 338.387 47.5225C339.005 48.7907 339.344 50.1586 339.387 51.5479L346.731 284.345C346.777 285.737 346.524 287.122 345.987 288.423C345.45 289.724 344.639 290.914 343.602 291.926C342.565 292.938 341.321 293.751 339.942 294.319C338.563 294.887 337.075 295.199 335.565 295.237Z" fill="white" stroke="#263238" stroke-miterlimit="10"/>
<path d="M280.463 288.442C280.434 287.568 280.125 286.721 279.573 286.008C279.022 285.295 278.254 284.749 277.366 284.439C276.478 284.128 275.51 284.067 274.584 284.263C273.659 284.459 272.817 284.904 272.165 285.541C271.514 286.177 271.082 286.978 270.924 287.841C270.767 288.704 270.89 289.59 271.279 290.389C271.668 291.187 272.306 291.861 273.111 292.325C273.916 292.79 274.852 293.024 275.801 292.999C276.432 292.982 277.053 292.851 277.629 292.612C278.205 292.374 278.724 292.034 279.157 291.611C279.59 291.187 279.928 290.69 280.152 290.146C280.376 289.603 280.482 289.024 280.463 288.442V288.442Z" stroke="white" stroke-linecap="round" stroke-linejoin="round"/>
<path d="M333.309 58.4051L204.608 61.8411L211.581 283.486L340.282 280.05L333.309 58.4051Z" fill="white" stroke="#263238" stroke-linecap="round" stroke-linejoin="round"/>
<path d="M329.003 60.8202L318.332 61.1051L318.502 66.4976L329.173 66.2127L329.003 60.8202Z" stroke="#263238" stroke-width="0.821067" stroke-linecap="round" stroke-linejoin="round"/>
<path d="M326.655 60.8829L318.333 61.1051L318.503 66.4976L326.825 66.2754L326.655 60.8829Z" fill="#263238" stroke="#263238" stroke-width="0.725073" stroke-linecap="round" stroke-linejoin="round"/>
<path d="M330.533 62.2893L329.03 62.3294L329.105 64.705L330.608 64.6649L330.533 62.2893Z" fill="#263238" stroke="#263238" stroke-width="0.725073" stroke-linecap="round" stroke-linejoin="round"/>
<path d="M209.588 65.6757L207.634 65.7278L207.731 68.8176L209.685 68.7654L209.588 65.6757Z" fill="#263238" stroke="#263238" stroke-width="0.883086" stroke-linecap="round" stroke-linejoin="round"/>
<path d="M212.635 64.4871L210.681 64.5396L210.813 68.7151L212.767 68.6626L212.635 64.4871Z" fill="#263238" stroke="#263238" stroke-width="0.883086" stroke-linecap="round" stroke-linejoin="round"/>
<path d="M215.669 63.1229L213.715 63.1754L213.888 68.6334L215.842 68.5809L215.669 63.1229Z" fill="#263238" stroke="#263238" stroke-width="0.883086" stroke-linecap="round" stroke-linejoin="round"/>
<path d="M162.09 299.786L43.9315 293.714C42.4245 293.636 40.9488 293.286 39.5887 292.684C38.2286 292.081 37.0108 291.237 36.0047 290.201C34.9986 289.164 34.2241 287.955 33.7253 286.643C33.2265 285.331 33.0133 283.941 33.0977 282.552L47.184 49.9954C47.3596 47.1969 48.7329 44.5769 51.0028 42.71C53.2726 40.8431 56.2536 39.8818 59.2919 40.037L177.458 46.1098C180.501 46.2678 183.351 47.5321 185.383 49.6249C187.414 51.7177 188.461 54.4679 188.292 57.2711L174.206 289.828C174.028 292.627 172.653 295.247 170.382 297.114C168.111 298.981 165.129 299.942 162.09 299.786Z" fill="#263238" stroke="#263238" stroke-linecap="round" stroke-linejoin="round"/>
<path d="M166.118 299.786L47.9594 293.713C46.4525 293.636 44.9768 293.286 43.6167 292.683C42.2566 292.08 41.0387 291.237 40.0327 290.2C39.0266 289.164 38.2521 287.955 37.7533 286.642C37.2545 285.33 37.0412 283.94 37.1257 282.552L51.212 49.995C51.3895 47.1945 52.7656 44.5733 55.0385 42.7064C57.3114 40.8395 60.2953 39.8793 63.3357 40.0366L181.486 46.1093C184.53 46.2655 187.383 47.529 189.416 49.622C191.449 51.715 192.496 54.4662 192.328 57.2706L178.242 289.828C178.066 292.629 176.691 295.251 174.417 297.118C172.144 298.986 169.159 299.945 166.118 299.786Z" fill="white" stroke="#263238" stroke-miterlimit="10"/>
<path d="M111.823 288.72C111.876 287.846 111.647 286.977 111.164 286.223C110.681 285.469 109.967 284.864 109.111 284.484C108.255 284.105 107.296 283.967 106.355 284.09C105.414 284.212 104.534 284.589 103.826 285.172C103.117 285.755 102.612 286.519 102.375 287.366C102.138 288.214 102.179 289.107 102.493 289.933C102.807 290.759 103.379 291.481 104.139 292.007C104.898 292.534 105.809 292.841 106.758 292.89C108.03 292.955 109.278 292.553 110.228 291.771C111.177 290.989 111.751 289.891 111.823 288.72V288.72Z" stroke="white" stroke-linecap="round" stroke-linejoin="round"/>
<path d="M185.645 63.5962L57.0895 56.9958L43.6951 278.391L172.251 284.991L185.645 63.5962Z" fill="#FAFAFA" stroke="#263238" stroke-linecap="round" stroke-linejoin="round"/>
<path d="M181.137 65.6632L170.478 65.1159L170.152 70.5023L180.811 71.0496L181.137 65.6632Z" stroke="#263238" stroke-width="0.821067" stroke-linecap="round" stroke-linejoin="round"/>
<path d="M178.786 65.55L170.474 65.1232L170.148 70.5096L178.46 70.9364L178.786 65.55Z" fill="#263238" stroke="#263238" stroke-width="0.725073" stroke-linecap="round" stroke-linejoin="round"/>
<path d="M182.521 67.252L181.019 67.175L180.876 69.5479L182.377 69.625L182.521 67.252Z" fill="#263238" stroke="#263238" stroke-width="0.725073" stroke-linecap="round" stroke-linejoin="round"/>
<path d="M61.6943 61.2121L59.7427 61.1119L59.556 64.1982L61.5076 64.2984L61.6943 61.2121Z" fill="#263238" stroke="#263238" stroke-width="0.883086" stroke-linecap="round" stroke-linejoin="round"/>
<path d="M64.824 60.2865L62.8723 60.1862L62.62 64.3571L64.5716 64.4573L64.824 60.2865Z" fill="#263238" stroke="#263238" stroke-width="0.883086" stroke-linecap="round" stroke-linejoin="round"/>
<path d="M67.9666 59.1684L66.015 59.0679L65.6841 64.5197L67.6358 64.6203L67.9666 59.1684Z" fill="#263238" stroke="#263238" stroke-width="0.883086" stroke-linecap="round" stroke-linejoin="round"/>
<path d="M294.762 115.665C294.762 115.665 301.6 123.509 302.874 130.799C304.148 138.089 298.537 141.778 296.543 144.549C294.674 147.16 293.517 150.149 293.172 153.26C292.911 155.987 297.089 156.351 297.089 156.351C297.089 156.351 294.216 158.823 287.324 160.128C280.431 161.433 276.458 156.424 276.458 156.424C276.458 156.424 283.398 151.321 284.831 147.093C286.263 142.865 286.762 131.229 286.326 128.525C285.891 125.82 284.585 122.824 284.562 122.022C284.538 121.22 286.501 113.172 294.762 115.665Z" fill="#263238" stroke="#263238" stroke-linecap="round" stroke-linejoin="round"/>
<path d="M311.737 281.327C310.883 275.415 308.097 258.728 308.097 258.728C308.097 258.728 287.268 250.905 266.004 252.166C244.74 253.428 240.601 257.423 240.601 257.423L236.866 283.099H244.78L311.737 281.327Z" fill="#263238" stroke="#263238" stroke-linecap="round" stroke-linejoin="round"/>
<path d="M296.511 217.779L295.625 212.289L316.739 212.829C316.739 212.829 299.7 189.916 298.054 183.121C296.408 176.327 290.893 168.541 285.495 164.495C280.098 160.449 271.488 160.463 271.488 160.463L266.954 160.806L268.196 154.595L253.477 143.31L253.073 145.744C253.073 145.744 251.38 152.845 250.549 156.833C249.718 160.821 248.088 162.191 248.088 162.191C248.088 162.191 239.232 154.493 233.693 153.538C228.153 152.583 220.857 156.308 219.844 162.067C218.831 167.826 223.801 216.685 224.355 220.199C224.909 223.713 232.055 238.25 233.392 242.624C234.729 246.998 240.601 258.524 240.601 258.524C240.601 258.524 252.124 267.039 271.536 268.059C290.948 269.08 309.323 259.552 309.323 259.552C309.323 259.552 302.993 240.758 301.347 234.189C299.7 227.621 296.511 217.779 296.511 217.779ZM245.864 236.114C245.864 236.114 242.588 223.195 241.97 219.018C241.353 214.841 240.269 202.98 240.269 202.98L249.686 220.804L245.864 236.114Z" fill="#5F0A61" stroke="#263238" stroke-linecap="round" stroke-linejoin="round"/>
<path d="M234.832 189.843L233.582 186.832" stroke="#263238" stroke-linecap="round" stroke-linejoin="round"/>
<path d="M240.277 202.972L236.724 194.392" stroke="#263238" stroke-linecap="round" stroke-linejoin="round"/>
<path d="M291.969 216.583C291.969 216.583 286.603 228.627 279.703 237.637" stroke="#263238" stroke-linecap="round" stroke-linejoin="round"/>
<path d="M270.76 254.733C270.104 255.353 269.447 255.936 268.814 256.461" stroke="#263238" stroke-linecap="round" stroke-linejoin="round"/>
<path d="M289.08 231.207C289.08 231.207 281.072 243.812 273.253 252.188" stroke="#263238" stroke-linecap="round" stroke-linejoin="round"/>
<path d="M271.465 160.463L266.93 160.806L268.173 154.595L253.453 143.31L253.05 145.744C253.05 145.744 251.356 152.845 250.525 156.833C249.694 160.821 248.064 162.191 248.064 162.191C245.27 159.803 242.257 157.642 239.058 155.732C240.269 159.377 244.906 171.916 252.583 176.4C261.604 181.671 271.275 177.224 273.253 171.661C274.403 168.123 275.119 164.477 275.39 160.791C274.091 160.598 272.78 160.488 271.465 160.463Z" fill="white" stroke="#263238" stroke-linecap="round" stroke-linejoin="round"/>
<path d="M265.506 160.12L265.11 165.668L269.819 160.791L265.506 160.12Z" fill="#263238" stroke="#263238" stroke-linecap="round" stroke-linejoin="round"/>
<path d="M285.124 183.026C285.124 183.026 286.287 174.395 286.184 171.092C286.081 167.79 283.921 159.909 282.892 157.729C281.863 155.55 276.49 151.948 276.07 153.946C275.651 155.943 276.537 161.236 276.577 162.308C276.616 163.379 276.039 168.06 276.039 168.06C276.039 168.06 276.142 163.868 274.171 162.155C272.201 160.441 270.784 160.923 270.824 162.023V163.124C270.824 163.124 273.087 166.594 273.198 169.459C273.309 172.324 272.992 178.062 273.047 179.826C273.103 181.59 276.838 186.117 277.59 187.196C278.342 188.275 285.29 196.032 285.29 196.032L291.834 191.009L285.124 183.026Z" fill="white" stroke="#263238" stroke-linecap="round" stroke-linejoin="round"/>
<path d="M285.353 167.367C285.353 167.367 281.254 158.881 279.6 159.581C277.946 160.281 281.974 167.454 281.974 167.454L282.765 169.204C282.765 169.204 279.6 175.036 279.173 176.793C278.745 178.55 278.801 180.11 279.299 180.759" fill="white"/>
<path d="M285.353 167.367C285.353 167.367 281.254 158.881 279.6 159.581C277.946 160.281 281.974 167.454 281.974 167.454L282.765 169.204C282.765 169.204 279.6 175.036 279.173 176.793C278.745 178.55 278.801 180.11 279.299 180.759" stroke="#263238" stroke-linecap="round" stroke-linejoin="round"/>
<path d="M288.811 186.015L276.609 201.325C276.609 201.325 285.424 207.704 290.576 211.75C295.728 215.796 306.554 224.996 310.17 225.776C313.787 226.556 319.516 226.191 319.793 219.791C320.07 213.39 317.625 211.691 313.415 207.397C309.205 203.103 288.811 186.015 288.811 186.015Z" fill="#5F0A61" stroke="#263238" stroke-linecap="round" stroke-linejoin="round"/>
<path d="M289.991 124.464C292.11 127.517 293.277 131.048 293.362 134.671C293.322 138.104 289.365 144.148 288.471 147.173C287.577 150.199 284.657 154.463 276.355 157.474C270.024 159.763 266.606 162.031 263.812 159.814C261.019 157.598 253.809 147.778 253.809 147.778C253.809 147.778 267.959 134.459 272.549 130.449C277.139 126.44 283.968 122.569 289.991 124.464Z" fill="white" stroke="#263238" stroke-linecap="round" stroke-linejoin="round"/>
<path d="M280.36 148.157C279.736 148.554 279.023 148.814 278.274 148.917C277.526 149.021 276.761 148.965 276.039 148.755" stroke="#263238" stroke-linecap="round" stroke-linejoin="round"/>
<path d="M269.439 148.449C269.439 148.449 270.048 151.154 274.424 152.473" stroke="#263238" stroke-linecap="round" stroke-linejoin="round"/>
<path d="M272.826 136.828C272.829 137.076 272.908 137.319 273.054 137.527C273.2 137.736 273.407 137.902 273.651 138.007C273.895 138.112 274.166 138.152 274.433 138.121C274.7 138.091 274.953 137.992 275.162 137.835C275.371 137.679 275.528 137.471 275.614 137.236C275.701 137.001 275.714 136.749 275.652 136.507C275.59 136.266 275.455 136.046 275.263 135.872C275.071 135.698 274.83 135.577 274.567 135.523C274.359 135.503 274.15 135.521 273.95 135.576C273.75 135.631 273.563 135.721 273.402 135.842C273.24 135.964 273.106 136.113 273.007 136.282C272.908 136.452 272.846 136.637 272.826 136.828Z" fill="#263238"/>
<path d="M278.452 137.047C278.484 136.754 278.441 136.459 278.328 136.183C278.215 135.908 278.035 135.661 277.802 135.46C277.569 135.259 277.288 135.11 276.983 135.025C276.677 134.94 276.354 134.921 276.039 134.969" stroke="#263238" stroke-linecap="round" stroke-linejoin="round"/>
<path d="M284.918 140.59C284.92 140.795 284.985 140.994 285.105 141.166C285.224 141.338 285.394 141.475 285.595 141.562C285.796 141.649 286.019 141.682 286.24 141.658C286.46 141.633 286.668 141.551 286.84 141.423C287.012 141.294 287.142 141.123 287.213 140.929C287.285 140.736 287.295 140.528 287.244 140.329C287.193 140.13 287.082 139.948 286.924 139.805C286.766 139.662 286.567 139.562 286.35 139.518C286.007 139.49 285.665 139.586 285.397 139.786C285.13 139.986 284.958 140.275 284.918 140.59Z" fill="#263238"/>
<path d="M289.136 141.071C289.167 140.778 289.125 140.481 289.011 140.205C288.898 139.93 288.717 139.681 288.483 139.48C288.249 139.279 287.967 139.131 287.661 139.046C287.354 138.962 287.03 138.944 286.714 138.993" stroke="#263238" stroke-linecap="round" stroke-linejoin="round"/>
<path d="M282.346 133.716C281.209 132.766 279.8 132.138 278.286 131.908C276.805 131.79 275.323 132.118 274.06 132.841" stroke="#263238" stroke-linecap="round" stroke-linejoin="round"/>
<path d="M287.608 137.054C287.608 137.054 289.595 137.215 290.489 139.766" stroke="#263238" stroke-linecap="round" stroke-linejoin="round"/>
<path d="M296.662 118.231C296.662 118.231 287.68 126.148 282.615 129.815C277.55 133.482 275.493 132.906 270.744 138.637C265.996 144.367 261.62 149.258 255.162 151.504C248.705 153.749 240.744 151.504 237.752 149.273C234.761 147.042 234.025 145.227 234.025 145.227C234.025 145.227 238.71 145.081 238.393 140.955C237.024 123.415 236.945 121.162 238.568 115.519C240.19 109.877 249.789 102.47 263.986 102.718C278.183 102.966 290.837 111.335 293.591 112.924C296.345 114.513 297.722 115.92 296.662 118.231Z" fill="#263238" stroke="#263238" stroke-linecap="round" stroke-linejoin="round"/>
<path d="M245.08 141.093C244.185 140.853 243.362 140.426 242.675 139.844C241.989 139.262 241.458 138.542 241.124 137.74" stroke="#696969" stroke-linecap="round" stroke-linejoin="round"/>
<path d="M284.182 119.332C278.777 123.414 270.602 129.808 265.189 135.108C261.234 139.069 255.757 141.449 249.924 141.742" stroke="#696969" stroke-linecap="round" stroke-linejoin="round"/>
<path d="M289.745 115.22C289.745 115.22 288.954 115.782 287.656 116.744" stroke="#696969" stroke-linecap="round" stroke-linejoin="round"/>
<path d="M252.899 132.505C251.765 133.091 250.559 133.548 249.306 133.869C242.517 135.378 240.451 127.147 240.451 127.147" stroke="#696969" stroke-linecap="round" stroke-linejoin="round"/>
<path d="M274.725 118.275C269.043 122.555 263.129 126.568 257.006 130.297" stroke="#696969" stroke-linecap="round" stroke-linejoin="round"/>
<path d="M242.469 122.452C242.469 122.452 244.329 124.391 249.71 123.91C255.091 123.429 261.058 118.632 261.058 118.632" stroke="#696969" stroke-linecap="round" stroke-linejoin="round"/>
<path d="M245.872 236.113L240.768 256.315" stroke="#263238" stroke-linecap="round" stroke-linejoin="round"/>
<path d="M143.786 283.441L149.08 246.145C149.08 246.145 145.796 241.042 132.54 240.313C119.285 239.584 87.6622 251.248 87.6622 251.248L79.8435 280.132L143.786 283.441Z" fill="#263238" stroke="#263238" stroke-linecap="round" stroke-linejoin="round"/>
<path d="M98.4802 143.922L71.8113 133.278L94.3889 116.562L91.5083 110.78C91.5083 110.78 65.5041 118.72 59.5768 121.716C53.6495 124.712 41.4941 129.341 41.3358 132.01C41.1776 134.678 71.3285 159.042 79.3213 163.095C87.3141 167.148 97.7126 173.979 97.7126 173.979C97.7126 173.979 94.5472 214.87 94.3968 216.853C94.2464 218.836 82.6925 262.475 82.6134 263.794C82.5342 265.114 87.7731 266.834 96.4148 266.623C105.056 266.411 117.141 256.759 120.156 254.266C123.171 251.773 130.546 248.842 133.791 248.674C137.035 248.507 149.04 246.145 149.04 246.145L166.925 194.093C166.925 194.093 174.127 164.334 168.286 160.383C162.446 156.432 138.215 152.218 138.215 152.218L111.783 149.535L98.4802 143.922Z" fill="#5F0A61" stroke="#263238" stroke-linecap="round" stroke-linejoin="round"/>
<path d="M112.994 247.814C115.748 245.977 119.325 244.082 122.87 243.579C127.791 242.928 132.753 242.585 137.724 242.551" fill="#5F0A61"/>
<path d="M112.994 247.814C115.748 245.977 119.325 244.082 122.87 243.579C127.791 242.928 132.753 242.585 137.724 242.551" stroke="#263238" stroke-linecap="round" stroke-linejoin="round"/>
<path d="M107.937 251.816C107.937 251.816 108.523 251.255 109.52 250.417L107.937 251.816Z" fill="#5F0A61"/>
<path d="M107.937 251.816C107.937 251.816 108.523 251.255 109.52 250.417" stroke="#263238" stroke-linecap="round" stroke-linejoin="round"/>
<path d="M118.209 241.216C117.017 241.523 115.859 241.933 114.751 242.441L118.209 241.216Z" fill="#5F0A61"/>
<path d="M118.209 241.216C117.017 241.523 115.859 241.933 114.751 242.441" stroke="#263238" stroke-linecap="round" stroke-linejoin="round"/>
<path d="M133.981 240.56C129.972 240.059 125.909 240.044 121.897 240.517L133.981 240.56Z" fill="#5F0A61"/>
<path d="M133.981 240.56C129.972 240.059 125.909 240.044 121.897 240.517" stroke="#263238" stroke-linecap="round" stroke-linejoin="round"/>
<path d="M92.6083 156.964L91.7537 154.135" stroke="#263238" stroke-linecap="round" stroke-linejoin="round"/>
<path d="M97.7362 173.979L93.5341 160.033" stroke="#263238" stroke-linecap="round" stroke-linejoin="round"/>
<path d="M71.8112 133.242C68.1094 133.618 64.3655 133.426 60.7321 132.673" stroke="#263238" stroke-linecap="round" stroke-linejoin="round"/>
<path d="M151.296 186.46L163.76 217.436C163.76 217.436 148.384 239.824 145.693 242.66C143.457 244.888 141.059 246.973 138.515 248.901L133.862 248.66C131.71 248.551 126.4 247.282 125.205 249.207C124.01 251.131 124.223 253.464 120.227 254.251C116.231 255.039 119.744 256.213 122.253 256.344C124.761 256.475 127.452 253.632 128.52 253.683L131.029 253.814L142.195 265.311L147.513 254.66C147.513 254.66 170.732 233.336 174.554 229.56C178.376 225.783 184.549 218.821 184.549 218.821C184.549 218.821 173.335 172.565 172.212 166.879C171.088 161.192 167.756 157.401 156.907 158.473" fill="#5F0A61"/>
<path d="M151.296 186.46L163.76 217.436C163.76 217.436 148.384 239.824 145.693 242.66C143.457 244.888 141.059 246.973 138.515 248.901L133.862 248.66C131.71 248.551 126.4 247.282 125.205 249.207C124.01 251.131 124.223 253.464 120.227 254.251C116.231 255.039 119.744 256.213 122.253 256.344C124.761 256.475 127.452 253.632 128.52 253.683L131.029 253.814L142.195 265.311L147.513 254.66C147.513 254.66 170.732 233.336 174.554 229.56C178.376 225.783 184.549 218.821 184.549 218.821C184.549 218.821 173.335 172.565 172.212 166.879C171.088 161.192 167.756 157.401 156.907 158.473" stroke="#263238" stroke-linecap="round" stroke-linejoin="round"/>
<path d="M141.372 246.619C139.789 247.945 138.484 248.915 138.484 248.915L133.83 248.674C131.678 248.565 126.368 247.297 125.173 249.221C123.978 251.146 124.192 253.479 120.195 254.266C116.199 255.053 119.712 256.227 122.221 256.358C124.73 256.489 127.42 253.646 128.489 253.697L130.997 253.829L142.163 265.325L147.481 254.674L148.914 253.355L141.372 246.619Z" fill="white" stroke="#263238" stroke-linecap="round" stroke-linejoin="round"/>
<path d="M122.19 174.642L116.159 168.847L107.945 174.497L117.837 158.735L123.472 160.594L122.19 174.642Z" fill="white" stroke="#263238" stroke-linecap="round" stroke-linejoin="round"/>
<path d="M115.677 159.231C115.677 159.231 119.475 166.871 120.551 170.065C121.628 173.258 122.189 174.657 122.189 174.657L138.974 150.432C138.974 150.432 134.416 141.385 133.949 138.615C133.749 137.154 133.258 135.741 132.501 134.445C132.501 134.445 131.805 142.464 125.482 148.391C121.874 151.732 118.593 155.36 115.677 159.231Z" fill="white" stroke="#263238" stroke-linecap="round" stroke-linejoin="round"/>
<path d="M115.677 159.231C115.677 159.231 117.093 162.081 118.446 165.063L125.893 152.575L123.226 150.607C120.484 153.308 117.961 156.19 115.677 159.231Z" fill="#263238" stroke="#263238" stroke-linecap="round" stroke-linejoin="round"/>
<path d="M124.104 167.681L122.189 174.643L129.32 169.321L124.104 167.681Z" fill="white" stroke="#263238" stroke-linecap="round" stroke-linejoin="round"/>
<path d="M138.167 146.262L124.105 167.68L133.031 178.331L144.356 154.077L138.167 146.262Z" fill="white" stroke="#263238" stroke-linecap="round" stroke-linejoin="round"/>
<path d="M89.973 126.579C89.973 126.579 93.7083 138.972 95.3543 143.572C97.0003 148.172 99.96 152.065 104.297 154.449C108.633 156.833 110.351 160.281 115.241 160.522C120.132 160.762 124.935 155.513 126.123 153.603C127.31 151.693 132.968 146.313 133.427 142.187C133.886 138.061 134.139 133.964 134.139 133.964C135.304 132.728 136.166 131.276 136.667 129.706C137.168 128.136 137.296 126.485 137.043 124.865C136.086 119.507 132.762 117.962 132.762 117.962C132.762 117.962 129.122 107.551 117.726 105.393C106.331 103.235 91.6111 113.289 90.986 116.992C90.534 119.913 90.2697 122.856 90.1946 125.806L89.973 126.579Z" fill="white" stroke="#263238" stroke-linecap="round" stroke-linejoin="round"/>
<path d="M101.606 137.747C101.606 137.747 100.284 142.004 101.25 143.623C102.215 145.241 105.096 143.623 106.417 142.894" stroke="#263238" stroke-linecap="round" stroke-linejoin="round"/>
<path d="M102.738 147.239C102.738 147.239 105.626 148.959 110.058 146.24C112.712 144.605 114.725 142.229 115.803 139.46" stroke="#263238" stroke-linecap="round" stroke-linejoin="round"/>
<path d="M115.51 131.412C115.497 131.696 115.398 131.972 115.222 132.207C115.047 132.442 114.804 132.626 114.52 132.74C114.236 132.853 113.923 132.89 113.617 132.847C113.312 132.804 113.025 132.682 112.791 132.496C112.557 132.31 112.384 132.067 112.293 131.795C112.202 131.522 112.196 131.232 112.275 130.957C112.355 130.681 112.518 130.432 112.744 130.238C112.971 130.044 113.252 129.913 113.556 129.859C114.036 129.834 114.509 129.982 114.873 130.272C115.238 130.562 115.466 130.97 115.51 131.412Z" fill="#263238"/>
<path d="M109.061 131.528C109.033 131.192 109.09 130.854 109.228 130.541C109.365 130.228 109.58 129.948 109.854 129.725C110.129 129.501 110.456 129.338 110.809 129.25C111.163 129.162 111.535 129.151 111.894 129.217" stroke="#263238" stroke-linecap="round" stroke-linejoin="round"/>
<path d="M101.551 135.378C101.542 135.613 101.462 135.842 101.318 136.037C101.175 136.233 100.974 136.386 100.739 136.48C100.505 136.575 100.246 136.606 99.9927 136.57C99.7398 136.534 99.503 136.433 99.3099 136.278C99.1168 136.124 98.9753 135.921 98.9018 135.696C98.8283 135.47 98.8259 135.229 98.8948 135.002C98.9637 134.775 99.1011 134.571 99.291 134.413C99.481 134.255 99.7157 134.149 99.9679 134.109C100.358 134.093 100.74 134.215 101.035 134.452C101.33 134.688 101.514 135.019 101.551 135.378Z" fill="#263238"/>
<path d="M96.6838 135.808C96.6556 135.47 96.7127 135.131 96.8508 134.818C96.9889 134.504 97.2041 134.224 97.4794 134C97.7548 133.776 98.0829 133.614 98.4378 133.527C98.7927 133.439 99.1648 133.429 99.5248 133.497" stroke="#263238" stroke-linecap="round" stroke-linejoin="round"/>
<path d="M93.8824 133.716C93.8824 133.716 94.0645 132.374 96.3832 131.237C98.7019 130.1 99.3824 130.041 99.3824 130.041" stroke="#263238" stroke-linecap="round" stroke-linejoin="round"/>
<path d="M104.708 127.584C105.994 126.832 107.462 126.383 108.982 126.279C110.751 126.173 112.528 126.355 114.228 126.819" stroke="#263238" stroke-linecap="round" stroke-linejoin="round"/>
<path d="M102.01 94.5819C102.01 94.5819 95.6313 92.4531 90.6457 93.1967C85.6601 93.9403 75.5227 101.996 77.0976 105.663C78.6724 109.33 85.3673 106.29 84.7817 108.455C84.1961 110.62 75.9342 113.784 74.6997 119.303C73.4652 124.822 77.1213 131.2 83.1594 131.507C89.1975 131.813 92.268 122.029 92.9961 124.836C93.7241 127.643 96.3989 128 101.337 124.267C106.275 120.535 110.96 113.587 112.416 115.461C113.872 117.335 113.999 123.32 115.518 123.597C117.038 123.874 119.641 122.212 121.374 123.298C123.107 124.384 124.215 128.233 125.608 127.504C127.001 126.775 126.439 124.953 127.191 123.4C127.943 121.847 128.046 118.712 131.528 118.435C132.865 118.333 133.553 118.341 133.553 118.341C133.553 118.341 136.181 108.302 132.319 101.726C128.457 95.1505 114.909 92.8468 111.743 93.481C109.876 93.8475 108.045 94.3547 106.267 94.9974L102.01 94.5819Z" fill="#263238" stroke="#263238" stroke-linecap="round" stroke-linejoin="round"/>
<path d="M129.367 111.357C130.33 111.735 131.211 112.268 131.971 112.931" stroke="#696969" stroke-linecap="round" stroke-linejoin="round"/>
<path d="M114.964 114.032C114.964 114.032 120.971 110.168 126.708 110.722" stroke="#696969" stroke-linecap="round" stroke-linejoin="round"/>
<path d="M103.189 108.389C99.0896 110.081 94.1832 112.99 92.7745 117.553C90.2342 125.806 102.413 119.011 104.352 116.824C106.291 114.637 100.182 114.287 98.6227 116.197" stroke="#696969" stroke-linecap="round" stroke-linejoin="round"/>
<path d="M109.298 106.457C107.996 106.747 106.714 107.11 105.46 107.544" stroke="#696969" stroke-linecap="round" stroke-linejoin="round"/>
<path d="M111.387 99.8016C107.498 100.388 103.715 101.462 100.142 102.995C92.3631 106.582 81.3868 115.308 79.907 121.869" stroke="#696969" stroke-linecap="round" stroke-linejoin="round"/>
<path d="M118.731 98.9779C118.731 98.9779 116.626 99.0581 113.603 99.4663" stroke="#696969" stroke-linecap="round" stroke-linejoin="round"/>
<path d="M222.297 71.5155H255.534C257.004 71.5155 258.413 72.0532 259.451 73.0102C260.49 73.9672 261.074 75.2652 261.074 76.6187V93.1455C261.074 94.499 260.49 95.797 259.451 96.754C258.413 97.711 257.004 98.2487 255.534 98.2487H231.793L233.091 106.997L225.051 98.2487H222.273C220.804 98.2487 219.395 97.711 218.356 96.754C217.317 95.797 216.734 94.499 216.734 93.1455V76.6187C216.734 75.9467 216.878 75.2813 217.158 74.6607C217.438 74.0402 217.848 73.4766 218.365 73.0025C218.882 72.5283 219.495 72.1529 220.17 71.8977C220.845 71.6425 221.568 71.5127 222.297 71.5155Z" fill="white" stroke="#263238" stroke-linecap="round" stroke-linejoin="round"/>
<path d="M234.66 89.3786C237.713 86.7511 237.876 82.3408 235.024 79.5281C232.172 76.7153 227.384 76.5651 224.331 79.1927C221.278 81.8202 221.115 86.2305 223.967 89.0432C226.819 91.856 231.607 92.0061 234.66 89.3786Z" fill="#5F0A61" stroke="#263238" stroke-linecap="round" stroke-linejoin="round"/>
<path d="M226.468 81.8605C226.939 81.5062 227.512 81.2848 228.117 81.2228C228.722 81.1607 229.333 81.2606 229.878 81.5106" stroke="#263238" stroke-linecap="round" stroke-linejoin="round"/>
<path d="M233.661 81.8604C233.863 81.7217 234.099 81.6296 234.348 81.5918C234.596 81.5539 234.851 81.5714 235.091 81.6427C235.332 81.714 235.55 81.8371 235.727 82.0018C235.905 82.1665 236.038 82.368 236.114 82.5894" stroke="#263238" stroke-linecap="round" stroke-linejoin="round"/>
<path d="M227.987 85.1702C228.363 85.5771 228.828 85.9072 229.35 86.1397C229.873 86.3721 230.442 86.5017 231.022 86.5202C231.602 86.5387 232.18 86.4458 232.719 86.2472C233.258 86.0487 233.746 85.7489 234.152 85.3671" stroke="#263238" stroke-linecap="round" stroke-linejoin="round"/>
<path opacity="0.2" d="M227.987 84.5649C227.987 84.203 227.87 83.8492 227.652 83.5483C227.434 83.2474 227.124 83.0128 226.761 82.8743C226.398 82.7358 225.998 82.6996 225.613 82.7702C225.228 82.8408 224.874 83.0151 224.596 83.271C224.318 83.5269 224.129 83.8529 224.052 84.2079C223.976 84.5629 224.015 84.9308 224.165 85.2651C224.316 85.5995 224.57 85.8853 224.897 86.0863C225.224 86.2874 225.608 86.3947 226.001 86.3947C226.527 86.3947 227.033 86.2019 227.405 85.8588C227.778 85.5156 227.987 85.0502 227.987 84.5649Z" fill="black"/>
<path opacity="0.2" d="M236.684 84.9514C236.683 84.6331 236.579 84.3223 236.386 84.0583C236.192 83.7943 235.919 83.5889 235.599 83.4681C235.279 83.3473 234.928 83.3164 234.589 83.3794C234.25 83.4424 233.94 83.5964 233.696 83.822C233.452 84.0476 233.286 84.3347 233.219 84.6471C233.152 84.9594 233.188 85.2829 233.32 85.5769C233.453 85.8709 233.677 86.1221 233.964 86.2988C234.252 86.4755 234.59 86.5698 234.935 86.5698C235.166 86.5698 235.394 86.5279 235.606 86.4465C235.819 86.3651 236.012 86.2457 236.175 86.0954C236.337 85.945 236.466 85.7665 236.553 85.5702C236.641 85.3739 236.685 85.1636 236.684 84.9514Z" fill="black"/>
<path d="M252.375 89.6058C255.545 87.0983 255.908 82.6982 253.186 79.7779C250.464 76.8576 245.688 76.5229 242.518 79.0303C239.348 81.5378 238.984 85.9379 241.706 88.8582C244.428 91.7785 249.205 92.1132 252.375 89.6058Z" fill="#5F0A61" stroke="#263238" stroke-linecap="round" stroke-linejoin="round"/>
<path d="M244.408 81.8604C244.879 81.5076 245.45 81.2871 246.053 81.225C246.657 81.163 247.267 81.2621 247.811 81.5105" stroke="#263238" stroke-linecap="round" stroke-linejoin="round"/>
<path d="M251.594 81.8604C251.796 81.7202 252.032 81.6268 252.282 81.5881C252.532 81.5494 252.788 81.5665 253.029 81.6379C253.27 81.7093 253.489 81.833 253.668 81.9986C253.846 82.1642 253.979 82.3668 254.055 82.5895" stroke="#263238" stroke-linecap="round" stroke-linejoin="round"/>
<path d="M245.919 85.1702C246.296 85.5771 246.76 85.9072 247.283 86.1397C247.805 86.3721 248.375 86.5017 248.954 86.5202C249.534 86.5387 250.112 86.4458 250.651 86.2472C251.19 86.0487 251.678 85.7489 252.084 85.3671" stroke="#263238" stroke-linecap="round" stroke-linejoin="round"/>
<path opacity="0.2" d="M245.919 84.5649C245.919 84.203 245.803 83.8492 245.584 83.5483C245.366 83.2474 245.056 83.0128 244.693 82.8743C244.33 82.7358 243.931 82.6996 243.545 82.7702C243.16 82.8408 242.806 83.0151 242.528 83.271C242.251 83.5269 242.061 83.8529 241.985 84.2079C241.908 84.5629 241.947 84.9308 242.098 85.2651C242.248 85.5995 242.503 85.8853 242.829 86.0863C243.156 86.2874 243.54 86.3947 243.933 86.3947C244.46 86.3947 244.965 86.2019 245.337 85.8588C245.71 85.5156 245.919 85.0502 245.919 84.5649Z" fill="black"/>
<path opacity="0.2" d="M254.624 84.9514C254.623 84.6331 254.519 84.3223 254.326 84.0583C254.133 83.7943 253.859 83.5889 253.539 83.4681C253.219 83.3473 252.868 83.3164 252.529 83.3794C252.191 83.4424 251.88 83.5964 251.636 83.822C251.392 84.0476 251.226 84.3347 251.159 84.6471C251.093 84.9594 251.128 85.2829 251.26 85.5769C251.393 85.8709 251.617 86.1221 251.905 86.2988C252.192 86.4755 252.53 86.5698 252.875 86.5698C253.106 86.5698 253.334 86.5279 253.546 86.4465C253.759 86.3651 253.952 86.2457 254.115 86.0954C254.277 85.945 254.406 85.7665 254.493 85.5702C254.581 85.3739 254.625 85.1636 254.624 84.9514Z" fill="black"/>
<path d="M163.839 71.5155H130.602C129.133 71.5155 127.723 72.0532 126.685 73.0102C125.646 73.9672 125.062 75.2652 125.062 76.6186V93.1455C125.062 94.4989 125.646 95.7969 126.685 96.7539C127.723 97.711 129.133 98.2486 130.602 98.2486H154.343L153.045 106.997L161.085 98.2486H163.839C165.308 98.2486 166.717 97.711 167.756 96.7539C168.795 95.7969 169.379 94.4989 169.379 93.1455V76.6186C169.379 75.2652 168.795 73.9672 167.756 73.0102C166.717 72.0532 165.308 71.5155 163.839 71.5155Z" fill="white" stroke="#263238" stroke-linecap="round" stroke-linejoin="round"/>
<path d="M159.51 81.6562C159.508 80.2868 159.005 78.958 158.082 77.8846C157.159 76.8111 155.87 76.0558 154.424 75.7405C152.977 75.4253 151.457 75.5686 150.11 76.1473C148.763 76.726 147.667 77.7063 146.999 78.9297C146.331 77.7063 145.235 76.726 143.888 76.1473C142.54 75.5686 141.021 75.4253 139.574 75.7405C138.127 76.0558 136.838 76.8111 135.915 77.8846C134.992 78.958 134.489 80.2868 134.487 81.6562C134.487 84.7619 137.067 87.9258 139.623 89.7702C140.905 90.6961 146.746 94.2901 146.92 94.1954C147.094 94.2901 152.934 90.6961 154.216 89.7702C156.645 88.0206 159.51 84.6233 159.51 81.6562Z" fill="#5F0A61" stroke="#263238" stroke-linecap="round" stroke-linejoin="round"/>
</svg>
