<svg width="251" height="229" viewBox="0 0 251 229" fill="none" xmlns="http://www.w3.org/2000/svg">
<g id="Group 59">
<g id="online-dating/bro">
<g id="Plants">
<path id="Vector" d="M11.0088 25.6602C12.9952 26.4571 17.8524 26.3593 17.8577 26.3593C17.863 26.3593 16.7983 23.4261 16.7241 23.2452C15.6542 21.1871 12.2801 17.8041 9.55219 18.1267C9.09688 18.1934 8.66192 18.3479 8.27569 18.5802C7.88947 18.8125 7.56066 19.1174 7.31074 19.4749C7.06082 19.8325 6.89539 20.2346 6.82527 20.6552C6.75514 21.0757 6.78189 21.5051 6.90376 21.9155C7.36459 23.6705 9.31384 24.9758 11.0088 25.6602Z" fill="#5F0A61"/>
<path id="Vector_2" d="M60.1638 26.6426C60.2062 26.6426 61.0484 23.6654 61.0801 23.4698C61.4191 21.2063 60.6405 16.6549 58.1457 15.5452C57.7263 15.3712 57.2719 15.2807 56.8121 15.2793C56.3523 15.278 55.8973 15.3659 55.4767 15.5374C55.0561 15.7089 54.6793 15.9601 54.3707 16.2748C54.0622 16.5895 53.8288 16.9605 53.6857 17.3638C53.0183 19.0602 53.8658 21.1428 54.8722 22.5703C56.0481 24.252 60.1638 26.6426 60.1638 26.6426Z" fill="#5F0A61"/>
<path id="Vector_3" d="M74.6719 10.388C71.9175 10.1142 68.6493 13.5999 67.6429 15.6825C67.5529 15.8634 66.5465 18.8259 66.5835 18.8259H66.6418C66.1121 19.3686 65.5824 19.9601 64.9786 20.6201C63.9192 21.8374 62.6956 23.2258 61.4986 24.8195C60.1819 26.5218 58.9756 28.2947 57.8861 30.1286C56.6516 32.175 55.6199 34.3201 54.8033 36.5377C54.8033 36.5622 54.8033 36.5915 54.8033 36.616C54.8033 35.868 54.8033 33.7756 54.7609 33.6143C54.4431 31.3508 52.3879 27.1514 49.6654 26.687C49.2094 26.6198 48.7433 26.6422 48.2974 26.7527C47.8515 26.8633 47.4359 27.0596 47.0779 27.3286C46.7199 27.5977 46.4275 27.9335 46.2198 28.3141C46.0121 28.6947 45.8939 29.1114 45.8728 29.5371C45.7139 31.3362 47.1282 33.1352 48.5212 34.2694C50.0732 35.5502 54.3849 36.792 54.7292 36.8848C53.9555 39.1606 53.3468 41.4813 52.907 43.8317C52.6422 45.1957 52.4197 46.5792 52.2184 47.9724C52.2184 47.3222 52.2184 46.7454 52.1814 46.6672C51.8636 44.4037 49.8084 40.1994 47.0858 39.735C46.6315 39.67 46.1674 39.694 45.7238 39.8053C45.2802 39.9167 44.8669 40.1129 44.5108 40.3812C44.1546 40.6495 43.8636 40.9839 43.6566 41.3627C43.4496 41.7416 43.3312 42.1564 43.3091 42.5802C43.1502 44.3792 44.5592 46.1783 45.9576 47.3125C47.3559 48.4467 50.9737 49.5808 51.9271 49.8742C51.8583 50.407 51.7788 50.9399 51.7099 51.4728C51.3762 54.0393 51.0584 56.601 50.6506 59.104C50.5129 59.984 50.3381 60.8493 50.1686 61.7146C50.1686 61.1378 50.1686 60.6538 50.1368 60.5804C49.819 58.317 47.7638 54.1176 45.0412 53.6531C44.5866 53.5866 44.122 53.6095 43.6777 53.7202C43.2334 53.8309 42.8194 54.027 42.4628 54.2956C42.1063 54.5642 41.8153 54.8992 41.6088 55.2788C41.4023 55.6584 41.285 56.074 41.2645 56.4984C41.1003 58.2925 42.5146 60.0965 43.913 61.2306C45.3113 62.3648 48.6113 63.3963 49.7395 63.7386C49.5382 64.6234 49.337 65.5034 49.0986 66.3491C48.9238 66.9211 48.7914 67.4882 48.5689 68.0553C48.3464 68.6224 48.1769 69.1797 47.981 69.7321C47.5678 70.7881 47.1441 71.8783 46.7097 72.9C46.4131 73.6138 46.1165 74.2835 45.8251 74.963C45.9734 74.088 46.2277 72.3671 46.233 72.2205C46.2022 70.2117 45.6131 68.2439 44.5221 66.5056C44.5318 66.2816 44.5176 66.0572 44.4797 65.8358C44.4216 65.4179 44.2695 65.0159 44.0333 64.6554C43.7971 64.2949 43.4819 63.9839 43.1079 63.7423C42.734 63.5007 42.3095 63.3338 41.8616 63.2523C41.4137 63.1709 40.9524 63.1766 40.5071 63.2692C37.8586 63.9243 36.1372 68.2606 36.01 70.5388C36.01 70.6756 36.1001 72.1423 36.1742 73.0662C36.0418 72.5285 35.9147 72.0054 35.7717 71.4529C35.4909 70.3628 35.1731 69.2775 34.8394 68.114L34.3097 66.4225C34.1349 65.8554 33.8754 65.2785 33.6635 64.6967C33.1338 63.3621 32.5247 62.0324 31.8838 60.7027C32.9167 60.4729 36.5821 59.6125 38.0546 58.5712C39.5272 57.5299 41.0738 55.8335 41.058 54.0296C41.0706 53.6053 40.9863 53.1832 40.8105 52.791C40.6346 52.3988 40.3712 52.0452 40.0373 51.7532C39.7035 51.4613 39.3068 51.2375 38.873 51.0965C38.4392 50.9555 37.978 50.9005 37.5196 50.935C34.7653 51.2088 32.3764 55.2566 31.8785 57.4957C31.8467 57.6325 31.6825 59.2752 31.6136 60.1747C31.2217 59.3827 30.835 58.5858 30.406 57.7939C29.1771 55.506 27.8529 53.2278 26.5445 50.9497C26.142 50.2506 25.7553 49.5515 25.358 48.8524C25.7288 48.7742 30.1252 47.8356 31.7567 46.6672C33.2239 45.6308 34.7759 43.9344 34.7653 42.1304C34.7771 41.7057 34.6921 41.2834 34.5157 40.891C34.3393 40.4985 34.0754 40.1447 33.7413 39.8524C33.4072 39.5602 33.0102 39.336 32.5761 39.1945C32.142 39.053 31.6806 38.9973 31.2217 39.031C28.4726 39.3096 26.0837 43.3575 25.5805 45.5916C25.5434 45.7579 25.3157 48.1191 25.2892 48.7253C24.3834 47.1903 23.5518 45.6699 22.7944 44.0957C21.7442 42.004 20.8418 39.8517 20.093 37.6524C20.2678 37.6181 24.8601 36.6746 26.5339 35.4622C27.9959 34.4209 29.5532 32.7245 29.5373 30.9206C29.5495 30.4943 29.4639 30.0704 29.2862 29.6767C29.1085 29.283 28.8426 28.9284 28.506 28.6363C28.1694 28.3441 27.7697 28.1208 27.3331 27.9812C26.8965 27.8416 26.4328 27.7887 25.9725 27.8261C23.2181 28.0998 20.8292 32.1477 20.3313 34.3818C20.2995 34.5285 20.1194 36.3373 20.0559 37.1879H19.897C19.2086 34.9496 18.7371 32.6592 18.488 30.3437C18.3344 29.0727 18.2655 27.8554 18.2232 26.6625C19.0866 26.6039 23.091 26.115 24.7383 25.191C26.3856 24.2671 28.0912 22.776 28.266 20.9819C28.3262 20.5622 28.2904 20.1356 28.1609 19.7296C28.0313 19.3236 27.8109 18.9471 27.5139 18.6246C27.2168 18.3021 26.8498 18.0407 26.4365 17.8573C26.0232 17.6739 25.5728 17.5725 25.1144 17.5598C22.3441 17.5598 19.4891 21.3387 18.7264 23.5093C18.6893 23.6266 18.4086 24.8684 18.1967 25.7777C18.1967 25.2399 18.1649 24.6875 18.1649 24.1693C18.1649 22.2383 18.3026 20.4685 18.435 18.9042C18.5145 18.0144 18.6098 17.2078 18.7052 16.4598C19.5103 15.9709 22.7096 13.8639 23.6948 12.3728C24.68 10.8818 25.4428 8.81873 24.7542 7.1419C24.6006 6.74128 24.3571 6.37508 24.0397 6.06722C23.7223 5.75936 23.3381 5.51676 22.9122 5.35527C22.4863 5.19379 22.0282 5.11706 21.568 5.13008C21.1077 5.1431 20.6557 5.24559 20.2413 5.43085C17.7835 6.60415 17.132 11.1702 17.5399 13.4239C17.5769 13.6195 18.5039 16.6016 18.5463 16.5771C18.5637 16.5677 18.5797 16.5562 18.5939 16.5429C18.488 17.2664 18.3821 18.0388 18.2814 18.8895C18.1119 20.4539 17.9371 22.2236 17.8895 24.1644C17.8127 26.2547 17.8675 28.3473 18.0537 30.4317C18.2484 32.7658 18.6685 35.0792 19.309 37.3444C19.3114 37.372 19.3114 37.3998 19.309 37.4275C18.9012 36.7822 17.6193 35.0516 17.4975 34.9147C15.9084 33.189 11.6709 30.7348 9.10726 31.7321C8.68918 31.9091 8.31613 32.1653 8.01234 32.484C7.70854 32.8028 7.48081 33.1769 7.34393 33.5822C7.20705 33.9875 7.16409 34.4148 7.21784 34.8364C7.27159 35.258 7.42085 35.6644 7.65592 36.0293C8.59876 37.6084 10.834 38.3906 12.6773 38.635C14.7431 38.9137 19.076 37.755 19.4203 37.6573C20.1425 39.9491 21.0272 42.1946 22.0687 44.3792C22.6672 45.6503 23.3082 46.9214 23.9703 48.1827C23.5783 47.6449 23.2181 47.1707 23.1598 47.112C21.5443 45.3814 17.3333 42.9273 14.7696 43.9246C14.3515 44.1016 13.9785 44.3577 13.6747 44.6765C13.3709 44.9952 13.1432 45.3694 13.0063 45.7746C12.8694 46.1799 12.8264 46.6072 12.8802 47.0288C12.9339 47.4504 13.0832 47.8569 13.3183 48.2218C14.2611 49.8057 16.4964 50.583 18.3397 50.8323C20.183 51.0817 23.912 50.1577 24.8972 49.9035C25.1568 50.3924 25.4269 50.8812 25.6706 51.3701C26.9259 53.6776 28.1919 55.9753 29.3784 58.2632C29.7862 59.0698 30.1623 59.8814 30.5384 60.7075C30.1835 60.2187 29.8816 59.8374 29.8339 59.7787C28.2131 58.053 24.0073 55.5988 21.4384 56.5961C21.0203 56.7731 20.6472 57.0293 20.3434 57.348C20.0396 57.6668 19.8119 58.0409 19.675 58.4462C19.5381 58.8515 19.4952 59.2788 19.5489 59.7004C19.6027 60.122 19.752 60.5284 19.987 60.8933C20.9299 62.4724 23.1651 63.2546 25.0137 63.499C26.8624 63.7434 30.2206 62.9172 31.37 62.619C31.7249 63.455 32.0851 64.2959 32.3923 65.1221C32.5883 65.6891 32.816 66.222 32.9802 66.8038C33.1444 67.3855 33.3245 67.9429 33.5099 68.5051C33.796 69.6001 34.0926 70.7245 34.3415 71.7952C34.5216 72.5382 34.6752 73.2618 34.8341 73.9658C34.4369 73.1591 33.6159 71.5947 33.5311 71.4725C32.2175 69.5415 28.4461 66.5202 25.7606 67.1509C25.3204 67.2695 24.9121 67.4721 24.562 67.7455C24.2119 68.0189 23.9279 68.357 23.7282 68.738C23.5285 69.119 23.4177 69.5344 23.4028 69.9575C23.3879 70.3805 23.4694 70.8017 23.6419 71.1938C24.3146 72.8902 26.4121 73.9755 28.1813 74.4742C30.1252 75.0266 34.4263 74.5231 34.9666 74.4742C35.2261 75.6572 35.4645 76.8159 35.671 77.8963C36.3861 81.6557 36.8311 84.8138 37.1118 87.0431H38.9869C38.9869 86.9893 38.9869 86.9453 38.9869 86.8915C38.6532 84.6427 38.1235 81.4357 37.3025 77.603C37.0482 76.3954 36.7463 75.1146 36.4232 73.7946C37.7201 73.3176 38.9848 72.7691 40.2105 72.152C41.6247 73.5698 45.2584 75.227 45.7298 75.4372C45.2319 76.5617 44.7393 77.6469 44.2573 78.6638C42.6099 82.1641 41.0791 85.0191 40.0198 87.0284H42.0802C43.0972 85.0436 44.4003 82.3988 45.7881 79.2553C46.3177 78.1163 46.8103 76.8941 47.3294 75.6328C47.8591 75.7306 52.0966 76.5323 54.0988 76.1217C55.8998 75.7452 58.0821 74.8066 58.866 73.1591C59.0705 72.7791 59.1858 72.3636 59.2044 71.9397C59.223 71.5158 59.1445 71.093 58.974 70.699C58.8036 70.305 58.545 69.9486 58.2151 69.6531C57.8853 69.3576 57.4916 69.1297 57.0598 68.9841C54.4114 68.1677 50.4281 70.9396 48.9609 72.7533C48.8708 72.8658 48.0763 74.1368 47.5837 74.9484C47.7956 74.4302 48.0021 73.9315 48.2087 73.3938C48.6325 72.3427 49.0138 71.277 49.4323 70.1379L49.962 68.4464C50.158 67.8842 50.2851 67.2682 50.4546 66.6767C50.8095 65.2932 51.1008 63.8754 51.3551 62.4382C52.3562 62.7755 55.9263 63.9048 57.7802 63.8021C59.6341 63.6994 61.9329 63.059 62.9976 61.5484C63.2641 61.2002 63.448 60.8039 63.5371 60.3856C63.6261 59.9672 63.6184 59.5362 63.5144 59.1208C63.4103 58.7053 63.2124 58.3149 62.9334 57.975C62.6545 57.6351 62.3009 57.3535 61.8958 57.1486C59.4381 55.9753 55.0099 58.1263 53.2725 59.7445C53.1613 59.8471 52.0436 61.1329 51.4451 61.8466C51.5934 60.9862 51.747 60.1258 51.8636 59.2458C52.2026 56.7135 52.4621 54.1371 52.7322 51.5705C52.817 50.7835 52.9123 50.0013 52.9971 49.2191C53.352 49.3413 57.5683 50.7883 59.6394 50.6563C61.4827 50.5341 63.7921 49.9133 64.8621 48.3978C65.1295 48.0498 65.314 47.6535 65.4035 47.235C65.4931 46.8165 65.4855 46.3852 65.3814 45.9696C65.2774 45.5539 65.0791 45.1633 64.7997 44.8235C64.5203 44.4837 64.166 44.2023 63.7603 43.9979C61.2973 42.8246 56.8744 44.9757 55.137 46.5938C55.0046 46.716 53.3996 48.5493 53.0183 49.0382C53.2196 47.3076 53.4314 45.6161 53.7175 43.905C54.0888 41.6253 54.6196 39.3702 55.3065 37.1537C55.4707 37.2124 59.8618 38.7426 61.9806 38.6203C63.8239 38.503 66.1333 37.8773 67.2033 36.3666C67.4699 36.0184 67.6537 35.6222 67.7428 35.2038C67.8318 34.7854 67.8241 34.3544 67.7201 33.939C67.616 33.5236 67.4181 33.1331 67.1391 32.7933C66.8602 32.4534 66.5066 32.1717 66.1015 31.9668C63.6385 30.7935 59.2156 32.9445 57.4782 34.5627C57.3617 34.6703 56.1381 36.0782 55.5714 36.7626L55.4336 36.6942C56.1765 34.4969 57.1302 32.3651 58.2834 30.3242C58.9137 29.19 59.5864 28.134 60.2644 27.1221C61.0483 27.4838 64.6608 29.0776 66.5835 29.1753C68.5063 29.2731 70.821 28.8527 72.0446 27.4594C72.3479 27.1406 72.5752 26.7664 72.7117 26.3613C72.8482 25.9561 72.8909 25.529 72.8369 25.1077C72.783 24.6863 72.6336 24.2801 72.3986 23.9155C72.1635 23.5509 71.848 23.2359 71.4725 22.9911C69.1631 21.5783 64.5231 23.2747 62.5897 24.6973C62.4838 24.7755 61.5303 25.675 60.81 26.335C61.1225 25.8803 61.435 25.4061 61.7475 24.9808C62.9022 23.3675 64.0728 21.9596 65.1163 20.7228C65.7202 20.0237 66.2763 19.3979 66.806 18.821C67.7753 18.821 71.695 18.6939 73.4112 17.9557C75.1274 17.2175 76.9919 15.878 77.3944 14.1132C77.505 13.7021 77.5208 13.2742 77.4409 12.8572C77.3609 12.4401 77.187 12.0431 76.9304 11.692C76.6738 11.3409 76.3402 11.0434 75.9511 10.8188C75.562 10.5941 75.1262 10.4474 74.6719 10.388Z" fill="#5F0A61"/>
<path id="Vector_4" d="M246.322 204.299C244.304 203.57 239.436 203.844 239.436 203.844C239.436 203.844 240.601 206.738 240.702 206.914C241.852 208.933 245.363 212.214 248.091 211.774C248.542 211.689 248.968 211.517 249.342 211.27C249.717 211.023 250.031 210.707 250.264 210.341C250.497 209.975 250.644 209.568 250.696 209.146C250.748 208.724 250.703 208.297 250.565 207.892C250.03 206.156 248.033 204.925 246.322 204.299Z" fill="#5F0A61"/>
<path id="Vector_5" d="M197.151 205.042C197.104 205.017 196.389 208.048 196.367 208.249C196.118 210.517 197.088 215.039 199.625 216.071C200.05 216.231 200.506 216.306 200.965 216.293C201.423 216.28 201.874 216.177 202.287 215.993C202.7 215.809 203.066 215.546 203.362 215.223C203.658 214.899 203.878 214.522 204.005 214.115C204.604 212.394 203.672 210.346 202.607 208.953C201.362 207.29 197.151 205.042 197.151 205.042Z" fill="#5F0A61"/>
<path id="Vector_6" d="M183.326 221.8C186.086 221.976 189.211 218.378 190.133 216.261C190.212 216.08 191.097 213.084 191.044 213.084H190.986C191.484 212.521 192.013 211.91 192.575 211.231C193.597 209.974 194.746 208.547 195.88 206.909C197.124 205.161 198.256 203.348 199.27 201.478C200.414 199.388 201.356 197.209 202.083 194.966C202.086 194.938 202.086 194.91 202.083 194.883C202.083 195.636 202.226 197.723 202.252 197.885C202.665 200.133 204.901 204.24 207.634 204.626C208.09 204.676 208.553 204.637 208.992 204.511C209.431 204.385 209.836 204.175 210.181 203.894C210.526 203.614 210.803 203.269 210.994 202.883C211.185 202.497 211.285 202.078 211.289 201.654C211.379 199.85 209.89 198.1 208.465 197.014C206.876 195.792 202.501 194.702 202.157 194.619C202.834 192.319 203.345 189.98 203.688 187.618C203.894 186.24 204.058 184.851 204.217 183.453C204.254 184.098 204.297 184.675 204.307 184.758C204.72 187.007 206.956 191.114 209.689 191.5C210.145 191.55 210.608 191.511 211.047 191.385C211.486 191.259 211.891 191.048 212.236 190.768C212.581 190.487 212.858 190.143 213.049 189.757C213.24 189.371 213.34 188.952 213.344 188.528C213.434 186.724 211.945 184.973 210.521 183.888C209.096 182.803 205.383 181.791 204.397 181.542C204.45 181.004 204.503 180.466 204.551 179.933C204.779 177.357 204.991 174.785 205.282 172.273C205.388 171.388 205.52 170.518 205.658 169.647C205.69 170.219 205.722 170.703 205.737 170.777C206.145 173.025 208.386 177.132 211.114 177.523C211.571 177.572 212.034 177.533 212.473 177.406C212.913 177.279 213.318 177.069 213.663 176.788C214.008 176.507 214.286 176.162 214.477 175.776C214.668 175.39 214.77 174.971 214.774 174.546C214.859 172.742 213.37 170.997 211.951 169.906C210.531 168.816 207.184 167.907 206.002 167.604C206.167 166.719 206.331 165.829 206.532 164.974C206.686 164.397 206.786 163.83 206.977 163.253C207.168 162.676 207.321 162.114 207.507 161.556C207.877 160.486 208.253 159.381 208.645 158.345C208.91 157.626 209.175 156.942 209.445 156.252C209.334 157.132 209.149 158.863 209.154 159.009C209.268 161.013 209.935 162.957 211.093 164.656C211.096 164.881 211.121 165.105 211.167 165.326C211.238 165.747 211.405 166.149 211.657 166.507C211.909 166.864 212.24 167.168 212.628 167.399C213.016 167.63 213.453 167.782 213.909 167.846C214.366 167.91 214.832 167.884 215.277 167.77C217.926 167.022 219.44 162.627 219.472 160.349C219.472 160.212 219.319 158.75 219.202 157.826C219.361 158.359 219.504 158.877 219.674 159.425C220.002 160.505 220.362 161.576 220.733 162.73C220.939 163.282 221.146 163.835 221.353 164.397C221.559 164.959 221.835 165.531 222.073 166.103C222.656 167.418 223.318 168.723 224.017 170.014C222.989 170.278 219.361 171.27 217.936 172.365C216.511 173.461 215.033 175.201 215.118 177.005C215.124 177.429 215.226 177.848 215.419 178.233C215.611 178.619 215.889 178.962 216.235 179.242C216.58 179.522 216.986 179.732 217.425 179.857C217.864 179.983 218.327 180.022 218.784 179.972C221.522 179.601 223.742 175.475 224.149 173.221C224.149 173.084 224.271 171.437 224.303 170.532C224.732 171.314 225.15 172.092 225.611 172.869C226.936 175.113 228.35 177.342 229.753 179.576C230.183 180.256 230.601 180.945 231.025 181.63C230.659 181.718 226.316 182.813 224.721 184.035C223.297 185.125 221.813 186.875 221.904 188.679C221.908 189.104 222.01 189.523 222.202 189.908C222.394 190.294 222.672 190.638 223.018 190.918C223.364 191.198 223.77 191.408 224.209 191.533C224.649 191.659 225.112 191.697 225.569 191.647C228.307 191.275 230.527 187.144 230.935 184.895C230.966 184.724 231.099 182.358 231.099 181.752C232.031 183.262 232.942 184.773 233.774 186.298C234.913 188.354 235.904 190.477 236.74 192.654C236.571 192.698 232.036 193.817 230.384 195.069C228.964 196.159 227.481 197.909 227.571 199.713C227.576 200.137 227.678 200.555 227.87 200.941C228.061 201.326 228.339 201.67 228.684 201.95C229.029 202.23 229.435 202.44 229.873 202.566C230.312 202.691 230.775 202.73 231.231 202.68C233.975 202.309 236.194 198.178 236.597 195.929C236.624 195.782 236.729 193.974 236.756 193.118H236.915C237.695 195.324 238.26 197.59 238.605 199.889C238.811 201.15 238.933 202.367 239.018 203.555C238.154 203.683 234.192 204.313 232.587 205.291C230.982 206.269 229.361 207.818 229.234 209.617C229.189 210.04 229.241 210.467 229.386 210.87C229.531 211.273 229.766 211.643 230.076 211.956C230.386 212.27 230.765 212.52 231.186 212.689C231.608 212.859 232.064 212.945 232.524 212.942C235.289 212.849 237.99 208.972 238.663 206.772C238.695 206.655 238.922 205.403 239.076 204.489C239.102 205.027 239.15 205.579 239.166 206.093C239.245 208.024 239.166 209.798 239.118 211.368C239.071 212.257 239.012 213.064 238.949 213.812C238.165 214.35 235.05 216.55 234.129 218.07C233.207 219.59 232.54 221.688 233.318 223.34C233.489 223.734 233.748 224.09 234.078 224.386C234.408 224.681 234.801 224.91 235.233 225.056C235.664 225.202 236.124 225.263 236.583 225.234C237.041 225.205 237.488 225.088 237.895 224.89C240.305 223.629 240.76 219.023 240.262 216.804C240.22 216.613 239.166 213.66 239.129 213.69C239.111 213.699 239.095 213.711 239.081 213.724C239.161 213 239.235 212.223 239.298 211.373C239.399 209.798 239.5 208.024 239.468 206.083C239.462 203.991 239.322 201.902 239.049 199.825C238.754 197.507 238.238 195.216 237.508 192.981L237.476 192.903C237.937 193.519 239.288 195.201 239.41 195.318C241.099 196.985 245.422 199.292 247.927 198.202C248.337 198.011 248.699 197.742 248.99 197.413C249.28 197.085 249.492 196.703 249.612 196.293C249.732 195.884 249.757 195.456 249.686 195.037C249.614 194.618 249.448 194.217 249.198 193.861C248.192 192.311 245.909 191.612 244.071 191.417C242 191.211 237.715 192.522 237.376 192.629C236.577 190.355 235.614 188.132 234.494 185.976C233.848 184.719 233.149 183.477 232.434 182.241C232.852 182.759 233.228 183.218 233.292 183.282C234.981 184.949 239.304 187.256 241.809 186.166C242.219 185.975 242.582 185.706 242.872 185.377C243.162 185.049 243.374 184.667 243.494 184.257C243.614 183.848 243.639 183.42 243.568 183.001C243.497 182.582 243.331 182.181 243.08 181.825C242.074 180.275 239.791 179.576 237.953 179.381C236.115 179.185 232.412 180.246 231.443 180.534C231.162 180.046 230.913 179.591 230.606 179.117C229.256 176.858 227.9 174.604 226.639 172.356C226.194 171.564 225.791 170.772 225.384 169.98C225.754 170.439 226.072 170.825 226.125 170.879C227.815 172.546 232.137 174.854 234.642 173.769C235.053 173.577 235.415 173.308 235.705 172.978C235.996 172.649 236.208 172.267 236.328 171.857C236.448 171.447 236.473 171.019 236.401 170.599C236.33 170.18 236.164 169.779 235.914 169.422C234.907 167.873 232.624 167.174 230.786 166.978C228.948 166.783 225.606 167.746 224.43 168.083C224.038 167.262 223.641 166.435 223.302 165.639C223.085 165.076 222.83 164.548 222.645 163.976L222.062 162.295C221.734 161.214 221.384 160.1 221.093 159.039C220.887 158.301 220.701 157.572 220.516 156.883C220.945 157.675 221.824 159.21 221.914 159.327C223.312 161.209 227.211 164.094 229.859 163.37C230.296 163.238 230.698 163.023 231.039 162.738C231.38 162.453 231.652 162.105 231.838 161.717C232.024 161.329 232.119 160.909 232.118 160.485C232.116 160.06 232.018 159.641 231.83 159.254C231.094 157.587 228.948 156.57 227.163 156.135C225.198 155.646 220.918 156.311 220.383 156.394C220.076 155.216 219.79 154.067 219.536 152.972C218.667 149.242 218.09 146.098 217.719 143.884L215.844 143.952C215.844 144.001 215.844 144.045 215.87 144.099C216.299 146.333 216.956 149.52 217.936 153.304C218.243 154.502 218.598 155.778 218.996 157.078C217.724 157.605 216.486 158.197 215.288 158.853C213.815 157.489 210.118 155.959 209.641 155.768C210.086 154.629 210.536 153.524 210.976 152.493C212.475 148.934 213.873 146.02 214.885 143.986L212.83 144.06C211.892 146.074 210.711 148.763 209.44 151.955C208.979 153.109 208.513 154.351 208.047 155.631C207.517 155.548 203.232 154.898 201.262 155.382C199.482 155.822 197.337 156.849 196.6 158.511C196.412 158.898 196.314 159.318 196.314 159.742C196.313 160.167 196.409 160.587 196.596 160.975C196.783 161.363 197.056 161.71 197.399 161.994C197.741 162.278 198.144 162.492 198.581 162.622C201.23 163.341 205.128 160.452 206.527 158.565C206.611 158.457 207.353 157.157 207.809 156.33C207.623 156.854 207.432 157.357 207.247 157.9C206.871 158.965 206.532 160.046 206.161 161.2C206.002 161.762 205.843 162.334 205.685 162.911C205.526 163.488 205.409 164.099 205.266 164.695C204.964 166.088 204.736 167.516 204.54 168.958C203.523 168.66 199.906 167.638 198.062 167.824C196.219 168.01 193.941 168.714 192.94 170.268C192.691 170.625 192.526 171.026 192.456 171.445C192.386 171.865 192.413 172.293 192.533 172.702C192.654 173.112 192.867 173.493 193.158 173.822C193.449 174.15 193.812 174.419 194.222 174.609C196.728 175.695 201.05 173.377 202.734 171.71C202.84 171.603 203.899 170.283 204.472 169.545C204.36 170.41 204.244 171.275 204.159 172.16C203.926 174.702 203.772 177.283 203.629 179.86C203.582 180.647 203.518 181.434 203.46 182.221C203.105 182.109 198.83 180.808 196.765 181.018C194.932 181.199 192.649 181.908 191.643 183.463C191.394 183.82 191.229 184.221 191.159 184.64C191.089 185.059 191.115 185.488 191.236 185.897C191.357 186.306 191.569 186.688 191.86 187.016C192.151 187.345 192.514 187.613 192.924 187.804C195.43 188.884 199.752 186.572 201.436 184.905C201.564 184.778 203.089 182.871 203.455 182.368C203.327 184.098 203.184 185.824 202.967 187.52C202.686 189.811 202.246 192.082 201.648 194.321C201.484 194.267 197.035 192.893 194.916 193.108C193.083 193.289 190.795 193.998 189.794 195.553C189.545 195.91 189.38 196.311 189.31 196.731C189.24 197.151 189.266 197.579 189.387 197.989C189.508 198.399 189.72 198.78 190.011 199.109C190.302 199.438 190.665 199.707 191.076 199.899C193.581 200.979 197.903 198.667 199.588 196.995C199.699 196.887 200.859 195.435 201.399 194.731L201.542 194.795C200.872 197.032 199.985 199.21 198.894 201.302C198.311 202.46 197.686 203.536 197.051 204.572C196.251 204.24 192.569 202.749 190.647 202.744C188.724 202.739 186.446 203.233 185.265 204.651C184.974 204.979 184.761 205.361 184.641 205.771C184.52 206.181 184.495 206.609 184.566 207.029C184.638 207.448 184.805 207.849 185.056 208.205C185.306 208.561 185.636 208.864 186.023 209.094C188.385 210.424 192.951 208.566 194.826 207.075C194.927 206.992 195.885 206.063 196.537 205.379C196.24 205.843 195.949 206.327 195.652 206.767C194.593 208.415 193.454 209.862 192.474 211.138C191.902 211.861 191.367 212.502 190.885 213.093C189.916 213.142 186.001 213.392 184.322 214.193C182.643 214.995 180.826 216.393 180.498 218.168C180.403 218.58 180.403 219.005 180.497 219.417C180.591 219.829 180.777 220.219 181.043 220.56C181.309 220.902 181.65 221.189 182.043 221.403C182.436 221.616 182.873 221.751 183.326 221.8Z" fill="#5F0A61"/>
</g>
<g id="Hearts">
<g id="Group" opacity="0.2">
<path id="Vector_7" opacity="0.2" d="M190.138 7.43506C190.138 7.43506 189.857 7.43506 189.349 7.43506" stroke="black" stroke-linecap="round" stroke-linejoin="round"/>
<path id="Vector_8" opacity="0.2" d="M187.76 7.47412C181.97 7.77233 166.964 9.83537 157.87 22.81C147.673 37.3588 153.998 62.5944 153.325 78.9129C152.451 100.076 147.414 124.285 127.026 136.981C104.276 151.158 74.1157 148.191 49.0933 156.849C15.7813 168.376 10.5745 198.623 21.5072 213.993C41.005 241.419 83.5123 223.282 101.077 204.528C108.741 196.34 114.886 186.049 123.938 179.107C131.724 173.138 141.831 170.42 151.625 168.841C176.652 164.783 203.359 160.686 226.003 149.482C249.463 137.876 254.829 112.606 244.892 91.0174C235.024 69.5901 212.051 55.3298 188.057 50.1917C135.12 38.8254 118.721 55.5253 91.7543 26.3397" stroke="black" stroke-linecap="round" stroke-linejoin="round" stroke-dasharray="3 3"/>
<path id="Vector_9" opacity="0.2" d="M91.2404 25.7723L90.7108 25.2102" stroke="black" stroke-linecap="round" stroke-linejoin="round"/>
</g>
<path id="Vector_10" opacity="0.2" d="M60.2485 204.763C60.2381 204.071 59.9777 203.401 59.5085 202.861C59.0393 202.321 58.3882 201.941 57.6584 201.781C56.9286 201.621 56.1619 201.69 55.4797 201.978C54.7974 202.266 54.2388 202.756 53.8922 203.37C53.5457 202.756 52.9871 202.266 52.3048 201.978C51.6226 201.69 50.8559 201.621 50.1261 201.781C49.3963 201.941 48.7452 202.321 48.276 202.861C47.8068 203.401 47.5464 204.071 47.536 204.763C47.536 206.352 48.8496 207.97 50.1527 208.909C51.3421 209.726 52.58 210.482 53.8605 211.172C55.1425 210.484 56.3805 209.728 57.5683 208.909C58.813 208.019 60.2485 206.278 60.2485 204.763Z" stroke="black" stroke-linecap="round" stroke-linejoin="round"/>
<path id="Vector_11" opacity="0.2" d="M45.8039 213.753C45.8026 212.835 45.4658 211.944 44.848 211.224C44.2302 210.504 43.3675 209.998 42.3992 209.786C41.431 209.575 40.4138 209.671 39.512 210.059C38.6102 210.447 37.8766 211.105 37.4296 211.925C36.9826 211.105 36.2489 210.447 35.3472 210.059C34.4454 209.671 33.4282 209.575 32.4599 209.786C31.4917 209.998 30.6289 210.504 30.0111 211.224C29.3933 211.944 29.0566 212.835 29.0552 213.753C29.0552 215.841 30.7767 217.958 32.4876 219.195C33.3457 219.815 37.2548 222.23 37.3766 222.162C37.4878 222.23 41.4022 219.815 42.2603 219.195C43.8812 218.021 45.8039 215.743 45.8039 213.753Z" stroke="black" stroke-linecap="round" stroke-linejoin="round"/>
<path id="Vector_12" opacity="0.2" d="M170.196 217.596C170.192 216.678 169.853 215.787 169.233 215.069C168.613 214.351 167.748 213.847 166.779 213.639C165.81 213.431 164.794 213.531 163.894 213.922C162.994 214.314 162.264 214.974 161.821 215.797C161.378 214.973 160.645 214.311 159.743 213.92C158.84 213.528 157.821 213.43 156.85 213.642C155.88 213.853 155.015 214.361 154.397 215.084C153.779 215.806 153.444 216.7 153.447 217.62C153.447 219.708 155.174 221.825 156.885 223.061C157.743 223.682 161.652 226.097 161.768 226.029C161.885 226.097 165.794 223.682 166.652 223.061C168.278 221.864 170.196 219.586 170.196 217.596Z" stroke="black" stroke-linecap="round" stroke-linejoin="round"/>
<path id="Vector_13" opacity="0.2" d="M228.387 14.5091C228.388 13.8893 228.163 13.2872 227.747 12.8007C227.331 12.3141 226.749 11.9717 226.096 11.829C225.442 11.6862 224.755 11.7517 224.147 12.0146C223.539 12.2775 223.045 12.7224 222.746 13.2772C222.445 12.7251 221.951 12.2829 221.344 12.0219C220.737 11.7609 220.052 11.6964 219.401 11.8389C218.749 11.9813 218.169 12.3223 217.753 12.8068C217.337 13.2914 217.111 13.8911 217.11 14.5091C217.11 15.9122 218.27 17.3397 219.425 18.1708C220.48 18.8911 221.576 19.5585 222.709 20.1702C223.844 19.5599 224.942 18.8924 225.998 18.1708C227.089 17.3788 228.387 15.8486 228.387 14.5091Z" stroke="black" stroke-linecap="round" stroke-linejoin="round"/>
<path id="Vector_14" opacity="0.2" d="M21.735 205.697C21.7393 205.076 21.5155 204.473 21.1002 203.985C20.6849 203.497 20.1025 203.153 19.4483 203.01C18.7941 202.867 18.1067 202.933 17.4984 203.197C16.8901 203.462 16.3968 203.908 16.0991 204.465C15.7996 203.91 15.3057 203.465 14.6975 203.202C14.0894 202.939 13.4028 202.874 12.7493 203.017C12.0958 203.159 11.5138 203.502 11.0979 203.988C10.6819 204.475 10.4564 205.077 10.458 205.697C10.458 207.1 11.6233 208.522 12.7727 209.358C13.8271 210.08 14.9254 210.746 16.062 211.353C17.1987 210.746 18.297 210.08 19.3514 209.358C20.4637 208.566 21.735 207.031 21.735 205.697Z" stroke="black" stroke-linecap="round" stroke-linejoin="round"/>
<path id="Vector_15" opacity="0.2" d="M150.888 211.295C150.89 210.675 150.665 210.073 150.249 209.586C149.833 209.1 149.251 208.757 148.597 208.614C147.944 208.472 147.257 208.537 146.649 208.8C146.041 209.063 145.547 209.508 145.247 210.063C144.946 209.511 144.452 209.068 143.845 208.807C143.238 208.546 142.554 208.482 141.902 208.624C141.251 208.767 140.67 209.108 140.254 209.592C139.839 210.077 139.612 210.676 139.611 211.295C139.611 212.698 140.771 214.125 141.926 214.956C142.981 215.676 144.078 216.344 145.21 216.956C146.346 216.345 147.444 215.678 148.5 214.956C149.596 214.169 150.888 212.634 150.888 211.295Z" stroke="black" stroke-linecap="round" stroke-linejoin="round"/>
<path id="Vector_16" opacity="0.2" d="M132.884 17.0461C132.889 16.4256 132.665 15.8221 132.25 15.3342C131.834 14.8462 131.252 14.5027 130.598 14.3597C129.944 14.2167 129.256 14.2827 128.648 14.5469C128.04 14.811 127.546 15.2578 127.249 15.8141C126.951 15.2578 126.458 14.811 125.849 14.5469C125.241 14.2827 124.554 14.2167 123.899 14.3597C123.245 14.5027 122.663 14.8462 122.247 15.3342C121.832 15.8221 121.608 16.4256 121.613 17.0461C121.613 18.4491 122.773 19.8718 123.922 20.7077C124.98 21.4225 126.078 22.0851 127.211 22.6925C128.347 22.0842 129.445 21.4183 130.501 20.698C131.592 19.9158 132.884 18.3807 132.884 17.0461Z" stroke="black" stroke-linecap="round" stroke-linejoin="round"/>
<path id="Vector_17" opacity="0.2" d="M95.6634 15.4672C95.6665 14.8471 95.4418 14.2444 95.0261 13.7573C94.6103 13.2702 94.028 12.9276 93.3741 12.7852C92.7203 12.6428 92.0334 12.7092 91.4256 12.9734C90.8178 13.2376 90.325 13.6841 90.0275 14.2401C89.7282 13.6857 89.2347 13.241 88.6271 12.978C88.0195 12.7151 87.3335 12.6493 86.6803 12.7914C86.0271 12.9334 85.4451 13.275 85.0287 13.7608C84.6123 14.2465 84.386 14.8478 84.3864 15.4672C84.3864 16.8702 85.5517 18.2977 86.7011 19.1288C87.7557 19.8522 88.8539 20.5197 89.9904 21.1283C91.127 20.5197 92.2252 19.8522 93.2798 19.1288C94.3709 18.3417 95.6634 16.8262 95.6634 15.4672Z" stroke="black" stroke-linecap="round" stroke-linejoin="round"/>
<path id="Vector_18" opacity="0.2" d="M210.87 5.40619C210.873 4.43899 210.52 3.49947 209.871 2.74026C209.222 1.98105 208.314 1.44676 207.294 1.2242C206.274 1.00163 205.203 1.10385 204.254 1.51427C203.305 1.92469 202.534 2.61919 202.067 3.48493C201.6 2.61919 200.829 1.92469 199.88 1.51427C198.931 1.10385 197.86 1.00163 196.84 1.2242C195.82 1.44676 194.912 1.98105 194.262 2.74026C193.613 3.49947 193.261 4.43899 193.263 5.40619C193.263 7.59634 195.075 9.80604 196.876 11.126C197.776 11.7762 201.887 14.3134 202.009 14.245C202.13 14.3134 206.246 11.8006 207.146 11.126C208.852 9.89403 210.87 7.49856 210.87 5.40619Z" stroke="black" stroke-linecap="round" stroke-linejoin="round"/>
</g>
<g id="device 2">
<path id="Vector_19" d="M228.276 197.982L149.098 200.104C147.06 200.158 145.082 199.463 143.599 198.171C142.116 196.879 141.249 195.097 141.19 193.216L136.274 37.1047C136.245 36.1728 136.414 35.2447 136.773 34.3733C137.132 33.5019 137.674 32.7043 138.367 32.026C139.06 31.3478 139.891 30.8022 140.812 30.4204C141.734 30.0386 142.728 29.8281 143.738 29.8009L222.915 27.6792C223.925 27.6512 224.931 27.8072 225.875 28.1384C226.82 28.4695 227.684 28.9693 228.419 29.609C229.154 30.2488 229.745 31.016 230.159 31.8668C230.572 32.7177 230.8 33.6353 230.829 34.5674L235.728 190.679C235.787 192.559 235.035 194.383 233.638 195.753C232.241 197.122 230.312 197.924 228.276 197.982Z" fill="#263238" stroke="#263238" stroke-linecap="round" stroke-linejoin="round"/>
<path id="Vector_20" d="M224.605 197.983L145.438 200.104C144.428 200.132 143.423 199.975 142.479 199.644C141.534 199.312 140.67 198.813 139.935 198.173C139.201 197.533 138.609 196.766 138.196 195.916C137.782 195.065 137.554 194.148 137.524 193.216L132.609 37.1048C132.551 35.2223 133.304 33.3954 134.705 32.0258C136.105 30.6562 138.038 29.856 140.078 29.801L219.255 27.6793C220.265 27.652 221.27 27.8085 222.214 28.1399C223.158 28.4713 224.021 28.9712 224.756 29.6109C225.49 30.2506 226.081 31.0176 226.494 31.8681C226.907 32.7186 227.135 33.6359 227.163 34.5675L232.079 190.679C232.109 191.612 231.94 192.541 231.58 193.413C231.221 194.285 230.678 195.084 229.984 195.762C229.29 196.441 228.457 196.986 227.534 197.367C226.611 197.748 225.616 197.957 224.605 197.983Z" fill="white" stroke="#263238" stroke-miterlimit="10"/>
<path id="Vector_21" d="M187.723 193.426C187.704 192.84 187.497 192.271 187.128 191.793C186.759 191.316 186.245 190.949 185.65 190.741C185.056 190.533 184.408 190.492 183.788 190.623C183.169 190.755 182.605 191.053 182.169 191.48C181.733 191.907 181.444 192.444 181.339 193.023C181.233 193.601 181.316 194.196 181.576 194.731C181.837 195.266 182.263 195.718 182.802 196.03C183.341 196.341 183.967 196.499 184.603 196.481C185.025 196.47 185.441 196.382 185.826 196.222C186.212 196.063 186.559 195.834 186.849 195.55C187.139 195.267 187.365 194.933 187.515 194.569C187.665 194.204 187.736 193.816 187.723 193.426V193.426Z" stroke="white" stroke-linecap="round" stroke-linejoin="round"/>
<path id="Vector_22" d="M223.095 39.1658L136.951 41.47L141.618 190.103L227.762 187.799L223.095 39.1658Z" fill="white" stroke="#263238" stroke-linecap="round" stroke-linejoin="round"/>
<path id="Vector_23" d="M220.213 40.7853L213.07 40.9763L213.184 44.5915L220.326 44.4005L220.213 40.7853Z" stroke="#263238" stroke-width="0.821067" stroke-linecap="round" stroke-linejoin="round"/>
<path id="Vector_24" d="M218.641 40.8273L213.071 40.9763L213.185 44.5915L218.755 44.4425L218.641 40.8273Z" fill="#263238" stroke="#263238" stroke-width="0.725073" stroke-linecap="round" stroke-linejoin="round"/>
<path id="Vector_25" d="M221.237 41.7705L220.231 41.7974L220.281 43.39L221.287 43.3631L221.237 41.7705Z" fill="#263238" stroke="#263238" stroke-width="0.725073" stroke-linecap="round" stroke-linejoin="round"/>
<path id="Vector_26" d="M140.284 44.0414L138.977 44.0764L139.042 46.1478L140.349 46.1128L140.284 44.0414Z" fill="#263238" stroke="#263238" stroke-width="0.883086" stroke-linecap="round" stroke-linejoin="round"/>
<path id="Vector_27" d="M142.324 43.2444L141.016 43.2795L141.104 46.0789L142.412 46.0437L142.324 43.2444Z" fill="#263238" stroke="#263238" stroke-width="0.883086" stroke-linecap="round" stroke-linejoin="round"/>
<path id="Vector_28" d="M144.354 42.3296L143.047 42.3647L143.162 46.0239L144.47 45.9887L144.354 42.3296Z" fill="#263238" stroke="#263238" stroke-width="0.883086" stroke-linecap="round" stroke-linejoin="round"/>
</g>
<g id="device 1">
<path id="Vector_29" d="M108.492 201.033L29.4049 196.961C28.3962 196.909 27.4085 196.674 26.4981 196.27C25.5878 195.866 24.7726 195.3 24.0992 194.605C23.4258 193.91 22.9074 193.099 22.5735 192.219C22.2397 191.339 22.0969 190.407 22.1535 189.476L31.5819 33.5263C31.6994 31.6497 32.6186 29.8927 34.1379 28.6407C35.6572 27.3888 37.6525 26.7442 39.6861 26.8483L118.779 30.9206C120.815 31.0266 122.723 31.8744 124.083 33.2778C125.443 34.6812 126.143 36.5254 126.03 38.4052L116.602 194.355C116.483 196.232 115.563 197.989 114.042 199.241C112.522 200.493 110.526 201.137 108.492 201.033Z" fill="#263238" stroke="#263238" stroke-linecap="round" stroke-linejoin="round"/>
<path id="Vector_30" d="M111.188 201.033L32.101 196.961C31.0923 196.909 30.1046 196.674 29.1942 196.27C28.2838 195.866 27.4687 195.3 26.7953 194.605C26.1219 193.91 25.6035 193.099 25.2696 192.219C24.9358 191.339 24.793 190.407 24.8495 189.476L34.278 33.5261C34.3968 31.6481 35.3179 29.8904 36.8392 28.6384C38.3605 27.3865 40.3578 26.7426 42.3928 26.8481L121.475 30.9204C123.513 31.0251 125.422 31.8724 126.782 33.276C128.143 34.6795 128.844 36.5244 128.732 38.405L119.303 194.355C119.186 196.233 118.265 197.992 116.743 199.244C115.222 200.496 113.224 201.14 111.188 201.033Z" fill="white" stroke="#263238" stroke-miterlimit="10"/>
<path id="Vector_31" d="M74.8467 193.612C74.8823 193.026 74.7289 192.443 74.4058 191.938C74.0827 191.432 73.6045 191.027 73.0315 190.772C72.4586 190.517 71.8166 190.425 71.187 190.507C70.5573 190.589 69.9681 190.842 69.494 191.233C69.0198 191.624 68.682 192.136 68.5232 192.704C68.3644 193.273 68.3918 193.872 68.6018 194.426C68.8119 194.98 69.1953 195.464 69.7035 195.817C70.2116 196.17 70.8217 196.375 71.4567 196.408C72.308 196.452 73.1434 196.182 73.7791 195.658C74.4148 195.134 74.7988 194.398 74.8467 193.612V193.612Z" stroke="white" stroke-linecap="round" stroke-linejoin="round"/>
<path id="Vector_32" d="M124.258 42.6469L38.212 38.2207L29.2467 186.685L115.293 191.112L124.258 42.6469Z" fill="#FAFAFA" stroke="#263238" stroke-linecap="round" stroke-linejoin="round"/>
<path id="Vector_33" d="M121.241 44.033L114.107 43.666L113.889 47.2771L121.023 47.6441L121.241 44.033Z" stroke="#263238" stroke-width="0.821067" stroke-linecap="round" stroke-linejoin="round"/>
<path id="Vector_34" d="M119.668 43.9571L114.104 43.6709L113.886 47.282L119.45 47.5682L119.668 43.9571Z" fill="#263238" stroke="#263238" stroke-width="0.725073" stroke-linecap="round" stroke-linejoin="round"/>
<path id="Vector_35" d="M122.167 45.0986L121.162 45.0469L121.066 46.6377L122.071 46.6894L122.167 45.0986Z" fill="#263238" stroke="#263238" stroke-width="0.725073" stroke-linecap="round" stroke-linejoin="round"/>
<path id="Vector_36" d="M41.2941 41.0482L39.9878 40.981L39.8628 43.05L41.1691 43.1172L41.2941 41.0482Z" fill="#263238" stroke="#263238" stroke-width="0.883086" stroke-linecap="round" stroke-linejoin="round"/>
<path id="Vector_37" d="M43.3888 40.4275L42.0825 40.3604L41.9137 43.1565L43.22 43.2237L43.3888 40.4275Z" fill="#263238" stroke="#263238" stroke-width="0.883086" stroke-linecap="round" stroke-linejoin="round"/>
<path id="Vector_38" d="M45.4924 39.6778L44.1861 39.6104L43.9647 43.2653L45.271 43.3327L45.4924 39.6778Z" fill="#263238" stroke="#263238" stroke-width="0.883086" stroke-linecap="round" stroke-linejoin="round"/>
</g>
<g id="character 2">
<path id="Vector_39" d="M197.294 77.5634C197.294 77.5634 201.871 82.8237 202.724 87.7124C203.576 92.6011 199.821 95.0748 198.486 96.9325C197.235 98.6837 196.461 100.688 196.23 102.775C196.055 104.603 198.852 104.847 198.852 104.847C198.852 104.847 196.929 106.505 192.315 107.38C187.702 108.255 185.043 104.896 185.043 104.896C185.043 104.896 189.688 101.474 190.647 98.6387C191.605 95.8032 191.939 88.0008 191.648 86.1871C191.356 84.3734 190.482 82.3642 190.467 81.8264C190.451 81.2886 191.764 75.8915 197.294 77.5634Z" fill="#263238" stroke="#263238" stroke-linecap="round" stroke-linejoin="round"/>
<path id="Vector_40" d="M208.656 188.655C208.084 184.69 206.22 173.5 206.22 173.5C206.22 173.5 192.278 168.254 178.045 169.1C163.813 169.946 161.043 172.625 161.043 172.625L158.542 189.843H163.839L208.656 188.655Z" fill="#263238" stroke="#263238" stroke-linecap="round" stroke-linejoin="round"/>
<path id="Vector_41" d="M198.465 146.04L197.872 142.359L212.004 142.721C212.004 142.721 200.6 127.355 199.498 122.799C198.396 118.243 194.704 113.022 191.092 110.308C187.479 107.595 181.716 107.605 181.716 107.605L178.681 107.835L179.513 103.67L169.661 96.1018L169.39 97.7346C169.39 97.7346 168.257 102.496 167.701 105.17C167.145 107.844 166.053 108.764 166.053 108.764C166.053 108.764 160.126 103.601 156.418 102.961C152.711 102.32 147.827 104.818 147.149 108.68C146.471 112.543 149.797 145.307 150.168 147.663C150.539 150.019 155.322 159.768 156.217 162.701C157.112 165.634 161.043 173.363 161.043 173.363C161.043 173.363 168.755 179.073 181.748 179.757C194.741 180.442 207.041 174.052 207.041 174.052C207.041 174.052 202.803 161.449 201.701 157.045C200.6 152.64 198.465 146.04 198.465 146.04ZM164.565 158.335C164.565 158.335 162.372 149.672 161.959 146.871C161.546 144.07 160.82 136.116 160.82 136.116L167.123 148.069L164.565 158.335Z" fill="#5F0A61" stroke="#263238" stroke-linecap="round" stroke-linejoin="round"/>
<path id="Vector_42" d="M157.181 127.306L156.344 125.287" stroke="#263238" stroke-linecap="round" stroke-linejoin="round"/>
<path id="Vector_43" d="M160.825 136.111L158.447 130.357" stroke="#263238" stroke-linecap="round" stroke-linejoin="round"/>
<path id="Vector_44" d="M195.424 145.238C195.424 145.238 191.833 153.314 187.214 159.357" stroke="#263238" stroke-linecap="round" stroke-linejoin="round"/>
<path id="Vector_45" d="M181.229 170.821C180.789 171.236 180.35 171.627 179.926 171.979" stroke="#263238" stroke-linecap="round" stroke-linejoin="round"/>
<path id="Vector_46" d="M193.491 155.045C193.491 155.045 188.131 163.497 182.897 169.114" stroke="#263238" stroke-linecap="round" stroke-linejoin="round"/>
<path id="Vector_47" d="M181.7 107.605L178.665 107.835L179.497 103.67L169.645 96.1018L169.375 97.7346C169.375 97.7346 168.241 102.496 167.685 105.17C167.129 107.845 166.037 108.764 166.037 108.764C164.167 107.162 162.15 105.713 160.01 104.432C160.82 106.877 163.924 115.285 169.062 118.292C175.1 121.826 181.573 118.844 182.897 115.114C183.667 112.741 184.147 110.296 184.328 107.825C183.458 107.695 182.581 107.622 181.7 107.605Z" fill="white" stroke="#263238" stroke-linecap="round" stroke-linejoin="round"/>
<path id="Vector_48" d="M177.712 107.375L177.447 111.094L180.599 107.825L177.712 107.375Z" fill="#263238" stroke="#263238" stroke-linecap="round" stroke-linejoin="round"/>
<path id="Vector_49" d="M190.843 122.735C190.843 122.735 191.621 116.947 191.553 114.733C191.484 112.518 190.038 107.233 189.349 105.772C188.66 104.31 185.064 101.895 184.783 103.234C184.502 104.574 185.096 108.123 185.122 108.842C185.149 109.56 184.762 112.699 184.762 112.699C184.762 112.699 184.831 109.888 183.512 108.739C182.193 107.59 181.245 107.913 181.271 108.651V109.389C181.271 109.389 182.786 111.716 182.86 113.637C182.935 115.559 182.723 119.406 182.76 120.589C182.797 121.772 185.297 124.808 185.8 125.532C186.303 126.255 190.954 131.457 190.954 131.457L195.334 128.088L190.843 122.735Z" fill="white" stroke="#263238" stroke-linecap="round" stroke-linejoin="round"/>
<g id="Vector_50">
<path d="M190.996 112.234C190.996 112.234 188.253 106.544 187.145 107.013C186.038 107.482 188.735 112.293 188.735 112.293L189.264 113.466C189.264 113.466 187.145 117.377 186.859 118.555C186.573 119.734 186.61 120.78 186.944 121.215" fill="white"/>
<path d="M190.996 112.234C190.996 112.234 188.253 106.544 187.145 107.013C186.038 107.482 188.735 112.293 188.735 112.293L189.264 113.466C189.264 113.466 187.145 117.377 186.859 118.555C186.573 119.734 186.61 120.78 186.944 121.215" stroke="#263238" stroke-linecap="round" stroke-linejoin="round"/>
</g>
<path id="Vector_51" d="M193.311 124.74L185.143 135.006C185.143 135.006 191.044 139.283 194.492 141.997C197.94 144.71 205.187 150.879 207.607 151.403C210.028 151.926 213.863 151.681 214.048 147.389C214.234 143.097 212.597 141.958 209.779 139.078C206.961 136.199 193.311 124.74 193.311 124.74Z" fill="#5F0A61" stroke="#263238" stroke-linecap="round" stroke-linejoin="round"/>
<path id="Vector_52" d="M194.1 83.4644C195.519 85.5112 196.3 87.8792 196.357 90.3086C196.33 92.6111 193.682 96.6639 193.083 98.6927C192.485 100.722 190.53 103.581 184.974 105.6C180.736 107.136 178.448 108.656 176.578 107.17C174.708 105.684 169.883 99.0985 169.883 99.0985C169.883 99.0985 179.354 90.1668 182.426 87.478C185.498 84.7892 190.069 82.1933 194.1 83.4644Z" fill="white" stroke="#263238" stroke-linecap="round" stroke-linejoin="round"/>
<path id="Vector_53" d="M187.654 99.3525C187.237 99.6182 186.759 99.7925 186.258 99.8619C185.757 99.9314 185.245 99.8942 184.762 99.7533" stroke="#263238" stroke-linecap="round" stroke-linejoin="round"/>
<path id="Vector_54" d="M180.344 99.5481C180.344 99.5481 180.752 101.361 183.681 102.246" stroke="#263238" stroke-linecap="round" stroke-linejoin="round"/>
<path id="Vector_55" d="M182.611 91.7553C182.614 91.9216 182.667 92.0839 182.764 92.2237C182.862 92.3635 183 92.475 183.164 92.5455C183.327 92.616 183.508 92.6426 183.687 92.6222C183.866 92.6019 184.035 92.5354 184.175 92.4304C184.315 92.3255 184.42 92.1862 184.478 92.0288C184.536 91.8713 184.545 91.7019 184.503 91.5401C184.461 91.3783 184.371 91.2305 184.243 91.1138C184.114 90.9972 183.953 90.9162 183.777 90.8804C183.638 90.8669 183.497 90.8788 183.364 90.9155C183.23 90.9522 183.105 91.013 182.997 91.0943C182.889 91.1756 182.799 91.2758 182.733 91.3893C182.666 91.5027 182.625 91.6271 182.611 91.7553Z" fill="#263238"/>
<path id="Vector_56" d="M186.377 91.9019C186.398 91.7056 186.37 91.5075 186.294 91.3229C186.219 91.1384 186.098 90.9723 185.942 90.8377C185.786 90.703 185.598 90.6033 185.394 90.5463C185.189 90.4893 184.973 90.4765 184.762 90.509" stroke="#263238" stroke-linecap="round" stroke-linejoin="round"/>
<path id="Vector_57" d="M190.705 94.278C190.706 94.415 190.75 94.5488 190.83 94.6641C190.91 94.7794 191.024 94.8715 191.158 94.9298C191.293 94.9881 191.442 95.0102 191.59 94.9936C191.737 94.977 191.876 94.9224 191.992 94.836C192.107 94.7496 192.193 94.635 192.241 94.5053C192.289 94.3756 192.296 94.236 192.262 94.1027C192.228 93.9694 192.154 93.8477 192.048 93.7516C191.942 93.6555 191.809 93.5889 191.664 93.5595C191.434 93.5402 191.205 93.6046 191.026 93.7388C190.847 93.873 190.732 94.0665 190.705 94.278Z" fill="#263238"/>
<path id="Vector_58" d="M193.528 94.6002C193.549 94.4034 193.521 94.2048 193.445 94.0198C193.369 93.8349 193.248 93.6685 193.091 93.5337C192.935 93.399 192.746 93.2994 192.541 93.2428C192.335 93.1862 192.119 93.174 191.907 93.2073" stroke="#263238" stroke-linecap="round" stroke-linejoin="round"/>
<path id="Vector_59" d="M188.984 89.6677C188.223 89.0312 187.279 88.6103 186.266 88.4556C185.275 88.3769 184.283 88.5964 183.438 89.0812" stroke="#263238" stroke-linecap="round" stroke-linejoin="round"/>
<path id="Vector_60" d="M192.506 91.907C192.506 91.907 193.835 92.0145 194.434 93.7251" stroke="#263238" stroke-linecap="round" stroke-linejoin="round"/>
<path id="Vector_61" d="M198.566 79.2844C198.566 79.2844 192.554 84.5936 189.164 87.0526C185.774 89.5116 184.396 89.1254 181.218 92.968C178.04 96.8105 175.111 100.091 170.789 101.597C166.467 103.102 161.138 101.597 159.136 100.101C157.133 98.6046 156.641 97.3874 156.641 97.3874C156.641 97.3874 159.777 97.2896 159.565 94.5226C158.648 82.7603 158.595 81.2497 159.681 77.4658C160.767 73.682 167.192 68.715 176.695 68.8813C186.197 69.0475 194.667 74.6597 196.51 75.7255C198.354 76.7912 199.275 77.7347 198.566 79.2844Z" fill="#263238" stroke="#263238" stroke-linecap="round" stroke-linejoin="round"/>
<path id="Vector_62" d="M164.041 94.6149C163.441 94.4541 162.89 94.1674 162.431 93.7774C161.971 93.3874 161.616 92.9045 161.392 92.3667" stroke="#696969" stroke-linecap="round" stroke-linejoin="round"/>
<path id="Vector_63" d="M190.212 80.0225C186.595 82.7601 181.123 87.0475 177.5 90.6016C174.853 93.2577 171.186 94.8541 167.282 95.0504" stroke="#696969" stroke-linecap="round" stroke-linejoin="round"/>
<path id="Vector_64" d="M193.936 77.2654C193.936 77.2654 193.406 77.6417 192.538 78.2869" stroke="#696969" stroke-linecap="round" stroke-linejoin="round"/>
<path id="Vector_65" d="M169.274 88.8566C168.515 89.249 167.707 89.556 166.869 89.7708C162.324 90.7828 160.942 85.2634 160.942 85.2634" stroke="#696969" stroke-linecap="round" stroke-linejoin="round"/>
<path id="Vector_66" d="M183.883 79.3137C180.079 82.184 176.121 84.8746 172.023 87.3752" stroke="#696969" stroke-linecap="round" stroke-linejoin="round"/>
<path id="Vector_67" d="M162.293 82.1142C162.293 82.1142 163.537 83.4143 167.139 83.0917C170.741 82.7692 174.735 79.5532 174.735 79.5532" stroke="#696969" stroke-linecap="round" stroke-linejoin="round"/>
<path id="Vector_68" d="M164.57 158.335L161.154 171.882" stroke="#263238" stroke-linecap="round" stroke-linejoin="round"/>
</g>
<g id="character 1">
<path id="Vector_69" d="M96.2407 190.073L99.7843 165.062C99.7843 165.062 97.5861 161.64 88.7138 161.151C79.8416 160.662 58.6753 168.484 58.6753 168.484L53.442 187.853L96.2407 190.073Z" fill="#263238" stroke="#263238" stroke-linecap="round" stroke-linejoin="round"/>
<path id="Vector_70" d="M65.9161 96.5122L48.0657 89.3747L63.1777 78.1648L61.2496 74.2881C61.2496 74.2881 43.8441 79.6119 39.8767 81.6212C35.9094 83.6304 27.7734 86.7348 27.6675 88.524C27.5615 90.3133 47.7426 106.651 53.0924 109.37C58.4423 112.088 65.4023 116.668 65.4023 116.668C65.4023 116.668 63.2836 144.089 63.1829 145.419C63.0823 146.749 55.3489 176.012 55.2959 176.897C55.2429 177.782 58.7495 178.936 64.5336 178.794C70.3178 178.652 78.4061 172.18 80.4242 170.508C82.4424 168.836 87.379 166.871 89.5507 166.758C91.7225 166.646 99.7578 165.062 99.7578 165.062L111.729 130.156C111.729 130.156 116.549 110.201 112.64 107.551C108.731 104.901 92.5117 102.076 92.5117 102.076L74.8202 100.276L65.9161 96.5122Z" fill="#5F0A61" stroke="#263238" stroke-linecap="round" stroke-linejoin="round"/>
<g id="Vector_71">
<path d="M75.6306 166.18C77.4739 164.949 79.8681 163.678 82.2411 163.341C85.5346 162.905 88.8562 162.674 92.1833 162.652" fill="#5F0A61"/>
<path d="M75.6306 166.18C77.4739 164.949 79.8681 163.678 82.2411 163.341C85.5346 162.905 88.8562 162.674 92.1833 162.652" stroke="#263238" stroke-linecap="round" stroke-linejoin="round"/>
</g>
<g id="Vector_72">
<path d="M72.2459 168.865C72.2459 168.865 72.6379 168.489 73.3053 167.927L72.2459 168.865Z" fill="#5F0A61"/>
<path d="M72.2459 168.865C72.2459 168.865 72.6379 168.489 73.3053 167.927" stroke="#263238" stroke-linecap="round" stroke-linejoin="round"/>
</g>
<g id="Vector_73">
<path d="M79.1212 161.757C78.3232 161.962 77.5482 162.237 76.8065 162.578L79.1212 161.757Z" fill="#5F0A61"/>
<path d="M79.1212 161.757C78.3232 161.962 77.5482 162.237 76.8065 162.578" stroke="#263238" stroke-linecap="round" stroke-linejoin="round"/>
</g>
<g id="Vector_74">
<path d="M89.6779 161.317C86.9948 160.981 84.2754 160.971 81.5895 161.288L89.6779 161.317Z" fill="#5F0A61"/>
<path d="M89.6779 161.317C86.9948 160.981 84.2754 160.971 81.5895 161.288" stroke="#263238" stroke-linecap="round" stroke-linejoin="round"/>
</g>
<path id="Vector_75" d="M61.9859 105.258L61.4138 103.361" stroke="#263238" stroke-linecap="round" stroke-linejoin="round"/>
<path id="Vector_76" d="M65.4182 116.669L62.6056 107.316" stroke="#263238" stroke-linecap="round" stroke-linejoin="round"/>
<path id="Vector_77" d="M48.0657 89.3502C45.588 89.6027 43.0821 89.4738 40.6501 88.969" stroke="#263238" stroke-linecap="round" stroke-linejoin="round"/>
<g id="Vector_78">
<path d="M101.267 125.038L109.61 145.81C109.61 145.81 99.3182 160.823 97.5172 162.725C96.0203 164.219 94.4152 165.617 92.713 166.91L89.5984 166.748C88.1577 166.675 84.6035 165.824 83.8036 167.115C83.0038 168.406 83.1468 169.97 80.4719 170.498C77.797 171.026 80.1488 171.813 81.8279 171.901C83.507 171.989 85.308 170.082 86.023 170.117L87.7021 170.205L95.176 177.914L98.7355 170.772C98.7355 170.772 114.277 156.472 116.835 153.94C119.393 151.408 123.525 146.739 123.525 146.739C123.525 146.739 116.019 115.72 115.267 111.907C114.515 108.094 112.285 105.551 105.023 106.27" fill="#5F0A61"/>
<path d="M101.267 125.038L109.61 145.81C109.61 145.81 99.3182 160.823 97.5172 162.725C96.0203 164.219 94.4152 165.617 92.713 166.91L89.5984 166.748C88.1577 166.675 84.6035 165.824 83.8036 167.115C83.0038 168.406 83.1468 169.97 80.4719 170.498C77.797 171.026 80.1488 171.813 81.8279 171.901C83.507 171.989 85.308 170.082 86.023 170.117L87.7021 170.205L95.176 177.914L98.7355 170.772C98.7355 170.772 114.277 156.472 116.835 153.94C119.393 151.408 123.525 146.739 123.525 146.739C123.525 146.739 116.019 115.72 115.267 111.907C114.515 108.094 112.285 105.551 105.023 106.27" stroke="#263238" stroke-linecap="round" stroke-linejoin="round"/>
</g>
<path id="Vector_79" d="M94.6251 165.379C93.5658 166.269 92.6918 166.919 92.6918 166.919L89.5772 166.758C88.1365 166.685 84.5823 165.834 83.7825 167.125C82.9826 168.415 83.1257 169.98 80.4507 170.508C77.7758 171.036 80.1276 171.823 81.8067 171.911C83.4858 171.999 85.2868 170.092 86.0019 170.126L87.681 170.214L95.1548 177.924L98.7143 170.781L99.6731 169.897L94.6251 165.379Z" fill="white" stroke="#263238" stroke-linecap="round" stroke-linejoin="round"/>
<path id="Vector_80" d="M81.7856 117.113L77.7494 113.227L72.2512 117.015L78.8723 106.446L82.6437 107.693L81.7856 117.113Z" fill="white" stroke="#263238" stroke-linecap="round" stroke-linejoin="round"/>
<path id="Vector_81" d="M77.4262 106.779C77.4262 106.779 79.9687 111.902 80.6891 114.043C81.4095 116.184 81.7855 117.123 81.7855 117.123L93.0202 100.878C93.0202 100.878 89.9692 94.811 89.6567 92.9533C89.5228 91.9741 89.1942 91.0261 88.6873 90.157C88.6873 90.157 88.2212 95.5346 83.989 99.5091C81.5745 101.75 79.3784 104.182 77.4262 106.779Z" fill="white" stroke="#263238" stroke-linecap="round" stroke-linejoin="round"/>
<path id="Vector_82" d="M77.4262 106.778C77.4262 106.778 78.3743 108.69 79.2801 110.689L84.2645 102.315L82.4794 100.995C80.644 102.806 78.9551 104.739 77.4262 106.778Z" fill="#263238" stroke="#263238" stroke-linecap="round" stroke-linejoin="round"/>
<path id="Vector_83" d="M83.0674 112.445L81.7855 117.113L86.558 113.545L83.0674 112.445Z" fill="white" stroke="#263238" stroke-linecap="round" stroke-linejoin="round"/>
<path id="Vector_84" d="M92.4799 98.0815L83.0674 112.445L89.0423 119.587L96.6221 103.322L92.4799 98.0815Z" fill="white" stroke="#263238" stroke-linecap="round" stroke-linejoin="round"/>
<path id="Vector_85" d="M60.222 84.8821C60.222 84.8821 62.7222 93.1929 63.8239 96.2777C64.9257 99.3625 66.9067 101.973 69.8094 103.572C72.712 105.17 73.8615 107.483 77.1349 107.644C80.4084 107.805 83.6236 104.285 84.4181 103.005C85.2127 101.724 88.9999 98.1159 89.3071 95.3488C89.6144 92.5818 89.7838 89.8344 89.7838 89.8344C90.5633 89.0057 91.1403 88.0319 91.4757 86.9792C91.8111 85.9265 91.8971 84.8194 91.7278 83.7333C91.0869 80.1401 88.8622 79.1036 88.8622 79.1036C88.8622 79.1036 86.4256 72.1226 78.7981 70.6755C71.1707 69.2284 61.3185 75.97 60.9 78.4534C60.5975 80.4122 60.4206 82.3858 60.3704 84.3639L60.222 84.8821Z" fill="white" stroke="#263238" stroke-linecap="round" stroke-linejoin="round"/>
<path id="Vector_86" d="M68.0084 92.3716C68.0084 92.3716 67.1238 95.2266 67.77 96.3119C68.4162 97.3972 70.3443 96.3119 71.2289 95.823" stroke="#263238" stroke-linecap="round" stroke-linejoin="round"/>
<path id="Vector_87" d="M68.7659 98.7368C68.7659 98.7368 70.6992 99.8905 73.6655 98.067C75.4417 96.9706 76.7896 95.3769 77.511 93.5205" stroke="#263238" stroke-linecap="round" stroke-linejoin="round"/>
<path id="Vector_88" d="M77.315 88.1229C77.3063 88.3137 77.2395 88.4985 77.1223 88.656C77.005 88.8134 76.842 88.9372 76.652 89.0131C76.462 89.089 76.2526 89.114 76.048 89.0852C75.8433 89.0563 75.6515 88.9749 75.4947 88.8501C75.3379 88.7253 75.2224 88.5623 75.1614 88.3797C75.1004 88.1972 75.0964 88.0024 75.1498 87.8178C75.2033 87.6333 75.312 87.4663 75.4635 87.3361C75.6151 87.206 75.8033 87.1178 76.0067 87.0818C76.3284 87.0654 76.6445 87.1647 76.8884 87.3588C77.1324 87.553 77.2853 87.8268 77.315 88.1229Z" fill="#263238"/>
<path id="Vector_89" d="M72.9981 88.2009C72.9794 87.9752 73.0176 87.7485 73.1098 87.5387C73.2019 87.3289 73.3454 87.1416 73.5291 86.9915C73.7128 86.8415 73.9316 86.7327 74.1685 86.6737C74.4053 86.6147 74.6538 86.6071 74.8944 86.6516" stroke="#263238" stroke-linecap="round" stroke-linejoin="round"/>
<path id="Vector_90" d="M67.9713 90.7826C67.9658 90.9406 67.9119 91.0939 67.8158 91.2247C67.7196 91.3555 67.5852 91.4585 67.4282 91.5218C67.2712 91.585 67.0979 91.6058 66.9286 91.5818C66.7593 91.5578 66.6008 91.49 66.4715 91.3862C66.3423 91.2825 66.2476 91.147 66.1984 90.9956C66.1492 90.8442 66.1476 90.683 66.1937 90.5308C66.2398 90.3785 66.3318 90.2415 66.4589 90.1355C66.586 90.0296 66.7431 89.959 66.912 89.9321C67.1732 89.9211 67.429 90.0032 67.6262 90.1616C67.8235 90.3199 67.9471 90.5423 67.9713 90.7826Z" fill="#263238"/>
<path id="Vector_91" d="M64.7137 91.0705C64.6949 90.8443 64.7331 90.6171 64.8255 90.4069C64.918 90.1966 65.062 90.009 65.2463 89.8589C65.4306 89.7087 65.6502 89.6 65.8878 89.5414C66.1253 89.4828 66.3744 89.4759 66.6153 89.5212" stroke="#263238" stroke-linecap="round" stroke-linejoin="round"/>
<path id="Vector_92" d="M62.8387 89.6674C62.8387 89.6674 62.9605 88.7681 64.5125 88.0056C66.0645 87.2432 66.52 87.2041 66.52 87.2041" stroke="#263238" stroke-linecap="round" stroke-linejoin="round"/>
<path id="Vector_93" d="M70.0848 85.5563C70.9455 85.0516 71.9281 84.7511 72.9451 84.6814C74.1296 84.6099 75.3186 84.7324 76.4569 85.0431" stroke="#263238" stroke-linecap="round" stroke-linejoin="round"/>
<path id="Vector_94" d="M68.2785 63.4254C68.2785 63.4254 64.0093 61.9979 60.6723 62.4966C57.3352 62.9952 50.5499 68.3973 51.604 70.8563C52.6581 73.3153 57.1392 71.2767 56.7473 72.7287C56.3553 74.1806 50.8254 76.3023 49.9991 80.0031C49.1728 83.7038 51.6199 87.9814 55.6614 88.1868C59.7029 88.3921 61.7581 81.8314 62.2454 83.7136C62.7327 85.5958 64.5231 85.8353 67.8283 83.3323C71.1336 80.8293 74.2693 76.1703 75.2439 77.4267C76.2186 78.6831 76.3033 82.6967 77.3203 82.8825C78.3373 83.0683 80.08 81.9537 81.24 82.6821C82.4 83.4105 83.1416 85.9917 84.0738 85.5029C85.0061 85.014 84.63 83.7918 85.1332 82.7505C85.6364 81.7092 85.7052 79.6071 88.0359 79.4213C88.931 79.3529 89.3919 79.3578 89.3919 79.3578C89.3919 79.3578 91.1504 72.626 88.5655 68.2164C85.9807 63.8067 76.9124 62.2619 74.7937 62.6872C73.5438 62.933 72.3179 63.2731 71.1283 63.7041L68.2785 63.4254Z" fill="#263238" stroke="#263238" stroke-linecap="round" stroke-linejoin="round"/>
<path id="Vector_95" d="M86.5898 74.6743C87.234 74.9279 87.8241 75.2854 88.3324 75.73" stroke="#696969" stroke-linecap="round" stroke-linejoin="round"/>
<path id="Vector_96" d="M76.9495 76.468C76.9495 76.468 80.9698 73.8776 84.8101 74.2491" stroke="#696969" stroke-linecap="round" stroke-linejoin="round"/>
<path id="Vector_97" d="M69.0678 72.6846C66.324 73.8188 63.04 75.7694 62.0971 78.8297C60.3968 84.3637 68.5487 79.8074 69.8464 78.3408C71.1442 76.8742 67.055 76.6395 66.0115 77.9204" stroke="#696969" stroke-linecap="round" stroke-linejoin="round"/>
<path id="Vector_98" d="M73.1569 71.3892C72.2853 71.5834 71.4274 71.8266 70.588 72.1174" stroke="#696969" stroke-linecap="round" stroke-linejoin="round"/>
<path id="Vector_99" d="M74.5553 66.9258C71.9521 67.3187 69.4196 68.0391 67.0285 69.067C61.8216 71.4723 54.4749 77.3241 53.4844 81.7239" stroke="#696969" stroke-linecap="round" stroke-linejoin="round"/>
<path id="Vector_100" d="M79.4708 66.3735C79.4708 66.3735 78.0619 66.4273 76.0385 66.701" stroke="#696969" stroke-linecap="round" stroke-linejoin="round"/>
</g>
<g id="text baloon 2">
<path id="Vector_101" d="M148.791 47.9576H171.038C172.021 47.9576 172.964 48.3181 173.66 48.9599C174.355 49.6016 174.746 50.4721 174.746 51.3797V62.4624C174.746 63.37 174.355 64.2404 173.66 64.8822C172.964 65.5239 172.021 65.8845 171.038 65.8845H155.147L156.016 71.7509L150.634 65.8845H148.775C147.792 65.8845 146.849 65.5239 146.153 64.8822C145.458 64.2404 145.067 63.37 145.067 62.4624V51.3797C145.067 50.929 145.164 50.4828 145.351 50.0667C145.538 49.6505 145.813 49.2726 146.159 48.9547C146.505 48.6367 146.915 48.3849 147.367 48.2138C147.819 48.0427 148.303 47.9556 148.791 47.9576Z" fill="white" stroke="#263238" stroke-linecap="round" stroke-linejoin="round"/>
<path id="Vector_102" d="M157.066 59.9363C159.109 58.1743 159.219 55.2169 157.309 53.3307C155.4 51.4445 152.196 51.3438 150.152 53.1058C148.109 54.8678 147.999 57.8252 149.909 59.7114C151.818 61.5976 155.022 61.6983 157.066 59.9363Z" fill="#5F0A61" stroke="#263238" stroke-linecap="round" stroke-linejoin="round"/>
<path id="Vector_103" d="M151.582 54.8946C151.898 54.6571 152.281 54.5087 152.686 54.4671C153.091 54.4255 153.501 54.4925 153.865 54.66" stroke="#263238" stroke-linecap="round" stroke-linejoin="round"/>
<path id="Vector_104" d="M156.397 54.8946C156.533 54.8016 156.69 54.7399 156.857 54.7145C157.023 54.6891 157.194 54.7008 157.355 54.7486C157.515 54.7964 157.661 54.879 157.78 54.9894C157.899 55.0998 157.988 55.2349 158.039 55.3833" stroke="#263238" stroke-linecap="round" stroke-linejoin="round"/>
<path id="Vector_105" d="M152.599 57.1143C152.851 57.387 153.162 57.6084 153.512 57.7642C153.862 57.92 154.243 58.0069 154.631 58.0193C155.019 58.0317 155.406 57.9694 155.767 57.8363C156.127 57.7032 156.454 57.5022 156.726 57.2462" stroke="#263238" stroke-linecap="round" stroke-linejoin="round"/>
<path id="Vector_106" opacity="0.2" d="M152.599 56.7079C152.599 56.4653 152.521 56.2281 152.375 56.0264C152.229 55.8247 152.022 55.6674 151.779 55.5746C151.536 55.4817 151.268 55.4574 151.01 55.5048C150.753 55.5521 150.516 55.6689 150.33 55.8405C150.144 56.0121 150.017 56.2307 149.966 56.4686C149.915 56.7066 149.941 56.9532 150.042 57.1774C150.142 57.4016 150.313 57.5932 150.531 57.728C150.75 57.8627 151.007 57.9347 151.27 57.9347C151.622 57.9347 151.961 57.8054 152.21 57.5754C152.459 57.3453 152.599 57.0333 152.599 56.7079Z" fill="black"/>
<path id="Vector_107" opacity="0.2" d="M158.421 56.9671C158.42 56.7537 158.35 56.5453 158.221 56.3683C158.091 56.1914 157.908 56.0537 157.694 55.9727C157.48 55.8917 157.245 55.871 157.018 55.9132C156.792 55.9554 156.584 56.0587 156.42 56.2099C156.257 56.3612 156.146 56.5537 156.102 56.763C156.057 56.9724 156.08 57.1893 156.169 57.3864C156.258 57.5835 156.408 57.7519 156.6 57.8704C156.793 57.9889 157.019 58.0521 157.25 58.0521C157.404 58.0521 157.557 58.024 157.699 57.9694C157.842 57.9148 157.971 57.8348 158.08 57.734C158.188 57.6332 158.275 57.5135 158.333 57.3819C158.392 57.2503 158.421 57.1093 158.421 56.9671Z" fill="black"/>
<path id="Vector_108" d="M168.923 60.0885C171.045 58.407 171.288 55.4563 169.466 53.498C167.644 51.5397 164.447 51.3152 162.325 52.9967C160.203 54.6782 159.96 57.6288 161.782 59.5871C163.604 61.5455 166.801 61.7699 168.923 60.0885Z" fill="#5F0A61" stroke="#263238" stroke-linecap="round" stroke-linejoin="round"/>
<path id="Vector_109" d="M163.59 54.8946C163.906 54.6581 164.288 54.5102 164.692 54.4686C165.096 54.427 165.504 54.4934 165.868 54.66" stroke="#263238" stroke-linecap="round" stroke-linejoin="round"/>
<path id="Vector_110" d="M168.4 54.8946C168.535 54.8006 168.693 54.738 168.861 54.712C169.028 54.6861 169.199 54.6975 169.361 54.7454C169.522 54.7933 169.669 54.8762 169.788 54.9872C169.908 55.0982 169.996 55.2341 170.047 55.3834" stroke="#263238" stroke-linecap="round" stroke-linejoin="round"/>
<path id="Vector_111" d="M164.602 57.1143C164.854 57.387 165.165 57.6084 165.515 57.7642C165.864 57.92 166.245 58.0069 166.634 58.0193C167.022 58.0317 167.409 57.9694 167.769 57.8363C168.13 57.7032 168.456 57.5022 168.728 57.2462" stroke="#263238" stroke-linecap="round" stroke-linejoin="round"/>
<path id="Vector_112" opacity="0.2" d="M164.602 56.7079C164.602 56.4653 164.524 56.2281 164.378 56.0264C164.232 55.8247 164.024 55.6674 163.781 55.5746C163.538 55.4817 163.271 55.4574 163.013 55.5048C162.755 55.5521 162.518 55.6689 162.332 55.8405C162.146 56.0121 162.02 56.2307 161.969 56.4686C161.917 56.7066 161.944 56.9532 162.044 57.1774C162.145 57.4016 162.315 57.5932 162.534 57.728C162.753 57.8627 163.01 57.9347 163.273 57.9347C163.625 57.9347 163.963 57.8054 164.213 57.5754C164.462 57.3453 164.602 57.0333 164.602 56.7079Z" fill="black"/>
<path id="Vector_113" opacity="0.2" d="M170.429 56.9671C170.427 56.7537 170.358 56.5453 170.229 56.3683C170.099 56.1914 169.916 56.0537 169.702 55.9727C169.488 55.8917 169.253 55.871 169.026 55.9132C168.8 55.9554 168.592 56.0587 168.428 56.2099C168.265 56.3612 168.154 56.5537 168.109 56.763C168.065 56.9724 168.088 57.1893 168.177 57.3864C168.266 57.5835 168.416 57.7519 168.608 57.8704C168.801 57.9889 169.027 58.0521 169.258 58.0521C169.412 58.0521 169.565 58.024 169.707 57.9694C169.849 57.9148 169.979 57.8348 170.088 57.734C170.196 57.6332 170.282 57.5135 170.341 57.3819C170.399 57.2503 170.429 57.1093 170.429 56.9671Z" fill="black"/>
</g>
<g id="text baloon 1">
<path id="Vector_114" d="M109.663 47.9575H87.4161C86.4327 47.9575 85.4896 48.3181 84.7943 48.9598C84.099 49.6016 83.7083 50.472 83.7083 51.3796V62.4623C83.7083 63.3699 84.099 64.2404 84.7943 64.8821C85.4896 65.5239 86.4327 65.8844 87.4161 65.8844H103.307L102.438 71.7509L107.82 65.8844H109.663C110.646 65.8844 111.589 65.5239 112.285 64.8821C112.98 64.2404 113.371 63.3699 113.371 62.4623V51.3796C113.371 50.472 112.98 49.6016 112.285 48.9598C111.589 48.3181 110.646 47.9575 109.663 47.9575Z" fill="white" stroke="#263238" stroke-linecap="round" stroke-linejoin="round"/>
<path id="Vector_115" d="M106.766 54.7578C106.764 53.8395 106.427 52.9484 105.81 52.2286C105.192 51.5087 104.329 51.0022 103.361 50.7908C102.393 50.5794 101.375 50.6755 100.474 51.0636C99.5718 51.4516 98.8382 52.109 98.3912 52.9294C97.9442 52.109 97.2106 51.4516 96.3088 51.0636C95.407 50.6755 94.3898 50.5794 93.4215 50.7908C92.4533 51.0022 91.5906 51.5087 90.9727 52.2286C90.3549 52.9484 90.0182 53.8395 90.0168 54.7578C90.0168 56.8404 91.7436 58.9621 93.4545 60.1989C94.3126 60.8198 98.2217 63.2299 98.3382 63.1664C98.4547 63.2299 102.364 60.8198 103.222 60.1989C104.848 59.0257 106.766 56.7475 106.766 54.7578Z" fill="#5F0A61" stroke="#263238" stroke-linecap="round" stroke-linejoin="round"/>
</g>
</g>
</g>
</svg>
