<svg width="251" height="228" viewBox="0 0 251 228" fill="none" xmlns="http://www.w3.org/2000/svg">
<g id="Group 58">
<g id="online-connection/bro">
<g id="Floor">
<path id="Vector" d="M125.069 228C166.321 228 199.762 226.005 199.762 223.544C199.762 221.084 166.321 219.089 125.069 219.089C83.8179 219.089 50.377 221.084 50.377 223.544C50.377 226.005 83.8179 228 125.069 228Z" fill="#263238"/>
</g>
<g id="Plants">
<path id="Vector_2" d="M50.9202 192.598C51.9632 193.009 54.5109 192.96 54.5109 192.96C54.5109 192.96 53.9677 191.44 53.9188 191.346C53.3756 190.282 51.5938 188.524 50.1543 188.702C49.9139 188.737 49.6843 188.818 49.4809 188.94C49.2774 189.062 49.1047 189.221 48.9743 189.409C48.8438 189.596 48.7585 189.806 48.724 190.026C48.6896 190.246 48.7068 190.469 48.7745 190.683C49.0081 191.569 50.0294 192.242 50.9202 192.598Z" fill="#263238"/>
<path id="Vector_3" d="M51.7948 199.316C52.8812 199.46 55.1465 198.861 55.3312 198.821C55.7042 200.003 56.1633 201.161 56.7055 202.287C57.0206 202.945 57.3574 203.604 57.705 204.267C57.4986 203.995 57.3085 203.772 57.2759 203.713C56.4284 202.821 54.2176 201.549 52.8812 202.069C52.6621 202.16 52.4665 202.293 52.3073 202.458C52.148 202.623 52.0286 202.816 51.9569 203.026C51.8852 203.235 51.8627 203.457 51.8909 203.675C51.9191 203.893 51.9974 204.103 52.1207 204.292C52.6151 205.109 53.7938 205.515 54.7553 205.638C55.7168 205.762 57.6724 205.292 58.1885 205.143C58.3243 205.396 58.4546 205.638 58.5904 205.891C59.2532 207.089 59.9105 208.277 60.5243 209.46C60.7362 209.876 60.9317 210.297 61.1327 210.713C60.948 210.465 60.7905 210.262 60.7633 210.218C59.9159 209.327 57.6996 208.054 56.3633 208.569C56.1447 208.661 55.9497 208.794 55.791 208.959C55.6322 209.124 55.5131 209.317 55.4415 209.527C55.3698 209.736 55.3471 209.957 55.3749 210.175C55.4027 210.393 55.4803 210.603 55.6028 210.792C56.0971 211.614 57.2813 212.015 58.2374 212.143C59.1934 212.272 60.9534 211.841 61.5781 211.688C61.7628 212.119 61.953 212.554 62.1214 212.98C62.2191 213.277 62.3441 213.549 62.4256 213.851C62.507 214.153 62.6048 214.441 62.6972 214.733C62.8438 215.297 63.0014 215.881 63.1317 216.431C63.2241 216.817 63.3056 217.188 63.3925 217.559C63.1806 217.139 62.7515 216.332 62.708 216.267C62.0181 215.277 60.0408 213.703 58.6393 214.03C58.4075 214.09 58.1921 214.194 58.0072 214.335C57.8223 214.476 57.6719 214.651 57.5659 214.849C57.4599 215.046 57.4006 215.262 57.3918 215.481C57.383 215.701 57.4249 215.92 57.5149 216.124C57.868 217 58.9653 217.564 59.8942 217.822C60.91 218.104 63.1535 217.822 63.4468 217.822C63.5826 218.436 63.7076 219.035 63.8162 219.599C64.0606 220.847 64.2399 221.97 64.3594 222.916H65.31C65.1416 221.926 64.9244 220.767 64.6419 219.451C64.5061 218.827 64.3486 218.163 64.1802 217.47C64.8593 217.223 65.5214 216.939 66.1629 216.619C66.9071 217.351 68.8084 218.213 69.0528 218.322C68.7921 218.901 68.5368 219.46 68.2814 219.99C67.7382 221.094 67.2602 222.069 66.8148 222.901H67.8469C68.2217 222.134 68.64 221.262 69.0745 220.292C69.3407 219.708 69.6178 219.074 69.8839 218.421C70.1555 218.47 72.3882 218.886 73.4311 218.673C74.3709 218.475 75.5171 217.99 75.9354 217.139C76.0424 216.942 76.1028 216.727 76.1126 216.508C76.1224 216.289 76.0813 216.071 75.9921 215.867C75.9029 215.663 75.7676 215.479 75.5949 215.326C75.4223 215.173 75.2162 215.055 74.9902 214.98C73.6158 214.559 71.519 215.97 70.7476 216.931C70.7042 216.985 70.2859 217.644 70.0306 218.064C70.1392 217.797 70.2479 217.54 70.3565 217.262C70.5738 216.718 70.7748 216.168 70.9975 215.574C71.0899 215.287 71.1877 214.995 71.2854 214.703C71.3832 214.411 71.4538 214.094 71.5407 213.787C71.7309 213.069 71.8775 212.337 72.0133 211.594C72.5566 211.767 74.4089 212.361 75.3813 212.302C76.3536 212.242 77.5542 211.916 78.0974 211.134C78.2356 210.954 78.3308 210.75 78.3768 210.534C78.4227 210.319 78.4184 210.097 78.3641 209.883C78.3098 209.669 78.2067 209.468 78.0615 209.293C77.9164 209.118 77.7324 208.972 77.5216 208.866C76.2287 208.257 73.92 209.361 73.002 210.208C72.9422 210.262 72.361 210.926 72.0459 211.297C72.122 210.851 72.2035 210.406 72.2632 209.95C72.4425 208.638 72.5783 207.307 72.7195 205.99C72.763 205.584 72.8119 205.178 72.8608 204.772C73.0455 204.836 75.2509 205.584 76.3373 205.515C77.3043 205.455 78.5102 205.133 79.0534 204.351C79.1915 204.171 79.2863 203.967 79.3319 203.751C79.3775 203.535 79.3727 203.313 79.3178 203.099C79.263 202.885 79.1594 202.685 79.0137 202.51C78.868 202.335 78.6835 202.19 78.4722 202.084C77.1848 201.475 74.8761 202.579 73.9581 203.425C73.8874 203.49 73.0455 204.445 72.8716 204.698C72.9748 203.807 73.0889 202.916 73.241 202.044C73.4359 200.874 73.7154 199.716 74.0776 198.579C74.159 198.609 76.4623 199.401 77.5759 199.331C78.5374 199.267 79.7488 198.945 80.292 198.163C80.4302 197.983 80.5254 197.779 80.5714 197.564C80.6173 197.348 80.613 197.126 80.5587 196.912C80.5044 196.698 80.4013 196.497 80.2561 196.322C80.111 196.147 79.927 196.002 79.7162 195.896C78.4233 195.287 76.1146 196.391 75.1966 197.237C75.126 197.302 74.2188 198.336 74.0721 198.534C74.0721 198.465 74.1102 198.396 74.1319 198.326C74.5282 197.187 75.0354 196.082 75.6475 195.024C75.9788 194.435 76.3265 193.891 76.685 193.366C77.0978 193.554 78.9882 194.391 79.9986 194.43C81.009 194.47 82.2041 194.267 82.8559 193.544C83.0152 193.379 83.1345 193.186 83.2062 192.976C83.278 192.767 83.3005 192.545 83.2723 192.327C83.2441 192.109 83.1659 191.899 83.0427 191.71C82.9195 191.522 82.7541 191.359 82.5572 191.232C81.3458 190.499 78.9122 191.381 77.9018 192.113C77.8475 192.153 77.3586 192.608 76.9675 192.96C77.1359 192.727 77.2988 192.465 77.4618 192.262C78.0702 191.43 78.6786 190.697 79.2273 190.059C79.5423 189.697 79.8357 189.376 80.1127 189.069C80.6179 189.069 82.6713 189.004 83.5676 188.623C84.4639 188.242 85.4471 187.549 85.6589 186.643C85.7159 186.43 85.7233 186.208 85.6805 185.993C85.6378 185.777 85.5459 185.572 85.4108 185.39C85.2757 185.209 85.1003 185.055 84.896 184.939C84.6918 184.823 84.4631 184.748 84.2249 184.717C82.7799 184.579 81.0688 186.381 80.5418 187.455C80.493 187.549 79.966 189.084 79.9986 189.084H80.0312C79.7542 189.366 79.488 189.668 79.1621 190.009C78.6189 190.643 77.9616 191.361 77.3369 192.183C76.6478 193.064 76.0166 193.981 75.4465 194.93C74.7943 195.987 74.2489 197.096 73.8168 198.242C73.8168 198.242 73.8168 198.272 73.8168 198.287C73.8168 197.901 73.8168 196.802 73.7897 196.732C73.6267 195.559 72.5511 193.391 71.1225 193.148C70.8832 193.114 70.6387 193.126 70.405 193.184C70.1713 193.242 69.9538 193.345 69.7669 193.485C69.58 193.625 69.4279 193.8 69.3208 193.998C69.2136 194.196 69.1537 194.413 69.1452 194.633C69.0582 195.564 69.797 196.495 70.5195 197.109C71.3343 197.772 73.5941 198.411 73.7788 198.46C73.3748 199.638 73.0555 200.838 72.8227 202.054C72.6869 202.762 72.5729 203.475 72.4642 204.198C72.4642 203.861 72.4642 203.559 72.4642 203.52C72.2958 202.346 71.2202 200.178 69.7916 199.935C69.5523 199.901 69.3078 199.913 69.0741 199.971C68.8404 200.029 68.623 200.132 68.436 200.272C68.2491 200.413 68.0971 200.588 67.9899 200.786C67.8827 200.983 67.8228 201.2 67.8143 201.42C67.7274 202.351 68.4716 203.282 69.1886 203.871C69.9057 204.46 71.8341 205.049 72.3447 205.198L72.2306 206.025C72.0568 207.351 71.8884 208.673 71.6874 209.985C71.6168 210.44 71.5244 210.886 71.4375 211.337C71.4375 211.039 71.4375 210.787 71.4375 210.747C71.2746 209.579 70.199 207.406 68.7703 207.163C68.5314 207.13 68.2875 207.144 68.0545 207.202C67.8216 207.261 67.6048 207.364 67.4183 207.504C67.2318 207.644 67.0797 207.818 66.972 208.015C66.8643 208.213 66.8033 208.428 66.793 208.648C66.7061 209.574 67.4449 210.51 68.1674 211.094C68.8898 211.678 70.6281 212.218 71.2311 212.396C71.1279 212.851 71.0193 213.307 70.8943 213.743C70.802 214.04 70.7368 214.332 70.6227 214.624C70.5086 214.916 70.4163 215.208 70.3185 215.495C70.1012 216.04 69.8785 216.604 69.6503 217.134C69.4982 217.5 69.3407 217.847 69.1832 218.198C69.2647 217.748 69.395 216.856 69.4005 216.777C69.3855 215.734 69.0769 214.711 68.5042 213.807C68.5151 213.692 68.5151 213.576 68.5042 213.46C68.4741 213.242 68.3939 213.032 68.2689 212.844C68.1438 212.656 67.9766 212.494 67.7782 212.369C67.5799 212.244 67.3548 212.158 67.1176 212.118C66.8805 212.077 66.6366 212.082 66.4019 212.134C65.0004 212.47 64.115 214.713 64.0498 215.891C64.0498 215.96 64.0932 216.723 64.1313 217.198C64.0606 216.921 63.9955 216.653 63.9194 216.366C63.7727 215.802 63.6098 215.243 63.4359 214.639L63.1426 213.762C63.0557 213.47 62.9199 213.168 62.8058 212.871C62.5288 212.178 62.2083 211.49 61.8715 210.807C62.4147 210.688 64.3377 210.242 65.1308 209.703C65.9239 209.163 66.6735 208.198 66.6735 207.277C66.6804 207.057 66.6364 206.839 66.5445 206.636C66.4526 206.433 66.3148 206.25 66.14 206.098C65.9653 205.947 65.7575 205.831 65.5303 205.758C65.3031 205.684 65.0614 205.656 64.8211 205.673C63.3816 205.817 62.1051 207.911 61.866 209.064C61.866 209.138 61.7628 209.985 61.7302 210.455C61.5238 210.044 61.3174 209.634 61.0947 209.223C60.4483 208.039 59.7584 206.861 59.0739 205.683C58.8621 205.322 58.6556 204.955 58.4492 204.594C58.6448 204.554 60.9371 204.069 61.8009 203.465C62.5722 202.93 63.3871 202.054 63.3762 201.118C63.3823 200.899 63.3378 200.681 63.2455 200.479C63.1532 200.276 63.0153 200.094 62.8406 199.943C62.666 199.792 62.4585 199.677 62.2316 199.604C62.0048 199.531 61.7636 199.502 61.5238 199.519C60.0843 199.658 58.8077 201.752 58.5687 202.911C58.5687 202.995 58.4275 204.218 58.4112 204.529C57.9603 203.732 57.5149 202.935 57.1129 202.133C56.5629 201.051 56.0893 199.939 55.6951 198.802C55.7875 198.802 58.183 198.307 59.0685 197.668C59.8344 197.128 60.6492 196.252 60.6438 195.321C60.6499 195.102 60.6052 194.883 60.5127 194.68C60.4201 194.477 60.2818 194.294 60.1067 194.142C59.9315 193.991 59.7234 193.875 59.4959 193.802C59.2684 193.729 59.0265 193.7 58.786 193.717C57.3465 193.861 56.0699 195.955 55.8363 197.109C55.8363 197.203 55.6842 198.514 55.6788 198.752C55.6788 198.688 55.6245 198.623 55.6028 198.554C55.2441 197.405 54.9987 196.228 54.8694 195.039C54.7879 194.381 54.7499 193.752 54.7336 193.133C55.1899 193.084 57.2759 192.831 58.1396 192.356C59.0033 191.881 59.8779 191.108 59.9865 190.178C60.0193 189.962 60.0021 189.742 59.9361 189.532C59.8701 189.322 59.7568 189.128 59.6033 188.96C59.4499 188.793 59.2597 188.657 59.045 188.56C58.8304 188.464 58.596 188.409 58.3569 188.4C56.9065 188.4 55.4126 190.356 55.0107 191.475C55.0107 191.539 54.8423 192.183 54.7445 192.653C54.7445 192.371 54.7445 192.089 54.7445 191.821C54.7445 190.831 54.8151 189.905 54.8803 189.094C54.9237 188.633 54.9726 188.217 55.0269 187.831C55.4452 187.569 57.1238 186.489 57.6398 185.717C58.1559 184.945 58.5524 183.881 58.183 183.009C58.1019 182.803 57.9739 182.614 57.8075 182.455C57.6411 182.297 57.4399 182.172 57.217 182.089C56.9942 182.006 56.7546 181.966 56.5139 181.973C56.2733 181.98 56.0368 182.033 55.82 182.128C54.5326 182.732 54.1904 185.098 54.4077 186.262C54.4077 186.361 54.9129 187.905 54.9509 187.891C54.8966 188.262 54.8423 188.663 54.7879 189.103C54.701 189.91 54.6087 190.826 54.5815 191.831C54.5417 192.913 54.5708 193.995 54.6684 195.074C54.7717 196.281 54.9917 197.477 55.3257 198.648V198.693C55.0976 198.366 54.424 197.47 54.3642 197.406C53.5168 196.514 51.3059 195.242 49.9696 195.762C49.7505 195.853 49.5549 195.986 49.3956 196.151C49.2364 196.316 49.117 196.509 49.0453 196.719C48.9735 196.928 48.951 197.15 48.9793 197.368C49.0075 197.586 49.0858 197.796 49.2091 197.985C49.66 198.792 50.8387 199.188 51.7948 199.316Z" fill="#263238"/>
<path id="Vector_4" d="M76.6687 193.108C76.6687 193.108 77.1304 191.564 77.1467 191.465C77.326 190.296 76.9186 187.94 75.6094 187.366C75.3898 187.276 75.1518 187.229 74.9109 187.228C74.6701 187.227 74.4317 187.273 74.2114 187.361C73.9911 187.45 73.7937 187.58 73.6322 187.743C73.4706 187.906 73.3484 188.098 73.2736 188.306C72.9259 189.183 73.3659 190.262 73.8928 190.999C74.5121 191.861 76.6687 193.103 76.6687 193.108Z" fill="#263238"/>
<path id="Vector_5" d="M177.332 196.627C178.239 196.989 180.445 196.939 180.445 196.939C180.445 196.939 179.972 195.623 179.929 195.543C179.445 194.623 177.913 193.099 176.67 193.252C176.463 193.282 176.266 193.351 176.091 193.456C175.916 193.56 175.767 193.697 175.655 193.857C175.542 194.017 175.467 194.197 175.436 194.386C175.405 194.574 175.418 194.766 175.474 194.95C175.681 195.737 176.566 196.316 177.332 196.627Z" fill="#263238"/>
<path id="Vector_6" d="M178.098 202.455C179.033 202.579 181.004 202.059 181.156 202.014C181.483 203.042 181.882 204.049 182.352 205.029C182.623 205.604 182.895 206.168 183.221 206.737C183.036 206.495 182.878 206.282 182.851 206.242C182.113 205.465 180.195 204.366 179.049 204.811C178.859 204.891 178.69 205.006 178.552 205.149C178.415 205.292 178.311 205.459 178.25 205.641C178.188 205.823 178.168 206.014 178.193 206.203C178.217 206.392 178.285 206.574 178.392 206.737C178.815 207.45 179.842 207.802 180.673 207.911C181.504 208.019 183.204 207.609 183.65 207.495L184.003 208.143C184.546 209.178 185.144 210.208 185.676 211.237C185.861 211.599 186.029 211.96 186.219 212.322L185.899 211.906C185.16 211.133 183.242 210.029 182.096 210.475C181.906 210.554 181.736 210.669 181.598 210.813C181.46 210.956 181.356 211.124 181.294 211.306C181.232 211.489 181.213 211.681 181.238 211.87C181.263 212.06 181.331 212.242 181.439 212.406C181.863 213.114 182.889 213.465 183.72 213.574C184.552 213.683 186.083 213.312 186.616 213.178C186.779 213.554 186.942 213.93 187.078 214.302C187.17 214.554 187.273 214.797 187.349 215.054C187.425 215.312 187.501 215.549 187.583 215.817C187.708 216.312 187.843 216.807 187.958 217.302C188.039 217.638 188.11 217.955 188.18 218.292C188.001 217.931 187.637 217.228 187.594 217.173C186.996 216.307 185.28 214.955 184.063 215.237C183.861 215.289 183.675 215.379 183.514 215.5C183.353 215.622 183.223 215.774 183.131 215.945C183.039 216.116 182.988 216.303 182.981 216.493C182.974 216.684 183.011 216.873 183.09 217.049C183.395 217.812 184.345 218.297 185.149 218.535C186.035 218.782 187.99 218.559 188.235 218.535C188.349 219.064 188.457 219.584 188.55 220.074C188.762 221.158 188.919 222.129 189.039 222.95H189.864C189.718 222.104 189.533 221.089 189.283 219.95C189.169 219.411 189.033 218.832 188.886 218.242C189.474 218.027 190.047 217.78 190.603 217.505C191.361 218.102 192.205 218.602 193.113 218.99C192.885 219.485 192.662 219.98 192.445 220.436C191.988 221.391 191.554 222.243 191.173 222.96H192.064C192.39 222.297 192.754 221.54 193.151 220.698C193.384 220.203 193.618 219.639 193.851 219.074C194.09 219.119 196.024 219.48 196.926 219.292C197.746 219.124 198.735 218.703 199.099 217.965C199.191 217.794 199.242 217.607 199.25 217.417C199.258 217.226 199.222 217.037 199.144 216.86C199.066 216.683 198.948 216.523 198.798 216.39C198.648 216.257 198.469 216.155 198.273 216.089C197.084 215.728 195.264 216.96 194.596 217.782C194.558 217.832 194.194 218.401 193.971 218.772C194.069 218.539 194.161 218.317 194.259 218.074C194.449 217.604 194.623 217.129 194.802 216.614C194.884 216.361 194.965 216.119 195.052 215.856C195.139 215.594 195.199 215.327 195.275 215.059C195.438 214.44 195.568 213.807 195.682 213.163C196.138 213.312 197.763 213.827 198.599 213.772C199.436 213.718 200.49 213.44 200.973 212.782C201.096 212.626 201.18 212.447 201.222 212.259C201.263 212.071 201.26 211.876 201.213 211.689C201.165 211.502 201.075 211.326 200.948 211.173C200.82 211.02 200.658 210.894 200.473 210.802C199.354 210.277 197.35 211.242 196.557 211.965C196.502 212.01 196.013 212.589 195.726 212.911C195.791 212.52 195.861 212.133 195.916 211.742C196.068 210.604 196.187 209.45 196.312 208.277C196.35 207.925 196.388 207.574 196.432 207.222C196.595 207.277 198.507 207.93 199.447 207.866C200.283 207.816 201.332 207.534 201.82 206.876C201.943 206.719 202.027 206.541 202.068 206.352C202.109 206.164 202.105 205.969 202.058 205.782C202.01 205.595 201.919 205.419 201.791 205.266C201.663 205.113 201.501 204.987 201.315 204.896C200.229 204.371 198.197 205.336 197.399 206.059C197.339 206.113 196.611 206.945 196.437 207.163C196.53 206.391 196.627 205.618 196.758 204.866C196.925 203.843 197.166 202.83 197.48 201.836C197.556 201.861 199.55 202.549 200.511 202.485C201.348 202.435 202.402 202.153 202.885 201.495C203.008 201.338 203.092 201.16 203.134 200.972C203.175 200.783 203.172 200.589 203.125 200.402C203.077 200.215 202.987 200.039 202.86 199.886C202.732 199.733 202.571 199.606 202.385 199.514C201.266 198.99 199.262 199.955 198.469 200.678C198.404 200.737 197.621 201.628 197.491 201.802C197.491 201.742 197.524 201.683 197.54 201.623C197.887 200.636 198.328 199.678 198.86 198.762C199.142 198.267 199.447 197.772 199.756 197.321C200.115 197.485 201.755 198.212 202.63 198.242C203.504 198.272 204.542 198.103 205.107 197.475C205.244 197.331 205.347 197.163 205.408 196.982C205.47 196.8 205.489 196.608 205.465 196.419C205.44 196.231 205.372 196.048 205.266 195.885C205.159 195.721 205.016 195.58 204.846 195.47C203.798 194.836 201.69 195.598 200.81 196.237C200.767 196.272 200.321 196.673 200.006 196.97C200.147 196.767 200.289 196.554 200.43 196.366C200.973 195.643 201.516 195.009 201.962 194.455C202.233 194.138 202.505 193.861 202.728 193.603C203.168 193.603 204.949 193.544 205.726 193.212C206.503 192.881 207.356 192.282 207.541 191.489C207.59 191.304 207.595 191.112 207.558 190.925C207.52 190.738 207.44 190.56 207.322 190.402C207.205 190.245 207.052 190.112 206.874 190.012C206.697 189.912 206.498 189.847 206.291 189.821C205.042 189.697 203.575 191.257 203.102 192.192C203.059 192.277 202.603 193.603 202.624 193.603H202.652C202.418 193.846 202.163 194.098 201.896 194.405C201.408 194.955 200.864 195.579 200.316 196.292C199.722 197.055 199.178 197.851 198.686 198.673C198.128 199.592 197.659 200.555 197.285 201.549C197.286 201.561 197.286 201.572 197.285 201.584C197.285 201.247 197.285 200.306 197.285 200.237C197.138 199.247 196.198 197.336 194.965 197.128C194.759 197.1 194.548 197.111 194.347 197.161C194.146 197.211 193.959 197.299 193.798 197.42C193.636 197.54 193.504 197.69 193.411 197.86C193.317 198.03 193.264 198.216 193.254 198.405C193.178 199.212 193.797 200.019 194.444 200.529C195.15 201.104 197.111 201.658 197.268 201.703C196.915 202.722 196.637 203.763 196.437 204.816C196.318 205.43 196.22 206.049 196.128 206.673C196.128 206.381 196.128 206.123 196.128 206.089C195.981 205.074 195.041 203.188 193.813 202.98C193.607 202.95 193.396 202.961 193.194 203.011C192.992 203.061 192.804 203.149 192.642 203.269C192.48 203.39 192.348 203.54 192.254 203.71C192.16 203.88 192.107 204.067 192.097 204.257C192.021 205.064 192.667 205.871 193.292 206.376C193.917 206.881 195.584 207.401 196.008 207.529L195.91 208.247C195.758 209.396 195.611 210.544 195.432 211.668C195.372 212.064 195.291 212.45 195.215 212.836C195.215 212.579 195.215 212.341 195.215 212.341C195.074 211.351 194.128 209.44 192.901 209.232C192.694 209.203 192.483 209.214 192.281 209.263C192.08 209.313 191.892 209.401 191.73 209.522C191.568 209.642 191.436 209.793 191.342 209.963C191.248 210.133 191.194 210.319 191.184 210.51C191.114 211.317 191.755 212.124 192.379 212.628C193.195 213.128 194.091 213.509 195.036 213.757C194.943 214.153 194.851 214.549 194.742 214.926C194.666 215.183 194.607 215.421 194.509 215.693C194.411 215.965 194.329 216.188 194.243 216.445C194.052 216.916 193.862 217.406 193.667 217.866C193.531 218.183 193.395 218.485 193.259 218.792C193.33 218.396 193.444 217.624 193.449 217.559C193.435 216.66 193.167 215.778 192.673 215C192.681 214.899 192.681 214.798 192.673 214.698C192.646 214.509 192.577 214.328 192.468 214.165C192.36 214.002 192.215 213.862 192.044 213.754C191.872 213.646 191.677 213.572 191.472 213.536C191.267 213.501 191.056 213.505 190.853 213.549C189.636 213.841 188.865 215.787 188.81 216.807C188.81 216.866 188.848 217.525 188.886 217.94C188.821 217.698 188.767 217.445 188.702 217.218C188.571 216.723 188.43 216.228 188.278 215.733C188.197 215.485 188.11 215.237 188.028 214.975C187.947 214.713 187.833 214.48 187.735 214.203C187.49 213.604 187.219 213.005 186.925 212.411C187.398 212.312 189.06 211.916 189.728 211.455C190.397 210.995 191.097 210.227 191.092 209.42C191.098 209.228 191.06 209.037 190.979 208.859C190.897 208.681 190.776 208.521 190.622 208.39C190.468 208.258 190.284 208.158 190.085 208.096C189.885 208.034 189.673 208.011 189.462 208.029C188.213 208.153 187.126 209.97 186.904 210.97C186.904 211.034 186.811 211.772 186.784 212.173C186.605 211.822 186.426 211.46 186.241 211.109C185.698 210.084 185.079 209.059 184.486 208.039C184.302 207.722 184.128 207.411 183.943 207.099C184.106 207.059 186.116 206.643 186.849 206.109C187.512 205.643 188.218 204.881 188.213 204.074C188.219 203.881 188.181 203.69 188.1 203.512C188.018 203.335 187.897 203.175 187.743 203.043C187.588 202.911 187.405 202.811 187.205 202.749C187.006 202.687 186.793 202.664 186.583 202.683C185.334 202.806 184.247 204.623 184.019 205.623C184.019 205.698 183.9 206.757 183.889 207.029C183.492 206.336 183.107 205.648 182.759 204.95C182.282 204.013 181.872 203.049 181.531 202.064C181.607 202.064 183.704 201.613 184.454 201.074C185.122 200.608 185.823 199.846 185.817 199.039C185.824 198.847 185.785 198.655 185.704 198.478C185.623 198.3 185.501 198.14 185.347 198.008C185.193 197.877 185.01 197.777 184.81 197.714C184.61 197.652 184.398 197.63 184.188 197.648C182.938 197.772 181.852 199.589 181.629 200.589C181.629 200.668 181.499 201.811 181.493 202.014C181.493 201.96 181.444 201.901 181.428 201.846C181.118 200.849 180.905 199.828 180.793 198.797C180.722 198.227 180.689 197.678 180.673 197.143C181.07 197.098 182.878 196.881 183.623 196.47C184.367 196.059 185.138 195.386 185.225 194.579C185.254 194.39 185.239 194.198 185.182 194.015C185.124 193.832 185.024 193.663 184.889 193.517C184.754 193.372 184.587 193.254 184.399 193.172C184.211 193.089 184.005 193.044 183.797 193.039C182.536 193.039 181.243 194.732 180.896 195.707C180.896 195.762 180.749 196.316 180.668 196.722C180.668 196.485 180.668 196.227 180.668 196.004C180.668 195.138 180.733 194.346 180.793 193.643C180.825 193.242 180.869 192.881 180.912 192.544C181.276 192.316 182.732 191.381 183.177 190.712C183.623 190.044 183.976 189.118 183.65 188.366C183.579 188.186 183.468 188.022 183.323 187.884C183.179 187.747 183.004 187.638 182.81 187.566C182.617 187.493 182.409 187.459 182.2 187.464C181.991 187.47 181.785 187.516 181.596 187.598C180.483 188.123 180.19 190.173 180.374 191.183C180.374 191.272 180.809 192.608 180.831 192.598C180.782 192.92 180.733 193.267 180.689 193.648C180.613 194.351 180.532 195.133 180.51 196.014C180.473 196.952 180.496 197.891 180.581 198.826C180.669 199.875 180.862 200.914 181.156 201.93C181.155 201.942 181.155 201.953 181.156 201.965C180.955 201.683 180.374 200.905 180.325 200.851C179.587 200.079 177.669 198.975 176.523 199.42C176.333 199.5 176.164 199.616 176.026 199.759C175.888 199.902 175.785 200.071 175.723 200.253C175.661 200.434 175.642 200.626 175.666 200.816C175.691 201.005 175.759 201.187 175.866 201.351C176.24 201.995 177.267 202.346 178.098 202.455Z" fill="#263238"/>
<path id="Vector_7" d="M199.664 197.069C199.664 197.069 200.06 195.732 200.077 195.648C200.229 194.658 199.876 192.588 198.746 192.093C198.555 192.015 198.349 191.975 198.14 191.974C197.931 191.973 197.724 192.013 197.533 192.09C197.342 192.167 197.17 192.28 197.03 192.421C196.89 192.562 196.784 192.729 196.72 192.91C196.415 193.668 196.801 194.603 197.263 195.242C197.79 195.999 199.658 197.069 199.664 197.069Z" fill="#263238"/>
<path id="Vector_8" d="M152.605 201.667C153.347 201.845 154.114 201.922 154.881 201.895C154.881 201.895 154.533 200.93 154.506 200.875C154.153 200.197 153.029 199.084 152.116 199.193C151.965 199.215 151.82 199.266 151.691 199.342C151.563 199.419 151.454 199.52 151.371 199.637C151.289 199.755 151.234 199.888 151.212 200.026C151.19 200.164 151.2 200.305 151.242 200.44C151.359 200.722 151.541 200.977 151.776 201.189C152.012 201.401 152.294 201.564 152.605 201.667Z" fill="#263238"/>
<path id="Vector_9" d="M153.164 205.931C153.924 205.925 154.678 205.817 155.403 205.609C155.64 206.362 155.932 207.099 156.277 207.817C156.48 208.233 156.692 208.648 156.913 209.064C156.782 208.886 156.663 208.733 156.641 208.713C156.098 208.143 154.702 207.336 153.854 207.668C153.716 207.726 153.592 207.81 153.491 207.914C153.39 208.018 153.314 208.14 153.269 208.273C153.223 208.406 153.209 208.545 153.226 208.683C153.244 208.821 153.293 208.955 153.371 209.074C153.563 209.319 153.812 209.523 154.1 209.671C154.388 209.819 154.709 209.908 155.039 209.931C155.776 209.933 156.509 209.831 157.211 209.629L157.472 210.124C157.89 210.881 158.309 211.609 158.694 212.386C158.83 212.648 158.955 212.916 159.08 213.183C158.966 213.025 158.863 212.896 158.847 212.876C158.303 212.312 156.902 211.505 156.06 211.832C155.92 211.889 155.796 211.973 155.694 212.078C155.593 212.182 155.517 212.305 155.471 212.438C155.426 212.572 155.411 212.712 155.429 212.851C155.448 212.989 155.498 213.123 155.576 213.243C155.769 213.487 156.019 213.69 156.307 213.838C156.595 213.986 156.915 214.075 157.244 214.099C157.963 214.103 158.678 214.005 159.363 213.807C159.482 214.084 159.602 214.356 159.705 214.629C159.77 214.817 159.846 214.99 159.9 215.183C159.955 215.376 160.014 215.554 160.069 215.743C160.167 216.099 160.264 216.47 160.346 216.822C160.406 217.064 160.46 217.317 160.509 217.535C160.378 217.267 160.107 216.753 160.08 216.713C159.64 216.079 158.385 215.089 157.494 215.297C157.347 215.335 157.21 215.401 157.092 215.49C156.975 215.579 156.88 215.69 156.812 215.815C156.745 215.941 156.708 216.077 156.703 216.217C156.697 216.356 156.725 216.495 156.782 216.624C156.934 216.892 157.147 217.127 157.408 217.312C157.668 217.498 157.97 217.629 158.292 217.698C159.04 217.803 159.8 217.803 160.547 217.698C160.634 218.089 160.715 218.47 160.78 218.827C160.932 219.619 161.052 220.312 161.139 220.936H161.736C161.633 220.312 161.492 219.569 161.313 218.738C161.226 218.342 161.128 217.921 161.019 217.485C161.451 217.328 161.872 217.148 162.28 216.946C162.833 217.38 163.449 217.743 164.11 218.025C163.947 218.391 163.784 218.753 163.627 219.084C163.29 219.782 162.975 220.406 162.693 220.936H163.366C163.611 220.441 163.871 219.891 164.148 219.277C164.317 218.906 164.491 218.505 164.659 218.089C165.397 218.247 166.157 218.301 166.913 218.248C167.242 218.198 167.554 218.084 167.829 217.913C168.104 217.742 168.335 217.518 168.505 217.257C168.573 217.133 168.611 216.996 168.617 216.857C168.624 216.717 168.597 216.578 168.54 216.449C168.483 216.319 168.397 216.202 168.287 216.105C168.177 216.008 168.046 215.934 167.902 215.886C167.027 215.619 165.697 216.52 165.186 217.124C165.159 217.158 164.893 217.574 164.73 217.842C164.8 217.673 164.871 217.51 164.941 217.347C165.077 217.005 165.208 216.654 165.343 216.277C165.403 216.094 165.468 215.911 165.528 215.723C165.588 215.535 165.637 215.337 165.691 215.144C165.811 214.688 165.908 214.223 165.99 213.752C166.673 213.999 167.392 214.149 168.125 214.198C168.456 214.198 168.783 214.132 169.083 214.005C169.384 213.877 169.65 213.691 169.863 213.46C169.951 213.346 170.012 213.216 170.041 213.079C170.071 212.942 170.068 212.801 170.033 212.665C169.998 212.528 169.932 212.401 169.839 212.29C169.746 212.178 169.628 212.086 169.494 212.02C168.679 211.639 167.212 212.346 166.631 212.871C166.593 212.906 166.223 213.327 166.022 213.564C166.071 213.282 166.12 213 166.158 212.708C166.272 211.876 166.359 211.035 166.452 210.193C166.479 209.931 166.506 209.673 166.538 209.421C167.244 209.677 167.987 209.835 168.744 209.891C169.075 209.889 169.402 209.821 169.702 209.693C170.002 209.565 170.268 209.379 170.482 209.148C170.57 209.034 170.63 208.905 170.659 208.768C170.687 208.631 170.684 208.491 170.649 208.355C170.614 208.22 170.549 208.093 170.456 207.982C170.364 207.871 170.247 207.779 170.113 207.713C169.298 207.327 167.831 208.035 167.25 208.564C167.201 208.604 166.669 209.213 166.544 209.371C166.609 208.807 166.68 208.242 166.778 207.688C166.906 206.939 167.087 206.198 167.321 205.47C168.03 205.736 168.779 205.903 169.542 205.965C169.873 205.964 170.2 205.896 170.499 205.768C170.798 205.64 171.063 205.454 171.275 205.223C171.364 205.109 171.425 204.979 171.455 204.842C171.484 204.705 171.482 204.564 171.448 204.428C171.413 204.292 171.348 204.164 171.255 204.053C171.163 203.941 171.046 203.849 170.911 203.782C170.091 203.401 168.624 204.109 168.043 204.638C168 204.678 167.424 205.331 167.332 205.455C167.332 205.416 167.332 205.371 167.37 205.327C167.62 204.603 167.941 203.902 168.331 203.232C168.538 202.861 168.76 202.515 168.988 202.183C169.648 202.503 170.356 202.73 171.091 202.856C171.42 202.887 171.752 202.852 172.065 202.755C172.379 202.657 172.665 202.499 172.905 202.292C173.01 202.187 173.089 202.063 173.137 201.928C173.184 201.793 173.2 201.651 173.182 201.51C173.164 201.369 173.113 201.233 173.032 201.112C172.952 200.991 172.843 200.887 172.715 200.807C171.943 200.341 170.401 200.901 169.76 201.366C169.727 201.391 169.401 201.683 169.168 201.901C169.271 201.752 169.38 201.599 169.483 201.46C169.868 200.93 170.254 200.47 170.602 200.059L171.145 199.435C171.881 199.442 172.613 199.347 173.318 199.153C173.627 199.044 173.906 198.875 174.135 198.656C174.364 198.438 174.537 198.177 174.643 197.891C174.681 197.756 174.686 197.615 174.66 197.478C174.633 197.34 174.575 197.21 174.49 197.094C174.404 196.979 174.293 196.881 174.163 196.808C174.033 196.734 173.888 196.687 173.736 196.668C172.818 196.579 171.732 197.722 171.395 198.406C171.395 198.465 171.031 199.44 171.053 199.44C170.879 199.623 170.694 199.817 170.509 200.029C170.156 200.43 169.754 200.886 169.352 201.411C168.918 201.971 168.517 202.553 168.152 203.153C167.76 203.818 167.431 204.512 167.169 205.228V205.252C167.169 205.01 167.169 204.322 167.169 204.262C167.06 203.52 166.376 202.143 165.474 201.99C165.323 201.967 165.168 201.974 165.02 202.01C164.872 202.046 164.734 202.11 164.615 202.198C164.496 202.286 164.398 202.395 164.329 202.52C164.26 202.645 164.221 202.781 164.214 202.921C164.227 203.222 164.312 203.517 164.463 203.785C164.614 204.054 164.828 204.289 165.088 204.475C165.726 204.854 166.421 205.144 167.152 205.336C166.895 206.082 166.694 206.843 166.549 207.614C166.462 208.064 166.386 208.515 166.321 208.975C166.321 208.762 166.321 208.569 166.321 208.544C166.213 207.802 165.528 206.421 164.626 206.272C164.475 206.25 164.32 206.257 164.171 206.293C164.023 206.329 163.884 206.393 163.765 206.482C163.646 206.57 163.549 206.681 163.48 206.806C163.411 206.931 163.373 207.068 163.366 207.208C163.378 207.509 163.462 207.805 163.614 208.074C163.765 208.342 163.979 208.577 164.241 208.762C164.856 209.134 165.53 209.417 166.24 209.604C166.24 209.777 166.191 209.955 166.169 210.129C166.055 210.97 165.952 211.812 165.816 212.634C165.773 212.921 165.713 213.208 165.658 213.49C165.658 213.302 165.658 213.144 165.658 213.119C165.555 212.376 164.871 210.995 163.964 210.842C163.812 210.82 163.658 210.827 163.51 210.864C163.362 210.9 163.225 210.965 163.106 211.053C162.988 211.142 162.891 211.252 162.823 211.376C162.754 211.501 162.715 211.638 162.709 211.777C162.722 212.079 162.807 212.374 162.958 212.642C163.109 212.911 163.323 213.146 163.583 213.332C164.181 213.696 164.837 213.973 165.528 214.153C165.457 214.446 165.392 214.733 165.311 215.01C165.256 215.198 165.213 215.386 165.142 215.569L164.947 216.124C164.806 216.47 164.67 216.827 164.523 217.163C164.425 217.396 164.328 217.614 164.23 217.837C164.279 217.55 164.36 216.985 164.366 216.936C164.361 216.28 164.174 215.636 163.822 215.064C163.833 214.99 163.833 214.916 163.822 214.842C163.804 214.703 163.753 214.57 163.674 214.451C163.595 214.332 163.489 214.229 163.364 214.149C163.238 214.07 163.095 214.016 162.945 213.99C162.795 213.964 162.64 213.968 162.492 214C161.606 214.218 161.041 215.639 160.998 216.386C160.998 216.431 161.025 216.911 161.052 217.218C161.009 217.04 160.965 216.866 160.916 216.688C160.824 216.332 160.721 215.975 160.607 215.589C160.547 215.411 160.487 215.223 160.422 215.035C160.357 214.847 160.281 214.658 160.21 214.47C160.036 214.03 159.83 213.594 159.618 213.158C160.338 213.023 161.03 212.788 161.671 212.46C161.945 212.292 162.176 212.073 162.348 211.817C162.521 211.561 162.631 211.274 162.671 210.975C162.675 210.836 162.647 210.697 162.589 210.568C162.53 210.439 162.442 210.323 162.331 210.227C162.22 210.131 162.087 210.058 161.943 210.012C161.798 209.966 161.645 209.948 161.492 209.96C160.579 210.049 159.781 211.376 159.618 212.109C159.618 212.158 159.553 212.693 159.531 212.99C159.401 212.733 159.27 212.47 159.129 212.208C158.722 211.46 158.282 210.723 157.847 209.965L157.45 209.277C158.193 209.134 158.909 208.893 159.574 208.559C159.849 208.393 160.081 208.173 160.254 207.917C160.426 207.661 160.536 207.373 160.574 207.074C160.578 206.935 160.55 206.797 160.492 206.668C160.434 206.54 160.347 206.424 160.236 206.328C160.125 206.232 159.994 206.159 159.85 206.113C159.706 206.066 159.553 206.048 159.401 206.059C158.483 206.148 157.689 207.475 157.527 208.208C157.527 208.267 157.434 209.039 157.429 209.238C157.141 208.742 156.858 208.247 156.603 207.718C156.251 207.032 155.95 206.326 155.701 205.604C156.45 205.462 157.172 205.218 157.842 204.881C158.117 204.715 158.349 204.496 158.522 204.239C158.695 203.983 158.804 203.695 158.841 203.396C158.846 203.256 158.819 203.117 158.761 202.987C158.702 202.858 158.615 202.741 158.503 202.644C158.392 202.548 158.259 202.474 158.114 202.428C157.969 202.382 157.815 202.364 157.662 202.376C156.75 202.47 155.957 203.797 155.788 204.53C155.788 204.589 155.696 205.421 155.69 205.574C155.677 205.53 155.66 205.487 155.642 205.445C155.415 204.715 155.261 203.968 155.18 203.213C155.126 202.797 155.104 202.396 155.087 202.01C155.835 201.946 156.568 201.779 157.26 201.515C157.554 201.376 157.812 201.181 158.014 200.942C158.217 200.703 158.36 200.428 158.434 200.133C158.455 199.995 158.444 199.854 158.402 199.72C158.359 199.586 158.286 199.461 158.187 199.355C158.088 199.248 157.966 199.162 157.827 199.101C157.689 199.041 157.538 199.008 157.385 199.005C156.467 199.005 155.517 200.242 155.267 200.955C155.267 200.995 155.158 201.401 155.098 201.703C155.098 201.524 155.098 201.341 155.098 201.173C155.098 200.539 155.142 199.96 155.185 199.445C155.212 199.153 155.245 198.886 155.278 198.643C155.871 198.271 156.4 197.82 156.848 197.307C157.038 197.06 157.167 196.779 157.227 196.482C157.286 196.185 157.273 195.881 157.19 195.589C157.139 195.457 157.059 195.336 156.953 195.235C156.848 195.134 156.72 195.054 156.579 195C156.437 194.947 156.285 194.922 156.132 194.926C155.979 194.93 155.828 194.964 155.69 195.024C154.876 195.411 154.658 196.911 154.794 197.648C154.794 197.713 155.115 198.693 155.131 198.683C155.098 198.92 155.06 199.178 155.028 199.455C154.973 199.95 154.914 200.549 154.897 201.188C154.873 201.873 154.891 202.559 154.952 203.242C155.018 204.009 155.158 204.77 155.37 205.515C155.37 205.515 155.37 205.515 155.37 205.539C155.223 205.332 154.8 204.762 154.762 204.723C154.218 204.158 152.817 203.351 151.969 203.678C151.83 203.736 151.705 203.819 151.604 203.924C151.502 204.029 151.426 204.151 151.381 204.285C151.335 204.418 151.321 204.558 151.339 204.697C151.357 204.836 151.407 204.969 151.486 205.089C151.682 205.332 151.933 205.533 152.223 205.679C152.513 205.824 152.834 205.91 153.164 205.931Z" fill="#263238"/>
<path id="Vector_10" d="M168.945 201.989C168.945 201.989 169.238 200.999 169.249 200.945C169.363 200.207 169.102 198.712 168.271 198.346C168.132 198.289 167.981 198.26 167.829 198.26C167.676 198.26 167.525 198.289 167.386 198.345C167.247 198.402 167.122 198.484 167.02 198.588C166.918 198.691 166.841 198.813 166.794 198.945C166.719 199.238 166.716 199.543 166.783 199.838C166.851 200.133 166.988 200.411 167.185 200.653C167.697 201.174 168.29 201.624 168.945 201.989Z" fill="#263238"/>
</g>
<g id="Magnifiers">
<path id="Vector_11" d="M198.898 28.8575C198.446 30.4864 198.561 32.2033 199.228 33.7699C199.894 35.3365 201.08 36.6752 202.619 37.6002C204.158 38.5252 205.975 38.9907 207.818 38.9322C209.66 38.8737 211.437 38.2939 212.902 37.2735L216.341 40.2735C216.252 40.6004 216.259 40.9426 216.36 41.2665C216.461 41.5903 216.653 41.8845 216.916 42.1201L224.386 48.7886C224.586 48.9657 224.823 49.1051 225.082 49.1989C225.342 49.2927 225.619 49.3389 225.899 49.335C226.178 49.3311 226.453 49.2771 226.71 49.1761C226.966 49.0752 227.198 48.9292 227.392 48.7465C227.587 48.5638 227.74 48.348 227.843 48.1114C227.946 47.8749 227.996 47.6221 227.992 47.3677C227.988 47.1132 227.928 46.862 227.818 46.6285C227.707 46.3949 227.547 46.1835 227.346 46.0063L219.861 39.3329C219.591 39.0964 219.258 38.9289 218.894 38.8472C218.531 38.7655 218.15 38.7725 217.791 38.8676L214.428 35.917C215.24 35.0107 215.822 33.9526 216.134 32.8179C216.42 31.7865 216.479 30.714 216.31 29.6616C216.14 28.6091 215.745 27.5974 215.146 26.6842C214.548 25.771 213.758 24.9742 212.822 24.3392C211.885 23.7043 210.821 23.2436 209.689 22.9836C208.557 22.7235 207.38 22.6692 206.225 22.8236C205.071 22.9781 203.961 23.3383 202.959 23.8838C201.957 24.4292 201.082 25.1492 200.385 26.0026C199.689 26.8559 199.183 27.826 198.898 28.8575V28.8575ZM214.591 32.4516C214.239 33.7269 213.48 34.8785 212.41 35.7605C211.339 36.6425 210.006 37.2155 208.578 37.4068C207.151 37.5982 205.693 37.3994 204.389 36.8356C203.085 36.2718 201.994 35.3683 201.254 34.2393C200.514 33.1104 200.158 31.8068 200.231 30.4934C200.303 29.1799 200.802 27.9157 201.663 26.8605C202.525 25.8054 203.71 25.0067 205.069 24.5655C206.429 24.1244 207.901 24.0606 209.301 24.3821C211.175 24.8143 212.785 25.9067 213.777 27.4196C214.769 28.9325 215.062 30.7422 214.591 32.4516Z" stroke="#263238" stroke-miterlimit="10"/>
<path id="Vector_12" d="M34.6238 126.964C33.2764 127.257 32.0626 127.925 31.1506 128.876C30.2386 129.826 29.6736 131.012 29.5339 132.268C29.3943 133.524 29.6868 134.788 30.371 135.886C31.0553 136.984 32.0973 137.861 33.3526 138.395L32.3531 141.528C32.083 141.587 31.8347 141.71 31.6326 141.884C31.4306 142.057 31.282 142.276 31.2015 142.518L28.8928 149.385C28.7791 149.757 28.8289 150.155 29.0317 150.494C29.2346 150.833 29.5744 151.087 29.9792 151.202C30.3876 151.305 30.8242 151.26 31.1964 151.075C31.5686 150.89 31.8471 150.58 31.9729 150.212L34.2652 143.345C34.3468 143.099 34.3545 142.837 34.2876 142.587C34.2208 142.338 34.0817 142.109 33.885 141.924L34.8736 138.845C35.8547 139.029 36.8686 139.01 37.8404 138.789C38.8122 138.568 39.7171 138.15 40.4879 137.567C41.2588 136.984 41.876 136.251 42.2939 135.421C42.7118 134.592 42.9196 133.687 42.9021 132.774C42.8846 131.862 42.6421 130.964 42.1926 130.148C41.7432 129.333 41.0982 128.619 40.3054 128.062C39.5126 127.504 38.5923 127.115 37.6126 126.925C36.6329 126.735 35.6189 126.748 34.6455 126.964H34.6238ZM37.4376 137.756C36.3819 137.985 35.2754 137.923 34.2581 137.579C33.2408 137.234 32.3584 136.623 31.7225 135.821C31.0866 135.02 30.7258 134.065 30.6856 133.076C30.6454 132.088 30.9278 131.111 31.4969 130.269C32.066 129.427 32.8964 128.758 33.8829 128.346C34.8695 127.934 35.9679 127.798 37.0394 127.955C38.1108 128.112 39.1071 128.555 39.9022 129.228C40.6973 129.901 41.2555 130.774 41.5063 131.736C41.8417 133.023 41.6042 134.379 40.8459 135.507C40.0875 136.635 38.87 137.444 37.4593 137.756H37.4376Z" stroke="#263238" stroke-miterlimit="10"/>
</g>
<g id="Messages">
<path id="Vector_13" d="M215.732 81.3391H199.979C198.956 81.3391 197.975 81.7094 197.252 82.3686C196.528 83.0278 196.122 83.9218 196.122 84.854V92.7997C196.122 93.7319 196.528 94.626 197.252 95.2852C197.975 95.9443 198.956 96.3147 199.979 96.3147H210.952L210.409 101.265L215.515 96.3147H215.732C216.239 96.3147 216.74 96.2237 217.208 96.0471C217.676 95.8705 218.101 95.6116 218.459 95.2852C218.818 94.9588 219.102 94.5713 219.296 94.1448C219.489 93.7184 219.589 93.2613 219.589 92.7997V84.854C219.589 84.3924 219.489 83.9354 219.296 83.5089C219.102 83.0825 218.818 82.695 218.459 82.3686C218.101 82.0422 217.676 81.7833 217.208 81.6067C216.74 81.43 216.239 81.3391 215.732 81.3391V81.3391Z" stroke="#263238" stroke-miterlimit="10"/>
<path id="Vector_14" d="M35.7645 100.151H46.4387C46.7819 100.151 47.1216 100.213 47.4386 100.332C47.7556 100.452 48.0437 100.627 48.2863 100.849C48.5289 101.07 48.7214 101.332 48.8527 101.621C48.984 101.91 49.0516 102.22 49.0516 102.532V107.914C49.0516 108.226 48.984 108.536 48.8527 108.825C48.7214 109.114 48.5289 109.376 48.2863 109.597C48.0437 109.819 47.7556 109.994 47.4386 110.114C47.1216 110.233 46.7819 110.295 46.4387 110.295H39.0075L39.3932 113.641L35.9112 110.295H35.7645C35.0715 110.295 34.4069 110.044 33.9169 109.597C33.4269 109.151 33.1516 108.545 33.1516 107.914V102.532C33.1516 101.901 33.4269 101.295 33.9169 100.849C34.4069 100.402 35.0715 100.151 35.7645 100.151Z" stroke="#263238" stroke-miterlimit="10"/>
<path id="Vector_15" d="M114.667 9.43628H125.341C126.034 9.43628 126.699 9.68716 127.189 10.1337C127.679 10.5803 127.954 11.186 127.954 11.8175V17.1988C127.954 17.8304 127.679 18.436 127.189 18.8826C126.699 19.3292 126.034 19.58 125.341 19.58H117.91L118.295 22.9266L114.813 19.58H114.667C113.974 19.58 113.309 19.3292 112.819 18.8826C112.329 18.436 112.054 17.8304 112.054 17.1988V11.8175C112.054 11.186 112.329 10.5803 112.819 10.1337C113.309 9.68716 113.974 9.43628 114.667 9.43628V9.43628Z" stroke="#263238" stroke-miterlimit="10"/>
</g>
<g id="Connections">
<path id="Vector_16" d="M100.163 20.3672L126.281 86.8834L182.368 21.4167" stroke="#263238" stroke-miterlimit="10"/>
<path id="Vector_17" d="M204.645 63.7788L126.281 86.8832L178.908 140.795" stroke="#263238" stroke-miterlimit="10"/>
<path id="Vector_18" d="M65.9728 138.696L126.281 86.8835L44.0757 74.2793" stroke="#263238" stroke-miterlimit="10"/>
<path id="Vector_19" d="M211.351 67.3438C213.386 63.8023 211.884 59.4286 207.998 57.5748C204.112 55.721 199.313 57.0891 197.279 60.6306C195.245 64.1721 196.746 68.5458 200.632 70.3996C204.518 72.2533 209.317 70.8852 211.351 67.3438Z" fill="#263238" stroke="#263238" stroke-width="0.5" stroke-miterlimit="10"/>
<path id="Vector_20" d="M206.943 63.4868H201.766C201.281 63.4868 200.815 63.6626 200.472 63.9755C200.128 64.2883 199.935 64.7127 199.935 65.1552V69.1156C201.201 70.0153 202.762 70.4986 204.367 70.4869C205.971 70.4752 207.525 69.9693 208.774 69.0513V65.1552C208.774 64.7127 208.581 64.2883 208.237 63.9755C207.894 63.6626 207.428 63.4868 206.943 63.4868Z" fill="#5F0A61" stroke="#263238" stroke-miterlimit="10"/>
<path id="Vector_21" d="M204.265 62.7589C204.786 62.7589 205.295 62.618 205.729 62.3542C206.162 62.0904 206.5 61.7154 206.699 61.2767C206.898 60.8379 206.951 60.3552 206.849 59.8894C206.747 59.4237 206.496 58.9958 206.128 58.66C205.759 58.3242 205.29 58.0956 204.779 58.0029C204.268 57.9103 203.738 57.9578 203.257 58.1396C202.775 58.3213 202.364 58.629 202.074 59.0239C201.785 59.4187 201.63 59.8829 201.63 60.3578C201.63 60.9946 201.908 61.6053 202.402 62.0556C202.896 62.5059 203.566 62.7589 204.265 62.7589Z" fill="#5F0A61" stroke="#263238" stroke-miterlimit="10"/>
<path id="Vector_22" d="M187.04 141.018C188.733 137.331 186.826 133.091 182.78 131.547C178.734 130.004 174.081 131.742 172.388 135.43C170.695 139.117 172.602 143.357 176.648 144.901C180.694 146.444 185.347 144.706 187.04 141.018Z" fill="#263238" stroke="#263238" stroke-width="0.5" stroke-miterlimit="10"/>
<path id="Vector_23" d="M182.379 137.746H177.202C176.962 137.745 176.724 137.788 176.502 137.871C176.28 137.954 176.078 138.077 175.908 138.231C175.738 138.386 175.603 138.569 175.511 138.772C175.419 138.974 175.371 139.19 175.371 139.409V143.37C176.636 144.269 178.198 144.753 179.803 144.741C181.407 144.729 182.96 144.223 184.209 143.305V139.409C184.209 139.19 184.162 138.974 184.07 138.772C183.978 138.569 183.843 138.386 183.673 138.231C183.503 138.077 183.301 137.954 183.079 137.871C182.857 137.788 182.619 137.745 182.379 137.746Z" fill="#5F0A61" stroke="#263238" stroke-miterlimit="10"/>
<path id="Vector_24" d="M179.663 137.014C180.184 137.014 180.693 136.873 181.126 136.609C181.56 136.345 181.897 135.97 182.097 135.531C182.296 135.093 182.348 134.61 182.247 134.144C182.145 133.678 181.894 133.25 181.526 132.915C181.157 132.579 180.688 132.35 180.177 132.258C179.666 132.165 179.136 132.212 178.654 132.394C178.173 132.576 177.762 132.884 177.472 133.279C177.183 133.673 177.028 134.138 177.028 134.612C177.028 134.928 177.096 135.24 177.229 135.531C177.361 135.823 177.555 136.087 177.8 136.31C178.044 136.533 178.335 136.71 178.654 136.831C178.974 136.951 179.317 137.014 179.663 137.014Z" fill="#5F0A61" stroke="#263238" stroke-miterlimit="10"/>
<path id="Vector_25" d="M99.8206 25.0406C102.935 25.0406 105.459 22.7399 105.459 19.9019C105.459 17.0639 102.935 14.7632 99.8206 14.7632C96.7065 14.7632 94.182 17.0639 94.182 19.9019C94.182 22.7399 96.7065 25.0406 99.8206 25.0406Z" fill="#263238" stroke="#263238" stroke-width="0.5" stroke-miterlimit="10"/>
<path id="Vector_26" d="M101.689 19.5801H98.0171C97.6728 19.5801 97.3426 19.7047 97.0991 19.9266C96.8556 20.1485 96.7188 20.4495 96.7188 20.7633V23.5406C97.617 24.1767 98.7242 24.5183 99.8617 24.5102C100.999 24.5021 102.1 24.1448 102.988 23.496V20.7385C102.98 20.429 102.841 20.1344 102.598 19.9178C102.355 19.7013 102.029 19.58 101.689 19.5801Z" fill="#5F0A61" stroke="#263238" stroke-miterlimit="10"/>
<path id="Vector_27" d="M99.8097 19.0345C100.179 19.0345 100.541 18.9347 100.848 18.7476C101.155 18.5605 101.395 18.2946 101.536 17.9835C101.678 17.6724 101.715 17.3301 101.642 16.9998C101.57 16.6695 101.392 16.3662 101.131 16.1281C100.87 15.89 100.537 15.7278 100.174 15.6621C99.8118 15.5964 99.4361 15.6301 99.0946 15.759C98.7532 15.8879 98.4613 16.1061 98.256 16.3861C98.0507 16.666 97.9411 16.9952 97.9411 17.332C97.9411 17.7835 98.1379 18.2166 98.4884 18.5358C98.8388 18.8551 99.3141 19.0345 99.8097 19.0345Z" fill="#5F0A61" stroke="#263238" stroke-miterlimit="10"/>
<path id="Vector_28" d="M70.3115 139.835C71.5107 137.216 70.1531 134.207 67.2792 133.114C64.4053 132.021 61.1033 133.258 59.9041 135.877C58.7048 138.496 60.0624 141.506 62.9363 142.599C65.8103 143.691 69.1122 142.454 70.3115 139.835Z" fill="#263238" stroke="#263238" stroke-width="0.5" stroke-miterlimit="10"/>
<path id="Vector_29" d="M66.9777 137.509H63.3056C63.1342 137.508 62.9643 137.538 62.8058 137.598C62.6473 137.657 62.5033 137.745 62.3821 137.855C62.2609 137.966 62.1649 138.097 62.0997 138.241C62.0344 138.386 62.0012 138.54 62.0019 138.697V141.504C62.8993 142.144 64.0081 142.488 65.1475 142.479C66.2869 142.471 67.3897 142.112 68.276 141.459V138.697C68.2767 138.541 68.2437 138.387 68.1788 138.242C68.1138 138.098 68.0183 137.967 67.8977 137.857C67.7771 137.746 67.6337 137.659 67.4758 137.599C67.318 137.539 67.1487 137.509 66.9777 137.509Z" fill="#5F0A61" stroke="#263238" stroke-miterlimit="10"/>
<path id="Vector_30" d="M65.0765 136.988C65.4461 136.988 65.8074 136.888 66.1147 136.701C66.422 136.514 66.6615 136.248 66.8029 135.937C66.9443 135.626 66.9814 135.283 66.9093 134.953C66.8371 134.623 66.6592 134.319 66.3978 134.081C66.1365 133.843 65.8035 133.681 65.4411 133.615C65.0786 133.55 64.7028 133.583 64.3614 133.712C64.0199 133.841 63.7281 134.059 63.5228 134.339C63.3174 134.619 63.2078 134.948 63.2078 135.285C63.2078 135.737 63.4047 136.17 63.7551 136.489C64.1056 136.808 64.5809 136.988 65.0765 136.988Z" fill="#5F0A61" stroke="#263238" stroke-miterlimit="10"/>
<path id="Vector_31" d="M187.513 21.3963C188.647 18.7532 187.215 15.7726 184.315 14.7389C181.415 13.7052 178.144 15.0099 177.01 17.653C175.876 20.2961 177.308 23.2767 180.208 24.3104C183.108 25.3441 186.379 24.0394 187.513 21.3963Z" fill="#263238" stroke="#263238" stroke-width="0.5" stroke-miterlimit="10"/>
<path id="Vector_32" d="M184.144 19.1792H180.467C180.296 19.1792 180.127 19.2098 179.97 19.2693C179.812 19.3287 179.669 19.4159 179.549 19.5257C179.428 19.6356 179.332 19.7661 179.267 19.9096C179.202 20.0532 179.168 20.207 179.168 20.3624V23.1743C180.067 23.8109 181.175 24.1527 182.314 24.1446C183.452 24.1365 184.554 23.779 185.442 23.1298V20.3624C185.442 20.207 185.409 20.0532 185.344 19.9096C185.278 19.7661 185.183 19.6356 185.062 19.5257C184.942 19.4159 184.799 19.3287 184.641 19.2693C184.483 19.2098 184.315 19.1792 184.144 19.1792Z" fill="#5F0A61" stroke="#263238" stroke-miterlimit="10"/>
<path id="Vector_33" d="M182.243 18.6583C182.613 18.6583 182.974 18.5584 183.281 18.3714C183.588 18.1843 183.828 17.9184 183.969 17.6073C184.111 17.2962 184.148 16.9538 184.076 16.6236C184.004 16.2933 183.826 15.9899 183.564 15.7518C183.303 15.5137 182.97 15.3516 182.607 15.2859C182.245 15.2202 181.869 15.2539 181.528 15.3828C181.186 15.5116 180.895 15.7299 180.689 16.0098C180.484 16.2898 180.374 16.619 180.374 16.9557C180.374 17.4073 180.571 17.8403 180.922 18.1596C181.272 18.4789 181.747 18.6583 182.243 18.6583Z" fill="#5F0A61" stroke="#263238" stroke-miterlimit="10"/>
<path id="Vector_34" d="M52.8658 76.6984C55.0762 71.9248 52.622 66.4221 47.3841 64.4076C42.1462 62.3932 36.1081 64.6298 33.8977 69.4034C31.6873 74.1769 34.1416 79.6797 39.3795 81.6941C44.6173 83.7086 50.6554 81.4719 52.8658 76.6984Z" fill="#263238" stroke="#263238" stroke-width="0.5" stroke-miterlimit="10"/>
<path id="Vector_35" d="M46.7972 72.4177H40.0885C39.4598 72.4177 38.8569 72.645 38.4118 73.0496C37.9668 73.4543 37.7161 74.0033 37.7146 74.5762V79.705C39.3547 80.8679 41.3773 81.4926 43.4552 81.4783C45.5332 81.4639 47.5451 80.8112 49.1656 79.6258V74.5762C49.1656 74.0037 48.9161 73.4547 48.4719 73.0499C48.0278 72.6451 47.4254 72.4177 46.7972 72.4177Z" fill="#5F0A61" stroke="#263238" stroke-miterlimit="10"/>
<path id="Vector_36" d="M43.3152 71.4672C43.9899 71.4672 44.6495 71.2849 45.2105 70.9433C45.7715 70.6016 46.2087 70.1161 46.4669 69.548C46.7251 68.9799 46.7927 68.3548 46.6611 67.7517C46.5294 67.1486 46.2045 66.5947 45.7274 66.1599C45.2503 65.7251 44.6425 65.429 43.9807 65.309C43.319 65.189 42.6331 65.2506 42.0097 65.4859C41.3864 65.7212 40.8536 66.1197 40.4787 66.631C40.1039 67.1423 39.9038 67.7433 39.9038 68.3582C39.9038 69.1828 40.2632 69.9736 40.903 70.5566C41.5427 71.1397 42.4104 71.4672 43.3152 71.4672Z" fill="#5F0A61" stroke="#263238" stroke-miterlimit="10"/>
</g>
<g id="Clouds">
<path id="Vector_37" d="M76.8697 35.7386C76.8697 35.7089 76.8697 35.6792 76.8697 35.6495C76.7157 34.3648 76.1604 33.1473 75.2697 32.1417C74.379 31.136 73.1904 30.3844 71.8449 29.9761C70.4795 29.5538 69.0052 29.521 67.6187 29.8821C67.9256 28.932 68.0307 27.9373 67.9283 26.9513C67.7266 24.9796 66.7098 23.1516 65.0839 21.8378C63.4581 20.5241 61.3449 19.8229 59.1729 19.8764C57.0008 19.9299 54.9323 20.7341 53.3867 22.126C51.8411 23.5179 50.9342 25.3934 50.8496 27.3721C50.7247 27.3721 50.5997 27.3721 50.4748 27.3721C48.2028 27.3721 46.0239 28.1947 44.4173 29.6588C42.8108 31.1229 41.9083 33.1086 41.9083 35.1792C41.9061 35.8784 42.0085 36.5746 42.2125 37.2486C42.4999 38.1538 43.1038 38.9487 43.9323 39.5125C44.7608 40.0763 45.7687 40.3783 46.8026 40.3724H72.1057C72.7597 40.3752 73.4073 40.255 74.008 40.0193C74.6086 39.7835 75.1495 39.4374 75.5966 39.0024C76.0438 38.5675 76.3877 38.0531 76.6067 37.4915C76.8258 36.93 76.9153 36.3332 76.8697 35.7386V35.7386Z" stroke="#263238" stroke-miterlimit="10"/>
<path id="Vector_38" d="M206.823 114.983C206.821 114.967 206.821 114.95 206.823 114.934C206.741 114.239 206.441 113.58 205.96 113.036C205.478 112.492 204.835 112.085 204.107 111.864C203.37 111.635 202.574 111.618 201.826 111.815C201.994 111.302 202.053 110.764 202 110.231C201.919 109.145 201.381 108.13 200.498 107.398C199.615 106.666 198.456 106.273 197.262 106.303C196.069 106.332 194.934 106.781 194.096 107.556C193.258 108.33 192.781 109.371 192.765 110.458H192.564C191.337 110.46 190.162 110.905 189.295 111.696C188.428 112.486 187.941 113.559 187.941 114.676C187.943 115.052 187.997 115.427 188.104 115.79C188.258 116.28 188.583 116.71 189.031 117.016C189.478 117.322 190.022 117.486 190.581 117.483H204.238C204.592 117.487 204.943 117.423 205.269 117.297C205.595 117.171 205.889 116.984 206.132 116.75C206.375 116.515 206.561 116.236 206.68 115.932C206.8 115.628 206.848 115.305 206.823 114.983V114.983Z" stroke="#263238" stroke-miterlimit="10"/>
<path id="Vector_39" d="M86.7182 153.132C86.7182 153.132 86.7182 153.102 86.7182 153.088C86.6363 152.392 86.3367 151.733 85.8551 151.189C85.3735 150.645 84.7303 150.238 84.0021 150.018C83.2651 149.789 82.4688 149.772 81.7206 149.969C81.8871 149.455 81.9442 148.918 81.889 148.385C81.7728 147.361 81.2537 146.41 80.4278 145.709C79.6019 145.007 78.5251 144.602 77.3966 144.568C76.1838 144.541 75.0081 144.95 74.1237 145.707C73.2394 146.464 72.7174 147.507 72.6706 148.612H72.4696C71.8617 148.612 71.2595 148.72 70.6977 148.932C70.1358 149.144 69.6253 149.454 69.1954 149.846C68.7655 150.238 68.4246 150.703 68.1923 151.215C67.9599 151.727 67.8407 152.276 67.8414 152.83C67.8418 153.207 67.8984 153.581 68.0098 153.944C68.1622 154.435 68.4871 154.866 68.9346 155.172C69.3821 155.478 69.9275 155.641 70.4869 155.637H84.1379C84.4921 155.64 84.8432 155.576 85.1688 155.449C85.4945 155.322 85.7879 155.135 86.0303 154.9C86.2727 154.665 86.459 154.386 86.5774 154.082C86.6958 153.777 86.7438 153.454 86.7182 153.132V153.132Z" stroke="#263238" stroke-miterlimit="10"/>
<path id="Vector_40" d="M164.453 24.1792C164.455 24.1645 164.455 24.1494 164.453 24.1347C164.372 23.4391 164.073 22.7795 163.591 22.2351C163.109 21.6906 162.465 21.2844 161.736 21.0653C161 20.8347 160.204 20.8157 159.455 21.0109C159.624 20.4996 159.681 19.963 159.623 19.4316C159.543 18.3461 159.005 17.3309 158.122 16.5987C157.239 15.8665 156.079 15.4741 154.886 15.5035C153.693 15.5329 152.558 15.982 151.72 16.7566C150.881 17.5313 150.404 18.5714 150.389 19.6594H150.188C149.476 19.6609 148.775 19.8117 148.138 20.1001C147.501 20.3884 146.945 20.8066 146.514 21.3221C146.083 21.8377 145.787 22.4368 145.651 23.0731C145.515 23.7093 145.541 24.3656 145.728 24.9911C145.882 25.4808 146.207 25.9113 146.654 26.2169C147.101 26.5226 147.646 26.6867 148.205 26.6842H161.861C162.217 26.6893 162.569 26.6268 162.897 26.5007C163.224 26.3747 163.519 26.1879 163.763 25.9522C164.007 25.7166 164.194 25.4372 164.313 25.1319C164.431 24.8267 164.479 24.5022 164.453 24.1792V24.1792Z" stroke="#263238" stroke-miterlimit="10"/>
</g>
<g id="earth globe">
<path id="Vector_41" d="M167.654 123.572C190.707 102.562 190.707 68.499 167.654 47.4895C144.601 26.48 107.224 26.48 84.171 47.4895C61.1178 68.499 61.1178 102.562 84.171 123.572C107.224 144.581 144.601 144.581 167.654 123.572Z" fill="white" stroke="#263238" stroke-miterlimit="10"/>
<path id="Vector_42" d="M123.787 60.6255L129.393 62.9225L130.931 65.2196L133.457 66.1157L133.734 68.5414L132.756 69.9425L130.795 70.3286L126.59 68.7939V68.2989L128.97 67.4028L128.133 64.7245L124.331 63.4473L122.652 61.4027L123.787 60.6255ZM159.096 119.612L154.615 117.953L149.15 116.166H144.804L140.741 115.399L136.254 116.29L133.734 116.419H132.196L129.252 117.953L126.427 118.973L122.625 116.805L123.603 113.226L121.223 112.334H118.42L118.002 111.186L118.279 108.884L117.301 107.612L115.34 107.864L114.797 109.141L112.418 109.27L110.316 106.973L109.474 103.908L111.576 100.329L115.639 100.587L116.764 101.483H118.442L120.544 100.329L122.364 100.824L124.885 104.785L125.868 104.656L125.585 101.72L124.798 100.205L125.075 97.7797L130.257 95.7351L130.958 91.0122L133.201 89.3488L135.021 86.4131L136.423 86.1606L139.644 84.2447L139.785 83.2249L137.547 83.3487L137.123 82.3289H135.586L133.201 82.8239L134.32 81.1655L139.209 79.8882L140.328 78.7397L142.289 81.5467L143.555 82.6952L145.516 82.2001L144.674 80.5417L141.73 78.6258L138.367 75.1604L134.869 72.9871L131.506 72.492L129.822 70.9623L127.579 70.4672L127.302 70.9623L127.019 74.6653L127.563 75.9376L126.302 80.0268L123.51 77.9971L123.929 76.2099L120.995 74.9228L119.724 73.5415L120.425 70.3534L124.488 67.6701L124.771 64.6057L123.228 64.7344L122.245 63.5859L121.826 61.67L120.843 61.5413L120.3 63.5859L118.763 63.8384L118.062 59.3828L116.921 58.6898L114.96 57.9224L112.722 58.9422L115.52 61.368L116.063 63.5414L111.016 60.0759L107.513 56.6105L107.236 53.1451L103.612 52.1946L100.809 53.858C100.134 54.2307 99.4376 54.5711 98.7233 54.8778C97.6174 55.1181 96.4935 55.2835 95.3608 55.3729L94.8176 57.5462L91.5963 57.6699L91.8788 59.0759L97.0611 59.8433L99.7228 62.5215V66.9771L98.1801 70.9375L98.4626 75.1505L94.5405 81.4031L93.6986 90.7251L94.9208 96.1163L96.7406 100.205L98.8428 100.458L98.1421 98.4183L97.023 96.8836L96.3223 94.0766L97.5826 93.8192L99.5436 98.4183L100.945 102.503V105.819L103.607 108.76L108.371 111.948L115.655 113.74L117.899 115.651L119.577 117.696L122.103 119.102L125.183 119.864L128.263 119.74C128.263 119.74 128.128 121.018 128.128 121.656C128.128 122.295 126.167 124.463 126.167 124.463L124.629 127.008L125.748 129.815L128.834 130.963L133.18 135.053L135.141 135.815V137.731L135.385 138.622C146.282 137.017 156.462 132.649 164.762 126.018L164.838 125.092L168.641 118.835L166.821 117.686L159.096 119.612ZM173.687 69.1801L172.145 66.7493L170.183 63.9423L169.64 60.1106L172.161 60.4967L172.302 59.2195L170.477 59.0908L172.02 58.4521L173.704 57.561V56.2838L172.02 54.2392L171.661 51.4916C163.52 42.4112 152.346 36.0029 139.841 33.2416C127.336 30.4803 114.184 31.5171 102.385 36.1943L105.611 38.2785L103.612 40.5755L100.951 41.0706L100.673 44.536L99.549 44.9172L98.1475 46.3133L98.2887 48.6104L100.673 48.8678L99.6902 51.0361H102.075L106.133 46.3133L106.557 44.2687L110.479 44.0162L111.456 42.4815L115.52 42.1003L115.943 39.927L118.882 39.8033C118.882 39.8033 120.984 38.7785 121.408 38.7785C122.217 38.9387 123.012 39.1521 123.787 39.4171L125.89 40.9518H128.834L131.354 39.5458L134.576 39.8033C135.039 40.0779 135.568 40.2476 136.118 40.2983C136.819 40.2983 138.921 39.4023 138.921 39.4023L142.979 41.6993L144.663 42.8528V44.7637L146.765 45.0212L147.466 43.8726L149.286 44.64L149.145 45.6598L144.946 46.6796L147.325 49.4916L152.366 52.0461L154.468 54.5956L157.554 54.8531L158.254 53.5758L159.373 53.3184L155.728 50.7688L153.49 50.5114L155.31 50.0163L153.632 47.843L156.011 47.7192L159.091 49.249L159.792 52.3134L161.334 53.9718L162.595 57.6749L165.68 59.7195V63.9324L168.901 65.8483L168.76 67.2543L168.342 68.9127L169.179 71.2098L169.461 72.3584L171.84 72.7445L172.965 70.5712L173.687 69.1801ZM175.507 56.3085V57.0412L174.774 59.0908L175.192 60.8779L176.735 61.373V63.7988L175.056 63.1602L174.643 70.0761L172.965 72.8831L174.084 76.4624L175.904 77.9921V84.8883L177.729 90.2498L179.69 94.334L182.911 95.1014L184.03 92.5469L184.486 92.2201C184.79 90.0014 184.942 87.7677 184.943 85.5319C184.96 75.1635 181.675 65.0134 175.485 56.3135L175.507 56.3085ZM143.142 55.5115L133.907 51.8084L129.844 51.9372L128.866 54.3629L127.182 52.6995L124.102 53.3382L123.82 57.5561L126.34 59.2145L128.166 56.7887L130.23 58.6898L134.576 62.1552L135.418 65.8582L139.057 70.0712L144.946 69.1801L144.804 67.2642L143.544 65.0909L143.267 59.9868L144.669 57.8135L143.142 55.5115ZM150.709 58.3185L148.607 57.8234L146.787 59.2294L147.765 62.9324H149.59L150.709 58.3185ZM163.746 60.7443L158.982 58.4472L157.999 56.9175L156.88 57.2986L157.858 59.8532L158.7 63.1701L160.802 63.9374L161.22 63.4423L159.96 61.5265L163.605 62.8037L163.746 60.7443ZM122.837 106.839L122.293 107.334L126.498 108.483L128.182 110.27L130.844 110.527L131.822 109.121L128.6 108.626L122.837 106.839ZM135.331 109.265L132.386 110.032L132.81 111.052H136.45L137.15 110.032L135.89 110.156L135.331 109.265Z" fill="#5F0A61" stroke="#263238" stroke-miterlimit="10"/>
</g>
<g id="Character">
<path id="Vector_43" d="M167.712 152.256C167.662 153.648 167.846 155.039 168.255 156.38C168.902 158.261 169.543 160.029 170.189 160.737C170.835 161.445 171.873 160.266 170.966 158.851C170.059 157.435 170.58 155.91 171.096 155.91C171.612 155.91 175.746 158.261 176.392 159.088C177.039 159.915 178.978 162.034 178.978 160.618C178.978 159.202 176.007 156.261 175.491 155.435C174.975 154.608 172.128 151.078 172.128 151.078L167.712 152.256Z" fill="white" stroke="#263238" stroke-linejoin="round"/>
<path id="Vector_44" d="M169.543 147.895L172.128 151.078L167.218 153.548L164.893 150.959L169.543 147.895Z" fill="#5F0A61" stroke="#263238" stroke-linejoin="round"/>
<path id="Vector_45" d="M142.148 213.846C142.148 213.846 140.209 217.733 139.432 218.797C138.655 219.861 138.009 220.327 136.716 220.564C135.423 220.802 133.228 221.035 133.228 221.975C133.244 222.559 133.431 223.129 133.772 223.624C133.772 223.624 139.845 224.802 141.92 224.332C143.995 223.861 146.054 221.267 146.054 221.267L147.347 221.975L151.095 218.678C150.859 217.52 150.417 216.404 149.786 215.376C148.623 213.257 147.977 211.728 147.977 211.728C147.977 211.728 145.119 213.846 142.148 213.846Z" fill="#616161" stroke="#263238" stroke-linejoin="round"/>
<path id="Vector_46" d="M150.269 216.352C148.911 217.515 145.771 220.312 144.913 221C143.827 221.876 141.599 223.629 139.894 223.629C138.666 223.629 135.238 223.178 133.375 222.921C133.458 223.166 133.575 223.401 133.723 223.619C133.723 223.619 139.796 224.797 141.871 224.327C143.946 223.857 146.005 221.263 146.005 221.263L147.298 221.97L151.046 218.673C150.903 217.871 150.642 217.09 150.269 216.352Z" stroke="#263238" stroke-linejoin="round"/>
<path id="Vector_47" d="M132.071 198.183C132.071 198.183 134.527 202.891 136.96 205.717C139.394 208.544 142.126 214.906 142.126 214.906C142.126 214.906 144.326 215.614 145.875 214.549C146.859 213.819 147.58 212.836 147.944 211.728C147.944 211.728 144.842 203.01 143.68 199.242C142.517 195.475 139.671 187.227 138.378 185.227C137.399 183.754 136.329 182.332 135.173 180.969C135.173 180.969 133.75 188.742 133.104 191.683C132.457 194.623 132.071 198.183 132.071 198.183Z" fill="#263238" stroke="#263238" stroke-linejoin="round"/>
<path id="Vector_48" d="M120.566 144.008L120.696 151.543C120.696 151.543 118.524 165.444 120.311 172.509C122.098 179.573 124.961 187.361 124.961 187.361C124.961 187.361 123.543 200.316 123.021 203.495C122.5 206.673 120.305 212.683 120.305 212.683C120.305 212.683 124.054 214.45 124.7 214.45H125.993C125.993 214.45 129.866 204.911 130.643 203.495C131.42 202.079 134.13 199.376 135.037 193.485C135.945 187.593 136.205 181.465 136.205 181.465C136.205 181.465 142.664 173.925 144.218 171.563C145.771 169.202 148.221 164.375 148.221 164.375C148.221 164.375 151.068 157.662 150.677 151.187C150.285 144.711 148.096 141.414 148.096 141.414C148.096 141.414 135.428 144.122 129.486 144.122C123.543 144.122 120.566 144.008 120.566 144.008Z" fill="#263238" stroke="#263238" stroke-linejoin="round"/>
<path id="Vector_49" d="M123.863 101.71C123.863 101.71 126.373 103.998 125.993 104.795C125.613 105.592 119.105 105.938 117.725 107.423C116.345 108.909 110.457 127.751 110.457 127.751C110.457 127.751 103.438 125.919 102.814 125.463C102.189 125.008 101.434 125.35 101.059 126.721C100.684 128.092 96.9253 131.176 97.4251 131.973C97.9248 132.77 104.818 135.855 108.202 136.657C110.263 137.14 112.36 137.483 114.477 137.681L113.977 143.508C113.977 143.508 120.365 146.82 132.772 145.335C145.179 143.85 150.329 141.454 150.329 141.454L148.83 129.691C148.83 129.691 156.978 143.622 158.352 146.028C159.727 148.434 161.481 151.969 162.986 152.424C164.491 152.88 169.879 149.682 170.004 148.315C170.129 146.949 165.496 140.32 161.856 134.612C158.216 128.904 153.208 112.8 152.458 109.364C151.709 105.928 149.699 103.082 147.569 102.626C145.44 102.171 139.676 102.166 137.167 101.71C134.657 101.255 131.153 97.4876 129.524 92.6904L123.863 101.71Z" fill="#5F0A61" stroke="#263238" stroke-miterlimit="10"/>
<path id="Vector_50" d="M119.366 112.339C120.001 111.112 120.49 110.275 120.49 110.275" stroke="#263238" stroke-miterlimit="10"/>
<path id="Vector_51" d="M114.477 137.682C114.477 137.682 115.981 122.954 116.606 119.414C117.001 117.663 117.604 115.957 118.404 114.325" stroke="#263238" stroke-miterlimit="10"/>
<path id="Vector_52" d="M144.663 116.19C144.478 115.379 144.305 114.582 144.163 113.815" stroke="#263238" stroke-miterlimit="10"/>
<path id="Vector_53" d="M148.802 129.691C148.802 129.691 146.722 124.072 145.217 118.399" stroke="#263238" stroke-miterlimit="10"/>
<path id="Vector_54" d="M122.625 105.775C123.228 106.953 125.162 109.334 131.023 109.24C137.938 109.136 140.98 104.785 142.099 102.136C140.446 102.075 138.797 101.93 137.161 101.701C134.657 101.245 131.148 97.4778 129.518 92.6807L123.863 101.711C123.863 101.711 126.373 103.998 125.993 104.795C125.819 105.166 124.309 105.443 122.625 105.775Z" fill="white" stroke="#263238" stroke-miterlimit="10"/>
<path id="Vector_55" d="M128.551 95.9429L126.846 96.933L123.863 101.695C124.573 102.346 125.204 103.064 125.743 103.839C128.551 100.794 128.551 95.9429 128.551 95.9429Z" fill="#263238" stroke="#263238" stroke-linejoin="round"/>
<path id="Vector_56" d="M109.332 90.8689C109.332 90.8689 111.712 94.6363 112.336 96.3493C113.252 98.4483 114.996 100.159 117.225 101.146C119.48 102.057 120.61 102.859 122.614 102.973C125.488 103.137 127.622 99.4335 128.752 96.577C129.882 93.7205 129.882 93.265 129.882 93.265C129.882 93.265 131.631 90.8689 131.631 88.354C131.631 85.8391 128.502 82.9876 124.993 81.5024C121.484 80.0172 119.105 77.8489 115.471 80.8192C111.837 83.7896 109.332 90.8689 109.332 90.8689Z" fill="white" stroke="#263238" stroke-miterlimit="10"/>
<path id="Vector_57" d="M115.596 94.5171C115.862 95.1784 116.03 95.8692 116.095 96.5711C116.095 97.3728 117.225 97.7143 118.225 96.0019" stroke="#263238" stroke-miterlimit="10"/>
<path id="Vector_58" d="M118.475 98.294C118.475 98.294 121.609 98.7494 122.234 95.3245" stroke="#263238" stroke-miterlimit="10"/>
<path id="Vector_59" d="M119.116 90.5566C119.409 91.012 119.42 91.502 119.116 91.6554C118.811 91.8088 118.366 91.5564 118.073 91.1011C117.779 90.6457 117.774 90.1508 118.073 90.0023C118.371 89.8538 118.822 90.1013 119.116 90.5566Z" fill="#263238"/>
<path id="Vector_60" d="M114.058 92.8486C114.352 93.3039 114.363 93.7989 114.058 93.9473C113.754 94.0958 113.309 93.8484 113.021 93.393C112.733 92.9377 112.717 92.4428 113.021 92.2943C113.325 92.1458 113.77 92.3834 114.058 92.8486Z" fill="#263238"/>
<path id="Vector_61" d="M115.525 89.0318C115.525 89.0318 116.068 87.2402 119.594 87.4778" stroke="#263238" stroke-miterlimit="10"/>
<path id="Vector_62" d="M112.896 90.8291C112.896 90.8291 110.929 90.8291 111.06 92.2644" stroke="#263238" stroke-miterlimit="10"/>
<path id="Vector_63" d="M118.35 82.6408C118.35 82.6408 116.72 84.3538 114.841 86.0667C112.961 87.7796 109.832 90.2945 109.832 93.3737C109.832 96.453 109.957 96.7995 109.957 96.7995C109.957 96.7995 104.568 94.2896 103.064 90.8588C101.559 87.4281 104.943 79.5517 109.077 76.007C113.211 72.4624 118.1 71.7842 123.489 72.1258C128.877 72.4674 134.266 77.3784 135.646 82.2894C137.026 87.2003 134.266 92.5668 133.386 93.4777C132.506 94.3886 129.752 94.5074 129.752 94.5074C130.34 92.7707 130.47 90.9322 130.132 89.141C129.502 86.5122 127.747 87.0865 127.498 88.2251C127.248 89.3638 127.123 89.8242 127.123 89.8242C127.123 89.8242 124.618 88.2251 121.984 86.5122C120.434 85.5213 119.184 84.1896 118.35 82.6408Z" fill="#263238" stroke="#263238" stroke-linejoin="round"/>
<path id="Vector_64" d="M94.546 128.781L97.9248 124.211L99.5544 125.696L94.546 128.781Z" fill="#5F0A61" stroke="#263238" stroke-linejoin="round"/>
<path id="Vector_65" d="M106.491 122.043L98.6201 122.072L91.1183 108.904L98.9895 108.874L106.491 122.043Z" fill="#263238" stroke="#263238" stroke-linejoin="round"/>
<path id="Vector_66" d="M92.4166 115.3C92.4166 115.3 94.421 117.013 94.546 117.815C94.6709 118.617 95.6704 121.696 96.1756 123.181C96.6808 124.667 98.5549 126.266 98.5549 126.266L100.185 124.78L99.5544 122.266C100.155 121.78 100.783 121.322 101.434 120.894C102.189 120.439 103.064 119.181 102.564 119.181C102.184 119.192 101.806 119.232 101.434 119.3C101.434 119.3 102.564 117.701 101.814 117.587C101.317 117.513 100.814 117.474 100.31 117.468C100.31 117.468 101.559 116.102 100.559 115.983C99.5599 115.864 96.0453 117.582 96.0453 117.582L94.546 115.523C94.2262 115.356 93.8725 115.25 93.5064 115.212C93.1403 115.174 92.7695 115.204 92.4166 115.3Z" fill="white" stroke="#263238" stroke-linejoin="round"/>
<path id="Vector_67" d="M92.8294 114.547C92.7221 114.632 92.6428 114.742 92.6006 114.866C92.5584 114.989 92.5548 115.121 92.5904 115.246C92.626 115.371 92.6993 115.484 92.802 115.574C92.9047 115.663 93.0328 115.724 93.1716 115.75C93.4023 115.824 93.6502 115.843 93.891 115.804C94.1318 115.765 94.3574 115.67 94.546 115.528C95.1707 114.844 97.6749 113.018 97.6749 112.102C97.6749 111.186 96.5504 112.216 96.0453 112.448C94.9155 113.071 93.8404 113.773 92.8294 114.547Z" fill="white" stroke="#263238" stroke-linejoin="round"/>
<path id="Vector_68" d="M100.31 117.469C100.31 117.469 96.5505 119.181 95.9203 119.869" stroke="#263238" stroke-linejoin="round"/>
<path id="Vector_69" d="M101.439 119.3C101.439 119.3 98.4354 120.552 97.4305 121.582" stroke="#263238" stroke-linejoin="round"/>
<path id="Vector_70" d="M101.684 125.35L99.9347 123.979L94.546 128.776L98.1801 131.291C98.1801 131.291 101.559 128.32 101.684 125.35Z" fill="#5F0A61" stroke="#263238" stroke-linejoin="round"/>
<path id="Vector_71" d="M136.336 151.9C136.336 151.9 130.518 164.38 129.225 169.583C127.932 174.786 125.477 184.658 125.477 185.247" stroke="#757575" stroke-linejoin="round"/>
<path id="Vector_72" d="M127.932 155.435L131.295 158.963" stroke="#757575" stroke-linejoin="round"/>
<path id="Vector_73" d="M120.311 212.317C120.311 212.317 119.534 213.847 115.786 214.55C112.038 215.253 108.55 213.965 107.904 214.079C107.257 214.193 106.611 215.258 106.611 216.203C106.611 217.149 111.136 219.733 112.945 220.56C114.386 221.118 115.911 221.475 117.47 221.619H118.111L117.986 222.797C119.036 223.179 120.114 223.493 121.213 223.738C122.199 223.871 123.202 223.871 124.189 223.738C124.582 222.232 124.799 220.692 124.836 219.144C124.924 217.525 125.317 215.933 125.998 214.436L120.311 212.317Z" fill="#616161" stroke="#263238" stroke-linejoin="round"/>
<path id="Vector_74" d="M124.58 221.896C122.033 221.594 117.334 220.906 114.482 219.916C111.462 218.876 108.078 216.758 106.643 215.817C106.622 215.94 106.611 216.064 106.611 216.188C106.611 217.129 111.136 219.718 112.945 220.545C114.386 221.103 115.911 221.461 117.47 221.604H118.111L117.986 222.782C119.036 223.164 120.114 223.478 121.213 223.723C122.199 223.856 123.202 223.856 124.189 223.723C124.189 223.723 124.396 222.971 124.58 221.896Z" stroke="#263238" stroke-linejoin="round"/>
</g>
</g>
</g>
</svg>
