<svg width="376" height="341" viewBox="0 0 376 341" fill="none" xmlns="http://www.w3.org/2000/svg">
<path d="M26.0869 192.974V42.1535H38.9378" stroke="#263238" stroke-linecap="round" stroke-linejoin="round"/>
<path d="M26.0957 217.631V212.133" stroke="#263238" stroke-linecap="round" stroke-linejoin="round"/>
<path d="M71.9742 42.1535H204.518V236.937H26.0869" stroke="#263238" stroke-linecap="round" stroke-linejoin="round"/>
<path d="M55.7201 42.1533H67.3673" stroke="#263238" stroke-linecap="round" stroke-linejoin="round"/>
<path d="M197.807 48.8448H32.7982V230.253H197.807V48.8448Z" stroke="#263238" stroke-linecap="round" stroke-linejoin="round"/>
<path d="M190.135 61.5714V132.127H40.4706V125.695" stroke="#263238" stroke-linecap="round" stroke-linejoin="round"/>
<path d="M40.4706 110.6V55.8479H190.135" stroke="#263238" stroke-linecap="round" stroke-linejoin="round"/>
<path d="M40.4791 120.741V114.482" stroke="#263238" stroke-linecap="round" stroke-linejoin="round"/>
<path d="M164.866 139.545H197.807" stroke="#263238" stroke-linecap="round" stroke-linejoin="round"/>
<path d="M153.15 139.545H157.808" stroke="#263238" stroke-linecap="round" stroke-linejoin="round"/>
<path d="M32.7982 139.545H147.581" stroke="#263238" stroke-linecap="round" stroke-linejoin="round"/>
<path d="M107.011 132.127V128.738H120.806V130.666H115.307V132.127" stroke="#263238" stroke-linecap="round" stroke-linejoin="round"/>
<path d="M33.084 200.348C33.084 200.348 35.3701 202.078 36.9808 212.539C36.9808 212.539 39.7519 195.827 43.1118 195.568C46.4718 195.308 45.7617 206.444 45.7617 206.444C45.7617 206.444 46.3159 200.954 48.9484 201.204C51.5809 201.455 48.9484 212.539 48.9484 212.539C48.9484 212.539 52.1092 203.893 55.0967 204.049C58.0843 204.204 53.1137 219.706 53.1137 219.706C53.1137 219.706 60.7861 214.155 63.8949 216.87C67.0037 219.585 62.163 226.432 62.163 226.432C62.163 226.432 73.1693 224.046 74.8753 230.487" stroke="#263238" stroke-linecap="round" stroke-linejoin="round"/>
<path d="M74.9011 224.245C74.9011 224.245 79.6985 221.106 83.4655 222.567C83.4655 222.567 81.0668 218.919 83.4655 216.688C85.8642 214.458 88.947 222.567 88.947 222.567C88.947 222.567 89.2934 208.985 94.0908 209.668C98.8883 210.351 94.0908 222.567 94.0908 222.567C94.0908 222.567 102.655 214.994 104.708 217.631C106.76 220.268 103.339 224.245 103.339 224.245C103.339 224.245 108.474 222.602 112.241 226.432C112.241 226.432 117.983 220.579 124.365 219.74C124.365 219.74 120.122 207.446 122.183 204.965C124.244 202.484 127.967 215.694 127.967 215.694C127.967 215.694 129.604 207.101 134.964 206.444C134.964 206.444 130.496 204.014 131.821 200.348C133.146 196.683 139.311 201.213 139.311 201.213C139.311 201.213 136.774 194.755 140.783 192.982C144.793 191.21 146.464 198.386 146.464 198.386C146.464 198.386 147.581 190.864 152.292 191.279C157.003 191.694 155.479 200.357 155.479 200.357C155.479 200.357 159.921 193.441 162.303 194.176C167.057 195.576 165.611 206.452 165.611 206.452C165.611 206.452 172.253 201.844 173.958 203.962C175.803 206.253 167.031 212.141 167.031 212.141C167.031 212.141 173.621 212.867 177.717 216.697" stroke="#263238" stroke-linecap="round" stroke-linejoin="round"/>
<path d="M197.807 202.83C197.807 202.83 197.054 195.913 190.135 195.568C183.216 195.222 192.04 210.697 192.04 210.697C192.04 210.697 186.333 205.985 184.29 207.438C182.246 208.89 190.135 216.87 190.135 216.87C190.135 216.87 186.351 213.412 182.341 214.458C178.332 215.504 184.619 226.648 184.619 226.648C178.692 225.454 172.539 226.171 167.048 228.697" stroke="#263238" stroke-linecap="round" stroke-linejoin="round"/>
<path d="M266.634 295.597V209.418H363.829" stroke="#263238" stroke-linecap="round" stroke-linejoin="round"/>
<path d="M360.296 218.332H274.453V298.605" stroke="#263238" stroke-linecap="round" stroke-linejoin="round"/>
<path d="M291.634 262.112V226.432H297.254V233.79H304.753V230.487H311.456V234.49H320.505V226.432H329.762V231.844H334.75V228.697H343.687V249.715" stroke="#263238" stroke-linecap="round" stroke-linejoin="round"/>
<path d="M334.75 231.844V262.112" stroke="#263238" stroke-linecap="round" stroke-linejoin="round"/>
<path d="M330.481 236.375V241.778" stroke="#263238" stroke-linecap="round" stroke-linejoin="round"/>
<path d="M330.481 245.651V267.844" stroke="#263238" stroke-linecap="round" stroke-linejoin="round"/>
<path d="M320.505 234.498V254.435" stroke="#263238" stroke-linecap="round" stroke-linejoin="round"/>
<path d="M320.852 261.005V267.213" stroke="#263238" stroke-linecap="round" stroke-linejoin="round"/>
<path d="M311.456 234.498V245.651" stroke="#263238" stroke-linecap="round" stroke-linejoin="round"/>
<path d="M311.456 252.507V276.006" stroke="#263238" stroke-linecap="round" stroke-linejoin="round"/>
<path d="M304.753 233.79V261.49" stroke="#263238" stroke-linecap="round" stroke-linejoin="round"/>
<path d="M297.254 233.79V244.268" stroke="#263238" stroke-linecap="round" stroke-linejoin="round"/>
<path d="M297.254 249.715V274.622" stroke="#263238" stroke-linecap="round" stroke-linejoin="round"/>
<path d="M291.634 267.213V278.461" stroke="#263238" stroke-linecap="round" stroke-linejoin="round"/>
<path d="M280.039 278.461H348.259" stroke="#263238" stroke-linecap="round" stroke-linejoin="round"/>
<path d="M334.75 278.461V271.259" stroke="#263238" stroke-linecap="round" stroke-linejoin="round"/>
<path d="M320.852 273.161V278.124" stroke="#263238" stroke-linecap="round" stroke-linejoin="round"/>
<path d="M344.449 237.94H351.065" stroke="#263238" stroke-linecap="round" stroke-linejoin="round"/>
<path d="M280.298 284.738H343.687" stroke="#263238" stroke-linecap="round" stroke-linejoin="round"/>
<path d="M293.903 303.04V294.654H305.645V300.057H315.093V310.596H320.505V294.974H332.499V298.605H339.868" stroke="#263238" stroke-linecap="round" stroke-linejoin="round"/>
<path d="M332.499 298.605V307.596" stroke="#263238" stroke-linecap="round" stroke-linejoin="round"/>
<path d="M320.852 314.4V320.452" stroke="#263238" stroke-linecap="round" stroke-linejoin="round"/>
<path d="M315.093 310.596V318.568" stroke="#263238" stroke-linecap="round" stroke-linejoin="round"/>
<path d="M305.645 300.057V304.631" stroke="#263238" stroke-linecap="round" stroke-linejoin="round"/>
<path d="M360.59 25.4681H153.071V168.612H360.59V25.4681Z" fill="#5F0A61" stroke="#263238" stroke-linecap="round" stroke-linejoin="round"/>
<path d="M360.59 25.4681H153.071V39.6208H360.59V25.4681Z" fill="#263238"/>
<path d="M237.139 123.612L232.272 116.851C232.271 115.44 232.199 114.029 232.056 112.624C231.874 111.993 228.921 107.35 228.852 106.252C228.841 105.728 228.774 105.206 228.653 104.696C228.653 104.696 227.137 105.076 227.154 106.001C227.172 106.926 227.336 110.047 227.336 110.047C227.336 110.047 223.388 107.748 222.946 107.143C222.504 106.537 217.69 103.01 217.239 102.483C216.789 101.955 214.953 101.921 214.737 102.483L214.996 103.131L213.481 103.849L214.494 106.849C214.204 107.524 214.029 108.243 213.975 108.975C214.139 109.347 214.676 111.569 214.676 111.569C214.676 111.569 214.347 111.906 214.39 113.082C214.434 114.258 220.902 120.266 222.184 120.915C223.715 121.557 225.282 122.108 226.877 122.566L230.939 127.814L237.139 123.612Z" fill="white" stroke="#263238" stroke-linecap="round" stroke-linejoin="round"/>
<path d="M227.328 110.047C226.572 111.765 226.378 113.677 226.773 115.511" stroke="#263238" stroke-linecap="round" stroke-linejoin="round"/>
<path d="M214.988 103.131C216.295 103.632 217.932 106.07 218.685 106.822C219.367 107.436 220.097 107.994 220.868 108.491" stroke="#263238" stroke-linecap="round" stroke-linejoin="round"/>
<path d="M214.485 106.823C215.559 106.598 216.287 107.013 216.261 108.059C216.235 109.105 218.556 110.696 218.556 110.696" stroke="#263238" stroke-linecap="round" stroke-linejoin="round"/>
<path d="M214.667 111.543C214.667 111.543 215.421 110.203 216.018 110.817C216.616 111.431 216.806 113.004 217.906 113.333" stroke="#263238" stroke-linecap="round" stroke-linejoin="round"/>
<path d="M300.423 116.263C300.423 116.263 283.338 117.318 279.571 118.857C276.48 120.128 254.735 134.419 254.735 134.419C254.735 134.419 241.945 124.788 238.23 121.451C237.514 121.105 236.744 120.883 235.953 120.794L234.004 119.557L229.215 126.292L230.558 128.151C230.558 128.151 230.774 131.151 231.372 131.903C239.321 141.871 254.545 155.825 256.831 157.2C259.117 158.575 279.398 146.592 279.398 146.592L283.165 168.638H343.652C343.652 168.638 343.496 129.949 340.95 126.984C338.405 124.018 309.222 112.39 309.222 112.39L300.423 116.263Z" fill="#757575" stroke="#263238" stroke-linecap="round" stroke-linejoin="round"/>
<path d="M320.852 102.266C320.852 102.266 315.431 105.897 318.306 117.5C318.306 117.5 310.14 123.327 302.06 117.448C302.06 117.448 303.922 108.197 302.06 106.338" fill="white"/>
<path d="M320.852 102.266C320.852 102.266 315.431 105.897 318.306 117.5C318.306 117.5 310.14 123.327 302.06 117.448C302.06 117.448 303.922 108.197 302.06 106.338" stroke="#263238" stroke-linecap="round" stroke-linejoin="round"/>
<path d="M339.868 128.782C339.868 128.782 332.499 137.246 331.641 151.736" stroke="#263238" stroke-linecap="round" stroke-linejoin="round"/>
<path d="M307.438 79.0191C307.438 79.0191 302.606 78.2928 300.917 84.2064C299.934 87.828 300.332 91.6852 302.034 95.0305L310.919 86.7049L307.438 79.0191Z" fill="#263238"/>
<path d="M319.197 105.794C325.424 98.3758 329.823 86.0128 320.47 81.0762C302.424 71.5488 296.457 90.1626 299.488 107.454C300.423 112.788 307.68 110.41 312.989 108.482" fill="white"/>
<path d="M319.197 105.794C325.424 98.3758 329.823 86.0128 320.47 81.0762C302.424 71.5488 296.457 90.1626 299.488 107.454C300.423 112.788 307.68 110.41 312.989 108.482" stroke="#263238" stroke-linecap="round" stroke-linejoin="round"/>
<path d="M306.589 89.6697C306.589 89.6697 309.568 90.4738 310.321 92.0646" stroke="#263238" stroke-linecap="round" stroke-linejoin="round"/>
<path d="M302.277 88.8834C301.925 88.7107 301.535 88.6312 301.144 88.6524C300.753 88.6736 300.373 88.7948 300.043 89.0044" stroke="#263238" stroke-linecap="round" stroke-linejoin="round"/>
<path d="M306.537 93.7676C306.485 94.295 306.719 94.7532 307.057 94.7878C307.394 94.8224 307.715 94.416 307.767 93.9232C307.819 93.4304 307.585 92.929 307.247 92.8944C306.909 92.8598 306.589 93.2316 306.537 93.7676Z" fill="#263238"/>
<path d="M300.077 92.1685C300.034 92.7045 300.268 93.1627 300.605 93.1973C300.943 93.2318 301.264 92.8255 301.315 92.3327C301.367 91.8399 301.134 91.3471 300.787 91.3126C300.441 91.278 300.129 91.6411 300.077 92.1685Z" fill="#263238"/>
<path d="M316.418 97.2346C316.418 97.2346 313.621 101.281 311.742 102.578C310.527 103.354 309.065 103.644 307.646 103.39C307.646 103.39 305.247 100.433 301.748 100.39C300.842 99.8145 299.813 99.4619 298.744 99.3614L298.943 94.8484C298.943 94.8484 296.284 104.523 296.535 107.99C296.786 111.456 305.325 113.86 309.594 112.892C313.863 111.923 316.037 105.292 317.336 99.0588C317.431 98.5401 316.418 97.2346 316.418 97.2346Z" fill="#263238"/>
<path d="M299.263 102.621C299.263 102.621 302.64 104.237 305.645 103.857" stroke="white" stroke-linecap="round" stroke-linejoin="round"/>
<path d="M319.215 84.9061C320.323 84.0415 317.483 80.324 315.89 80.4018C314.296 80.4796 306.477 80.7735 306.477 80.7735C306.477 80.7735 304.831 72.1799 317.994 76.8225C320.15 77.5833 320.843 79.5977 322.774 80.6266C324.705 81.6554 327.32 87.0674 326.576 91.6841C325.831 96.3008 323.363 104.402 318.886 106.831C318.886 106.831 317.344 106.675 318.28 105.612C322.687 100.658 318.072 91.3383 317.336 99.0415L315.786 98.1164C315.773 97.2705 315.861 96.4261 316.045 95.6006C316.375 93.4824 314.028 89.151 319.215 84.9061Z" fill="#263238"/>
<path d="M318.539 96.6728C318.539 96.6728 321.371 93.3184 323.086 94.4596C324.8 95.6008 323.649 99.6469 322.731 100.658C321.813 101.67 321.068 101.895 319.795 103.511C318.522 105.128 316.92 104.583 317.197 103.287" fill="white"/>
<path d="M318.539 96.6728C318.539 96.6728 321.371 93.3184 323.086 94.4596C324.8 95.6008 323.649 99.6469 322.731 100.658C321.813 101.67 321.068 101.895 319.795 103.511C318.522 105.128 316.92 104.583 317.197 103.287" stroke="#263238" stroke-linecap="round" stroke-linejoin="round"/>
<path d="M309.88 94.2002C309.975 96.0763 308.832 97.6584 307.282 97.7362C305.732 97.814 304.467 96.3616 304.372 94.4855C304.277 92.6094 305.42 91.0273 306.97 90.9495C308.52 90.8717 309.767 92.3241 309.88 94.2002Z" stroke="#263238" stroke-width="0.5" stroke-miterlimit="10"/>
<path d="M301.896 92.4966C302 94.3727 300.848 95.9549 299.341 96.0413C297.834 96.1278 296.527 94.658 296.423 92.782C296.319 90.9059 297.479 89.3238 299.021 89.2459C300.562 89.1681 301.8 90.6206 301.896 92.4966Z" stroke="#263238" stroke-width="0.5" stroke-miterlimit="10"/>
<path d="M302.718 90.8889C302.718 91.7535 298.233 96.863 298.181 97.9869C298.129 99.1108 302.355 99.18 302.355 99.18" fill="white"/>
<path d="M302.718 90.8889C302.718 91.7535 298.233 96.863 298.181 97.9869C298.129 99.1108 302.355 99.18 302.355 99.18" stroke="#263238" stroke-linecap="round" stroke-linejoin="round"/>
<path d="M301.896 92.4968C301.896 92.4968 303.238 92.1597 304.364 93.9666" stroke="#263238" stroke-width="0.5" stroke-miterlimit="10"/>
<path d="M309.897 94.8572L311.352 95.0733L319.518 95.6439" stroke="#263238" stroke-width="0.5" stroke-miterlimit="10"/>
<path d="M334.75 133.39L333.122 131.375C333.122 131.375 319.405 132.94 313.344 141.101C313.344 141.101 302.086 135.793 291.954 138.378L291.66 142.001L313.82 155.237L322.479 151.64L334.75 133.39Z" fill="white" stroke="#263238" stroke-linecap="round" stroke-linejoin="round"/>
<path d="M336.976 132.171L334.638 147.732C334.638 147.732 321.735 153.387 319.05 157.934L318.41 158.021L315.379 158.444L313.742 157.96C309.737 156.796 305.658 155.906 301.532 155.297C300.1 155.076 298.647 155.021 297.202 155.133L288.473 141.551C288.473 141.551 301.974 139.683 311.309 142.874L315.777 142.562L315.942 142.424C317.284 141.326 326.688 133.865 336.976 132.171Z" fill="#5F0A61"/>
<path opacity="0.3" d="M318.236 154.39L315.942 142.416C317.275 141.327 326.679 133.865 336.967 132.171L334.629 147.733C334.629 147.733 321.726 153.387 319.042 157.935L318.401 158.021L318.236 154.39Z" fill="black" fill-opacity="0.7"/>
<path opacity="0.3" d="M313.794 155.238L313.733 157.952C309.729 156.788 305.649 155.899 301.523 155.289C301.706 152.543 302.782 149.932 304.587 147.852C306.393 145.772 308.829 144.337 311.525 143.765L313.794 155.238Z" fill="black" fill-opacity="0.7"/>
<path d="M336.976 132.171L334.638 147.732C334.638 147.732 321.735 153.387 319.05 157.934L318.41 158.021L315.379 158.444L313.742 157.96C309.737 156.796 305.658 155.906 301.532 155.297C300.1 155.076 298.647 155.021 297.202 155.133L288.473 141.551C288.473 141.551 301.974 139.683 311.309 142.874L315.777 142.562L315.942 142.424C317.284 141.326 326.688 133.865 336.976 132.171Z" stroke="#263238" stroke-linecap="round" stroke-linejoin="round"/>
<path d="M318.184 161.73C313.56 161.436 304.762 154.364 304.762 154.364C304.233 153.045 303.489 151.821 302.562 150.742C301.307 149.488 302.978 148.442 302.978 148.442C302.978 148.442 301.515 147.5 300.683 146.981C299.852 146.462 301.307 145.096 301.307 145.096C301.307 145.096 307.585 145.961 308.234 145.727C308.884 145.494 314.911 149.384 315.846 149.488C317.117 149.511 318.369 149.185 319.466 148.546C320.089 148.027 322.021 144.785 323.276 144.154C324.532 143.523 326.74 143.531 325.684 144.889C324.627 146.246 324.818 149.272 324.298 149.696C323.778 150.119 322.921 154.667 322.921 156.232L329.762 162.474L325.865 167.773L318.184 161.73Z" fill="white" stroke="#263238" stroke-linecap="round" stroke-linejoin="round"/>
<path d="M302.952 148.442C304.182 148.579 305.381 148.915 306.502 149.436" stroke="#263238" stroke-linecap="round" stroke-linejoin="round"/>
<path d="M307.611 150.914C307.611 150.914 307.221 152.497 307.117 152.739C307.013 152.981 308.408 154.528 308.208 155.237C308.009 155.946 309.62 157.831 309.62 157.831" stroke="#263238" stroke-linecap="round" stroke-linejoin="round"/>
<path d="M306.035 152.739C304.832 152.161 303.674 151.493 302.571 150.741" stroke="#263238" stroke-linecap="round" stroke-linejoin="round"/>
<path d="M302.684 113.367L305.68 119.393L317.994 112.58L320.704 118.615L308.139 126.577L305.723 120.344L300.839 125.039L299.185 117.448L302.684 113.367Z" fill="#757575" stroke="#263238" stroke-linecap="round" stroke-linejoin="round"/>
<path d="M340.985 126.958C343.973 130.148 354.598 153.543 355.62 168.612H323.25V167.263L319.717 165.197C319.717 165.197 321.908 157.502 328.152 158.704L329.97 161.298L333.997 164.323C333.997 164.323 341.063 164.505 343.115 166.537" fill="#757575"/>
<path d="M340.985 126.958C343.973 130.148 354.598 153.543 355.62 168.612H323.25V167.263L319.717 165.197C319.717 165.197 321.908 157.502 328.152 158.704L329.97 161.298L333.997 164.323C333.997 164.323 341.063 164.505 343.115 166.537" stroke="#263238" stroke-linecap="round" stroke-linejoin="round"/>
<path d="M333.997 164.358C333.997 164.358 337.92 158.712 343.687 161.099" stroke="#263238" stroke-linecap="round" stroke-linejoin="round"/>
<path d="M332.499 155.237C333.758 157.57 334.88 159.975 335.859 162.439" stroke="#263238" stroke-linecap="round" stroke-linejoin="round"/>
<path d="M279.398 146.566C279.398 146.566 276.999 132.612 277.666 127.788L279.398 146.566Z" fill="#757575"/>
<path d="M279.398 146.566C279.398 146.566 276.999 132.612 277.666 127.788" stroke="#263238" stroke-linecap="round" stroke-linejoin="round"/>
<path d="M274.601 133.226C274.601 133.226 275.934 140.082 278.93 143.756L274.601 133.226Z" fill="#757575"/>
<path d="M274.601 133.226C274.601 133.226 275.934 140.082 278.93 143.756" stroke="#263238" stroke-linecap="round" stroke-linejoin="round"/>
<path d="M254.735 134.428C254.735 134.428 258.502 137.54 256.104 145.304L254.735 134.428Z" fill="#757575"/>
<path d="M254.735 134.428C254.735 134.428 258.502 137.54 256.104 145.304" stroke="#263238" stroke-linecap="round" stroke-linejoin="round"/>
<path d="M305.108 125.281C305.108 125.442 305.06 125.599 304.971 125.733C304.881 125.867 304.753 125.971 304.604 126.032C304.455 126.093 304.29 126.109 304.132 126.077C303.974 126.045 303.829 125.967 303.716 125.852C303.602 125.738 303.525 125.592 303.495 125.434C303.465 125.276 303.482 125.112 303.545 124.964C303.608 124.815 303.713 124.689 303.848 124.601C303.983 124.512 304.142 124.466 304.303 124.468C304.41 124.468 304.515 124.489 304.613 124.53C304.711 124.571 304.801 124.631 304.876 124.706C304.95 124.782 305.01 124.872 305.05 124.97C305.09 125.069 305.109 125.174 305.108 125.281Z" fill="#263238"/>
<path d="M302.978 137.177C303.428 137.177 303.792 136.813 303.792 136.364C303.792 135.915 303.428 135.551 302.978 135.551C302.529 135.551 302.164 135.915 302.164 136.364C302.164 136.813 302.529 137.177 302.978 137.177Z" fill="#263238"/>
<path d="M301.748 162.136C302.198 162.136 302.562 161.772 302.562 161.323C302.562 160.875 302.198 160.511 301.748 160.511C301.299 160.511 300.934 160.875 300.934 161.323C300.934 161.772 301.299 162.136 301.748 162.136Z" fill="#263238"/>
<path d="M196.387 87.9836H206.588L211.697 79.1565L206.588 70.3381H196.387L191.286 79.1565L196.387 87.9836Z" stroke="#263238" stroke-linecap="round" stroke-linejoin="round"/>
<path d="M194.906 107.332L189.806 98.514H179.605" stroke="#263238" stroke-linecap="round" stroke-linejoin="round"/>
<path d="M180.973 79.1567H191.174L196.274 70.3383L191.174 61.5113H180.973L175.872 70.3383L180.973 79.1567Z" stroke="#263238" stroke-linecap="round" stroke-linejoin="round"/>
<path d="M196.387 70.3383H206.588L211.697 61.5112L206.588 52.6928H196.387L191.286 61.5112L196.387 70.3383Z" stroke="#263238" stroke-linecap="round" stroke-linejoin="round"/>
<path d="M194.906 70.3383C194.904 70.0657 194.984 69.7987 195.135 69.5713C195.285 69.3439 195.5 69.1664 195.752 69.0613C196.004 68.9562 196.282 68.9282 196.549 68.981C196.817 69.0338 197.064 69.1649 197.257 69.3576C197.45 69.5504 197.581 69.7961 197.634 70.0636C197.687 70.331 197.659 70.6082 197.553 70.8597C197.448 71.1112 197.27 71.3258 197.043 71.4762C196.815 71.6266 196.547 71.706 196.274 71.7043C195.911 71.7043 195.563 71.5603 195.307 71.3042C195.05 71.048 194.906 70.7006 194.906 70.3383Z" fill="#263238"/>
<path d="M174.972 53.1856C175.727 53.1856 176.34 52.574 176.34 51.8196C176.34 51.0652 175.727 50.4536 174.972 50.4536C174.216 50.4536 173.603 51.0652 173.603 51.8196C173.603 52.574 174.216 53.1856 174.972 53.1856Z" fill="#263238"/>
<path d="M193.538 107.333C193.538 107.062 193.618 106.798 193.768 106.574C193.919 106.349 194.132 106.174 194.382 106.07C194.632 105.967 194.907 105.94 195.173 105.993C195.438 106.045 195.682 106.176 195.873 106.367C196.065 106.558 196.195 106.801 196.248 107.066C196.301 107.331 196.274 107.606 196.17 107.855C196.066 108.105 195.891 108.318 195.666 108.468C195.441 108.618 195.177 108.699 194.906 108.699C194.543 108.699 194.195 108.555 193.938 108.298C193.682 108.042 193.538 107.695 193.538 107.333Z" fill="#263238"/>
<path d="M179.604 99.8801C180.36 99.8801 180.973 99.2685 180.973 98.5141C180.973 97.7597 180.36 97.1481 179.604 97.1481C178.849 97.1481 178.236 97.7597 178.236 98.5141C178.236 99.2685 178.849 99.8801 179.604 99.8801Z" fill="#263238"/>
<path d="M221.552 61.745C221.552 61.4727 221.633 61.2066 221.784 60.9804C221.936 60.7541 222.152 60.578 222.404 60.4742C222.656 60.3704 222.933 60.3437 223.2 60.3974C223.468 60.4512 223.713 60.583 223.905 60.7761C224.097 60.9692 224.228 61.2149 224.28 61.4821C224.332 61.7494 224.304 62.026 224.198 62.2771C224.093 62.5281 223.915 62.7422 223.687 62.8922C223.46 63.0422 223.193 63.1213 222.92 63.1196C222.739 63.1196 222.561 63.084 222.394 63.0148C222.228 62.9456 222.077 62.8442 221.949 62.7165C221.822 62.5887 221.722 62.4371 221.653 62.2704C221.585 62.1037 221.551 61.9251 221.552 61.745Z" fill="#263238"/>
<path d="M189.702 99.8801C190.457 99.8801 191.07 99.2685 191.07 98.5141C191.07 97.7597 190.457 97.1481 189.702 97.1481C188.946 97.1481 188.333 97.7597 188.333 98.5141C188.333 99.2685 188.946 99.8801 189.702 99.8801Z" fill="#263238"/>
<path d="M210.294 61.745C210.294 61.4731 210.375 61.2074 210.526 60.9813C210.678 60.7552 210.893 60.5791 211.144 60.475C211.396 60.371 211.673 60.3437 211.94 60.3968C212.207 60.4498 212.452 60.5808 212.645 60.773C212.837 60.9652 212.968 61.2102 213.022 61.4768C213.075 61.7435 213.047 62.0199 212.943 62.2711C212.839 62.5222 212.663 62.7369 212.436 62.888C212.21 63.039 211.944 63.1196 211.671 63.1196C211.306 63.1196 210.956 62.9748 210.698 62.717C210.439 62.4592 210.294 62.1096 210.294 61.745Z" fill="#263238"/>
<path d="M194.906 87.9835C194.904 87.7109 194.984 87.444 195.135 87.2166C195.285 86.9892 195.5 86.8117 195.752 86.7066C196.004 86.6014 196.282 86.5735 196.549 86.6263C196.817 86.679 197.064 86.8101 197.257 87.0029C197.45 87.1957 197.581 87.4414 197.634 87.7088C197.687 87.9763 197.659 88.2534 197.553 88.5049C197.448 88.7565 197.27 88.9711 197.043 89.1214C196.815 89.2718 196.547 89.3512 196.274 89.3495C195.912 89.3472 195.566 89.2026 195.309 88.9469C195.053 88.6912 194.908 88.3451 194.906 87.9835Z" fill="#263238"/>
<path d="M211.697 61.7451H222.929" stroke="#263238" stroke-linecap="round" stroke-linejoin="round"/>
<path d="M196.274 87.9837L189.702 98.5139" stroke="#263238" stroke-linecap="round" stroke-linejoin="round"/>
<path d="M180.973 61.5112L174.972 51.8196" stroke="#263238" stroke-linecap="round" stroke-linejoin="round"/>
<path d="M169.213 130.615C170.133 129.788 171.165 129.096 172.279 128.557C172.323 128.835 172.473 129.085 172.697 129.255C172.921 129.426 173.202 129.504 173.482 129.474C174.097 129.379 174.79 128.774 175.214 129.214C175.387 129.387 175.422 129.664 175.604 129.828C176.158 130.338 177.102 129.24 177.725 129.655C177.89 129.768 177.977 129.958 178.15 130.07C178.286 130.129 178.434 130.16 178.583 130.16C178.732 130.16 178.879 130.129 179.016 130.07C180.563 129.718 182.151 129.582 183.735 129.664L191.001 129.716L190.446 129.431" stroke="#263238" stroke-linecap="round" stroke-linejoin="round"/>
<path d="M168.823 136.666C168.884 136.382 169.042 136.128 169.27 135.948C169.499 135.768 169.783 135.674 170.074 135.681C170.365 135.688 170.644 135.797 170.863 135.988C171.082 136.179 171.227 136.44 171.274 136.727C171.454 136.643 171.614 136.523 171.746 136.374C171.877 136.225 171.976 136.051 172.036 135.862C172.504 136.908 173.95 136.995 175.101 136.917L180.237 136.554C181.778 136.442 183.579 136.165 184.272 134.825C185.033 136.212 185.336 137.803 185.138 139.372C185.614 138.243 186.234 137.18 186.982 136.208C187.138 136.761 187.294 137.315 187.441 137.868C191.018 135.37 195.911 137.004 200.24 136.459" stroke="#263238" stroke-linecap="round" stroke-linejoin="round"/>
<path d="M169.282 144.681C169.266 144.522 169.309 144.363 169.403 144.233C169.498 144.104 169.636 144.014 169.793 143.981C169.842 144.138 169.922 144.283 170.029 144.408C170.135 144.532 170.267 144.634 170.414 144.706C170.562 144.778 170.723 144.819 170.887 144.827C171.051 144.834 171.215 144.808 171.369 144.75C171.987 144.491 172.517 144.059 172.893 143.505C173.022 143.61 173.172 143.686 173.333 143.728C173.494 143.77 173.662 143.778 173.826 143.75C173.99 143.722 174.146 143.66 174.284 143.567C174.422 143.474 174.538 143.353 174.625 143.211C175.012 143.836 175.331 144.5 175.578 145.191C176.045 143.998 177.63 143.808 178.92 143.817H189.312" stroke="#263238" stroke-linecap="round" stroke-linejoin="round"/>
<path d="M249.609 50.5834C247.128 50.5232 244.696 51.273 242.681 52.7188C240.187 54.3096 237.814 56.9897 238.438 59.8773C239.061 62.7649 242.473 64.2951 245.478 64.8744C248.062 65.3768 250.692 65.6086 253.324 65.566C254.338 65.5812 255.35 65.4738 256.337 65.2461C257.336 64.9637 258.305 64.5843 259.23 64.1136L265.932 60.9666C266.85 60.5343 267.881 59.981 268.132 58.9954C268.444 57.7764 267.396 56.6438 266.4 55.909C262.638 53.2228 257.998 52.0554 253.41 52.641" stroke="#263238" stroke-linecap="round" stroke-linejoin="round"/>
<path d="M241.651 57.0504C242.045 56.6085 242.555 56.2852 243.123 56.1167C243.01 56.4474 243.01 56.8061 243.123 57.1368C243.279 57.4481 243.755 57.6037 243.989 57.3443C244.223 57.0849 244.275 56.67 244.534 56.7996L244.846 57.4913C245.27 57.3443 245.6 56.9985 246.015 56.8169C246.489 56.6584 246.993 56.6111 247.487 56.6786C251.205 56.8692 254.933 56.7564 258.632 56.3414" stroke="#263238" stroke-linecap="round" stroke-linejoin="round"/>
<path d="M247.712 60.7679C247.766 60.5912 247.861 60.4296 247.989 60.296C248.117 60.1624 248.274 60.0605 248.448 59.9984C248.249 60.2146 248.492 60.5863 248.786 60.6382C249.085 60.6436 249.381 60.5815 249.652 60.4566C249.981 60.372 250.318 60.3255 250.657 60.3183L256.97 59.886" stroke="#263238" stroke-linecap="round" stroke-linejoin="round"/>
<path d="M250.406 69.5515C248.579 76.05 244.793 81.8293 239.56 86.1033C234.328 90.3773 227.904 92.9386 221.162 93.439" stroke="#263238" stroke-linecap="round" stroke-linejoin="round"/>
<path d="M221.266 91.563C220.041 92.3184 218.95 93.2707 218.036 94.3814C218.576 94.2684 219.138 94.3072 219.657 94.4934C220.177 94.6796 220.635 95.0059 220.98 95.4362" stroke="#263238" stroke-linecap="round" stroke-linejoin="round"/>
<path d="M248.327 93.6209L249.115 95.35L250.241 94.0186C250.452 94.1754 250.599 94.4023 250.657 94.6583C250.743 94.9004 250.873 95.1684 251.116 95.2376C251.358 95.3067 251.661 94.9782 251.479 94.7966C251.639 94.9043 251.82 94.9763 252.009 95.0077C252.199 95.039 252.394 95.0289 252.579 94.9782C252.744 94.9782 252.891 94.8572 253.056 94.8139C253.252 94.771 253.452 94.7536 253.653 94.7621H265.352" stroke="#263238" stroke-linecap="round" stroke-linejoin="round"/>
<path d="M248.873 103.131C248.928 102.992 249.018 102.87 249.134 102.777C249.25 102.683 249.389 102.621 249.536 102.597C249.683 102.573 249.834 102.587 249.975 102.638C250.115 102.689 250.239 102.775 250.336 102.889C250.375 102.999 250.434 103.102 250.509 103.191C250.614 103.265 250.742 103.297 250.868 103.281C250.995 103.265 251.111 103.202 251.194 103.105C251.384 102.932 251.505 102.699 251.705 102.543C252.25 102.119 253.029 102.448 253.696 102.629C254.55 102.808 255.426 102.854 256.294 102.768L262.936 102.422" stroke="#263238" stroke-linecap="round" stroke-linejoin="round"/>
<path d="M249.081 110.479C249.302 110.485 249.518 110.417 249.696 110.285C249.873 110.153 250.001 109.966 250.059 109.753C250.169 109.771 250.271 109.823 250.351 109.9C250.431 109.977 250.487 110.076 250.509 110.185C250.827 109.989 251.099 109.727 251.306 109.416C255.584 109.468 259.868 109.468 264.157 109.416" stroke="#263238" stroke-linecap="round" stroke-linejoin="round"/>
<path d="M249.072 115.969C249.337 116.079 249.633 116.086 249.903 115.99C250.174 115.895 250.399 115.702 250.535 115.451C250.807 115.67 250.996 115.975 251.072 116.315C251.243 116.2 251.436 116.121 251.639 116.084C251.841 116.047 252.05 116.052 252.25 116.099C252.415 116.099 252.579 116.211 252.744 116.255C253.159 116.361 253.589 116.399 254.017 116.367L268.946 116.151" stroke="#263238" stroke-linecap="round" stroke-linejoin="round"/>
<path d="M208.987 150.923L215.767 150.266C215.833 150.274 215.9 150.266 215.962 150.242C216.025 150.218 216.08 150.179 216.123 150.129C216.166 150.078 216.196 150.017 216.209 149.952C216.223 149.887 216.219 149.819 216.2 149.756V145.433C216.217 145.289 216.18 145.145 216.096 145.027C216.04 144.976 215.974 144.937 215.903 144.911C215.832 144.886 215.756 144.875 215.68 144.88C214.208 144.75 210.892 144.015 209.619 145.009C208.346 146.004 208.995 149.444 208.987 150.923Z" stroke="#263238" stroke-linecap="round" stroke-linejoin="round"/>
<path d="M210.926 147.067C211.013 147.473 211.091 147.88 211.178 148.295C212.205 148.081 213.259 148.025 214.304 148.131" stroke="#263238" stroke-linecap="round" stroke-linejoin="round"/>
<path d="M214.382 152.791C214.318 152.888 214.283 153.001 214.281 153.117C214.279 153.233 214.309 153.348 214.368 153.448C214.428 153.548 214.514 153.629 214.618 153.682C214.721 153.736 214.837 153.759 214.953 153.75C215.412 153.664 215.776 153.05 216.2 153.24" stroke="#263238" stroke-linecap="round" stroke-linejoin="round"/>
<path d="M209.714 142.823C209.8 142.694 209.921 142.593 210.063 142.532C210.205 142.471 210.362 142.452 210.515 142.479C210.667 142.506 210.809 142.576 210.922 142.681C211.035 142.787 211.115 142.923 211.151 143.073L212.78 142.883" stroke="#263238" stroke-linecap="round" stroke-linejoin="round"/>
<path d="M223.223 157.157C225.532 157.157 227.842 157.157 230.151 157.157C231.946 157.18 233.74 157.073 235.52 156.837C235.719 156.826 235.909 156.747 236.057 156.612C236.179 156.436 236.232 156.22 236.204 156.007V145.494C236.204 145.373 225.596 145.036 224.358 145.892C221.864 147.638 223.223 154.468 223.223 157.157Z" stroke="#263238" stroke-linecap="round" stroke-linejoin="round"/>
<path d="M226.981 148.606L228.635 148.649C228.337 149.773 227.867 150.843 227.241 151.822C227.016 152.125 226.747 152.505 226.912 152.842C227.778 152.981 228.791 153.058 229.337 152.393C230.047 151.528 229.423 150.171 229.96 149.203L230.168 151.252L230.887 151.935C231.073 152.143 231.308 152.303 231.571 152.401C231.702 152.447 231.845 152.446 231.976 152.399C232.107 152.352 232.218 152.261 232.29 152.142" stroke="#263238" stroke-linecap="round" stroke-linejoin="round"/>
<path d="M231.796 158.92C232.342 158.721 232.567 159.741 233.13 159.888C233.692 160.035 233.996 159.292 234.472 158.963C234.698 158.814 234.97 158.751 235.239 158.786C235.508 158.821 235.755 158.951 235.935 159.154" stroke="#263238" stroke-linecap="round" stroke-linejoin="round"/>
<path d="M227.328 142.286C227.847 142.416 227.639 143.28 228.029 143.652C228.419 144.024 229.068 143.652 229.51 143.298C229.951 142.943 230.757 142.788 230.921 143.298" stroke="#263238" stroke-linecap="round" stroke-linejoin="round"/>
<path d="M360.59 168.413H153.071V183.041H360.59V168.413Z" fill="#BFBFBF" stroke="#263238" stroke-linecap="round" stroke-linejoin="round"/>
<path d="M322.194 174.171H186.601V177.283H322.194V174.171Z" fill="#263238"/>
<path d="M263.499 175.753C263.499 176.203 263.365 176.642 263.115 177.016C262.865 177.39 262.509 177.681 262.093 177.854C261.677 178.026 261.219 178.071 260.777 177.983C260.335 177.895 259.93 177.679 259.611 177.361C259.293 177.043 259.076 176.638 258.988 176.196C258.9 175.755 258.945 175.298 259.117 174.883C259.29 174.467 259.582 174.112 259.956 173.862C260.331 173.612 260.771 173.479 261.221 173.479C261.825 173.479 262.405 173.719 262.832 174.145C263.259 174.571 263.499 175.15 263.499 175.753Z" fill="#5F0A61" stroke="#263238" stroke-linecap="round" stroke-linejoin="round"/>
<path d="M353.871 172.926H348.259V178.528H353.871V172.926Z" stroke="#263238" stroke-linecap="round" stroke-linejoin="round"/>
<path d="M344.458 172.926H338.846V178.528H344.458V172.926Z" stroke="#263238" stroke-linecap="round" stroke-linejoin="round"/>
<path d="M169.274 172.865H159.497V178.588H169.274V172.865Z" stroke="#263238" stroke-linecap="round" stroke-linejoin="round"/>
<path d="M159.384 32.5404H196.274" stroke="white" stroke-linecap="round" stroke-linejoin="round"/>
<path d="M355.334 32.4109C355.336 32.8408 355.21 33.2615 354.972 33.6197C354.733 33.9779 354.394 34.2573 353.997 34.4227C353.599 34.588 353.161 34.6317 352.739 34.5482C352.316 34.4648 351.928 34.2579 351.624 33.9539C351.319 33.6499 351.112 33.2625 351.029 32.8407C350.945 32.419 350.989 31.9819 351.154 31.5851C351.32 31.1882 351.6 30.8494 351.959 30.6116C352.317 30.3738 352.739 30.2478 353.169 30.2495C353.744 30.2495 354.294 30.4772 354.7 30.8825C355.106 31.2879 355.334 31.8376 355.334 32.4109V32.4109Z" stroke="white" stroke-linecap="round" stroke-linejoin="round"/>
<path d="M346.77 32.5405C346.77 32.968 346.643 33.3858 346.405 33.7413C346.167 34.0967 345.829 34.3737 345.433 34.5373C345.038 34.7009 344.602 34.7437 344.182 34.6603C343.763 34.5769 343.377 34.3711 343.074 34.0688C342.771 33.7665 342.565 33.3814 342.482 32.9621C342.398 32.5429 342.441 32.1083 342.605 31.7134C342.769 31.3184 343.046 30.9809 343.402 30.7434C343.758 30.5059 344.177 30.3791 344.605 30.3791C345.179 30.3791 345.73 30.6068 346.136 31.0122C346.542 31.4175 346.77 31.9672 346.77 32.5405V32.5405Z" stroke="white" stroke-linecap="round" stroke-linejoin="round"/>
<path d="M338.206 32.6788C338.204 33.1059 338.075 33.5229 337.836 33.8772C337.598 34.2315 337.259 34.5072 336.863 34.6694C336.467 34.8317 336.032 34.8733 335.613 34.7889C335.194 34.7045 334.809 34.498 334.507 34.1954C334.205 33.8928 334 33.5076 333.917 33.0886C333.834 32.6696 333.877 32.2354 334.041 31.841C334.205 31.4466 334.483 31.1095 334.839 30.8724C335.195 30.6353 335.613 30.5087 336.041 30.5087C336.326 30.5087 336.608 30.5649 336.871 30.6741C337.134 30.7833 337.373 30.9432 337.575 31.1448C337.776 31.3465 337.935 31.5858 338.043 31.849C338.152 32.1122 338.207 32.3942 338.206 32.6788V32.6788Z" stroke="white" stroke-linecap="round" stroke-linejoin="round"/>
<path d="M173.725 318.577H153.219L142.117 315.066L138.653 313.968L137.64 324.404L16.2148 324.628C16.2148 324.628 18.068 319.96 21.0902 313.113C27.6109 298.337 39.5612 273.387 50.0133 263.193C58.4997 254.92 79.6985 254.686 79.6985 254.686C81.8627 253.254 84.4019 252.49 86.9985 252.49C90.8954 252.681 120.355 255.871 122.183 256.813C123.455 257.549 124.546 258.559 125.378 259.77C125.378 259.77 135.7 255.214 145.841 259.32C155.981 263.427 173.725 318.577 173.725 318.577Z" fill="#F2F6FA"/>
<path opacity="0.2" d="M142.117 315.066L138.653 313.968L137.64 324.404L16.2148 324.628C16.2148 324.628 18.068 319.96 21.0902 313.112C25.7751 313 31.0574 312.758 31.0574 312.758L33.7765 303.879C33.7765 303.879 38.0457 299.375 43.3801 302.029C43.2021 301.357 43.2392 300.647 43.4862 299.997C43.7331 299.347 44.1774 298.791 44.7569 298.406C46.8179 297.04 55.2697 301.424 55.2697 301.424C55.2697 301.424 59.3397 293.643 60.7253 288.551C62.1108 283.458 63.0287 295.752 63.0287 295.752C63.0287 295.752 66.4926 290.098 66.4926 288.551C66.4926 287.003 72.8834 303.879 72.8834 303.879C72.8834 303.879 81.3352 304.891 83.6213 305.755C85.9074 306.62 108.665 307.484 115.991 305.755C123.317 304.026 110.795 314.401 110.795 314.401C110.795 314.401 123.663 318.723 130.937 315.888C138.212 313.052 141.468 310.017 141.468 310.017C141.468 310.017 141.736 312.118 142.117 315.066Z" fill="black" fill-opacity="0.7"/>
<path d="M173.725 318.577H153.219L142.117 315.066L138.653 313.968L137.64 324.404L16.2148 324.628C16.2148 324.628 18.068 319.96 21.0902 313.113C27.6109 298.337 39.5612 273.387 50.0133 263.193C58.4997 254.92 79.6985 254.686 79.6985 254.686C81.8627 253.254 84.4019 252.49 86.9985 252.49C90.8954 252.681 120.355 255.871 122.183 256.813C123.455 257.549 124.546 258.559 125.378 259.77C125.378 259.77 135.7 255.214 145.841 259.32C155.981 263.427 173.725 318.577 173.725 318.577Z" stroke="#263238" stroke-linecap="round" stroke-linejoin="round"/>
<path d="M135.432 291.914C133.629 294.452 131.571 296.802 129.292 298.925" stroke="#263238" stroke-linecap="round" stroke-linejoin="round"/>
<path d="M123.291 303.965C114.469 310.471 104.1 314.569 93.2076 315.853" stroke="#263238" stroke-linecap="round" stroke-linejoin="round"/>
<path d="M161.212 301.018C161.212 301.018 164.364 299.064 167.126 299.703C169.889 300.343 172.175 303.067 172.175 303.067C172.175 303.067 195.105 301.173 200.31 301.337C205.514 301.502 217.161 304.908 217.161 304.908C217.161 304.908 222.807 303.767 223.414 304C224.02 304.234 222.193 323.418 222.193 323.418H147.72C144.066 323.418 141.355 318.136 138.61 313.986C143.339 297.473 145.758 280.386 145.797 263.211" fill="#F2F6FA"/>
<path opacity="0.2" d="M181.648 323.401H147.737C144.083 323.401 141.372 318.118 138.627 313.969C141.342 304.653 143.274 295.127 144.403 285.49C144.403 285.49 148.006 290.825 145.815 297.006L148.006 290.825C148.006 290.825 150.11 297.447 148.006 303.058C145.901 308.669 144.403 310.277 144.403 310.277C144.403 310.277 147.001 313.666 149.755 312.758C152.509 311.85 155.505 317.349 155.505 317.349C155.505 317.349 162.121 317.6 163.498 317.349C164.13 317.237 172.694 320.185 181.648 323.401Z" fill="black" fill-opacity="0.7"/>
<path d="M161.212 301.018C161.212 301.018 164.364 299.064 167.126 299.703C169.889 300.343 172.175 303.067 172.175 303.067C172.175 303.067 195.105 301.173 200.31 301.337C205.514 301.502 217.161 304.908 217.161 304.908C217.161 304.908 222.807 303.767 223.414 304C224.02 304.234 222.193 323.418 222.193 323.418H147.72C144.066 323.418 141.355 318.136 138.61 313.986C143.339 297.473 145.758 280.386 145.797 263.211" stroke="#263238" stroke-linecap="round" stroke-linejoin="round"/>
<path d="M118.641 241.277V259.744C116.296 261.338 113.868 262.807 111.367 264.144C106.318 266.816 99.8408 269.461 95.9873 267.957C88.999 265.216 84.47 254.686 84.47 254.686C92.0125 248.946 92.9218 241.277 94.0648 237.629L118.641 241.277Z" fill="#F2F6FA" stroke="#263238" stroke-linecap="round" stroke-linejoin="round"/>
<path d="M80.8158 256.095C80.8158 256.095 87.2152 270.006 94.9829 272.522C102.751 275.038 115.905 265.217 115.905 265.217" stroke="#263238" stroke-linecap="round" stroke-linejoin="round"/>
<path d="M45.8741 272.928C45.8741 272.928 57.9976 282.352 60.0326 285.525C62.0676 288.698 60.0326 318.577 60.0326 318.577" stroke="#263238" stroke-linecap="round" stroke-linejoin="round"/>
<path d="M29.369 303.334C36.5132 298.735 41.5358 303.766 45.8743 304.674C50.2127 305.582 59.8076 300.689 67.0037 304.674C74.1999 308.66 74.1999 307.268 74.1999 307.268C74.1999 307.268 81.7337 313.008 77.8456 324.498L16.1891 324.611C16.1891 324.611 12.0758 315.836 25.5935 303.317" fill="#F2F6FA"/>
<path d="M29.369 303.334C36.5132 298.735 41.5358 303.766 45.8743 304.674C50.2127 305.582 59.8076 300.689 67.0037 304.674C74.1999 308.66 74.1999 307.268 74.1999 307.268C74.1999 307.268 81.7337 313.008 77.8456 324.498L16.1891 324.611C16.1891 324.611 12.0758 315.836 25.5935 303.317" stroke="#263238" stroke-linecap="round" stroke-linejoin="round"/>
<path d="M89.787 285.55L106.058 315.265L106.569 318.602L103.971 316.294L87.1891 286.795C87.4359 286.341 87.8199 285.977 88.2863 285.753C88.7527 285.53 89.2778 285.459 89.787 285.55Z" fill="#5F0A61" stroke="#263238" stroke-linecap="round" stroke-linejoin="round"/>
<path d="M74.3383 308.824C75.5671 308.468 76.8294 308.239 78.1052 308.141C79.4821 308.141 87.9512 301.891 90.8262 301.424C93.7012 300.957 98.871 305.236 101.504 305.919C104.136 306.602 103.972 310.026 105.513 311.392C107.054 312.758 104.829 314.297 102.915 312.758C103.052 313.292 103.06 313.851 102.94 314.388C102.819 314.926 102.574 315.428 102.222 315.853C102.222 315.853 102.742 317.721 102.222 318.576H71.7404C71.7404 318.576 71.2815 312.758 74.3383 308.824Z" fill="#F2F6FA" stroke="#263238" stroke-linecap="round" stroke-linejoin="round"/>
<path d="M102.976 312.758L100.231 310.052L93.2076 307.804" stroke="#263238" stroke-linecap="round" stroke-linejoin="round"/>
<path d="M102.292 315.853L98.0917 313.968L92.3503 312.888" stroke="#263238" stroke-linecap="round" stroke-linejoin="round"/>
<path d="M92.3503 317.349L98.0917 317.608L102.292 318.577" stroke="#263238" stroke-linecap="round" stroke-linejoin="round"/>
<path d="M90.8521 301.424C88.2542 303.698 90.8521 306.093 89.6138 307.804C88.3755 309.516 87.0159 310.026 88.0724 312.758" stroke="#263238" stroke-linecap="round" stroke-linejoin="round"/>
<path d="M127.924 320.02H266.634C266.634 321.242 266.147 322.414 265.282 323.278C264.416 324.143 263.242 324.628 262.018 324.628H139.052C138.569 324.627 138.09 324.551 137.631 324.403L127.751 321.222C127.61 321.179 127.489 321.088 127.409 320.964C127.33 320.84 127.298 320.692 127.319 320.546C127.34 320.401 127.413 320.268 127.524 320.171C127.635 320.075 127.777 320.021 127.924 320.02Z" fill="#5F0A61"/>
<path opacity="0.2" d="M266.634 320.02C266.632 321.242 266.147 322.414 265.283 323.28L265.144 323.401C264.295 324.19 263.178 324.628 262.018 324.629H139.052C138.569 324.628 138.09 324.552 137.631 324.404L127.751 321.222C127.608 321.18 127.486 321.087 127.407 320.961C127.327 320.835 127.297 320.685 127.32 320.538C127.343 320.391 127.419 320.258 127.533 320.163C127.647 320.068 127.793 320.017 127.941 320.02H266.634Z" fill="black" fill-opacity="0.7"/>
<path opacity="0.2" d="M266.634 320.02C266.632 321.242 266.147 322.414 265.283 323.279L265.144 323.4H185.779C184.88 323.4 184.018 323.045 183.382 322.411C182.745 321.777 182.387 320.917 182.384 320.02H266.634Z" fill="black" fill-opacity="0.7"/>
<path d="M127.924 320.02H266.634C266.634 321.242 266.147 322.414 265.282 323.278C264.416 324.143 263.242 324.628 262.018 324.628H139.052C138.569 324.627 138.09 324.551 137.631 324.403L127.751 321.222C127.61 321.179 127.489 321.088 127.409 320.964C127.33 320.84 127.298 320.692 127.319 320.546C127.34 320.401 127.413 320.268 127.524 320.171C127.635 320.075 127.777 320.021 127.924 320.02V320.02Z" stroke="#263238" stroke-linecap="round" stroke-linejoin="round"/>
<path d="M182.384 320.02C182.387 320.917 182.745 321.777 183.382 322.411C184.018 323.045 184.88 323.4 185.779 323.4H198.95" stroke="#263238" stroke-linecap="round" stroke-linejoin="round"/>
<path d="M291.461 263.176V263.289L275.319 319.355C275.079 320.075 274.624 320.704 274.016 321.16C273.408 321.616 272.676 321.876 271.916 321.905H187.831C187.513 321.93 187.193 321.875 186.902 321.745C186.61 321.615 186.356 321.413 186.163 321.159C185.97 320.905 185.844 320.607 185.796 320.292C185.749 319.976 185.782 319.654 185.891 319.355L202.016 263.289C202.255 262.568 202.709 261.938 203.318 261.482C203.926 261.026 204.659 260.767 205.419 260.738H289.504C289.812 260.711 290.123 260.76 290.408 260.881C290.693 261.003 290.943 261.192 291.137 261.434C291.33 261.675 291.461 261.96 291.518 262.264C291.574 262.568 291.555 262.882 291.461 263.176Z" fill="#5F0A61"/>
<path opacity="0.4" d="M291.461 263.176V263.289L275.319 319.355C275.079 320.075 274.624 320.704 274.016 321.16C273.408 321.616 272.676 321.876 271.916 321.905H188.385V321.793L204.501 265.727C204.742 265.007 205.196 264.377 205.804 263.921C206.412 263.466 207.145 263.206 207.904 263.176H291.461Z" fill="#F2F6FA"/>
<path d="M291.461 263.176V263.289L275.319 319.355C275.079 320.075 274.624 320.704 274.016 321.16C273.408 321.616 272.676 321.876 271.916 321.905H187.831C187.513 321.93 187.193 321.875 186.902 321.745C186.61 321.615 186.356 321.413 186.163 321.159C185.97 320.905 185.844 320.607 185.796 320.292C185.749 319.976 185.782 319.654 185.891 319.355L202.016 263.289C202.255 262.568 202.709 261.938 203.318 261.482C203.926 261.026 204.659 260.767 205.419 260.738H289.504C289.812 260.711 290.123 260.76 290.408 260.881C290.693 261.003 290.943 261.192 291.137 261.434C291.33 261.675 291.461 261.96 291.518 262.264C291.574 262.568 291.555 262.882 291.461 263.176Z" stroke="#263238" stroke-linecap="round" stroke-linejoin="round"/>
<path d="M244.725 292.355C244.009 293.826 242.905 295.076 241.532 295.97C240.159 296.864 238.569 297.368 236.931 297.43C233.398 297.43 231.311 294.698 232.281 291.326C232.861 289.601 233.952 288.092 235.411 287C236.869 285.909 238.626 285.286 240.447 285.214H240.603C240.44 285.547 240.306 285.894 240.205 286.251C239.209 289.597 241.244 292.303 244.725 292.355Z" fill="#F2F6FA" stroke="#263238" stroke-linecap="round" stroke-linejoin="round"/>
<path d="M188.818 319.156L204.553 264.43C204.693 264.01 204.958 263.643 205.312 263.378C205.667 263.112 206.093 262.96 206.536 262.943H288.04" stroke="#263238" stroke-linecap="round" stroke-linejoin="round"/>
<path d="M149.755 324.628H33.7161L35.1189 321.706C35.1189 321.706 46.082 322.726 54.7676 320.02C58.6038 318.827 64.5097 318.291 70.4328 318.36C74.1651 318.412 83.2491 318.447 88.8865 318.421C90.8955 318.421 92.4716 318.421 93.2163 318.369C93.5021 318.369 93.7878 318.369 94.0823 318.369C95.6899 318.349 97.2952 318.5 98.871 318.818C100.392 318.647 101.922 318.572 103.452 318.594C106.128 318.594 117.636 318.55 120.771 318.594C124.902 318.646 129.673 319.458 134.202 320.081L134.324 320.038V320.098C139.796 320.859 144.923 321.378 148.179 320.038L149.755 324.628Z" fill="#F2F6FA"/>
<path opacity="0.4" d="M149.755 324.628H59.8075L61.6347 321.49C61.6347 321.49 66.5447 324.351 71.3421 322.354C76.1395 320.357 80.9716 319.268 88.8865 318.403C90.6125 318.219 92.3519 318.196 94.0823 318.334C97.5276 318.598 100.915 319.367 104.136 320.616C104.136 320.616 108.856 318.559 120.771 318.559C124.902 318.611 129.673 319.423 134.202 320.046L134.323 320.003V320.063C139.796 320.824 144.923 321.343 148.179 320.003L149.755 324.628Z" fill="#5F0A61"/>
<path d="M61.6347 321.49L35.1536 321.706L33.7507 324.628H59.8075L61.6347 321.49Z" fill="#5F0A61"/>
<path d="M60.5524 323.34L61.6348 321.49C63.9761 322.507 66.5026 323.031 69.0561 323.028C72.9356 322.916 79.0666 318.118 90.8524 318.351" stroke="#263238" stroke-linecap="round" stroke-linejoin="round"/>
<path d="M98.8451 318.801C101.019 319.596 104.11 320.634 104.11 320.634C104.11 320.634 108.111 318.334 116.9 318.576" stroke="#263238" stroke-linecap="round" stroke-linejoin="round"/>
<path d="M61.6348 321.49C61.6348 321.49 47.9353 321.732 42.4537 321.853" stroke="#263238" stroke-linecap="round" stroke-linejoin="round"/>
<path d="M102.283 324.628C102.358 324.064 102.608 323.539 102.998 323.124C103.388 322.71 103.898 322.429 104.457 322.32C106.396 322 107.652 324.395 107.652 324.395" stroke="#263238" stroke-linecap="round" stroke-linejoin="round"/>
<path d="M104.11 320.633L104.456 322.319" stroke="#263238" stroke-linecap="round" stroke-linejoin="round"/>
<path d="M106.059 322.319C106.059 322.319 112.224 319.51 118.182 320.02" stroke="#263238" stroke-linecap="round" stroke-linejoin="round"/>
<path d="M103.521 322.657C102.976 322.233 93.7186 319.38 84.245 321.489" stroke="#263238" stroke-linecap="round" stroke-linejoin="round"/>
<path d="M102.283 323.823C102.283 323.823 94.4893 322.345 87.7089 323.374" stroke="#263238" stroke-linecap="round" stroke-linejoin="round"/>
<path d="M106.925 323.391C112.098 321.951 117.512 321.586 122.832 322.319C128.072 323.097 133.366 323.45 138.662 323.374" stroke="#263238" stroke-linecap="round" stroke-linejoin="round"/>
<path d="M149.755 324.628H33.7161L35.1189 321.706C35.1189 321.706 46.082 322.726 54.7676 320.02C58.6038 318.827 64.5097 318.291 70.4328 318.36C74.1651 318.412 83.2491 318.447 88.8865 318.421C90.8955 318.421 92.4716 318.421 93.2163 318.369C93.5021 318.369 93.7878 318.369 94.0823 318.369C95.6899 318.349 97.2952 318.5 98.871 318.818C100.392 318.647 101.922 318.572 103.452 318.594C106.128 318.594 117.636 318.55 120.771 318.594C124.902 318.646 129.673 319.458 134.202 320.081L134.323 320.038V320.098C139.796 320.859 144.923 321.378 148.179 320.038L149.755 324.628Z" stroke="#263238" stroke-linecap="round" stroke-linejoin="round"/>
<path d="M118.641 256.675V259.744C116.296 261.338 113.868 262.807 111.367 264.144C105.816 259.052 105.028 249.378 105.028 249.378L118.641 256.675Z" fill="#263238"/>
<path d="M94.9828 238.995C88.4535 229.355 89.7871 211.329 98.1782 201.491C110.51 187.122 142.689 197.618 142.663 217.917C142.637 220.739 142.394 223.554 141.935 226.338C141.511 229.018 139.182 231.724 138.471 234.396C137.761 237.067 138.047 241.312 137.761 243.906C137.121 249.811 128.937 261.525 126.72 262.796C123.62 264.525 106.864 259.831 103.209 249.102" fill="#F2F6FA"/>
<path d="M94.9828 238.995C88.4535 229.355 89.7871 211.329 98.1782 201.491C110.51 187.122 142.689 197.618 142.663 217.917C142.637 220.739 142.394 223.554 141.935 226.338C141.511 229.018 139.182 231.724 138.471 234.396C137.761 237.067 138.047 241.312 137.761 243.906C137.121 249.811 128.937 261.525 126.72 262.796C123.62 264.525 106.864 259.831 103.209 249.102" stroke="#263238" stroke-linecap="round" stroke-linejoin="round"/>
<path d="M117.818 227.081C117.818 227.081 122.382 225.421 126.478 227.081" stroke="#263238" stroke-linecap="round" stroke-linejoin="round"/>
<path d="M135.822 227.081C135.822 227.081 139.147 225.421 141.372 227.081" stroke="#263238" stroke-linecap="round" stroke-linejoin="round"/>
<path d="M122.087 234.828C121.845 235.995 121.048 236.825 120.355 236.678C119.663 236.531 119.204 235.45 119.446 234.274C119.689 233.099 120.485 232.277 121.221 232.433C121.957 232.589 122.33 233.678 122.087 234.828Z" fill="#263238"/>
<path d="M136.774 234.828C136.532 235.995 135.735 236.825 135.042 236.678C134.35 236.531 133.891 235.45 134.133 234.274C134.375 233.099 135.164 232.277 135.908 232.433C136.653 232.589 137.017 233.678 136.774 234.828Z" fill="#263238"/>
<path d="M134.375 228.854C134.375 228.854 132.202 232.614 131.977 235.77C131.752 238.926 135.441 245.462 134.375 247.511C133.31 249.56 128.781 249.456 127.292 248.202" fill="#F2F6FA"/>
<path d="M134.375 228.854C134.375 228.854 132.202 232.614 131.977 235.77C131.752 238.926 135.441 245.462 134.375 247.511C133.31 249.56 128.781 249.456 127.292 248.202" stroke="#263238" stroke-linecap="round" stroke-linejoin="round"/>
<path d="M128.097 252.335C125.105 252.757 122.053 252.323 119.299 251.081" stroke="#263238" stroke-linecap="round" stroke-linejoin="round"/>
<path d="M101.53 230.107C101.53 230.107 103.66 228.049 106.171 228.853C108.682 229.657 109.141 236.487 109.141 236.487L110.969 234.542C110.969 234.542 110.284 230.678 113.021 225.257C115.757 219.836 114.389 213.456 114.389 213.456C114.389 213.456 119.109 215.047 120.745 218.695C120.745 218.695 122.529 214.822 120.745 211.856C120.745 211.856 128.097 213.681 129.924 219.153C129.924 219.153 131.371 215.047 130.877 212.998C130.877 212.998 135.856 214.588 137.683 219.378C137.683 219.378 139.346 215.73 138.627 212.764C138.627 212.764 140.636 214.493 141.407 219.611C142.907 216.491 143.348 212.967 142.663 209.574C142.663 209.574 145.261 212.539 145.676 215.047C145.676 215.047 147.789 207.75 135.432 197.946C123.075 188.142 101.919 190.364 98.6286 197.946C98.6286 197.946 99.7197 192.361 101.919 190.364C101.919 190.364 95.8575 193.061 95.9874 198.629C95.9874 198.629 90.6358 197.946 87.8993 201.369C89.5765 201.243 91.2628 201.318 92.9219 201.594C92.9219 201.594 85.6132 205.917 86.0721 216.188C86.5311 226.459 92.9219 241.26 92.9219 241.26L97.9272 239.799C97.9272 239.799 98.7238 232.813 101.53 230.107Z" fill="#263238"/>
<path d="M107.08 232.614C107.08 232.614 103.201 225.776 101.148 225.317C99.096 224.859 95.2078 227.6 96.1171 231.248C97.0264 234.897 97.7191 241.052 98.8622 241.735C100.005 242.418 101.832 246.525 103.66 245.384C103.9 245.26 104.108 245.082 104.267 244.864C104.426 244.645 104.532 244.393 104.576 244.127C104.619 243.86 104.6 243.587 104.519 243.33C104.438 243.072 104.298 242.837 104.11 242.643" fill="#F2F6FA"/>
<path d="M107.08 232.614C107.08 232.614 103.201 225.776 101.148 225.317C99.096 224.859 95.2078 227.6 96.1171 231.248C97.0264 234.897 97.7191 241.052 98.8622 241.735C100.005 242.418 101.832 246.525 103.66 245.384C103.9 245.26 104.108 245.082 104.267 244.864C104.426 244.645 104.532 244.393 104.576 244.127C104.619 243.86 104.6 243.587 104.519 243.33C104.438 243.072 104.298 242.837 104.11 242.643" stroke="#263238" stroke-linecap="round" stroke-linejoin="round"/>
<path d="M150.474 285.49C150.081 287.176 149.578 288.833 148.967 290.453" stroke="#263238" stroke-linecap="round" stroke-linejoin="round"/>
<path d="M147.573 293.755C146.192 296.897 144.169 299.715 141.632 302.029" stroke="#263238" stroke-linecap="round" stroke-linejoin="round"/>
<path d="M172.192 303.067C171.006 302.911 168.59 304.407 166.373 306.335" stroke="#263238" stroke-linecap="round" stroke-linejoin="round"/>
<path d="M164.745 307.865C163.013 309.654 161.671 311.548 161.671 312.758" stroke="#263238" stroke-linecap="round" stroke-linejoin="round"/>
<path d="M38.8339 298.406C38.8339 298.406 43.7612 299.772 43.8045 303.991" stroke="#263238" stroke-linecap="round" stroke-linejoin="round"/>
<path d="M57.2961 275.375C58.1141 276.289 58.8583 277.266 59.5217 278.297" stroke="#263238" stroke-linecap="round" stroke-linejoin="round"/>
<path d="M61.47 281.859C62.4392 283.96 62.9611 286.238 63.0028 288.55C63.0028 295.666 60.9504 299.79 60.9504 299.79" stroke="#263238" stroke-linecap="round" stroke-linejoin="round"/>
<path d="M87.2151 268.398C88.5216 269.611 89.9199 270.721 91.3977 271.718" stroke="#263238" stroke-linecap="round" stroke-linejoin="round"/>
<path d="M95.7449 274.312C100.17 276.542 105.894 278.22 111.834 276.741" stroke="#263238" stroke-linecap="round" stroke-linejoin="round"/>
<g opacity="0.2">
<path opacity="0.2" d="M105.028 198.309C106.575 198.072 108.14 197.971 109.704 198.006" stroke="#F2F6FA" stroke-linecap="round" stroke-linejoin="round"/>
<path opacity="0.2" d="M111.982 198.127C116.216 198.525 121.429 200.003 124.668 204.464" stroke="#F2F6FA" stroke-linecap="round" stroke-linejoin="round"/>
<path opacity="0.2" d="M115.307 194.842C115.307 194.842 123.248 194.929 128.937 198.897" stroke="#F2F6FA" stroke-linecap="round" stroke-linejoin="round"/>
<path opacity="0.2" d="M131.171 200.825C132.19 201.888 133.006 203.127 133.579 204.482" stroke="#F2F6FA" stroke-linecap="round" stroke-linejoin="round"/>
<path opacity="0.2" d="M102.976 201.689C102.976 201.689 110.769 204.43 113.48 209.332" stroke="#F2F6FA" stroke-linecap="round" stroke-linejoin="round"/>
<path opacity="0.2" d="M99.2002 204.465C100.889 206.801 102.104 209.444 102.777 212.245" stroke="#F2F6FA" stroke-linecap="round" stroke-linejoin="round"/>
<path opacity="0.2" d="M103.261 216.093C103.272 217.126 103.176 218.157 102.976 219.171" stroke="#F2F6FA" stroke-linecap="round" stroke-linejoin="round"/>
<path opacity="0.2" d="M93.9524 207.655C93.5513 208.672 93.2186 209.714 92.9565 210.776" stroke="#F2F6FA" stroke-linecap="round" stroke-linejoin="round"/>
<path opacity="0.2" d="M92.3415 213.793C91.8868 216.489 91.8517 219.239 92.2376 221.946" stroke="#F2F6FA" stroke-linecap="round" stroke-linejoin="round"/>
</g>
<path d="M196.153 340H305.437V324.628H1V340H62.5526" fill="#F2F6FA"/>
<path d="M196.153 340H305.437V324.628H1V340H62.5526" stroke="#263238" stroke-linecap="round" stroke-linejoin="round"/>
<path d="M188.307 340H172.789" stroke="#263238" stroke-linecap="round" stroke-linejoin="round"/>
</svg>
