<svg xmlns="http://www.w3.org/2000/svg" width="252" height="229" fill="none">
  <g stroke="#263238" stroke-linecap="round" stroke-linejoin="round">
    <path d="M17.791 129.406V28.268h8.602M17.797 145.94v-3.686M48.505 28.268h88.717v130.619H17.792M37.626 28.268h7.796"/>
    <path d="M132.73 32.755H22.284v121.65H132.73V32.755Z"/>
    <path d="M127.594 41.29v47.313H27.419V84.29M27.419 74.167V37.45h100.175M27.425 80.968V76.77M110.681 93.577h22.049M102.839 93.577h3.118M22.284 93.577h76.828"/>
    <path d="M71.957 88.602V86.33h9.233v1.293h-3.68v.98M22.475 134.351s1.53 1.16 2.608 8.175c0 0 1.855-11.207 4.104-11.381 2.249-.174 1.773 7.294 1.773 7.294s.371-3.682 2.133-3.514c1.762.168 0 7.601 0 7.601s2.116-5.798 4.116-5.693c2 .104-1.328 10.499-1.328 10.499s5.136-3.722 7.217-1.901c2.08 1.82-1.16 6.412-1.16 6.412s7.367-1.6 8.51 2.719M50.465 150.376s3.21-2.105 5.732-1.125c0 0-1.606-2.447 0-3.942 1.605-1.496 3.669 3.942 3.669 3.942s.232-9.108 3.443-8.65c3.21.458 0 8.65 0 8.65s5.732-5.079 7.106-3.31c1.374 1.768-.916 4.435-.916 4.435s3.437-1.102 5.959 1.467c0 0 3.842-3.925 8.114-4.488 0 0-2.84-8.244-1.46-9.908 1.38-1.664 3.871 7.195 3.871 7.195s1.096-5.763 4.684-6.203c0 0-2.991-1.63-2.104-4.088.886-2.458 5.013.58 5.013.58s-1.698-4.331.986-5.519c2.683-1.189 3.802 3.623 3.802 3.623s.748-5.044 3.901-4.765c3.153.278 2.133 6.087 2.133 6.087s2.973-4.638 4.567-4.145c3.182.939 2.214 8.232 2.214 8.232s4.446-3.09 5.588-1.669c1.234 1.536-4.637 5.484-4.637 5.484s4.411.487 7.152 3.056"/>
    <path d="M132.73 136.015s-.505-4.638-5.136-4.87c-4.631-.231 1.275 10.146 1.275 10.146s-3.819-3.16-5.187-2.186c-1.368.974 3.912 6.326 3.912 6.326s-2.533-2.319-5.216-1.618c-2.684.702 1.524 8.175 1.524 8.175a19.073 19.073 0 0 0-11.76 1.374"/>
  </g>
  <g stroke="#263238" stroke-linecap="round" stroke-linejoin="round">
    <path d="M178.798 198.224v-57.791h65.056"/>
    <path d="M241.489 146.411h-57.458v53.83"/>
    <path d="M195.531 175.769v-23.926h3.762v4.934h5.019v-2.215h4.486v2.684h6.057v-5.403h6.197v3.629h3.338v-2.11h5.982v14.094M224.39 155.472v20.297M221.533 158.51v3.623M221.533 164.731v14.882M214.855 157.252v13.369M215.087 175.027v4.163M208.798 157.252v7.479M208.798 169.329v15.757M204.312 156.777v18.575M199.293 156.777v7.026M199.293 167.456v16.703M195.531 179.19v7.542M187.77 186.733h45.662M224.39 186.732v-4.829M215.087 183.179v3.327M230.882 159.56h4.428M187.944 190.942h42.428M197.05 203.215v-5.623h7.859v3.623h6.324v7.067h3.622v-10.476h8.028v2.435h4.933M222.883 200.241v6.029M215.087 210.833v4.058M211.233 208.282v5.346M204.909 201.215v3.066"/>
  </g>
  <path fill="#5F0A61" stroke="#263238" stroke-linecap="round" stroke-linejoin="round" d="M241.686 17.079H102.787v95.99h138.899v-95.99Z"/>
  <path fill="#263238" d="M241.686 17.079H102.787v9.49h138.899v-9.49Z"/>
  <path fill="#fff" stroke="#263238" stroke-linecap="round" stroke-linejoin="round" d="m159.056 82.893-3.258-4.534c0-.947-.049-1.893-.145-2.835-.121-.423-2.098-3.536-2.144-4.273a5.025 5.025 0 0 0-.133-1.043s-1.015.255-1.003.875c.011.62.121 2.714.121 2.714s-2.643-1.543-2.938-1.948c-.296-.406-3.518-2.772-3.82-3.125-.301-.354-1.53-.377-1.675 0l.174.434-1.014.482.678 2.011a4.448 4.448 0 0 0-.348 1.427c.11.249.469 1.739.469 1.739s-.22.226-.191 1.015c.029.788 4.359 4.817 5.217 5.252 1.024.43 2.073.8 3.141 1.108l2.719 3.519 4.15-2.818Z"/>
  <path stroke="#263238" stroke-linecap="round" stroke-linejoin="round" d="M152.489 73.796a5.977 5.977 0 0 0-.371 3.664M144.229 69.158c.875.336 1.971 1.97 2.475 2.475.456.412.945.786 1.461 1.119M143.893 71.634c.719-.15 1.206.127 1.188.829-.017.701 1.536 1.768 1.536 1.768M144.015 74.8s.504-.9.904-.488c.4.412.527 1.467 1.263 1.687"/>
  <path fill="#757575" stroke="#263238" stroke-linecap="round" stroke-linejoin="round" d="M201.414 77.965s-11.436.707-13.957 1.74c-2.069.852-16.623 10.435-16.623 10.435s-8.561-6.459-11.048-8.697a4.72 4.72 0 0 0-1.524-.44l-1.304-.83-3.206 4.517.899 1.247s.145 2.011.544 2.516c5.321 6.684 15.511 16.042 17.041 16.963 1.53.922 15.105-7.113 15.105-7.113l2.521 14.784h40.487s-.105-25.945-1.809-27.933c-1.704-1.989-21.237-9.786-21.237-9.786l-5.889 2.597Z"/>
  <path fill="#fff" d="M215.087 68.579s-3.628 2.435-1.704 10.215c0 0-5.466 3.907-10.873-.035 0 0 1.246-6.203 0-7.45"/>
  <path stroke="#263238" stroke-linecap="round" stroke-linejoin="round" d="M215.087 68.579s-3.628 2.435-1.704 10.215c0 0-5.466 3.907-10.873-.035 0 0 1.246-6.203 0-7.45M227.816 86.36s-4.933 5.676-5.507 15.392"/>
  <path fill="#263238" d="M206.109 52.99s-3.234-.488-4.364 3.478a10.158 10.158 0 0 0 .747 7.258l5.947-5.583-2.33-5.154Z"/>
  <path fill="#fff" d="M213.98 70.944c4.168-4.974 7.112-13.265.852-16.575-12.079-6.39-16.073 6.093-14.044 17.688.626 3.577 5.483 1.983 9.036.69"/>
  <path stroke="#263238" stroke-linecap="round" stroke-linejoin="round" d="M213.98 70.944c4.168-4.974 7.112-13.265.852-16.575-12.079-6.39-16.073 6.093-14.044 17.688.626 3.577 5.483 1.983 9.036.69"/>
  <path stroke="#263238" stroke-linecap="round" stroke-linejoin="round" d="M205.541 60.132s1.994.539 2.498 1.605M202.655 59.604a1.534 1.534 0 0 0-1.496.081"/>
  <path fill="#263238" d="M205.506 62.88c-.035.353.122.66.348.683.226.023.441-.249.475-.58.035-.33-.121-.666-.347-.689-.227-.023-.441.226-.476.585ZM201.182 61.807c-.029.36.128.667.354.69.226.023.44-.25.475-.58.035-.33-.122-.66-.353-.684-.232-.023-.441.22-.476.574ZM212.12 65.204s-1.872 2.714-3.13 3.583a3.832 3.832 0 0 1-2.742.545s-1.605-1.982-3.947-2.011a4.538 4.538 0 0 0-2.011-.69l.133-3.027s-1.779 6.488-1.611 8.813c.168 2.324 5.883 3.936 8.74 3.287 2.858-.65 4.313-5.096 5.182-9.276.064-.348-.614-1.224-.614-1.224Z"/>
  <path stroke="#fff" stroke-linecap="round" stroke-linejoin="round" d="M200.637 68.816s2.261 1.084 4.272.829"/>
  <path fill="#263238" d="M213.992 56.937c.742-.58-1.159-3.073-2.226-3.02-1.066.052-6.3.249-6.3.249s-1.102-5.763 7.709-2.65c1.443.51 1.907 1.861 3.199 2.551 1.293.69 3.043 4.32 2.545 7.415-.499 3.096-2.151 8.528-5.147 10.158 0 0-1.032-.105-.406-.818 2.95-3.322-.139-9.572-.632-4.406l-1.037-.62a7.25 7.25 0 0 1 .173-1.687c.221-1.42-1.35-4.325 2.122-7.172Z"/>
  <path fill="#fff" d="M213.54 64.828s1.895-2.25 3.043-1.484c1.147.765.376 3.478-.238 4.157-.614.678-1.113.828-1.965 1.913-.852 1.084-1.924.719-1.739-.151"/>
  <path stroke="#263238" stroke-linecap="round" stroke-linejoin="round" d="M213.54 64.828s1.895-2.25 3.043-1.484c1.147.765.376 3.478-.238 4.157-.614.678-1.113.828-1.965 1.913-.852 1.084-1.924.719-1.739-.151"/>
  <path stroke="#263238" stroke-miterlimit="10" stroke-width=".5" d="M207.744 63.17c.063 1.257-.702 2.319-1.739 2.37-1.038.053-1.884-.921-1.948-2.18-.064-1.257.702-2.318 1.739-2.37 1.038-.053 1.872.921 1.948 2.18ZM202.399 62.027c.07 1.258-.701 2.32-1.709 2.377-1.009.058-1.884-.927-1.954-2.186-.069-1.258.707-2.319 1.739-2.37 1.032-.053 1.861.921 1.924 2.18Z"/>
  <path fill="#fff" d="M202.95 60.949c0 .58-3.002 4.006-3.037 4.76-.035.754 2.794.8 2.794.8"/>
  <path stroke="#263238" stroke-linecap="round" stroke-linejoin="round" d="M202.95 60.949c0 .58-3.002 4.006-3.037 4.76-.035.754 2.794.8 2.794.8"/>
  <path stroke="#263238" stroke-miterlimit="10" stroke-width=".5" d="M202.399 62.027s.899-.226 1.652.986M207.755 63.61l.974.145 5.466.383"/>
  <path fill="#fff" stroke="#263238" stroke-linecap="round" stroke-linejoin="round" d="m224.39 89.45-1.09-1.351s-9.181 1.049-13.238 6.522c0 0-7.535-3.56-14.317-1.826l-.197 2.429 14.833 8.876 5.796-2.412 8.213-12.239Z"/>
  <path fill="#5F0A61" d="m225.88 88.632-1.565 10.436s-8.636 3.791-10.433 6.841l-.429.058-2.029.284-1.095-.325a61.345 61.345 0 0 0-8.173-1.785 12.662 12.662 0 0 0-2.898-.111l-5.843-9.108s9.037-1.252 15.285.888l2.991-.21.11-.092c.898-.736 7.193-5.74 14.079-6.876Z"/>
  <g fill="#000" fill-opacity=".7">
    <path d="m213.337 103.532-1.536-8.03c.892-.73 7.187-5.733 14.073-6.87l-1.565 10.436s-8.636 3.792-10.433 6.841l-.429.058-.11-2.435ZM210.363 104.1l-.04 1.821a61.349 61.349 0 0 0-8.173-1.786 8.473 8.473 0 0 1 6.695-7.728l1.518 7.693Z" opacity=".3"/>
  </g>
  <path stroke="#263238" stroke-linecap="round" stroke-linejoin="round" d="m225.88 88.632-1.565 10.436s-8.636 3.791-10.433 6.841l-.429.058-2.029.284-1.095-.325a61.345 61.345 0 0 0-8.173-1.785 12.662 12.662 0 0 0-2.898-.111l-5.843-9.108s9.037-1.252 15.285.888l2.991-.21.11-.092c.898-.736 7.193-5.74 14.079-6.876Z"/>
  <path fill="#fff" stroke="#263238" stroke-linecap="round" stroke-linejoin="round" d="M213.302 108.454c-3.095-.197-8.984-4.939-8.984-4.939a8.692 8.692 0 0 0-1.472-2.429c-.841-.841.278-1.543.278-1.543s-.98-.632-1.536-.98c-.556-.347.417-1.263.417-1.263s4.203.58 4.637.423c.435-.157 4.469 2.452 5.095 2.522a4.64 4.64 0 0 0 2.423-.632c.417-.348 1.71-2.522 2.55-2.945.841-.424 2.319-.418 1.612.493-.708.91-.58 2.939-.928 3.223-.348.284-.921 3.334-.921 4.383l4.579 4.186-2.609 3.554-5.141-4.053Z"/>
  <path stroke="#263238" stroke-linecap="round" stroke-linejoin="round" d="M203.107 99.543a7.645 7.645 0 0 1 2.376.667M206.225 101.201s-.261 1.061-.33 1.224c-.07.162.863 1.2.73 1.675-.133.476.945 1.739.945 1.739M205.17 102.424a17.742 17.742 0 0 1-2.318-1.339"/>
  <path fill="#757575" stroke="#263238" stroke-linecap="round" stroke-linejoin="round" d="m202.927 76.023 2.005 4.04 8.243-4.568 1.814 4.047-8.41 5.34-1.618-4.18-3.269 3.147-1.107-5.09 2.342-2.736Z"/>
  <path fill="#757575" d="M228.563 85.136c2 2.14 9.112 17.828 9.796 27.933h-21.666v-.904l-2.365-1.386s1.466-5.16 5.645-4.354l1.218 1.739 2.695 2.029s4.73.122 6.103 1.485"/>
  <path stroke="#263238" stroke-linecap="round" stroke-linejoin="round" d="M228.563 85.136c2 2.14 9.112 17.828 9.796 27.933h-21.666v-.904l-2.365-1.386s1.466-5.16 5.645-4.354l1.218 1.739 2.695 2.029s4.73.122 6.103 1.485"/>
  <path stroke="#263238" stroke-linecap="round" stroke-linejoin="round" d="M223.886 110.216s2.626-3.785 6.486-2.185"/>
  <path stroke="#263238" stroke-linecap="round" stroke-linejoin="round" d="M222.883 104.1a45.7 45.7 0 0 1 2.249 4.829"/>
  <path fill="#757575" d="M187.341 98.285s-1.606-9.357-1.159-12.592l1.159 12.592Z"/>
  <path stroke="#263238" stroke-linecap="round" stroke-linejoin="round" d="M187.341 98.285s-1.606-9.357-1.159-12.592"/>
  <path fill="#757575" d="M184.13 89.34s.893 4.597 2.898 7.061l-2.898-7.061Z"/>
  <path stroke="#263238" stroke-linecap="round" stroke-linejoin="round" d="M184.13 89.34s.893 4.597 2.898 7.061"/>
  <path fill="#757575" d="M170.834 90.145s2.521 2.088.915 7.294l-.915-7.293Z"/>
  <path stroke="#263238" stroke-linecap="round" stroke-linejoin="round" d="M170.834 90.145s2.521 2.088.915 7.294"/>
  <path fill="#263238" d="M204.55 84.012a.546.546 0 1 1-1.092 0 .546.546 0 0 1 1.092 0ZM203.124 91.989a.545.545 0 1 0 0-1.09.545.545 0 0 0 0 1.09ZM202.301 108.726a.545.545 0 1 0 0-1.09.545.545 0 0 0 0 1.09Z"/>
  <path stroke="#263238" stroke-linecap="round" stroke-linejoin="round" d="M131.779 59h6.828l3.42-5.919-3.42-5.913h-6.828l-3.414 5.913 3.414 5.92ZM130.788 71.976l-3.414-5.914h-6.828M121.462 53.082h6.828l3.414-5.914-3.414-5.92h-6.828l-3.414 5.92 3.414 5.914ZM131.779 47.168h6.828l3.42-5.92-3.42-5.913h-6.828l-3.414 5.914 3.414 5.919Z"/>
  <path fill="#263238" d="M130.788 47.168a.921.921 0 1 1 .916.916.917.917 0 0 1-.916-.916ZM117.445 35.665a.916.916 0 1 0 0-1.832.916.916 0 0 0 0 1.832ZM129.872 71.976a.92.92 0 0 1 .565-.847.917.917 0 1 1-.565.847ZM120.546 66.978a.916.916 0 1 0 0-1.832.916.916 0 0 0 0 1.832ZM148.623 41.405a.925.925 0 0 1 .57-.852.92.92 0 1 1 .345 1.774.913.913 0 0 1-.847-.57.906.906 0 0 1-.068-.352ZM127.304 66.978a.916.916 0 1 0 0-1.832.916.916 0 0 0 0 1.832ZM141.088 41.405a.924.924 0 0 1 1.101-.904.921.921 0 1 1-1.101.904ZM130.788 59a.922.922 0 1 1 1.843-.01.922.922 0 0 1-1.843.01Z"/>
  <path stroke="#263238" stroke-linecap="round" stroke-linejoin="round" d="M142.027 41.406h7.517M131.704 59l-4.4 7.062M121.462 41.249l-4.017-6.5M113.591 87.588a8.78 8.78 0 0 1 2.051-1.379.74.74 0 0 0 .806.614c.412-.063.875-.47 1.159-.173.116.115.139.3.261.411.371.342 1.003-.394 1.42-.116.11.075.168.203.284.278a.731.731 0 0 0 .58 0 11.521 11.521 0 0 1 3.159-.272l4.863.035-.371-.192M113.33 91.647a.83.83 0 0 1 .837-.66.836.836 0 0 1 .803.7.961.961 0 0 0 .51-.58c.313.702 1.281.76 2.052.708l3.437-.244c1.032-.075 2.237-.26 2.701-1.159.51.93.713 1.997.58 3.049a9.533 9.533 0 0 1 1.234-2.121c.105.37.209.741.308 1.112 2.393-1.675 5.668-.58 8.566-.944M113.637 97.021a.435.435 0 0 1 .342-.47.797.797 0 0 0 .732.567c.11.006.22-.011.323-.05a2.321 2.321 0 0 0 1.02-.835.782.782 0 0 0 1.159-.197c.259.419.473.864.638 1.327.313-.8 1.373-.927 2.237-.921h6.955M167.402 33.92a7.628 7.628 0 0 0-4.637 1.433c-1.669 1.066-3.257 2.864-2.84 4.8.417 1.937 2.701 2.963 4.712 3.351 1.73.337 3.49.492 5.252.464a8.404 8.404 0 0 0 2.017-.215c.668-.189 1.317-.443 1.936-.76l4.486-2.11c.614-.29 1.304-.66 1.472-1.321.209-.818-.492-1.577-1.159-2.07a12.269 12.269 0 0 0-8.694-2.191"/>
  <path stroke="#263238" stroke-linecap="round" stroke-linejoin="round" d="M162.076 38.257a2.13 2.13 0 0 1 .985-.626 1.054 1.054 0 0 0 0 .684c.104.209.423.313.58.14.156-.175.191-.453.365-.366l.208.464c.284-.099.505-.33.783-.452.317-.107.654-.138.985-.093 2.489.128 4.984.052 7.46-.226M166.133 40.75a.787.787 0 0 1 .493-.516c-.134.145.029.394.226.43.199.003.398-.039.579-.123.22-.056.446-.087.673-.092l4.225-.29M167.936 46.64a22.023 22.023 0 0 1-19.574 16.019M148.431 61.401a8.768 8.768 0 0 0-2.162 1.89 2.002 2.002 0 0 1 1.971.707M166.544 62.781l.528 1.16.753-.893a.74.74 0 0 1 .279.428c.058.163.144.343.307.389.162.046.365-.174.243-.296a.896.896 0 0 0 .736.122c.11 0 .209-.081.319-.11.131-.029.266-.04.4-.035h7.831M166.91 69.158a.576.576 0 0 1 .737-.33.58.58 0 0 1 .242.168.638.638 0 0 0 .116.203.342.342 0 0 0 .458-.058c.127-.116.209-.273.342-.377.365-.284.887-.064 1.333.058.572.12 1.158.15 1.739.093l4.446-.232M167.049 74.086a.657.657 0 0 0 .655-.487.373.373 0 0 1 .301.29c.213-.132.395-.308.533-.516 2.864.035 5.731.035 8.602 0M167.043 77.768a.776.776 0 0 0 .979-.348c.182.147.309.351.36.58a.994.994 0 0 1 .788-.145c.11 0 .22.075.33.104.278.071.566.097.852.075l9.993-.145M140.212 101.207l4.539-.441a.267.267 0 0 0 .29-.342v-2.898a.395.395 0 0 0-.07-.273.376.376 0 0 0-.278-.098c-.986-.087-3.205-.58-4.057.087-.853.666-.418 2.974-.424 3.965Z"/>
  <path stroke="#263238" stroke-linecap="round" stroke-linejoin="round" d="M141.511 98.622c.058.272.11.544.168.823a6.86 6.86 0 0 1 2.092-.11M143.823 102.459a.421.421 0 0 0 .158.598.417.417 0 0 0 .225.046c.307-.058.551-.47.835-.342M140.699 95.775a.539.539 0 0 1 .536-.23.537.537 0 0 1 .426.398l1.09-.127M149.741 105.388h4.637a24.817 24.817 0 0 0 3.594-.215.575.575 0 0 0 .359-.151.578.578 0 0 0 .099-.405v-7.05c0-.081-7.101-.308-7.929.266-1.67 1.171-.76 5.752-.76 7.555Z"/>
  <path stroke="#263238" stroke-linecap="round" stroke-linejoin="round" d="m152.257 99.654 1.107.029a7.533 7.533 0 0 1-.933 2.127c-.151.203-.331.458-.221.684.58.092 1.258.145 1.623-.302.476-.579.058-1.489.418-2.139l.139 1.374.481.458c.125.14.282.247.458.313a.406.406 0 0 0 .481-.174M155.48 106.57c.365-.133.515.55.892.649.377.099.58-.4.899-.62a.75.75 0 0 1 .979.127M152.489 95.415c.347.087.208.667.469.916.261.25.696 0 .991-.238.296-.237.835-.342.945 0"/>
  <path fill="#BFBFBF" stroke="#263238" stroke-linecap="round" stroke-linejoin="round" d="M241.686 112.936H102.787v9.809h138.899v-9.809Z"/>
  <path fill="#263238" d="M215.986 116.797h-90.757v2.086h90.757v-2.086Z"/>
  <path fill="#5F0A61" stroke="#263238" stroke-linecap="round" stroke-linejoin="round" d="M176.699 117.857a1.522 1.522 0 0 1-3.019.298 1.519 1.519 0 0 1 .648-1.565 1.52 1.52 0 0 1 1.925.189c.286.286.446.674.446 1.078Z"/>
  <path stroke="#263238" stroke-linecap="round" stroke-linejoin="round" d="M237.188 115.962h-3.756v3.756h3.756v-3.756ZM230.888 115.962h-3.756v3.756h3.756v-3.756ZM113.631 115.921h-6.544v3.837h6.544v-3.837Z"/>
  <path stroke="#fff" stroke-linecap="round" stroke-linejoin="round" d="M107.012 21.821h24.692M238.168 21.734a1.46 1.46 0 0 1-.896 1.349 1.454 1.454 0 1 1-.553-2.798 1.447 1.447 0 0 1 1.449 1.449v0ZM232.435 21.82a1.45 1.45 0 0 1-1.732 1.422 1.444 1.444 0 0 1-1.138-1.138 1.454 1.454 0 0 1 .616-1.488 1.45 1.45 0 0 1 2.254 1.205v0ZM226.703 21.914a1.447 1.447 0 0 1-1.735 1.414 1.45 1.45 0 1 1 1.735-1.414v0Z"/>
  <path fill="#F2F6FA" d="M116.61 213.634h-13.725l-7.43-2.354-2.32-.736-.677 6.997-81.274.151s1.24-3.131 3.263-7.722c4.365-9.908 12.363-26.64 19.36-33.475 5.68-5.549 19.869-5.705 19.869-5.705a8.838 8.838 0 0 1 4.886-1.473c2.608.128 22.327 2.267 23.55 2.899a6.622 6.622 0 0 1 2.138 1.983s6.91-3.056 13.697-.302c6.787 2.754 18.663 39.737 18.663 39.737Z"/>
  <path fill="#000" fill-opacity=".7" d="m95.454 211.28-2.318-.736-.678 6.997-81.274.151s1.24-3.131 3.263-7.722c3.136-.076 6.672-.238 6.672-.238l1.82-5.954s2.857-3.021 6.427-1.241a2.23 2.23 0 0 1 .922-2.429c1.38-.916 7.037 2.023 7.037 2.023s2.724-5.218 3.651-8.632c.928-3.415 1.542 4.829 1.542 4.829s2.318-3.792 2.318-4.829c0-1.038 4.278 10.279 4.278 10.279s5.657.678 7.187 1.258c1.53.58 16.763 1.159 21.666 0 4.904-1.16-3.477 5.797-3.477 5.797s8.613 2.899 13.482.998c4.868-1.902 7.048-3.937 7.048-3.937l.434 3.386Z" opacity=".2"/>
  <path stroke="#263238" stroke-linecap="round" stroke-linejoin="round" d="M116.61 213.634h-13.725l-7.43-2.354-2.32-.736-.677 6.997-81.274.151s1.24-3.131 3.263-7.722c4.365-9.908 12.363-26.64 19.36-33.475 5.68-5.549 19.869-5.705 19.869-5.705a8.838 8.838 0 0 1 4.886-1.473c2.608.128 22.327 2.267 23.55 2.899a6.622 6.622 0 0 1 2.138 1.983s6.91-3.056 13.697-.302c6.787 2.754 18.663 39.737 18.663 39.737Z"/>
  <path stroke="#263238" stroke-linecap="round" stroke-linejoin="round" d="M90.98 195.754a30.826 30.826 0 0 1-4.11 4.702M82.853 203.836a42.215 42.215 0 0 1-20.135 7.971"/>
  <path fill="#F2F6FA" d="M108.235 201.859s2.11-1.31 3.959-.881c1.849.429 3.379 2.255 3.379 2.255s15.348-1.27 18.832-1.16c3.483.111 11.279 2.395 11.279 2.395s3.779-.765 4.185-.609c.406.157-.817 13.021-.817 13.021H99.205c-2.447 0-4.26-3.542-6.098-6.325a124.93 124.93 0 0 0 4.81-34.049"/>
  <path fill="#000" fill-opacity=".7" d="M121.914 216.869H99.216c-2.446 0-4.26-3.542-6.097-6.325a117.025 117.025 0 0 0 3.866-19.097s2.41 3.577.944 7.722l1.467-4.145s1.408 4.441 0 8.203c-1.409 3.763-2.411 4.841-2.411 4.841s1.738 2.273 3.582 1.664c1.843-.609 3.848 3.079 3.848 3.079s4.429.168 5.35 0c.423-.076 6.156 1.901 12.149 4.058Z" opacity=".2"/>
  <path stroke="#263238" stroke-linecap="round" stroke-linejoin="round" d="M108.235 201.859s2.11-1.31 3.959-.881c1.849.429 3.379 2.255 3.379 2.255s15.348-1.27 18.832-1.16c3.483.111 11.279 2.395 11.279 2.395s3.779-.765 4.185-.609c.406.157-.817 13.021-.817 13.021H99.205c-2.447 0-4.26-3.542-6.098-6.325a124.93 124.93 0 0 0 4.81-34.049"/>
  <path fill="#F2F6FA" stroke="#263238" stroke-linecap="round" stroke-linejoin="round" d="M79.741 161.798v12.383a53.496 53.496 0 0 1-4.869 2.951c-3.379 1.792-7.715 3.566-10.294 2.557-4.677-1.838-7.709-8.899-7.709-8.899 5.049-3.85 5.657-8.992 6.422-11.439l16.45 2.447Z"/>
  <path stroke="#263238" stroke-linecap="round" stroke-linejoin="round" d="M54.423 171.735s4.284 9.328 9.483 11.015c5.199 1.687 14.003-4.899 14.003-4.899M31.036 183.022s8.114 6.32 9.477 8.448c1.362 2.127 0 22.164 0 22.164"/>
  <path fill="#F2F6FA" d="M19.988 203.412c4.782-3.084 8.144.29 11.048.899s9.326-2.673 14.142 0c4.817 2.673 4.817 1.739 4.817 1.739s5.043 3.85 2.44 11.555l-41.269.075s-2.753-5.884 6.295-14.279"/>
  <path stroke="#263238" stroke-linecap="round" stroke-linejoin="round" d="M19.988 203.412c4.782-3.084 8.144.29 11.048.899s9.326-2.673 14.142 0c4.817 2.673 4.817 1.739 4.817 1.739s5.043 3.85 2.44 11.555l-41.269.075s-2.753-5.884 6.295-14.279"/>
  <path fill="#5F0A61" stroke="#263238" stroke-linecap="round" stroke-linejoin="round" d="m60.428 191.487 10.891 19.926.342 2.238-1.739-1.548-11.233-19.781a1.644 1.644 0 0 1 1.74-.835Z"/>
  <path fill="#F2F6FA" stroke="#263238" stroke-linecap="round" stroke-linejoin="round" d="M50.088 207.094a12.482 12.482 0 0 1 2.521-.458c.922 0 6.59-4.192 8.515-4.505 1.924-.313 5.384 2.557 7.146 3.015 1.762.458 1.652 2.754 2.684 3.67 1.032.916-.458 1.948-1.739.916a2.346 2.346 0 0 1-.464 2.075s.348 1.253 0 1.827H48.35s-.307-3.902 1.739-6.54Z"/>
  <path stroke="#263238" stroke-linecap="round" stroke-linejoin="round" d="m69.256 209.731-1.838-1.814-4.7-1.507M68.798 211.807l-2.811-1.264-3.843-.724M62.144 212.811l3.843.173 2.81.65M61.141 202.131c-1.739 1.525 0 3.131-.829 4.279-.829 1.148-1.739 1.49-1.031 3.322"/>
  <path fill="#5F0A61" d="M85.954 214.602h92.843a3.089 3.089 0 0 1-3.089 3.089H93.403a3.1 3.1 0 0 1-.951-.151l-6.614-2.133a.409.409 0 0 1-.288-.453.413.413 0 0 1 .404-.352Z"/>
  <g fill="#000" fill-opacity=".7">
    <path d="M178.797 214.602c0 .819-.325 1.605-.904 2.185l-.092.081a3.073 3.073 0 0 1-2.093.823H93.403c-.323 0-.644-.051-.951-.15l-6.614-2.133a.412.412 0 0 1 .128-.806h92.831Z" opacity=".2"/>
    <path d="M178.797 214.602c0 .819-.326 1.604-.904 2.185l-.092.081h-53.122a2.272 2.272 0 0 1-2.272-2.266h56.39Z" opacity=".2"/>
  </g>
  <path stroke="#263238" stroke-linecap="round" stroke-linejoin="round" d="M85.954 214.602h92.843a3.089 3.089 0 0 1-3.089 3.089H93.403a3.1 3.1 0 0 1-.951-.151l-6.614-2.133a.409.409 0 0 1-.288-.453.413.413 0 0 1 .404-.352v0Z"/>
  <path stroke="#263238" stroke-linecap="round" stroke-linejoin="round" d="M122.407 214.602a2.272 2.272 0 0 0 2.272 2.266h8.816"/>
  <path fill="#5F0A61" d="M195.415 176.483v.075l-10.804 37.598a2.504 2.504 0 0 1-2.278 1.71h-56.281a1.27 1.27 0 0 1-1.362-1.082 1.277 1.277 0 0 1 .064-.628l10.792-37.598a2.502 2.502 0 0 1 2.278-1.71h56.281a1.264 1.264 0 0 1 1.093.466 1.26 1.26 0 0 1 .217 1.169Z"/>
  <path fill="#F2F6FA" d="M195.415 176.483v.075l-10.804 37.598a2.504 2.504 0 0 1-2.278 1.71h-55.91v-.076l10.787-37.597a2.499 2.499 0 0 1 2.278-1.71h55.927Z" opacity=".4"/>
  <path stroke="#263238" stroke-linecap="round" stroke-linejoin="round" d="M195.415 176.483v.075l-10.804 37.598a2.504 2.504 0 0 1-2.278 1.71h-56.281a1.27 1.27 0 0 1-1.362-1.082 1.277 1.277 0 0 1 .064-.628l10.792-37.598a2.502 2.502 0 0 1 2.278-1.71h56.281a1.266 1.266 0 0 1 1.093.466 1.26 1.26 0 0 1 .217 1.169Z"/>
  <path fill="#F2F6FA" stroke="#263238" stroke-linecap="round" stroke-linejoin="round" d="M164.133 196.05a6.05 6.05 0 0 1-5.216 3.403c-2.365 0-3.762-1.832-3.113-4.093a6.02 6.02 0 0 1 5.466-4.099h.104a4.203 4.203 0 0 0-.266.695c-.667 2.244.695 4.059 3.025 4.094Z"/>
  <path stroke="#263238" stroke-linecap="round" stroke-linejoin="round" d="m126.713 214.022 10.532-36.698a1.46 1.46 0 0 1 1.327-.998h54.554"/>
  <path fill="#F2F6FA" d="M100.567 217.692h-77.67l.94-1.96s7.338.684 13.151-1.13c2.568-.8 6.521-1.16 10.486-1.113 2.498.034 8.578.058 12.351.04 1.345 0 2.4 0 2.898-.035h.58c1.076-.013 2.15.088 3.205.302a24.16 24.16 0 0 1 3.067-.151c1.79 0 9.494-.029 11.592 0 2.765.035 5.958.58 8.99.997l.08-.029v.041c3.664.51 7.095.858 9.275-.041l1.055 3.079Z"/>
  <path fill="#5F0A61" d="M100.567 217.692H40.362l1.223-2.105s3.286 1.919 6.497.58 6.446-2.07 11.743-2.65a18.706 18.706 0 0 1 3.478-.046 23.58 23.58 0 0 1 6.73 1.53s3.158-1.379 11.134-1.379c2.765.034 5.958.579 8.99.997l.08-.029v.04c3.664.511 7.095.858 9.275-.04l1.055 3.102Z" opacity=".4"/>
  <path fill="#5F0A61" d="m41.585 215.587-17.725.145-.939 1.959h17.44l1.224-2.104Z"/>
  <path stroke="#263238" stroke-linecap="round" stroke-linejoin="round" d="m40.86 216.827.725-1.241a12.413 12.413 0 0 0 4.967 1.032c2.597-.075 6.7-3.292 14.59-3.136M66.491 213.784c1.455.533 3.524 1.229 3.524 1.229s2.678-1.542 8.561-1.38"/>
  <path stroke="#263238" stroke-linecap="round" stroke-linejoin="round" d="M41.585 215.587s-9.17.162-12.839.244M68.792 217.691a1.824 1.824 0 0 1 1.455-1.547c1.298-.215 2.139 1.391 2.139 1.391M70.015 215.013l.232 1.13M71.32 216.143s4.126-1.884 8.114-1.542"/>
  <path stroke="#263238" stroke-linecap="round" stroke-linejoin="round" d="M69.62 216.369c-.364-.284-6.56-2.196-12.901-.782M68.792 217.152s-5.217-.991-9.755-.301M71.899 216.862a26.287 26.287 0 0 1 10.647-.719c3.507.522 7.05.758 10.596.708"/>
  <path stroke="#263238" stroke-linecap="round" stroke-linejoin="round" d="M100.567 217.692h-77.67l.94-1.96s7.338.684 13.151-1.13c2.568-.8 6.521-1.16 10.486-1.113 2.498.034 8.578.058 12.351.04 1.345 0 2.4 0 2.898-.035h.58c1.076-.013 2.15.088 3.205.302a24.16 24.16 0 0 1 3.067-.151c1.79 0 9.494-.029 11.592 0 2.765.035 5.958.58 8.99.997l.08-.029v.041c3.664.51 7.095.858 9.275-.041l1.055 3.079Z"/>
  <path fill="#263238" d="M79.741 172.123v2.058a53.51 53.51 0 0 1-4.869 2.951c-3.715-3.415-4.243-9.902-4.243-9.902l9.112 4.893Z"/>
  <path fill="#F2F6FA" d="M63.906 160.267c-4.37-6.464-3.478-18.552 2.139-25.15 8.253-9.635 29.792-2.597 29.775 11.016a36.806 36.806 0 0 1-.487 5.647c-.284 1.797-1.843 3.611-2.319 5.403-.475 1.791-.284 4.638-.475 6.377-.429 3.96-5.906 11.816-7.39 12.668-2.075 1.159-13.29-1.989-15.737-9.183"/>
  <path stroke="#263238" stroke-linecap="round" stroke-linejoin="round" d="M63.906 160.267c-4.37-6.464-3.478-18.552 2.139-25.15 8.253-9.635 29.792-2.597 29.775 11.016a36.806 36.806 0 0 1-.487 5.647c-.284 1.797-1.843 3.611-2.319 5.403-.475 1.791-.284 4.638-.475 6.377-.429 3.96-5.906 11.816-7.39 12.668-2.075 1.159-13.29-1.989-15.737-9.183"/>
  <path stroke="#263238" stroke-linecap="round" stroke-linejoin="round" d="M79.19 152.278s3.055-1.113 5.797 0M91.24 152.278s2.226-1.113 3.716 0"/>
  <path fill="#263238" d="M82.048 157.472c-.163.783-.696 1.339-1.16 1.241-.463-.099-.77-.823-.608-1.612.162-.788.695-1.339 1.188-1.234.493.104.742.834.58 1.605ZM91.878 157.472c-.162.783-.695 1.339-1.16 1.241-.463-.099-.77-.823-.608-1.612.163-.788.69-1.339 1.189-1.234.498.104.741.834.58 1.605Z"/>
  <path fill="#F2F6FA" d="M90.273 153.467s-1.455 2.521-1.606 4.638c-.15 2.116 2.319 6.499 1.606 7.873-.713 1.374-3.745 1.304-4.742.464"/>
  <path stroke="#263238" stroke-linecap="round" stroke-linejoin="round" d="M90.273 153.467s-1.455 2.521-1.606 4.638c-.15 2.116 2.319 6.499 1.606 7.873-.713 1.374-3.745 1.304-4.742.464M86.07 169.213a10.684 10.684 0 0 1-5.888-.841"/>
  <path fill="#263238" d="M68.288 154.307s1.426-1.38 3.106-.841c1.681.539 1.989 5.12 1.989 5.12l1.223-1.305s-.458-2.591 1.373-6.226c1.832-3.636.916-7.914.916-7.914s3.159 1.067 4.255 3.513c0 0 1.194-2.597 0-4.586 0 0 4.92 1.224 6.143 4.893 0 0 .968-2.753.638-4.127 0 0 3.333 1.066 4.556 4.278 0 0 1.113-2.446.632-4.435 0 0 1.344 1.16 1.86 4.592a10.682 10.682 0 0 0 .84-6.731s1.74 1.988 2.018 3.67c0 0 1.414-4.894-6.857-11.468s-22.431-5.084-24.634 0c0 0 .73-3.745 2.203-5.084 0 0-4.058 1.808-3.97 5.542 0 0-3.583-.458-5.414 1.838a14.018 14.018 0 0 1 3.361.151s-4.892 2.898-4.584 9.786c.307 6.887 4.584 16.813 4.584 16.813l3.35-.98s.534-4.684 2.412-6.499Z"/>
  <path fill="#F2F6FA" d="M72.003 155.989s-2.597-4.586-3.97-4.894c-1.374-.307-3.977 1.531-3.368 3.978.609 2.446 1.072 6.574 1.837 7.032.766.458 1.989 3.212 3.212 2.447a1.165 1.165 0 0 0 .613-.844 1.16 1.16 0 0 0-.312-.994"/>
  <path stroke="#263238" stroke-linecap="round" stroke-linejoin="round" d="M72.003 155.989s-2.597-4.586-3.97-4.894c-1.374-.307-3.977 1.531-3.368 3.978.609 2.446 1.072 6.574 1.837 7.032.766.458 1.989 3.212 3.212 2.447a1.165 1.165 0 0 0 .613-.844 1.16 1.16 0 0 0-.312-.994M101.048 191.447a26.501 26.501 0 0 1-1.009 3.327M99.106 196.989a16.493 16.493 0 0 1-3.976 5.548M115.584 203.233c-.794-.105-2.411.898-3.895 2.191M110.6 206.45c-1.159 1.2-2.058 2.47-2.058 3.281M26.323 200.108s3.299.915 3.328 3.744M38.68 184.663a15.602 15.602 0 0 1 1.49 1.959M41.475 189.011a11.211 11.211 0 0 1 1.026 4.488c0 4.771-1.374 7.536-1.374 7.536M58.707 179.985a23.09 23.09 0 0 0 2.8 2.225M64.416 183.95c2.962 1.496 6.793 2.62 10.77 1.629"/>
  <g stroke="#F2F6FA" stroke-linecap="round" stroke-linejoin="round" opacity=".2">
    <path d="M70.63 132.983a18.113 18.113 0 0 1 3.13-.203M75.284 132.862c2.834.267 6.323 1.258 8.491 4.249M77.51 130.659s5.314.058 9.123 2.718M88.128 134.671a8.102 8.102 0 0 1 1.611 2.452M69.256 135.25s5.216 1.838 7.03 5.126M66.729 137.112a14.818 14.818 0 0 1 2.393 5.217M69.447 144.909c.007.693-.057 1.384-.191 2.064M63.216 139.251a16.498 16.498 0 0 0-.666 2.092M62.138 143.367a17.815 17.815 0 0 0-.07 5.467" opacity=".2"/>
  </g>
  <path fill="#F2F6FA" d="M131.622 228h73.148v-10.308H1V228h41.2"/>
  <path stroke="#263238" stroke-linecap="round" stroke-linejoin="round" d="M131.622 228h73.148v-10.308H1V228h41.2M126.371 228h-10.387"/>
</svg>
