<svg xmlns="http://www.w3.org/2000/svg" width="251" height="228" fill="none">
  <path fill="#263238" d="M125.069 228c41.252 0 74.693-1.995 74.693-4.456 0-2.46-33.441-4.455-74.693-4.455-41.251 0-74.692 1.995-74.692 4.455 0 2.461 33.44 4.456 74.692 4.456Z"/>
  <g fill="#263238">
    <path d="M50.92 192.598c1.043.411 3.59.362 3.59.362s-.542-1.52-.591-1.614c-.543-1.064-2.325-2.822-3.765-2.644a1.82 1.82 0 0 0-.673.238 1.638 1.638 0 0 0-.507.469c-.13.187-.215.397-.25.617-.034.22-.017.443.05.657.234.886 1.255 1.559 2.146 1.915Z"/>
    <path d="M51.795 199.316c1.086.144 3.352-.455 3.536-.495.373 1.182.832 2.34 1.374 3.466a61.28 61.28 0 0 0 1 1.98c-.206-.272-.396-.495-.43-.554-.847-.892-3.057-2.164-4.394-1.644-.219.091-.414.224-.574.389a1.53 1.53 0 0 0-.35.568 1.433 1.433 0 0 0 .164 1.266c.494.817 1.673 1.223 2.634 1.346.962.124 2.917-.346 3.433-.495l.402.748c.663 1.198 1.32 2.386 1.934 3.569.212.416.408.837.609 1.253-.185-.248-.343-.451-.37-.495-.847-.891-3.063-2.164-4.4-1.649a1.717 1.717 0 0 0-.572.39 1.533 1.533 0 0 0-.35.568c-.071.209-.094.43-.066.648.028.218.105.428.228.617.494.822 1.678 1.223 2.634 1.351.956.129 2.716-.302 3.341-.455.185.431.375.866.543 1.292.098.297.223.569.305.871.081.302.179.59.271.882.147.564.304 1.148.435 1.698.092.386.174.757.26 1.128a39.322 39.322 0 0 0-.684-1.292c-.69-.99-2.667-2.564-4.069-2.237-.232.06-.447.164-.632.305a1.595 1.595 0 0 0-.441.514 1.447 1.447 0 0 0-.051 1.275c.353.876 1.45 1.44 2.38 1.698 1.015.282 3.258 0 3.552 0 .136.614.26 1.213.37 1.777a50.34 50.34 0 0 1 .542 3.317h.951a82.07 82.07 0 0 0-.668-3.465 85.668 85.668 0 0 0-.462-1.981 18.96 18.96 0 0 0 1.983-.851c.744.732 2.645 1.594 2.89 1.703a71.42 71.42 0 0 1-.772 1.668c-.543 1.104-1.02 2.079-1.466 2.911h1.032c.375-.767.793-1.639 1.228-2.609.266-.584.543-1.218.809-1.871.272.049 2.504.465 3.547.252.94-.198 2.086-.683 2.504-1.534a1.436 1.436 0 0 0 .057-1.272 1.558 1.558 0 0 0-.397-.541 1.735 1.735 0 0 0-.605-.346c-1.374-.421-3.471.99-4.242 1.951-.044.054-.462.713-.717 1.133.108-.267.217-.524.325-.802.218-.544.419-1.094.642-1.688.092-.287.19-.579.287-.871.098-.292.169-.609.256-.916.19-.718.337-1.45.472-2.193.544.173 2.396.767 3.368.708.973-.06 2.173-.386 2.716-1.168.139-.18.234-.384.28-.6a1.43 1.43 0 0 0-.013-.651 1.504 1.504 0 0 0-.303-.59 1.682 1.682 0 0 0-.54-.427c-1.292-.609-3.601.495-4.519 1.342-.06.054-.641.718-.956 1.089.076-.446.157-.891.217-1.347.18-1.312.315-2.643.456-3.96.044-.406.093-.812.142-1.218.184.064 2.39.812 3.476.743.967-.06 2.173-.382 2.716-1.164a1.49 1.49 0 0 0 .279-.6 1.43 1.43 0 0 0-.014-.652 1.503 1.503 0 0 0-.304-.589 1.687 1.687 0 0 0-.542-.426c-1.287-.609-3.596.495-4.514 1.341-.07.065-.912 1.02-1.086 1.273a46.89 46.89 0 0 1 .369-2.654c.195-1.17.474-2.328.837-3.465.081.03 2.384.822 3.498.752.961-.064 2.173-.386 2.716-1.168.138-.18.233-.384.28-.599a1.433 1.433 0 0 0-.013-.652 1.504 1.504 0 0 0-.303-.59 1.68 1.68 0 0 0-.54-.426c-1.293-.609-3.601.495-4.52 1.341-.07.065-.977 1.099-1.124 1.297 0-.069.038-.138.06-.208a19.18 19.18 0 0 1 1.515-3.302c.332-.589.68-1.133 1.038-1.658.413.188 2.303 1.025 3.314 1.064 1.01.04 2.205-.163 2.857-.886a1.53 1.53 0 0 0 .35-.568c.072-.209.094-.431.066-.649a1.476 1.476 0 0 0-.23-.617 1.643 1.643 0 0 0-.485-.478c-1.211-.733-3.645.149-4.655.881-.055.04-.543.495-.934.847.168-.233.33-.495.494-.698a35.474 35.474 0 0 1 1.765-2.203c.315-.362.609-.683.886-.99.505 0 2.558-.065 3.455-.446.896-.381 1.88-1.074 2.09-1.98.058-.213.065-.435.022-.65a1.499 1.499 0 0 0-.27-.603 1.67 1.67 0 0 0-.514-.451 1.84 1.84 0 0 0-.671-.222c-1.445-.138-3.156 1.664-3.683 2.738-.049.094-.576 1.629-.543 1.629h.032c-.277.282-.543.584-.869.925-.543.634-1.2 1.352-1.825 2.174-.69.881-1.32 1.798-1.89 2.747a19.225 19.225 0 0 0-1.63 3.312v.045c0-.386 0-1.485-.027-1.555-.163-1.173-1.239-3.341-2.668-3.584a1.884 1.884 0 0 0-.717.036 1.78 1.78 0 0 0-.638.301c-.187.14-.34.315-.446.513a1.452 1.452 0 0 0-.176.635c-.087.931.652 1.862 1.374 2.476.815.663 3.075 1.302 3.26 1.351a26.345 26.345 0 0 0-.956 3.594c-.136.708-.25 1.421-.359 2.144v-.678c-.168-1.174-1.244-3.342-2.672-3.585a1.884 1.884 0 0 0-.718.036 1.781 1.781 0 0 0-.638.301 1.6 1.6 0 0 0-.446.514 1.444 1.444 0 0 0-.176.634c-.087.931.658 1.862 1.375 2.451s2.645 1.178 3.156 1.327l-.114.827c-.174 1.326-.343 2.648-.544 3.96-.07.455-.163.901-.25 1.352v-.59c-.162-1.168-1.238-3.341-2.667-3.584a1.896 1.896 0 0 0-.715.039c-.233.059-.45.162-.637.302-.186.14-.338.314-.446.511a1.465 1.465 0 0 0-.179.633c-.087.926.652 1.862 1.374 2.446.723.584 2.461 1.124 3.064 1.302-.103.455-.212.911-.337 1.347-.092.297-.157.589-.271.881-.114.292-.207.584-.305.871-.217.545-.44 1.109-.668 1.639-.152.366-.31.713-.467 1.064.082-.45.212-1.342.217-1.421a5.696 5.696 0 0 0-.896-2.97c.011-.115.011-.231 0-.347a1.477 1.477 0 0 0-.235-.616 1.633 1.633 0 0 0-.49-.475 1.854 1.854 0 0 0-1.376-.235c-1.403.336-2.288 2.579-2.353 3.757 0 .069.043.832.081 1.307-.07-.277-.136-.545-.212-.832-.146-.564-.31-1.123-.483-1.727l-.293-.877c-.087-.292-.223-.594-.337-.891a29.207 29.207 0 0 0-.934-2.064c.543-.119 2.466-.565 3.259-1.104.793-.54 1.543-1.505 1.543-2.426a1.44 1.44 0 0 0-.13-.641 1.576 1.576 0 0 0-.404-.538 1.751 1.751 0 0 0-.61-.34 1.868 1.868 0 0 0-.709-.085c-1.44.144-2.716 2.238-2.955 3.391 0 .074-.103.921-.136 1.391a44.22 44.22 0 0 0-.635-1.232c-.647-1.184-1.337-2.362-2.021-3.54-.212-.361-.418-.728-.625-1.089.196-.04 2.488-.525 3.352-1.129.771-.535 1.586-1.411 1.575-2.347a1.44 1.44 0 0 0-.13-.639 1.567 1.567 0 0 0-.405-.536 1.748 1.748 0 0 0-.61-.339 1.88 1.88 0 0 0-.707-.085c-1.44.139-2.716 2.233-2.955 3.392 0 .084-.142 1.307-.158 1.618a54.562 54.562 0 0 1-1.298-2.396 26.524 26.524 0 0 1-1.418-3.331c.093 0 2.488-.495 3.373-1.134.766-.54 1.581-1.416 1.576-2.347a1.448 1.448 0 0 0-.131-.641 1.586 1.586 0 0 0-.406-.538 1.758 1.758 0 0 0-.611-.34 1.891 1.891 0 0 0-.71-.085c-1.44.144-2.716 2.238-2.95 3.392 0 .094-.152 1.405-.157 1.643 0-.064-.055-.129-.076-.198a18.51 18.51 0 0 1-.734-3.515 19.553 19.553 0 0 1-.135-1.906c.456-.049 2.542-.302 3.406-.777.863-.475 1.738-1.248 1.846-2.178a1.433 1.433 0 0 0-.05-.646 1.527 1.527 0 0 0-.333-.572 1.715 1.715 0 0 0-.558-.4 1.86 1.86 0 0 0-.688-.16c-1.45 0-2.944 1.956-3.346 3.075 0 .064-.169.708-.267 1.178v-.832c0-.99.071-1.916.136-2.727.044-.461.093-.877.147-1.263.418-.262 2.097-1.342 2.613-2.114.516-.772.912-1.836.543-2.708a1.558 1.558 0 0 0-.376-.554 1.738 1.738 0 0 0-.59-.366 1.863 1.863 0 0 0-1.397.039c-1.287.604-1.63 2.97-1.412 4.134 0 .099.505 1.643.543 1.629a33.423 33.423 0 0 0-.37 3.94c-.04 1.082-.01 2.164.087 3.243.104 1.207.324 2.403.658 3.574v.045a37.3 37.3 0 0 0-.962-1.287c-.847-.892-3.058-2.164-4.394-1.644-.22.091-.415.224-.574.389-.16.165-.279.358-.35.568a1.43 1.43 0 0 0-.067.649c.029.218.107.428.23.617.451.807 1.63 1.203 2.586 1.331Z"/>
    <path d="M76.669 193.108s.461-1.544.478-1.643c.179-1.169-.228-3.525-1.538-4.099a1.865 1.865 0 0 0-1.398-.005c-.22.089-.417.219-.579.382a1.543 1.543 0 0 0-.358.563c-.348.877.092 1.956.619 2.693.62.862 2.776 2.104 2.776 2.109ZM177.332 196.627c.907.362 3.113.312 3.113.312s-.473-1.316-.516-1.396c-.484-.92-2.016-2.444-3.259-2.291-.207.03-.404.099-.579.204a1.41 1.41 0 0 0-.436.401 1.24 1.24 0 0 0-.181 1.093c.207.787 1.092 1.366 1.858 1.677Z"/>
    <path d="M178.098 202.455c.935.124 2.906-.396 3.058-.441a23.31 23.31 0 0 0 1.196 3.015c.271.575.543 1.139.869 1.708a20.48 20.48 0 0 1-.37-.495c-.738-.777-2.656-1.876-3.802-1.431-.19.08-.359.195-.497.338a1.32 1.32 0 0 0-.302.492 1.235 1.235 0 0 0-.057.562c.024.189.092.371.199.534.423.713 1.45 1.065 2.281 1.174.831.108 2.531-.302 2.977-.416l.353.648c.543 1.035 1.141 2.065 1.673 3.094.185.362.353.723.543 1.085l-.32-.416c-.739-.773-2.657-1.877-3.803-1.431a1.47 1.47 0 0 0-.498.338 1.329 1.329 0 0 0-.304.493 1.245 1.245 0 0 0 .145 1.1c.424.708 1.45 1.059 2.281 1.168.832.109 2.363-.262 2.896-.396.163.376.326.752.462 1.124.092.252.195.495.271.752.076.258.152.495.234.763.125.495.26.99.375 1.485.081.336.152.653.222.99-.179-.361-.543-1.064-.586-1.119-.598-.866-2.314-2.218-3.531-1.936a1.56 1.56 0 0 0-.549.263 1.38 1.38 0 0 0-.383.445 1.253 1.253 0 0 0-.041 1.104c.305.763 1.255 1.248 2.059 1.486.886.247 2.841.024 3.086 0 .114.529.222 1.049.315 1.539.212 1.084.369 2.055.489 2.876h.825a66.716 66.716 0 0 0-.978-4.708 17.188 17.188 0 0 0 1.717-.737 11.111 11.111 0 0 0 2.51 1.485c-.228.495-.451.99-.668 1.446a67.575 67.575 0 0 1-1.272 2.524h.891c.326-.663.69-1.42 1.087-2.262a37.6 37.6 0 0 0 .7-1.624c.239.045 2.173.406 3.075.218.82-.168 1.809-.589 2.173-1.327a1.247 1.247 0 0 0 .045-1.105 1.366 1.366 0 0 0-.346-.47 1.522 1.522 0 0 0-.525-.301c-1.189-.361-3.009.871-3.677 1.693-.038.05-.402.619-.625.99a31.107 31.107 0 0 0 .831-2.158c.082-.253.163-.495.25-.758.087-.262.147-.529.223-.797a23.59 23.59 0 0 0 .407-1.896c.456.149 2.081.664 2.917.609.837-.054 1.891-.332 2.374-.99.123-.156.207-.335.249-.523a1.247 1.247 0 0 0-.009-.57 1.323 1.323 0 0 0-.265-.516 1.472 1.472 0 0 0-.475-.371c-1.119-.525-3.123.44-3.916 1.163-.055.045-.544.624-.831.946.065-.391.135-.778.19-1.169.152-1.138.271-2.292.396-3.465.038-.352.076-.703.12-1.055.163.055 2.075.708 3.015.644.836-.05 1.885-.332 2.373-.99.123-.157.207-.335.248-.524a1.248 1.248 0 0 0-.01-.57 1.314 1.314 0 0 0-.267-.516 1.449 1.449 0 0 0-.476-.37c-1.086-.525-3.118.44-3.916 1.163-.06.054-.788.886-.962 1.104.093-.772.19-1.545.321-2.297.167-1.023.408-2.036.722-3.03.076.025 2.07.713 3.031.649.837-.05 1.891-.332 2.374-.99a1.31 1.31 0 0 0 .249-.523 1.247 1.247 0 0 0-.009-.57 1.323 1.323 0 0 0-.265-.516 1.464 1.464 0 0 0-.475-.372c-1.119-.524-3.123.441-3.916 1.164-.065.059-.848.95-.978 1.124 0-.06.033-.119.049-.179.347-.987.788-1.945 1.32-2.861.282-.495.587-.99.896-1.441.359.164 1.999.891 2.874.921.874.03 1.912-.139 2.477-.767.137-.144.24-.312.301-.493a1.253 1.253 0 0 0-.142-1.097 1.42 1.42 0 0 0-.42-.415c-1.048-.634-3.156.128-4.036.767-.043.035-.489.436-.804.733.141-.203.283-.416.424-.604.543-.723 1.086-1.357 1.532-1.911.271-.317.543-.594.766-.852.44 0 2.221-.059 2.998-.391.777-.331 1.63-.93 1.815-1.723a1.25 1.25 0 0 0 .017-.564 1.31 1.31 0 0 0-.236-.523 1.432 1.432 0 0 0-.448-.39 1.59 1.59 0 0 0-.583-.191c-1.249-.124-2.716 1.436-3.189 2.371-.043.085-.499 1.411-.478 1.411h.028c-.234.243-.489.495-.756.802a34.357 34.357 0 0 0-1.58 1.887 23.643 23.643 0 0 0-1.63 2.381 17.243 17.243 0 0 0-1.401 2.876.205.205 0 0 1 0 .035v-1.347c-.147-.99-1.087-2.901-2.32-3.109a1.648 1.648 0 0 0-.618.033c-.201.05-.388.138-.549.259-.162.12-.294.27-.387.44-.094.17-.147.356-.157.545-.076.807.543 1.614 1.19 2.124.706.575 2.667 1.129 2.824 1.174a22.128 22.128 0 0 0-.831 3.113 41.784 41.784 0 0 0-.309 1.857v-.584c-.147-1.015-1.087-2.901-2.315-3.109a1.614 1.614 0 0 0-1.171.289 1.394 1.394 0 0 0-.388.441c-.094.17-.147.357-.157.547-.076.807.57 1.614 1.195 2.119.625.505 2.292 1.025 2.716 1.153l-.098.718c-.152 1.149-.299 2.297-.478 3.421-.06.396-.141.782-.217 1.168v-.495c-.141-.99-1.087-2.901-2.314-3.109a1.658 1.658 0 0 0-.62.031c-.201.05-.389.138-.551.259-.162.12-.294.271-.388.441-.094.17-.148.356-.158.547-.07.807.571 1.614 1.195 2.118a9.89 9.89 0 0 0 2.657 1.129c-.093.396-.185.792-.294 1.169-.076.257-.135.495-.233.767s-.18.495-.266.752c-.191.471-.381.961-.576 1.421-.136.317-.272.619-.408.926.071-.396.185-1.168.19-1.233a4.913 4.913 0 0 0-.776-2.559 1.903 1.903 0 0 0 0-.302 1.282 1.282 0 0 0-.205-.533 1.41 1.41 0 0 0-.424-.411 1.595 1.595 0 0 0-1.191-.205c-1.217.292-1.988 2.238-2.043 3.258 0 .059.038.718.076 1.133-.065-.242-.119-.495-.184-.722-.131-.495-.272-.99-.424-1.485-.081-.248-.168-.496-.25-.758-.081-.262-.195-.495-.293-.772a27.606 27.606 0 0 0-.81-1.792c.473-.099 2.135-.495 2.803-.956.669-.46 1.369-1.228 1.364-2.035a1.256 1.256 0 0 0-.113-.561 1.366 1.366 0 0 0-.357-.469 1.52 1.52 0 0 0-.537-.294 1.636 1.636 0 0 0-.623-.067c-1.249.124-2.336 1.941-2.558 2.941 0 .064-.093.802-.12 1.203-.179-.351-.358-.713-.543-1.064-.543-1.025-1.162-2.05-1.755-3.07-.184-.317-.358-.628-.543-.94.163-.04 2.173-.456 2.906-.99.663-.466 1.369-1.228 1.364-2.035a1.258 1.258 0 0 0-.113-.562 1.385 1.385 0 0 0-.357-.469 1.525 1.525 0 0 0-.538-.294 1.611 1.611 0 0 0-.622-.066c-1.249.123-2.336 1.94-2.564 2.94 0 .075-.119 1.134-.13 1.406a41.081 41.081 0 0 1-1.13-2.079 22.808 22.808 0 0 1-1.228-2.886c.076 0 2.173-.451 2.923-.99.668-.466 1.369-1.228 1.363-2.035a1.24 1.24 0 0 0-.113-.561 1.367 1.367 0 0 0-.357-.47 1.544 1.544 0 0 0-.537-.294 1.633 1.633 0 0 0-.622-.066c-1.25.124-2.336 1.941-2.559 2.941 0 .079-.13 1.222-.136 1.425 0-.054-.049-.113-.065-.168a16.141 16.141 0 0 1-.635-3.049 17.524 17.524 0 0 1-.12-1.654c.397-.045 2.205-.262 2.95-.673.744-.411 1.515-1.084 1.602-1.891a1.253 1.253 0 0 0-.043-.564 1.323 1.323 0 0 0-.293-.498 1.475 1.475 0 0 0-.49-.345 1.59 1.59 0 0 0-.602-.133c-1.261 0-2.554 1.693-2.901 2.668 0 .055-.147.609-.228 1.015v-.718c0-.866.065-1.658.125-2.361.032-.401.076-.762.119-1.099.364-.228 1.82-1.163 2.265-1.832.446-.668.799-1.594.473-2.346a1.35 1.35 0 0 0-.327-.482 1.503 1.503 0 0 0-.513-.318 1.617 1.617 0 0 0-1.214.032c-1.113.525-1.406 2.575-1.222 3.585 0 .089.435 1.425.457 1.415-.049.322-.098.669-.142 1.05a27.825 27.825 0 0 0-.179 2.366c-.037.938-.014 1.877.071 2.812.088 1.049.281 2.088.575 3.104a.205.205 0 0 0 0 .035 43.464 43.464 0 0 0-.831-1.114c-.738-.772-2.656-1.876-3.802-1.431-.19.08-.359.196-.497.339a1.33 1.33 0 0 0-.303.494 1.25 1.25 0 0 0 .143 1.098c.374.644 1.401.995 2.232 1.104Z"/>
    <path d="M199.664 197.069s.396-1.337.413-1.421c.152-.99-.201-3.06-1.331-3.555a1.624 1.624 0 0 0-1.213-.003c-.191.077-.363.19-.503.331-.14.141-.246.308-.31.489-.305.758.081 1.693.543 2.332.527.757 2.395 1.827 2.401 1.827ZM152.605 201.667a8.486 8.486 0 0 0 2.276.228s-.348-.965-.375-1.02c-.353-.678-1.477-1.791-2.39-1.682a1.172 1.172 0 0 0-.425.149 1.065 1.065 0 0 0-.32.295.909.909 0 0 0-.129.803c.117.282.299.537.534.749.236.212.518.375.829.478Z"/>
    <path d="M153.164 205.931a8.361 8.361 0 0 0 2.239-.322c.237.753.529 1.49.874 2.208.203.416.415.831.636 1.247a5.542 5.542 0 0 0-.272-.351c-.543-.57-1.939-1.377-2.787-1.045a1.1 1.1 0 0 0-.363.246.956.956 0 0 0-.222.359.909.909 0 0 0 .102.801c.192.245.441.449.729.597.288.148.609.237.939.26.737.002 1.47-.1 2.172-.302l.261.495c.418.757.837 1.485 1.222 2.262.136.262.261.53.386.797a8.229 8.229 0 0 0-.233-.307c-.544-.564-1.945-1.371-2.787-1.044-.14.057-.264.141-.366.246a.921.921 0 0 0-.118 1.165c.193.244.443.447.731.595.288.148.608.237.937.261a7.487 7.487 0 0 0 2.119-.292c.119.277.239.549.342.822.065.188.141.361.195.554.055.193.114.371.169.56.098.356.195.727.277 1.079.06.242.114.495.163.713a20.68 20.68 0 0 0-.429-.822c-.44-.634-1.695-1.624-2.586-1.416a1.143 1.143 0 0 0-.402.193c-.117.089-.212.2-.28.325a.923.923 0 0 0-.03.809c.152.268.365.503.626.688.26.186.562.317.884.386a8.11 8.11 0 0 0 2.255 0c.087.391.168.772.233 1.129.152.792.272 1.485.359 2.109h.597a44.932 44.932 0 0 0-.717-3.451c.432-.157.853-.337 1.261-.539a8.132 8.132 0 0 0 1.83 1.079c-.163.366-.326.728-.483 1.059a53.821 53.821 0 0 1-.934 1.852h.673c.245-.495.505-1.045.782-1.659a29.8 29.8 0 0 0 .511-1.188 8.077 8.077 0 0 0 2.254.159c.329-.05.641-.164.916-.335s.506-.395.676-.656a.914.914 0 0 0 .035-.808.988.988 0 0 0-.253-.344 1.112 1.112 0 0 0-.385-.219c-.875-.267-2.205.634-2.716 1.238-.027.034-.293.45-.456.718.07-.169.141-.332.211-.495.136-.342.267-.693.402-1.07.06-.183.125-.366.185-.554.06-.188.109-.386.163-.579.12-.456.217-.921.299-1.392a7.81 7.81 0 0 0 2.135.446c.331 0 .658-.066.958-.193.301-.128.567-.314.78-.545a.945.945 0 0 0 .178-.381.891.891 0 0 0-.008-.414.948.948 0 0 0-.194-.375 1.052 1.052 0 0 0-.345-.27c-.815-.381-2.282.326-2.863.851-.038.035-.408.456-.609.693.049-.282.098-.564.136-.856.114-.832.201-1.673.294-2.515.027-.262.054-.52.086-.772a8.261 8.261 0 0 0 2.206.47c.331-.002.658-.07.958-.198.3-.128.566-.314.78-.545a.915.915 0 0 0-.026-1.166 1.044 1.044 0 0 0-.343-.269c-.815-.386-2.282.322-2.863.851-.049.04-.581.649-.706.807a28.26 28.26 0 0 1 .234-1.683c.128-.749.309-1.49.543-2.218a8.225 8.225 0 0 0 2.221.495c.331-.001.658-.069.957-.197.299-.128.564-.314.776-.545a.919.919 0 0 0-.02-1.17 1.043 1.043 0 0 0-.344-.271c-.82-.381-2.287.327-2.868.856-.043.04-.619.693-.711.817 0-.039 0-.084.038-.128.25-.724.571-1.425.961-2.095.207-.371.429-.717.657-1.049.66.32 1.368.547 2.103.673.329.031.661-.004.974-.101.314-.098.6-.256.84-.463a.98.98 0 0 0 .232-.364.915.915 0 0 0-.105-.816 1.038 1.038 0 0 0-.317-.305c-.772-.466-2.314.094-2.955.559a21.75 21.75 0 0 0-.592.535 23.58 23.58 0 0 1 1.434-1.842l.543-.624a7.91 7.91 0 0 0 2.173-.282c.309-.109.588-.278.817-.497.229-.218.402-.479.508-.765a.901.901 0 0 0 .017-.413.96.96 0 0 0-.17-.384 1.05 1.05 0 0 0-.327-.286 1.15 1.15 0 0 0-.427-.14c-.918-.089-2.004 1.054-2.341 1.738 0 .059-.364 1.034-.342 1.034-.174.183-.359.377-.544.589-.353.401-.755.857-1.157 1.382-.434.56-.835 1.142-1.2 1.742a12.64 12.64 0 0 0-.983 2.075v.024-.99c-.109-.742-.793-2.119-1.695-2.272a1.176 1.176 0 0 0-.859.208 1.01 1.01 0 0 0-.286.322.922.922 0 0 0-.115.401c.013.301.098.596.249.864.151.269.365.504.625.69a8.039 8.039 0 0 0 2.064.861 16.163 16.163 0 0 0-.603 2.278c-.087.45-.163.901-.228 1.361v-.431c-.108-.742-.793-2.123-1.695-2.272a1.203 1.203 0 0 0-.455.021 1.12 1.12 0 0 0-.406.189 1.013 1.013 0 0 0-.285.324.925.925 0 0 0-.114.402c.012.301.096.597.248.866.151.268.365.503.627.688a7.602 7.602 0 0 0 1.999.842c0 .173-.049.351-.071.525-.114.841-.217 1.683-.353 2.505-.043.287-.103.574-.158.856v-.371c-.103-.743-.787-2.124-1.694-2.277a1.176 1.176 0 0 0-.858.211 1.024 1.024 0 0 0-.283.323.911.911 0 0 0-.114.401c.013.302.098.597.249.865.151.269.365.504.625.69a7.262 7.262 0 0 0 1.945.821c-.071.293-.136.58-.217.857-.055.188-.098.376-.169.559l-.195.555c-.141.346-.277.703-.424 1.039-.098.233-.195.451-.293.674.049-.287.13-.852.136-.901a3.619 3.619 0 0 0-.544-1.872.75.75 0 0 0 0-.222.92.92 0 0 0-.148-.391 1.051 1.051 0 0 0-.31-.302 1.164 1.164 0 0 0-.872-.149c-.886.218-1.451 1.639-1.494 2.386 0 .045.027.525.054.832a33.252 33.252 0 0 0-.445-1.629c-.06-.178-.12-.366-.185-.554-.065-.188-.141-.377-.212-.565a19.04 19.04 0 0 0-.592-1.312 7.568 7.568 0 0 0 2.053-.698c.274-.168.505-.387.677-.643.173-.256.283-.543.323-.842a.927.927 0 0 0-.082-.407 1.004 1.004 0 0 0-.258-.341 1.11 1.11 0 0 0-.388-.215 1.185 1.185 0 0 0-.451-.052c-.913.089-1.711 1.416-1.874 2.149 0 .049-.065.584-.087.881-.13-.257-.261-.52-.402-.782-.407-.748-.847-1.485-1.282-2.243l-.397-.688a8.176 8.176 0 0 0 2.124-.718c.275-.166.507-.386.68-.642.172-.256.282-.544.32-.843a.923.923 0 0 0-.082-.406.992.992 0 0 0-.256-.34 1.1 1.1 0 0 0-.386-.215 1.176 1.176 0 0 0-.449-.054c-.918.089-1.712 1.416-1.874 2.149 0 .059-.093.831-.098 1.03a22.298 22.298 0 0 1-.826-1.52 16.195 16.195 0 0 1-.902-2.114 8.144 8.144 0 0 0 2.141-.723c.275-.166.507-.385.68-.642.173-.256.282-.544.319-.843a.92.92 0 0 0-.08-.409 1.008 1.008 0 0 0-.258-.343 1.107 1.107 0 0 0-.389-.216 1.19 1.19 0 0 0-.452-.052c-.912.094-1.705 1.421-1.874 2.154 0 .059-.092.891-.098 1.044a1.174 1.174 0 0 0-.048-.129 11.726 11.726 0 0 1-.462-2.232 14.035 14.035 0 0 1-.093-1.203 8.02 8.02 0 0 0 2.173-.495c.294-.139.552-.334.754-.573a2 2 0 0 0 .42-.809.918.918 0 0 0-.247-.778 1.078 1.078 0 0 0-.36-.254 1.17 1.17 0 0 0-.442-.096c-.918 0-1.868 1.237-2.118 1.95 0 .04-.109.446-.169.748v-.53a20.35 20.35 0 0 1 .18-2.53 7.073 7.073 0 0 0 1.57-1.336c.19-.247.319-.528.379-.825a1.9 1.9 0 0 0-.037-.893.973.973 0 0 0-.237-.354 1.114 1.114 0 0 0-.374-.235 1.19 1.19 0 0 0-.889.024c-.814.387-1.032 1.887-.896 2.624 0 .065.321 1.045.337 1.035-.033.237-.071.495-.103.772a20.587 20.587 0 0 0-.131 1.733c-.024.685-.006 1.371.055 2.054.066.767.206 1.528.418 2.273v.024c-.147-.207-.57-.777-.608-.816-.544-.565-1.945-1.372-2.793-1.045a1.084 1.084 0 0 0-.365.246.954.954 0 0 0-.223.361.901.901 0 0 0 .105.804c.196.243.447.444.737.59.29.145.611.231.941.252Z"/>
    <path d="M168.945 201.989s.293-.99.304-1.044c.114-.738-.147-2.233-.978-2.599a1.188 1.188 0 0 0-.885-.001 1.09 1.09 0 0 0-.366.243.972.972 0 0 0-.226.357 1.899 1.899 0 0 0-.011.893c.068.295.205.573.402.815a7.763 7.763 0 0 0 1.76 1.336Z"/>
  </g>
  <g stroke="#263238" stroke-miterlimit="10">
    <path d="M198.898 28.858a7.42 7.42 0 0 0 .33 4.912c.666 1.566 1.852 2.905 3.391 3.83a9.53 9.53 0 0 0 5.199 1.332c1.842-.058 3.619-.638 5.084-1.659l3.439 3c-.089.327-.082.67.019.993.101.324.293.619.556.854l7.47 6.669c.2.177.437.316.696.41a2.313 2.313 0 0 0 1.628-.023c.256-.1.488-.247.682-.43.195-.182.348-.398.451-.635a1.789 1.789 0 0 0-.025-1.482 1.941 1.941 0 0 0-.472-.623l-7.485-6.673a2.196 2.196 0 0 0-.967-.486 2.327 2.327 0 0 0-1.103.02l-3.363-2.95a7.712 7.712 0 0 0 1.706-3.1 7.399 7.399 0 0 0 .176-3.155 7.65 7.65 0 0 0-1.164-2.978 8.416 8.416 0 0 0-2.324-2.345 9.294 9.294 0 0 0-3.133-1.355 9.734 9.734 0 0 0-3.464-.16 9.462 9.462 0 0 0-3.266 1.06 8.664 8.664 0 0 0-2.574 2.119 7.813 7.813 0 0 0-1.487 2.855Zm15.693 3.594c-.352 1.275-1.111 2.427-2.181 3.309a7.621 7.621 0 0 1-3.832 1.646 7.933 7.933 0 0 1-4.189-.571c-1.304-.564-2.395-1.468-3.135-2.597a6.19 6.19 0 0 1-1.023-3.746 6.288 6.288 0 0 1 1.432-3.633c.862-1.055 2.047-1.853 3.406-2.294a7.976 7.976 0 0 1 4.232-.184c1.874.432 3.484 1.525 4.476 3.038.992 1.512 1.285 3.322.814 5.032ZM34.624 126.964c-1.348.293-2.561.961-3.473 1.912-.912.95-1.477 2.136-1.617 3.392a5.641 5.641 0 0 0 .837 3.618c.684 1.098 1.726 1.975 2.982 2.509l-1 3.133a1.64 1.64 0 0 0-.72.356c-.202.173-.351.392-.431.634l-2.31 6.867c-.113.372-.063.77.14 1.109.203.339.542.593.947.708.409.103.845.058 1.217-.127.373-.185.651-.495.777-.863l2.292-6.867c.082-.246.09-.508.023-.758a1.417 1.417 0 0 0-.403-.663l.989-3.079a7.321 7.321 0 0 0 2.966-.056 6.94 6.94 0 0 0 2.648-1.222 6.19 6.19 0 0 0 1.806-2.146 5.631 5.631 0 0 0 .608-2.647 5.662 5.662 0 0 0-.71-2.626 6.246 6.246 0 0 0-1.887-2.086 6.994 6.994 0 0 0-2.692-1.137 7.305 7.305 0 0 0-2.968.039h-.021Zm2.814 10.792a5.994 5.994 0 0 1-3.18-.177 5.463 5.463 0 0 1-2.536-1.758 4.718 4.718 0 0 1-1.036-2.745 4.664 4.664 0 0 1 .81-2.807 5.357 5.357 0 0 1 2.387-1.923 5.971 5.971 0 0 1 3.156-.391c1.072.157 2.068.6 2.863 1.273a4.924 4.924 0 0 1 1.604 2.508 4.63 4.63 0 0 1-.66 3.771c-.758 1.128-1.976 1.937-3.387 2.249h-.021Z"/>
  </g>
  <g stroke="#263238" stroke-miterlimit="10">
    <path d="M215.732 81.34h-15.753c-1.023 0-2.004.37-2.727 1.029-.724.659-1.13 1.553-1.13 2.485V92.8c0 .932.406 1.826 1.13 2.485.723.66 1.704 1.03 2.727 1.03h10.973l-.543 4.95 5.106-4.95h.217c.507 0 1.008-.091 1.476-.268a3.897 3.897 0 0 0 1.251-.762c.359-.326.643-.714.837-1.14.193-.427.293-.884.293-1.345v-7.946c0-.462-.1-.919-.293-1.345a3.506 3.506 0 0 0-.837-1.14 3.897 3.897 0 0 0-1.251-.762 4.182 4.182 0 0 0-1.476-.268ZM35.764 100.151H46.44c.343 0 .683.062 1 .181.317.12.605.295.847.517.243.221.435.483.567.772.131.289.199.599.199.911v5.382c0 .312-.068.622-.2.911a2.376 2.376 0 0 1-.566.772c-.242.222-.53.397-.847.517a2.85 2.85 0 0 1-1 .181h-7.431l.385 3.346-3.482-3.346h-.147a2.746 2.746 0 0 1-1.847-.698 2.278 2.278 0 0 1-.765-1.683v-5.382c0-.631.275-1.237.765-1.683a2.746 2.746 0 0 1 1.847-.698ZM114.667 9.436h10.674c.693 0 1.358.251 1.848.698a2.28 2.28 0 0 1 .765 1.684v5.38a2.28 2.28 0 0 1-.765 1.685 2.748 2.748 0 0 1-1.848.697h-7.431l.385 3.347-3.482-3.347h-.146c-.693 0-1.358-.25-1.848-.697a2.28 2.28 0 0 1-.765-1.684v-5.382c0-.631.275-1.237.765-1.683a2.748 2.748 0 0 1 1.848-.698Z"/>
  </g>
  <g stroke="#263238" stroke-miterlimit="10">
    <path d="m100.163 20.367 26.118 66.516 56.087-65.466M204.645 63.779l-78.364 23.104 52.627 53.912"/>
    <path d="m65.973 138.696 60.308-51.813L44.076 74.28"/>
    <path fill="#263238" stroke-width=".5" d="M211.351 67.344c2.035-3.542.533-7.915-3.353-9.77-3.886-1.853-8.685-.485-10.719 3.057-2.034 3.541-.533 7.915 3.353 9.769 3.886 1.853 8.685.485 10.719-3.056Z"/>
    <path fill="#5F0A61" d="M206.943 63.487h-5.177c-.485 0-.951.176-1.294.488a1.595 1.595 0 0 0-.537 1.18v3.96c1.266.9 2.827 1.384 4.432 1.372 1.604-.012 3.158-.518 4.407-1.436v-3.896c0-.442-.193-.867-.537-1.18a1.924 1.924 0 0 0-1.294-.488ZM204.265 62.759c.521 0 1.03-.141 1.464-.405.433-.264.771-.639.97-1.077.199-.44.252-.922.15-1.388a2.349 2.349 0 0 0-.721-1.229 2.726 2.726 0 0 0-1.349-.657 2.872 2.872 0 0 0-1.522.137c-.482.181-.893.489-1.183.884a2.256 2.256 0 0 0-.444 1.334 2.3 2.3 0 0 0 .772 1.698 2.77 2.77 0 0 0 1.863.703Z"/>
    <path fill="#263238" stroke-width=".5" d="M187.04 141.018c1.693-3.687-.214-7.927-4.26-9.471-4.046-1.543-8.699.195-10.392 3.883-1.693 3.687.214 7.927 4.26 9.471 4.046 1.543 8.699-.195 10.392-3.883Z"/>
    <path fill="#5F0A61" d="M182.379 137.746h-5.177a1.98 1.98 0 0 0-.7.125 1.85 1.85 0 0 0-.594.36c-.17.155-.305.338-.397.541-.092.202-.14.418-.14.637v3.961c1.265.899 2.827 1.383 4.432 1.371 1.604-.012 3.157-.518 4.406-1.436v-3.896c0-.219-.047-.435-.139-.637a1.661 1.661 0 0 0-.397-.541 1.85 1.85 0 0 0-.594-.36 1.98 1.98 0 0 0-.7-.125ZM179.663 137.014c.521 0 1.03-.141 1.463-.405.434-.264.771-.639.971-1.078a2.21 2.21 0 0 0 .15-1.387 2.344 2.344 0 0 0-.721-1.229 2.718 2.718 0 0 0-1.349-.657 2.87 2.87 0 0 0-1.523.136c-.481.182-.892.49-1.182.885a2.253 2.253 0 0 0-.444 1.333c0 .316.068.628.201.919.132.292.326.556.571.779.244.223.535.4.854.521.32.12.663.183 1.009.183Z"/>
    <path fill="#263238" stroke-width=".5" d="M99.82 25.04c3.115 0 5.639-2.3 5.639-5.138s-2.524-5.139-5.638-5.139-5.639 2.3-5.639 5.139c0 2.838 2.525 5.139 5.639 5.139Z"/>
    <path fill="#5F0A61" d="M101.689 19.58h-3.672c-.344 0-.674.125-.918.347-.243.221-.38.523-.38.836v2.778a5.384 5.384 0 0 0 3.143.97 5.374 5.374 0 0 0 3.126-1.015v-2.758a1.139 1.139 0 0 0-.39-.82 1.368 1.368 0 0 0-.909-.338ZM99.81 19.035a2 2 0 0 0 1.038-.287c.307-.188.547-.453.688-.765.142-.31.179-.653.106-.983a1.662 1.662 0 0 0-.511-.872 1.929 1.929 0 0 0-.957-.466 2.037 2.037 0 0 0-1.08.097 1.842 1.842 0 0 0-.838.627c-.205.28-.315.61-.315.946 0 .451.197.885.547 1.204.35.32.826.498 1.322.498Z"/>
    <path fill="#263238" stroke-width=".5" d="M70.311 139.835c1.2-2.619-.158-5.628-3.032-6.721s-6.176.144-7.375 2.763c-1.2 2.619.158 5.629 3.032 6.722 2.874 1.092 6.176-.145 7.375-2.764Z"/>
    <path fill="#5F0A61" d="M66.978 137.509h-3.672a1.39 1.39 0 0 0-.5.089 1.312 1.312 0 0 0-.424.257 1.19 1.19 0 0 0-.282.386 1.094 1.094 0 0 0-.098.456v2.807c.897.64 2.006.984 3.145.975a5.347 5.347 0 0 0 3.129-1.02v-2.762c0-.156-.032-.31-.097-.455a1.178 1.178 0 0 0-.281-.385 1.306 1.306 0 0 0-.422-.258 1.403 1.403 0 0 0-.498-.09ZM65.076 136.988c.37 0 .731-.1 1.039-.287.307-.187.547-.453.688-.764.141-.311.178-.654.106-.984a1.663 1.663 0 0 0-.511-.872 1.935 1.935 0 0 0-.957-.466 2.044 2.044 0 0 0-1.08.097 1.842 1.842 0 0 0-.838.627c-.206.28-.315.609-.315.946 0 .452.197.885.547 1.204.35.319.826.499 1.321.499Z"/>
    <path fill="#263238" stroke-width=".5" d="M187.513 21.396c1.134-2.643-.298-5.623-3.198-6.657-2.9-1.034-6.171.27-7.305 2.914-1.134 2.643.298 5.624 3.198 6.657 2.9 1.034 6.171-.27 7.305-2.914Z"/>
    <path fill="#5F0A61" d="M184.144 19.18h-3.677c-.171 0-.34.03-.497.09-.158.059-.301.146-.421.256-.121.11-.217.24-.282.384a1.097 1.097 0 0 0-.099.452v2.812a5.389 5.389 0 0 0 3.146.97 5.376 5.376 0 0 0 3.128-1.014v-2.768c0-.155-.033-.309-.098-.452a1.19 1.19 0 0 0-.282-.384 1.301 1.301 0 0 0-.421-.257 1.409 1.409 0 0 0-.497-.09ZM182.243 18.658c.37 0 .731-.1 1.038-.287.307-.187.547-.453.688-.764a1.56 1.56 0 0 0 .107-.983 1.658 1.658 0 0 0-.512-.872 1.929 1.929 0 0 0-.957-.466 2.036 2.036 0 0 0-1.079.097 1.844 1.844 0 0 0-.839.627 1.6 1.6 0 0 0-.315.946c0 .451.197.884.548 1.204.35.319.825.498 1.321.498Z"/>
    <path fill="#263238" stroke-width=".5" d="M52.866 76.698c2.21-4.773-.244-10.276-5.482-12.29-5.238-2.015-11.276.222-13.486 4.995-2.21 4.774.244 10.277 5.481 12.291 5.238 2.015 11.276-.222 13.487-4.996Z"/>
    <path fill="#5F0A61" d="M46.797 72.418H40.09c-.63 0-1.232.227-1.677.632a2.072 2.072 0 0 0-.697 1.526v5.129c1.64 1.163 3.662 1.788 5.74 1.773 2.078-.014 4.09-.667 5.71-1.852v-5.05c0-.572-.249-1.121-.693-1.526a2.49 2.49 0 0 0-1.675-.632ZM43.315 71.467c.675 0 1.335-.182 1.896-.524a3.191 3.191 0 0 0 1.256-1.395 2.854 2.854 0 0 0 .194-1.796 3.035 3.035 0 0 0-.934-1.592 3.526 3.526 0 0 0-1.746-.851 3.72 3.72 0 0 0-1.971.177 3.364 3.364 0 0 0-1.531 1.145 2.917 2.917 0 0 0-.575 1.727c0 .825.36 1.616.999 2.199.64.583 1.507.91 2.412.91Z"/>
  </g>
  <g stroke="#263238" stroke-miterlimit="10">
    <path d="M76.87 35.739v-.09a6.45 6.45 0 0 0-1.6-3.507c-.891-1.006-2.08-1.758-3.425-2.166a7.748 7.748 0 0 0-4.226-.094c.307-.95.412-1.945.31-2.93-.202-1.972-1.22-3.8-2.845-5.114-1.626-1.314-3.74-2.015-5.911-1.962-2.172.054-4.24.858-5.786 2.25-1.546 1.392-2.453 3.267-2.537 5.246h-.375c-2.272 0-4.451.823-6.058 2.287-1.606 1.464-2.509 3.45-2.509 5.52-.002.7.1 1.396.304 2.07.288.905.892 1.7 1.72 2.264a5.062 5.062 0 0 0 2.87.86h25.304a5.155 5.155 0 0 0 1.902-.354 4.78 4.78 0 0 0 1.589-1.017c.447-.434.79-.949 1.01-1.51.219-.562.308-1.159.263-1.753ZM206.823 114.983a.2.2 0 0 1 0-.049 3.483 3.483 0 0 0-.863-1.898 4.037 4.037 0 0 0-1.853-1.172 4.152 4.152 0 0 0-2.281-.049 3.857 3.857 0 0 0 .174-1.584c-.081-1.086-.619-2.101-1.502-2.833-.883-.732-2.042-1.125-3.236-1.095-1.193.029-2.328.478-3.166 1.253-.838.774-1.315 1.815-1.331 2.902h-.201c-1.227.002-2.402.447-3.269 1.238-.867.79-1.354 1.863-1.354 2.98.002.376.056.751.163 1.114.154.49.479.92.927 1.226.447.306.991.47 1.55.467h13.657c.354.004.705-.06 1.031-.186a2.59 2.59 0 0 0 .863-.547c.243-.235.429-.514.548-.818a2.13 2.13 0 0 0 .143-.949ZM86.718 153.132v-.044a3.478 3.478 0 0 0-.863-1.899 4.024 4.024 0 0 0-1.853-1.171 4.153 4.153 0 0 0-2.281-.049 3.844 3.844 0 0 0 .168-1.584c-.116-1.024-.635-1.975-1.461-2.676a4.915 4.915 0 0 0-3.031-1.141c-1.213-.027-2.389.382-3.273 1.139-.885.757-1.407 1.8-1.453 2.905h-.201c-.608 0-1.21.108-1.772.32a4.676 4.676 0 0 0-1.503.914c-.43.392-.77.857-1.003 1.369a3.89 3.89 0 0 0-.35 1.615c0 .377.056.751.168 1.114.152.491.477.922.925 1.228.447.306.992.469 1.552.465h13.65c.355.003.706-.061 1.032-.188.326-.127.619-.314.861-.549.243-.235.429-.514.547-.818.119-.305.167-.628.141-.95ZM164.453 24.18a.166.166 0 0 0 0-.045 3.472 3.472 0 0 0-.862-1.9 4.015 4.015 0 0 0-1.855-1.17 4.153 4.153 0 0 0-2.281-.054 3.733 3.733 0 0 0 .168-1.58c-.08-1.085-.618-2.1-1.501-2.832-.883-.732-2.043-1.125-3.236-1.095-1.193.029-2.328.478-3.166 1.253-.839.774-1.316 1.814-1.331 2.902h-.201a5.002 5.002 0 0 0-2.05.441 4.565 4.565 0 0 0-1.624 1.222 4.054 4.054 0 0 0-.863 1.751 3.861 3.861 0 0 0 .077 1.918c.154.49.479.92.926 1.226.447.306.992.47 1.551.467h13.656c.356.005.708-.057 1.036-.183a2.58 2.58 0 0 0 .866-.549c.244-.235.431-.515.55-.82.118-.305.166-.63.14-.953Z"/>
  </g>
  <g stroke="#263238" stroke-miterlimit="10">
    <path fill="#fff" d="M167.654 123.572c23.053-21.01 23.053-55.073 0-76.083-23.053-21.009-60.43-21.009-83.483 0-23.053 21.01-23.053 55.073 0 76.083 23.053 21.009 60.43 21.009 83.483 0Z"/>
    <path fill="#5F0A61" d="m123.787 60.626 5.606 2.297 1.538 2.297 2.526.896.277 2.425-.978 1.401-1.961.387-4.205-1.535v-.495l2.38-.896-.837-2.678-3.802-1.278-1.679-2.044 1.135-.777Zm35.309 58.986-4.481-1.659-5.465-1.787h-4.346l-4.063-.767-4.487.891-2.52.129h-1.538l-2.944 1.534-2.825 1.02-3.802-2.168.978-3.579-2.38-.892h-2.803l-.418-1.148.277-2.302-.978-1.272-1.961.252-.543 1.277-2.379.129-2.102-2.297-.842-3.065 2.102-3.579 4.063.258 1.125.896h1.678l2.102-1.154 1.82.495 2.521 3.961.983-.129-.283-2.936-.787-1.515.277-2.425 5.182-2.045.701-4.723 2.243-1.663 1.82-2.936 1.402-.252 3.221-1.916.141-1.02-2.238.124-.424-1.02h-1.537l-2.385.495 1.119-1.659 4.889-1.277 1.119-1.148 1.961 2.807 1.266 1.148 1.961-.495-.842-1.658-2.944-1.916-3.363-3.466-3.498-2.173-3.363-.495-1.684-1.53-2.243-.495-.277.495-.283 3.703.544 1.273-1.261 4.089-2.792-2.03.419-1.787-2.934-1.287-1.271-1.382.701-3.188 4.063-2.683.283-3.064-1.543.128-.983-1.148-.419-1.916-.983-.129-.543 2.045-1.537.252-.701-4.455-1.141-.693-1.961-.768-2.238 1.02 2.798 2.426.543 2.173-5.047-3.465-3.503-3.465-.277-3.466-3.624-.95-2.803 1.663c-.675.373-1.371.713-2.086 1.02-1.106.24-2.23.405-3.362.495l-.543 2.173-3.222.124.283 1.406 5.182.767 2.662 2.678v4.456l-1.543 3.96.283 4.213-3.922 6.253-.842 9.322 1.222 5.391 1.82 4.089 2.102.253-.7-2.04-1.12-1.534-.7-2.807 1.26-.258 1.96 4.6 1.402 4.084v3.316l2.662 2.941 4.764 3.188 7.284 1.792 2.244 1.911 1.678 2.045 2.526 1.406 3.08.762 3.08-.124s-.135 1.278-.135 1.916c0 .639-1.961 2.807-1.961 2.807l-1.538 2.545 1.119 2.807 3.086 1.148 4.346 4.09 1.961.762v1.916l.244.891c10.897-1.605 21.077-5.973 29.377-12.604l.076-.926 3.803-6.257-1.82-1.149-7.725 1.926Zm14.591-50.432-1.542-2.43-1.962-2.808-.543-3.831 2.521.386.141-1.278-1.825-.128 1.543-.639 1.684-.891v-1.277l-1.684-2.045-.359-2.747c-8.141-9.08-19.315-15.49-31.82-18.25-12.505-2.762-25.657-1.725-37.456 2.952l3.226 2.084-1.999 2.297-2.661.496-.278 3.465-1.124.381-1.402 1.396.142 2.297 2.384.258-.983 2.168h2.385l4.058-4.723.424-2.044 3.922-.253.977-1.535 4.064-.38.423-2.174 2.939-.124s2.102-1.024 2.526-1.024c.809.16 1.604.373 2.379.638l2.103 1.535h2.944l2.52-1.406 3.222.257c.463.275.992.445 1.542.495.701 0 2.803-.896 2.803-.896l4.058 2.297 1.684 1.154v1.91l2.102.258.701-1.148 1.82.767-.141 1.02-4.199 1.02 2.379 2.812 5.041 2.554 2.102 2.55 3.086.257.7-1.277 1.119-.258-3.645-2.55-2.238-.257 1.82-.495-1.678-2.173 2.379-.124 3.08 1.53.701 3.064 1.542 1.659 1.261 3.703 3.085 2.044v4.213l3.221 1.916-.141 1.406-.418 1.659.837 2.297.282 1.148 2.379.386 1.125-2.173.722-1.39Zm1.82-12.872v.733l-.733 2.05.418 1.787 1.543.495v2.426l-1.679-.639-.413 6.916-1.678 2.807 1.119 3.58 1.82 1.53v6.895l1.825 5.362 1.961 4.084 3.221.767 1.119-2.554.456-.327c.304-2.219.456-4.452.457-6.688.017-10.368-3.268-20.519-9.458-29.218l.022-.005Zm-32.365-.797-9.235-3.703-4.063.13-.978 2.425-1.684-1.663-3.08.638-.282 4.218 2.52 1.659 1.826-2.426 2.064 1.9 4.346 3.466.842 3.703 3.639 4.213 5.889-.89-.142-1.917-1.26-2.173-.277-5.104 1.402-2.174-1.527-2.302Zm7.567 2.807-2.102-.495-1.82 1.406.978 3.703h1.825l1.119-4.614Zm13.037 2.426-4.764-2.297-.983-1.53-1.119.382.978 2.554.842 3.317 2.102.767.418-.495-1.26-1.916 3.645 1.278.141-2.06Zm-40.909 46.095-.544.495 4.205 1.149 1.684 1.787 2.662.257.978-1.406-3.222-.495-5.763-1.787Zm12.494 2.426-2.945.767.424 1.02h3.64l.7-1.02-1.26.124-.559-.891Z"/>
  </g>
  <path fill="#fff" stroke="#263238" stroke-linejoin="round" d="M167.712 152.256c-.05 1.392.134 2.783.543 4.124.647 1.881 1.288 3.649 1.934 4.357.646.708 1.684-.471.777-1.886-.907-1.416-.386-2.941.13-2.941s4.65 2.351 5.296 3.178c.647.827 2.586 2.946 2.586 1.53 0-1.416-2.971-4.357-3.487-5.183-.516-.827-3.363-4.357-3.363-4.357l-4.416 1.178Z"/>
  <path fill="#5F0A61" stroke="#263238" stroke-linejoin="round" d="m169.543 147.895 2.585 3.183-4.91 2.47-2.325-2.589 4.65-3.064Z"/>
  <path fill="#616161" stroke="#263238" stroke-linejoin="round" d="M142.148 213.846s-1.939 3.887-2.716 4.951c-.777 1.064-1.423 1.53-2.716 1.767-1.293.238-3.488.471-3.488 1.411a3.05 3.05 0 0 0 .544 1.649s6.073 1.178 8.148.708c2.075-.471 4.134-3.065 4.134-3.065l1.293.708 3.748-3.297a10.209 10.209 0 0 0-1.309-3.302c-1.163-2.119-1.809-3.648-1.809-3.648s-2.858 2.118-5.829 2.118Z"/>
  <path stroke="#263238" stroke-linejoin="round" d="M150.269 216.352c-1.358 1.163-4.498 3.96-5.356 4.648-1.086.876-3.314 2.629-5.019 2.629-1.228 0-4.656-.451-6.519-.708.083.245.2.48.348.698 0 0 6.073 1.178 8.148.708 2.075-.47 4.134-3.064 4.134-3.064l1.293.707 3.748-3.297a8.42 8.42 0 0 0-.777-2.321Z"/>
  <path fill="#263238" stroke="#263238" stroke-linejoin="round" d="M132.071 198.183s2.456 4.708 4.889 7.534c2.434 2.827 5.166 9.189 5.166 9.189s2.2.708 3.749-.357c.984-.73 1.705-1.713 2.069-2.821 0 0-3.102-8.718-4.264-12.486-1.163-3.767-4.009-12.015-5.302-14.015a45.65 45.65 0 0 0-3.205-4.258s-1.423 7.773-2.069 10.714c-.647 2.94-1.033 6.5-1.033 6.5Z"/>
  <path fill="#263238" stroke="#263238" stroke-linejoin="round" d="m120.566 144.008.13 7.535s-2.172 13.901-.385 20.966c1.787 7.064 4.65 14.852 4.65 14.852s-1.418 12.955-1.94 16.134c-.521 3.178-2.716 9.188-2.716 9.188s3.749 1.767 4.395 1.767h1.293s3.873-9.539 4.65-10.955c.777-1.416 3.487-4.119 4.394-10.01.908-5.892 1.168-12.02 1.168-12.02s6.459-7.54 8.013-9.902c1.553-2.361 4.003-7.188 4.003-7.188s2.847-6.713 2.456-13.188c-.392-6.476-2.581-9.773-2.581-9.773s-12.668 2.708-18.61 2.708c-5.943 0-8.92-.114-8.92-.114Z"/>
  <path fill="#5F0A61" stroke="#263238" stroke-miterlimit="10" d="M123.863 101.71s2.51 2.288 2.13 3.085c-.38.797-6.888 1.143-8.268 2.628-1.38 1.486-7.268 20.328-7.268 20.328s-7.019-1.832-7.643-2.288c-.625-.455-1.38-.113-1.755 1.258s-4.134 4.455-3.634 5.252c.5.797 7.393 3.882 10.777 4.684 2.061.483 4.158.826 6.275 1.024l-.5 5.827s6.388 3.312 18.795 1.827c12.407-1.485 17.557-3.881 17.557-3.881l-1.499-11.763s8.148 13.931 9.522 16.337c1.375 2.406 3.129 5.941 4.634 6.396 1.505.456 6.893-2.742 7.018-4.109.125-1.366-4.508-7.995-8.148-13.703-3.64-5.708-8.648-21.812-9.398-25.248-.749-3.436-2.759-6.282-4.889-6.738-2.129-.455-7.893-.46-10.402-.916-2.51-.455-6.014-4.222-7.643-9.02l-5.661 9.02Z"/>
  <path stroke="#263238" stroke-miterlimit="10" d="M119.366 112.339c.635-1.227 1.124-2.064 1.124-2.064M114.477 137.682s1.504-14.728 2.129-18.268a23.116 23.116 0 0 1 1.798-5.089M144.663 116.19a59.468 59.468 0 0 1-.5-2.375M148.802 129.691s-2.08-5.619-3.585-11.292"/>
  <path fill="#fff" stroke="#263238" stroke-miterlimit="10" d="M122.625 105.775c.603 1.178 2.537 3.559 8.398 3.465 6.915-.104 9.957-4.455 11.076-7.104a48.544 48.544 0 0 1-4.938-.435c-2.504-.456-6.013-4.223-7.643-9.02l-5.655 9.03s2.51 2.287 2.13 3.084c-.174.371-1.684.648-3.368.98Z"/>
  <path fill="#263238" stroke="#263238" stroke-linejoin="round" d="m128.551 95.943-1.705.99-2.983 4.762c.71.651 1.341 1.369 1.88 2.144 2.808-3.045 2.808-7.896 2.808-7.896Z"/>
  <path fill="#fff" stroke="#263238" stroke-miterlimit="10" d="M109.332 90.869s2.38 3.767 3.004 5.48c.916 2.1 2.66 3.81 4.889 4.797 2.255.911 3.385 1.713 5.389 1.827 2.874.164 5.008-3.54 6.138-6.396s1.13-3.312 1.13-3.312 1.749-2.396 1.749-4.911c0-2.515-3.129-5.366-6.638-6.852-3.509-1.485-5.888-3.653-9.522-.683-3.634 2.97-6.139 10.05-6.139 10.05Z"/>
  <path stroke="#263238" stroke-miterlimit="10" d="M115.596 94.517c.266.661.434 1.352.499 2.054 0 .802 1.13 1.143 2.13-.57M118.475 98.294s3.134.455 3.759-2.97"/>
  <path fill="#263238" d="M119.116 90.557c.293.455.304.945 0 1.098-.305.154-.75-.099-1.043-.554-.294-.455-.299-.95 0-1.099.298-.148.749.1 1.043.555ZM114.058 92.849c.294.455.305.95 0 1.098-.304.149-.749-.099-1.037-.554-.288-.455-.304-.95 0-1.099.304-.148.749.09 1.037.555Z"/>
  <path stroke="#263238" stroke-miterlimit="10" d="M115.525 89.032s.543-1.792 4.069-1.554M112.896 90.83s-1.967 0-1.836 1.434"/>
  <path fill="#263238" stroke="#263238" stroke-linejoin="round" d="M118.35 82.64s-1.63 1.714-3.509 3.427c-1.88 1.713-5.009 4.228-5.009 7.307 0 3.079.125 3.425.125 3.425s-5.389-2.51-6.893-5.94c-1.505-3.43 1.879-11.307 6.013-14.852s9.023-4.223 14.412-3.881c5.388.341 10.777 5.252 12.157 10.163 1.38 4.911-1.38 10.278-2.26 11.189-.88.91-3.634 1.03-3.634 1.03.588-1.737.718-3.576.38-5.367-.63-2.629-2.385-2.055-2.634-.916-.25 1.139-.375 1.6-.375 1.6s-2.505-1.6-5.139-3.313c-1.55-.99-2.8-2.322-3.634-3.871Z"/>
  <path fill="#5F0A61" stroke="#263238" stroke-linejoin="round" d="m94.546 128.781 3.379-4.57 1.63 1.485-5.009 3.085Z"/>
  <path fill="#263238" stroke="#263238" stroke-linejoin="round" d="m106.491 122.043-7.87.029-7.503-13.168 7.872-.03 7.501 13.169Z"/>
  <path fill="#fff" stroke="#263238" stroke-linejoin="round" d="M92.417 115.3s2.004 1.713 2.129 2.515 1.124 3.881 1.63 5.366c.505 1.486 2.379 3.085 2.379 3.085l1.63-1.486-.63-2.514c.6-.486 1.228-.944 1.879-1.372.755-.455 1.63-1.713 1.13-1.713-.38.011-.758.051-1.13.119 0 0 1.13-1.599.38-1.713-.497-.074-1-.113-1.504-.119 0 0 1.249-1.366.249-1.485s-4.514 1.599-4.514 1.599l-1.499-2.059a2.893 2.893 0 0 0-1.04-.311 2.985 2.985 0 0 0-1.09.088Z"/>
  <path fill="#fff" stroke="#263238" stroke-linejoin="round" d="M92.83 114.547a.693.693 0 0 0-.23.319.634.634 0 0 0-.01.38.688.688 0 0 0 .212.328c.103.089.23.15.37.176.23.074.478.093.719.054.24-.039.466-.134.655-.276.625-.684 3.129-2.51 3.129-3.426 0-.916-1.125.114-1.63.346a25.722 25.722 0 0 0-3.216 2.099Z"/>
  <path stroke="#263238" stroke-linejoin="round" d="M100.31 117.469s-3.76 1.712-4.39 2.4M101.439 119.3s-3.004 1.252-4.008 2.282"/>
  <path fill="#5F0A61" stroke="#263238" stroke-linejoin="round" d="m101.684 125.35-1.75-1.371-5.388 4.797 3.634 2.515s3.379-2.971 3.504-5.941Z"/>
  <path stroke="#757575" stroke-linejoin="round" d="M136.336 151.9s-5.818 12.48-7.111 17.683c-1.293 5.203-3.748 15.075-3.748 15.664M127.932 155.435l3.363 3.528"/>
  <path fill="#616161" stroke="#263238" stroke-linejoin="round" d="M120.311 212.317s-.777 1.53-4.525 2.233c-3.748.703-7.236-.585-7.882-.471-.647.114-1.293 1.179-1.293 2.124 0 .946 4.525 3.53 6.334 4.357 1.441.558 2.966.915 4.525 1.059h.641l-.125 1.178c1.05.382 2.128.696 3.227.941.986.133 1.989.133 2.976 0 .393-1.506.61-3.046.647-4.594a13.07 13.07 0 0 1 1.162-4.708l-5.687-2.119Z"/>
  <path stroke="#263238" stroke-linejoin="round" d="M124.58 221.896c-2.547-.302-7.246-.99-10.098-1.98-3.02-1.04-6.404-3.158-7.839-4.099a2.204 2.204 0 0 0-.032.371c0 .941 4.525 3.53 6.334 4.357 1.441.558 2.966.916 4.525 1.059h.641l-.125 1.178c1.05.382 2.128.696 3.227.941.986.133 1.989.133 2.976 0 0 0 .207-.752.391-1.827Z"/>
</svg>
