<svg width="73" height="70" viewBox="0 0 73 70" fill="none" xmlns="http://www.w3.org/2000/svg">
<path d="M63.1415 37.9167C63.1354 41.8355 62.2307 45.7033 60.4937 49.2362C58.7567 52.7691 56.2314 55.8775 53.1033 58.3333H19.4037C15.8606 55.5518 13.0979 51.9386 11.3738 47.8315C9.64969 43.7244 9.02049 39.2575 9.54504 34.8485C10.0696 30.4395 11.7307 26.2324 14.3732 22.6204C17.0156 19.0085 20.5531 16.1096 24.6549 14.1949C28.7566 12.2803 33.2887 11.4123 37.8274 11.6721C42.3662 11.9319 46.7633 13.3111 50.6077 15.6806C54.4521 18.0502 57.6183 21.3328 59.8103 25.2215C62.0022 29.1102 63.1484 33.478 63.1415 37.9167V37.9167Z" stroke="black" stroke-width="4" stroke-linecap="round" stroke-linejoin="round"/>
<path d="M48.2037 26.25L36.2535 43.75M39.241 43.75C39.241 44.3269 39.0658 44.8908 38.7375 45.3704C38.4092 45.8501 37.9427 46.2239 37.3967 46.4446C36.8508 46.6654 36.2501 46.7232 35.6706 46.6106C35.0911 46.4981 34.5588 46.2203 34.1409 45.8124C33.7231 45.4045 33.4386 44.8848 33.3233 44.319C33.208 43.7532 33.2672 43.1668 33.4933 42.6338C33.7194 42.1009 34.1024 41.6454 34.5937 41.3249C35.085 41.0044 35.6626 40.8333 36.2535 40.8333C37.0458 40.8333 37.8057 41.1406 38.366 41.6876C38.9263 42.2346 39.241 42.9765 39.241 43.75Z" stroke="black" stroke-width="4" stroke-linecap="round" stroke-linejoin="round"/>
</svg>
