<!-- Generated by IcoMoon.io -->
<svg version="1.1" xmlns="http://www.w3.org/2000/svg" width="33" height="32" viewBox="0 0 33 32">
<title>installation</title>
<path fill="none" stroke-linejoin="round" stroke-linecap="round" stroke-miterlimit="4" stroke-width="1.8286" stroke="#000" d="M28.369 27.334c-0.248 0.242-0.543 0.438-0.869 0.572l-0.018 0.007c-0.309 0.129-0.669 0.203-1.046 0.203s-0.736-0.075-1.065-0.21l0.019 0.007c-0.344-0.141-0.639-0.337-0.887-0.579l0.001 0.001-7.116-6.947c-1.19 0.603-2.595 0.956-4.082 0.956-0.712 0-1.406-0.081-2.072-0.234l0.062 0.012c-1.876-0.433-3.48-1.409-4.682-2.751l-0.007-0.008c-1.18-1.317-1.96-3.014-2.137-4.887l-0.003-0.034c-0.024-0.239-0.038-0.516-0.038-0.796 0-1.399 0.342-2.717 0.948-3.877l-0.022 0.046 5.941 5.853 3.415-0.667 0.683-3.334-5.996-5.76c1.163-0.591 2.535-0.938 3.989-0.938 0.264 0 0.526 0.011 0.784 0.034l-0.034-0.002c1.863 0.16 3.628 0.891 5.040 2.088 1.373 1.164 2.372 2.732 2.814 4.519l0.012 0.059c0.458 1.99 0.192 4.074-0.751 5.894l7.116 6.947c0.256 0.242 0.462 0.533 0.606 0.858l0.007 0.017c0.136 0.306 0.215 0.663 0.215 1.039s-0.079 0.733-0.222 1.055l0.007-0.017c-0.151 0.342-0.357 0.633-0.612 0.874l-0.001 0.001z"></path>
</svg>
