<!-- Generated by IcoMoon.io -->
<svg version="1.1" xmlns="http://www.w3.org/2000/svg" width="33" height="32" viewBox="0 0 33 32">
<title>speed</title>
<path fill="none" stroke-linejoin="round" stroke-linecap="round" stroke-miterlimit="4" stroke-width="1.8286" stroke="#000" d="M28.866 17.334c-0.004 1.885-0.45 3.665-1.241 5.243l0.031-0.068c-0.829 1.659-1.969 3.047-3.353 4.139l-0.026 0.019h-15.406c-1.591-1.253-2.843-2.868-3.641-4.723l-0.030-0.078c-0.58-1.344-0.918-2.908-0.918-4.551 0-0.488 0.030-0.969 0.088-1.441l-0.006 0.057c0.261-2.125 1.050-4.027 2.23-5.622l-0.023 0.032c1.217-1.645 2.797-2.953 4.626-3.82l0.074-0.032c1.554-0.741 3.376-1.174 5.3-1.174 0.254 0 0.506 0.008 0.756 0.022l-0.034-0.002c2.177 0.127 4.176 0.792 5.895 1.863l-0.053-0.031c1.754 1.090 3.175 2.56 4.176 4.302l0.031 0.059c0.958 1.666 1.523 3.663 1.523 5.792 0 0.004 0 0.008 0 0.013v-0.001z"></path>
<path fill="none" stroke-linejoin="round" stroke-linecap="round" stroke-miterlimit="4" stroke-width="1.8286" stroke="#000" d="M22.037 12l-5.463 8M17.939 20c0 0.264-0.080 0.521-0.23 0.741s-0.363 0.39-0.613 0.491c-0.155 0.064-0.334 0.102-0.523 0.102-0.094 0-0.186-0.009-0.275-0.027l0.009 0.002c-0.275-0.054-0.513-0.184-0.7-0.366l0 0c-0.185-0.18-0.317-0.413-0.372-0.674l-0.002-0.009c-0.017-0.078-0.026-0.168-0.026-0.26 0-0.184 0.038-0.36 0.107-0.519l-0.003 0.008c0.103-0.244 0.279-0.452 0.503-0.599 0.214-0.14 0.475-0.224 0.757-0.224 0.001 0 0.002 0 0.002 0h-0c0.363 0 0.71 0.14 0.966 0.39s0.4 0.589 0.4 0.943z"></path>
</svg>
